<svg width="52" height="50" viewBox="0 0 52 50" fill="none" xmlns="http://www.w3.org/2000/svg">
<path d="M48.3498 28.1035L37.0755 28.1035L37.0755 2.00033L48.3498 2.00034C48.8482 2.00034 49.3261 2.21188 49.6785 2.58845C50.0309 2.96501 50.2289 3.47573 50.2289 4.00827L50.2289 26.0956C50.2289 26.6281 50.0309 27.1388 49.6785 27.5154C49.3261 27.892 48.8482 28.1035 48.3498 28.1035Z" fill="#6F0000" stroke="#BA007C" stroke-width="3" stroke-linecap="round" stroke-linejoin="round"/>
<path d="M37.0756 28.1032L27.712 48.1826C25.7253 48.1826 23.82 47.3364 22.4152 45.8302C21.0104 44.3239 20.2212 42.281 20.2212 40.1509L20.2212 34.1271L5.73116 34.1271C5.20009 34.1285 4.67489 34.008 4.19083 33.7737C3.70677 33.5395 3.27507 33.1969 2.92473 32.769C2.57439 32.341 2.31351 31.8376 2.15963 31.2926C2.00575 30.7476 1.96243 30.1736 2.03257 29.6092L4.84163 5.51395C4.95528 4.54668 5.39322 3.65676 6.07376 3.0102C6.7543 2.36364 7.63097 2.00461 8.54022 2.00006L37.0756 2.00007" stroke="#BA007C" stroke-width="3" stroke-linecap="round" stroke-linejoin="round"/>
</svg>
