<?xml version="1.0" encoding="UTF-8"?><svg id="Capa_1" xmlns="http://www.w3.org/2000/svg" viewBox="0 0 20 20"><defs><style>.cls-1{fill:#ee7265;}.cls-1,.cls-2,.cls-3,.cls-4,.cls-5{stroke-width:0px;}.cls-2{fill:#765fa6;}.cls-3{fill:#4cb37d;}.cls-4{fill:#46b7ea;}.cls-5{fill:#e95025;}</style></defs><g id="Capa_1-2"><path id="path0_fill" class="cls-3" d="M6.7,20c1.8,0,3.3-1.5,3.3-3.3v-3.3h-3.3c-1.8,0-3.3,1.5-3.3,3.3s1.4,3.3,3.3,3.3Z"/><path id="path1_fill" class="cls-2" d="M3.3,10c0-1.8,1.5-3.3,3.3-3.3h3.4v6.7h-3.3c-1.9-.1-3.4-1.6-3.4-3.4h0Z"/><path id="path1_fill-2" class="cls-5" d="M3.3,3.3c0-1.8,1.5-3.3,3.4-3.3h3.3v6.7h-3.3c-1.9,0-3.4-1.5-3.4-3.4h0Z"/><path id="path2_fill" class="cls-1" d="M10,0h3.3c1.8,0,3.3,1.5,3.3,3.3s-1.5,3.3-3.3,3.3h-3.3V0Z"/><path id="path3_fill" class="cls-4" d="M16.7,10c0,1.8-1.5,3.3-3.3,3.3s-3.4-1.5-3.4-3.3,1.5-3.3,3.3-3.3,3.4,1.5,3.4,3.3Z"/></g></svg>