<svg width="1723" height="235" viewBox="0 0 1723 235" fill="none" xmlns="http://www.w3.org/2000/svg">
<g filter="url(#filter0_d_689_2194)">
<rect x="3.5" y="1.5" width="266" height="228" rx="23.5" stroke="#BA007C"/>
<g clip-path="url(#clip0_689_2194)">
<rect x="19" y="17" width="248" height="150" rx="8" fill="#BA007C"/>
<path d="M39.8722 144L41.5426 133.818H42.5369L40.8665 144H39.8722ZM35.2386 141.176L35.3977 140.182H42.9943L42.8352 141.176H35.2386ZM36.2926 144L37.9631 133.818H38.9574L37.2869 144H36.2926ZM35.8352 137.636L35.9943 136.642H43.5909L43.4318 137.636H35.8352ZM45.205 144V133.818H48.7646C49.4739 133.818 50.0589 133.941 50.5196 134.186C50.9803 134.428 51.3234 134.754 51.5487 135.165C51.7741 135.573 51.8868 136.026 51.8868 136.523C51.8868 136.96 51.8089 137.321 51.6531 137.607C51.5007 137.892 51.2985 138.117 51.0466 138.283C50.798 138.448 50.5279 138.571 50.2362 138.651V138.75C50.5478 138.77 50.861 138.879 51.1759 139.078C51.4907 139.277 51.7542 139.562 51.9664 139.933C52.1785 140.304 52.2845 140.759 52.2845 141.295C52.2845 141.806 52.1685 142.265 51.9365 142.673C51.7045 143.08 51.3383 143.403 50.8378 143.642C50.3373 143.881 49.686 144 48.884 144H45.205ZM46.4379 142.906H48.884C49.6894 142.906 50.2611 142.75 50.5992 142.439C50.9405 142.124 51.1112 141.743 51.1112 141.295C51.1112 140.951 51.0234 140.633 50.8477 140.341C50.6721 140.046 50.4218 139.811 50.097 139.635C49.7722 139.456 49.3878 139.366 48.9436 139.366H46.4379V142.906ZM46.4379 138.293H48.7249C49.0961 138.293 49.4308 138.22 49.7291 138.074C50.0307 137.928 50.2694 137.723 50.445 137.457C50.624 137.192 50.7135 136.881 50.7135 136.523C50.7135 136.075 50.5577 135.696 50.2462 135.384C49.9346 135.069 49.4408 134.912 48.7646 134.912H46.4379V138.293ZM54.8681 144H53.5755L57.3141 133.818H58.5868L62.3255 144H61.0328L57.9902 135.429H57.9107L54.8681 144ZM55.3453 140.023H60.5556V141.116H55.3453V140.023ZM68.7247 134.872L69.3611 135.389L65.6224 142.966L65.0258 142.389L68.7247 134.872ZM67.1934 144.139C66.4444 144.139 65.8064 143.935 65.2794 143.528C64.7524 143.117 64.3497 142.522 64.0713 141.743C63.7929 140.961 63.6537 140.016 63.6537 138.909C63.6537 137.809 63.7929 136.869 64.0713 136.09C64.353 135.308 64.7574 134.711 65.2843 134.3C65.8146 133.886 66.451 133.679 67.1934 133.679C67.9359 133.679 68.5706 133.886 69.0976 134.3C69.6279 134.711 70.0322 135.308 70.3106 136.09C70.5923 136.869 70.7332 137.809 70.7332 138.909C70.7332 140.016 70.594 140.961 70.3156 141.743C70.0372 142.522 69.6345 143.117 69.1075 143.528C68.5805 143.935 67.9425 144.139 67.1934 144.139ZM67.1934 143.045C67.9359 143.045 68.5126 142.687 68.9236 141.972C69.3345 141.256 69.54 140.235 69.54 138.909C69.54 138.027 69.4456 137.277 69.2566 136.657C69.071 136.037 68.8026 135.565 68.4513 135.24C68.1032 134.915 67.684 134.753 67.1934 134.753C66.4576 134.753 65.8826 135.116 65.4683 135.842C65.054 136.564 64.8468 137.587 64.8468 138.909C64.8468 139.791 64.9396 140.54 65.1253 141.156C65.3109 141.773 65.5777 142.242 65.9257 142.563C66.277 142.885 66.6996 143.045 67.1934 143.045ZM77.6147 134.872L78.2511 135.389L74.5124 142.966L73.9158 142.389L77.6147 134.872ZM76.0834 144.139C75.3344 144.139 74.6964 143.935 74.1694 143.528C73.6424 143.117 73.2397 142.522 72.9613 141.743C72.6829 140.961 72.5437 140.016 72.5437 138.909C72.5437 137.809 72.6829 136.869 72.9613 136.09C73.243 135.308 73.6474 134.711 74.1743 134.3C74.7047 133.886 75.341 133.679 76.0834 133.679C76.8259 133.679 77.4606 133.886 77.9876 134.3C78.5179 134.711 78.9222 135.308 79.2006 136.09C79.4824 136.869 79.6232 137.809 79.6232 138.909C79.6232 140.016 79.484 140.961 79.2056 141.743C78.9272 142.522 78.5245 143.117 77.9975 143.528C77.4705 143.935 76.8325 144.139 76.0834 144.139ZM76.0834 143.045C76.8259 143.045 77.4026 142.687 77.8136 141.972C78.2245 141.256 78.43 140.235 78.43 138.909C78.43 138.027 78.3356 137.277 78.1466 136.657C77.961 136.037 77.6926 135.565 77.3413 135.24C76.9932 134.915 76.574 134.753 76.0834 134.753C75.3476 134.753 74.7726 135.116 74.3583 135.842C73.944 136.564 73.7368 137.587 73.7368 138.909C73.7368 139.791 73.8297 140.54 74.0153 141.156C74.2009 141.773 74.4677 142.242 74.8157 142.563C75.167 142.885 75.5896 143.045 76.0834 143.045ZM81.6972 144L86.2511 134.991V134.912H81.0011V133.818H87.5239V134.972L82.9898 144H81.6972ZM97.8892 137H96.6562C96.5833 136.645 96.4557 136.334 96.2734 136.065C96.0944 135.797 95.8757 135.571 95.6172 135.389C95.362 135.204 95.0786 135.064 94.767 134.972C94.4555 134.879 94.1307 134.832 93.7926 134.832C93.1761 134.832 92.6176 134.988 92.1172 135.3C91.62 135.611 91.2239 136.07 90.929 136.677C90.6373 137.283 90.4915 138.027 90.4915 138.909C90.4915 139.791 90.6373 140.535 90.929 141.141C91.2239 141.748 91.62 142.207 92.1172 142.518C92.6176 142.83 93.1761 142.986 93.7926 142.986C94.1307 142.986 94.4555 142.939 94.767 142.847C95.0786 142.754 95.362 142.616 95.6172 142.434C95.8757 142.248 96.0944 142.021 96.2734 141.753C96.4557 141.481 96.5833 141.17 96.6562 140.818H97.8892C97.7964 141.339 97.6273 141.804 97.3821 142.215C97.1368 142.626 96.8319 142.976 96.4673 143.264C96.1027 143.549 95.6934 143.766 95.2393 143.915C94.7886 144.065 94.3063 144.139 93.7926 144.139C92.9242 144.139 92.152 143.927 91.4758 143.503C90.7997 143.079 90.2677 142.475 89.88 141.693C89.4922 140.911 89.2983 139.983 89.2983 138.909C89.2983 137.835 89.4922 136.907 89.88 136.125C90.2677 135.343 90.7997 134.74 91.4758 134.315C92.152 133.891 92.9242 133.679 93.7926 133.679C94.3063 133.679 94.7886 133.754 95.2393 133.903C95.6934 134.052 96.1027 134.271 96.4673 134.559C96.8319 134.844 97.1368 135.192 97.3821 135.603C97.6273 136.011 97.7964 136.476 97.8892 137Z" fill="#242426"/>
</g>
<path d="M20.4091 201V189.364H24.3409C25.25 189.364 25.9962 189.519 26.5795 189.83C27.1629 190.136 27.5947 190.559 27.875 191.097C28.1553 191.634 28.2955 192.246 28.2955 192.932C28.2955 193.617 28.1553 194.225 27.875 194.756C27.5947 195.286 27.1648 195.703 26.5852 196.006C26.0057 196.305 25.2652 196.455 24.3636 196.455H21.1818V195.182H24.3182C24.9394 195.182 25.4394 195.091 25.8182 194.909C26.2008 194.727 26.4773 194.47 26.6477 194.136C26.822 193.799 26.9091 193.398 26.9091 192.932C26.9091 192.466 26.822 192.059 26.6477 191.71C26.4735 191.362 26.1951 191.093 25.8125 190.903C25.4299 190.71 24.9242 190.614 24.2955 190.614H21.8182V201H20.4091ZM25.8864 195.773L28.75 201H27.1136L24.2955 195.773H25.8864ZM34.0734 201.182C33.2855 201.182 32.5942 200.994 31.9995 200.619C31.4086 200.244 30.9465 199.72 30.6131 199.045C30.2836 198.371 30.1188 197.583 30.1188 196.682C30.1188 195.773 30.2836 194.979 30.6131 194.301C30.9465 193.623 31.4086 193.097 31.9995 192.722C32.5942 192.347 33.2855 192.159 34.0734 192.159C34.8612 192.159 35.5506 192.347 36.1415 192.722C36.7362 193.097 37.1984 193.623 37.5279 194.301C37.8612 194.979 38.0279 195.773 38.0279 196.682C38.0279 197.583 37.8612 198.371 37.5279 199.045C37.1984 199.72 36.7362 200.244 36.1415 200.619C35.5506 200.994 34.8612 201.182 34.0734 201.182ZM34.0734 199.977C34.6718 199.977 35.1643 199.824 35.5506 199.517C35.937 199.21 36.223 198.807 36.4086 198.307C36.5942 197.807 36.687 197.265 36.687 196.682C36.687 196.098 36.5942 195.555 36.4086 195.051C36.223 194.547 35.937 194.14 35.5506 193.83C35.1643 193.519 34.6718 193.364 34.0734 193.364C33.4749 193.364 32.9824 193.519 32.5961 193.83C32.2097 194.14 31.9237 194.547 31.7381 195.051C31.5525 195.555 31.4597 196.098 31.4597 196.682C31.4597 197.265 31.5525 197.807 31.7381 198.307C31.9237 198.807 32.2097 199.21 32.5961 199.517C32.9824 199.824 33.4749 199.977 34.0734 199.977ZM46.4166 194.227L45.212 194.568C45.1363 194.367 45.0245 194.172 44.8768 193.983C44.7329 193.79 44.5359 193.631 44.2859 193.506C44.0359 193.381 43.7158 193.318 43.3257 193.318C42.7916 193.318 42.3465 193.441 41.9905 193.688C41.6382 193.93 41.462 194.239 41.462 194.614C41.462 194.947 41.5833 195.21 41.8257 195.403C42.0681 195.597 42.4469 195.758 42.962 195.886L44.2575 196.205C45.0378 196.394 45.6192 196.684 46.0018 197.074C46.3844 197.46 46.5757 197.958 46.5757 198.568C46.5757 199.068 46.4317 199.515 46.1439 199.909C45.8598 200.303 45.462 200.614 44.9507 200.841C44.4393 201.068 43.8446 201.182 43.1666 201.182C42.2764 201.182 41.5397 200.989 40.9564 200.602C40.373 200.216 40.0037 199.652 39.8484 198.909L41.1211 198.591C41.2423 199.061 41.4715 199.413 41.8086 199.648C42.1495 199.883 42.5946 200 43.1439 200C43.7689 200 44.2651 199.867 44.6325 199.602C45.0037 199.333 45.1893 199.011 45.1893 198.636C45.1893 198.333 45.0833 198.08 44.8711 197.875C44.659 197.667 44.3333 197.511 43.8939 197.409L42.4393 197.068C41.6401 196.879 41.053 196.585 40.678 196.188C40.3067 195.786 40.1211 195.284 40.1211 194.682C40.1211 194.189 40.2594 193.754 40.5359 193.375C40.8162 192.996 41.1969 192.699 41.678 192.483C42.1628 192.267 42.712 192.159 43.3257 192.159C44.1893 192.159 44.8673 192.348 45.3598 192.727C45.856 193.106 46.2083 193.606 46.4166 194.227ZM51.3223 201.205C50.7693 201.205 50.2674 201.1 49.8166 200.892C49.3659 200.68 49.0079 200.375 48.7428 199.977C48.4776 199.576 48.3451 199.091 48.3451 198.523C48.3451 198.023 48.4435 197.617 48.6405 197.307C48.8375 196.992 49.1007 196.746 49.4303 196.568C49.7598 196.39 50.1235 196.258 50.5212 196.17C50.9227 196.08 51.3261 196.008 51.7314 195.955C52.2617 195.886 52.6916 195.835 53.0212 195.801C53.3545 195.763 53.597 195.701 53.7485 195.614C53.9038 195.527 53.9814 195.375 53.9814 195.159V195.114C53.9814 194.553 53.828 194.117 53.5212 193.807C53.2182 193.496 52.7579 193.341 52.1405 193.341C51.5004 193.341 50.9985 193.481 50.6348 193.761C50.2712 194.042 50.0155 194.341 49.8678 194.659L48.5951 194.205C48.8223 193.674 49.1254 193.261 49.5041 192.966C49.8867 192.667 50.3034 192.458 50.7541 192.341C51.2087 192.22 51.6557 192.159 52.0951 192.159C52.3754 192.159 52.6973 192.193 53.061 192.261C53.4284 192.326 53.7826 192.46 54.1235 192.665C54.4682 192.869 54.7541 193.178 54.9814 193.591C55.2087 194.004 55.3223 194.557 55.3223 195.25V201H53.9814V199.818H53.9132C53.8223 200.008 53.6708 200.21 53.4587 200.426C53.2466 200.642 52.9644 200.826 52.6121 200.977C52.2598 201.129 51.8299 201.205 51.3223 201.205ZM51.5269 200C52.0572 200 52.5041 199.896 52.8678 199.688C53.2352 199.479 53.5117 199.21 53.6973 198.881C53.8867 198.551 53.9814 198.205 53.9814 197.841V196.614C53.9246 196.682 53.7996 196.744 53.6064 196.801C53.417 196.854 53.1973 196.902 52.9473 196.943C52.7011 196.981 52.4606 197.015 52.2257 197.045C51.9947 197.072 51.8072 197.095 51.6632 197.114C51.3148 197.159 50.989 197.233 50.686 197.335C50.3867 197.434 50.1443 197.583 49.9587 197.784C49.7769 197.981 49.686 198.25 49.686 198.591C49.686 199.057 49.8583 199.409 50.203 199.648C50.5515 199.883 50.9928 200 51.5269 200Z" fill="white"/>
</g>
<g filter="url(#filter1_d_689_2194)">
<rect x="293.5" y="1.5" width="266" height="228" rx="23.5" stroke="#BA007C"/>
<g clip-path="url(#clip1_689_2194)">
<rect x="309" y="17" width="248" height="150" rx="8" fill="#FADAEF"/>
<path d="M329.872 144L331.543 133.818H332.537L330.866 144H329.872ZM325.239 141.176L325.398 140.182H332.994L332.835 141.176H325.239ZM326.293 144L327.963 133.818H328.957L327.287 144H326.293ZM325.835 137.636L325.994 136.642H333.591L333.432 137.636H325.835ZM335.205 144V133.818H341.31V134.912H336.438V138.352H340.853V139.446H336.438V144H335.205ZM342.708 144H341.415L345.154 133.818H346.427L350.165 144H348.873L345.83 135.429H345.751L342.708 144ZM343.185 140.023H348.395V141.116H343.185V140.023ZM355.033 144H351.891V133.818H355.172C356.16 133.818 357.005 134.022 357.708 134.43C358.411 134.834 358.949 135.416 359.324 136.175C359.698 136.93 359.886 137.835 359.886 138.889C359.886 139.95 359.697 140.863 359.319 141.629C358.941 142.391 358.391 142.978 357.668 143.388C356.946 143.796 356.067 144 355.033 144ZM353.124 142.906H354.954C355.796 142.906 356.493 142.744 357.047 142.419C357.6 142.094 358.013 141.632 358.285 141.032C358.556 140.432 358.692 139.718 358.692 138.889C358.692 138.067 358.558 137.36 358.29 136.766C358.021 136.17 357.62 135.712 357.087 135.394C356.553 135.073 355.888 134.912 355.093 134.912H353.124V142.906ZM362.033 144H360.74L364.479 133.818H365.752L369.49 144H368.198L365.155 135.429H365.075L362.033 144ZM362.51 140.023H367.72V141.116H362.51V140.023ZM371.216 144V133.818H377.361V134.912H372.449V138.352H377.043V139.446H372.449V142.906H377.441V144H371.216ZM379.723 144V133.818H385.828V134.912H380.956V138.352H385.371V139.446H380.956V144H379.723Z" fill="#242426"/>
</g>
<path d="M310.409 201V189.364H314.341C315.25 189.364 315.996 189.519 316.58 189.83C317.163 190.136 317.595 190.559 317.875 191.097C318.155 191.634 318.295 192.246 318.295 192.932C318.295 193.617 318.155 194.225 317.875 194.756C317.595 195.286 317.165 195.703 316.585 196.006C316.006 196.305 315.265 196.455 314.364 196.455H311.182V195.182H314.318C314.939 195.182 315.439 195.091 315.818 194.909C316.201 194.727 316.477 194.47 316.648 194.136C316.822 193.799 316.909 193.398 316.909 192.932C316.909 192.466 316.822 192.059 316.648 191.71C316.473 191.362 316.195 191.093 315.812 190.903C315.43 190.71 314.924 190.614 314.295 190.614H311.818V201H310.409ZM315.886 195.773L318.75 201H317.114L314.295 195.773H315.886ZM324.073 201.182C323.285 201.182 322.594 200.994 321.999 200.619C321.409 200.244 320.946 199.72 320.613 199.045C320.284 198.371 320.119 197.583 320.119 196.682C320.119 195.773 320.284 194.979 320.613 194.301C320.946 193.623 321.409 193.097 321.999 192.722C322.594 192.347 323.285 192.159 324.073 192.159C324.861 192.159 325.551 192.347 326.142 192.722C326.736 193.097 327.198 193.623 327.528 194.301C327.861 194.979 328.028 195.773 328.028 196.682C328.028 197.583 327.861 198.371 327.528 199.045C327.198 199.72 326.736 200.244 326.142 200.619C325.551 200.994 324.861 201.182 324.073 201.182ZM324.073 199.977C324.672 199.977 325.164 199.824 325.551 199.517C325.937 199.21 326.223 198.807 326.409 198.307C326.594 197.807 326.687 197.265 326.687 196.682C326.687 196.098 326.594 195.555 326.409 195.051C326.223 194.547 325.937 194.14 325.551 193.83C325.164 193.519 324.672 193.364 324.073 193.364C323.475 193.364 322.982 193.519 322.596 193.83C322.21 194.14 321.924 194.547 321.738 195.051C321.553 195.555 321.46 196.098 321.46 196.682C321.46 197.265 321.553 197.807 321.738 198.307C321.924 198.807 322.21 199.21 322.596 199.517C322.982 199.824 323.475 199.977 324.073 199.977ZM336.417 194.227L335.212 194.568C335.136 194.367 335.025 194.172 334.877 193.983C334.733 193.79 334.536 193.631 334.286 193.506C334.036 193.381 333.716 193.318 333.326 193.318C332.792 193.318 332.347 193.441 331.99 193.688C331.638 193.93 331.462 194.239 331.462 194.614C331.462 194.947 331.583 195.21 331.826 195.403C332.068 195.597 332.447 195.758 332.962 195.886L334.257 196.205C335.038 196.394 335.619 196.684 336.002 197.074C336.384 197.46 336.576 197.958 336.576 198.568C336.576 199.068 336.432 199.515 336.144 199.909C335.86 200.303 335.462 200.614 334.951 200.841C334.439 201.068 333.845 201.182 333.167 201.182C332.276 201.182 331.54 200.989 330.956 200.602C330.373 200.216 330.004 199.652 329.848 198.909L331.121 198.591C331.242 199.061 331.472 199.413 331.809 199.648C332.15 199.883 332.595 200 333.144 200C333.769 200 334.265 199.867 334.632 199.602C335.004 199.333 335.189 199.011 335.189 198.636C335.189 198.333 335.083 198.08 334.871 197.875C334.659 197.667 334.333 197.511 333.894 197.409L332.439 197.068C331.64 196.879 331.053 196.585 330.678 196.188C330.307 195.786 330.121 195.284 330.121 194.682C330.121 194.189 330.259 193.754 330.536 193.375C330.816 192.996 331.197 192.699 331.678 192.483C332.163 192.267 332.712 192.159 333.326 192.159C334.189 192.159 334.867 192.348 335.36 192.727C335.856 193.106 336.208 193.606 336.417 194.227ZM341.322 201.205C340.769 201.205 340.267 201.1 339.817 200.892C339.366 200.68 339.008 200.375 338.743 199.977C338.478 199.576 338.345 199.091 338.345 198.523C338.345 198.023 338.444 197.617 338.641 197.307C338.837 196.992 339.101 196.746 339.43 196.568C339.76 196.39 340.123 196.258 340.521 196.17C340.923 196.08 341.326 196.008 341.731 195.955C342.262 195.886 342.692 195.835 343.021 195.801C343.355 195.763 343.597 195.701 343.748 195.614C343.904 195.527 343.981 195.375 343.981 195.159V195.114C343.981 194.553 343.828 194.117 343.521 193.807C343.218 193.496 342.758 193.341 342.141 193.341C341.5 193.341 340.998 193.481 340.635 193.761C340.271 194.042 340.016 194.341 339.868 194.659L338.595 194.205C338.822 193.674 339.125 193.261 339.504 192.966C339.887 192.667 340.303 192.458 340.754 192.341C341.209 192.22 341.656 192.159 342.095 192.159C342.375 192.159 342.697 192.193 343.061 192.261C343.428 192.326 343.783 192.46 344.123 192.665C344.468 192.869 344.754 193.178 344.981 193.591C345.209 194.004 345.322 194.557 345.322 195.25V201H343.981V199.818H343.913C343.822 200.008 343.671 200.21 343.459 200.426C343.247 200.642 342.964 200.826 342.612 200.977C342.26 201.129 341.83 201.205 341.322 201.205ZM341.527 200C342.057 200 342.504 199.896 342.868 199.688C343.235 199.479 343.512 199.21 343.697 198.881C343.887 198.551 343.981 198.205 343.981 197.841V196.614C343.925 196.682 343.8 196.744 343.606 196.801C343.417 196.854 343.197 196.902 342.947 196.943C342.701 196.981 342.461 197.015 342.226 197.045C341.995 197.072 341.807 197.095 341.663 197.114C341.315 197.159 340.989 197.233 340.686 197.335C340.387 197.434 340.144 197.583 339.959 197.784C339.777 197.981 339.686 198.25 339.686 198.591C339.686 199.057 339.858 199.409 340.203 199.648C340.551 199.883 340.993 200 341.527 200ZM356.135 201.182C355.317 201.182 354.612 200.989 354.022 200.602C353.431 200.216 352.976 199.684 352.658 199.006C352.34 198.328 352.181 197.553 352.181 196.682C352.181 195.795 352.344 195.013 352.669 194.335C352.999 193.653 353.457 193.121 354.044 192.739C354.635 192.352 355.325 192.159 356.112 192.159C356.726 192.159 357.279 192.273 357.772 192.5C358.264 192.727 358.667 193.045 358.982 193.455C359.296 193.864 359.491 194.341 359.567 194.886H358.226C358.124 194.489 357.897 194.136 357.544 193.83C357.196 193.519 356.726 193.364 356.135 193.364C355.612 193.364 355.154 193.5 354.76 193.773C354.37 194.042 354.065 194.422 353.845 194.915C353.63 195.403 353.522 195.977 353.522 196.636C353.522 197.311 353.628 197.898 353.84 198.398C354.056 198.898 354.359 199.286 354.749 199.562C355.143 199.839 355.605 199.977 356.135 199.977C356.484 199.977 356.8 199.917 357.084 199.795C357.368 199.674 357.609 199.5 357.806 199.273C358.003 199.045 358.143 198.773 358.226 198.455H359.567C359.491 198.97 359.304 199.434 359.005 199.847C358.709 200.256 358.317 200.581 357.828 200.824C357.344 201.062 356.779 201.182 356.135 201.182ZM363.028 189.364V201H361.687V189.364H363.028ZM368.212 201.205C367.659 201.205 367.157 201.1 366.707 200.892C366.256 200.68 365.898 200.375 365.633 199.977C365.368 199.576 365.235 199.091 365.235 198.523C365.235 198.023 365.334 197.617 365.531 197.307C365.727 196.992 365.991 196.746 366.32 196.568C366.65 196.39 367.013 196.258 367.411 196.17C367.813 196.08 368.216 196.008 368.621 195.955C369.152 195.886 369.582 195.835 369.911 195.801C370.245 195.763 370.487 195.701 370.638 195.614C370.794 195.527 370.871 195.375 370.871 195.159V195.114C370.871 194.553 370.718 194.117 370.411 193.807C370.108 193.496 369.648 193.341 369.031 193.341C368.39 193.341 367.888 193.481 367.525 193.761C367.161 194.042 366.906 194.341 366.758 194.659L365.485 194.205C365.712 193.674 366.015 193.261 366.394 192.966C366.777 192.667 367.193 192.458 367.644 192.341C368.099 192.22 368.546 192.159 368.985 192.159C369.265 192.159 369.587 192.193 369.951 192.261C370.318 192.326 370.673 192.46 371.013 192.665C371.358 192.869 371.644 193.178 371.871 193.591C372.099 194.004 372.212 194.557 372.212 195.25V201H370.871V199.818H370.803C370.712 200.008 370.561 200.21 370.349 200.426C370.137 200.642 369.854 200.826 369.502 200.977C369.15 201.129 368.72 201.205 368.212 201.205ZM368.417 200C368.947 200 369.394 199.896 369.758 199.688C370.125 199.479 370.402 199.21 370.587 198.881C370.777 198.551 370.871 198.205 370.871 197.841V196.614C370.815 196.682 370.69 196.744 370.496 196.801C370.307 196.854 370.087 196.902 369.837 196.943C369.591 196.981 369.351 197.015 369.116 197.045C368.885 197.072 368.697 197.095 368.553 197.114C368.205 197.159 367.879 197.233 367.576 197.335C367.277 197.434 367.034 197.583 366.849 197.784C366.667 197.981 366.576 198.25 366.576 198.591C366.576 199.057 366.748 199.409 367.093 199.648C367.441 199.883 367.883 200 368.417 200ZM374.82 201V192.273H376.115V193.591H376.206C376.365 193.159 376.653 192.809 377.07 192.54C377.486 192.271 377.956 192.136 378.479 192.136C378.577 192.136 378.7 192.138 378.848 192.142C378.996 192.146 379.108 192.152 379.183 192.159V193.523C379.138 193.511 379.034 193.494 378.871 193.472C378.712 193.445 378.543 193.432 378.365 193.432C377.941 193.432 377.562 193.521 377.229 193.699C376.899 193.873 376.638 194.116 376.445 194.426C376.255 194.733 376.161 195.083 376.161 195.477V201H374.82ZM384.213 201.182C383.425 201.182 382.734 200.994 382.139 200.619C381.548 200.244 381.086 199.72 380.753 199.045C380.423 198.371 380.258 197.583 380.258 196.682C380.258 195.773 380.423 194.979 380.753 194.301C381.086 193.623 381.548 193.097 382.139 192.722C382.734 192.347 383.425 192.159 384.213 192.159C385.001 192.159 385.69 192.347 386.281 192.722C386.876 193.097 387.338 193.623 387.667 194.301C388.001 194.979 388.167 195.773 388.167 196.682C388.167 197.583 388.001 198.371 387.667 199.045C387.338 199.72 386.876 200.244 386.281 200.619C385.69 200.994 385.001 201.182 384.213 201.182ZM384.213 199.977C384.811 199.977 385.304 199.824 385.69 199.517C386.076 199.21 386.362 198.807 386.548 198.307C386.734 197.807 386.826 197.265 386.826 196.682C386.826 196.098 386.734 195.555 386.548 195.051C386.362 194.547 386.076 194.14 385.69 193.83C385.304 193.519 384.811 193.364 384.213 193.364C383.614 193.364 383.122 193.519 382.735 193.83C382.349 194.14 382.063 194.547 381.878 195.051C381.692 195.555 381.599 196.098 381.599 196.682C381.599 197.265 381.692 197.807 381.878 198.307C382.063 198.807 382.349 199.21 382.735 199.517C383.122 199.824 383.614 199.977 384.213 199.977Z" fill="white"/>
</g>
<g filter="url(#filter2_d_689_2194)">
<rect x="583.5" y="1.5" width="266" height="228" rx="23.5" stroke="#BA007C"/>
<g clip-path="url(#clip2_689_2194)">
<rect x="599" y="17" width="248" height="150" rx="8" fill="white"/>
<path d="M619.872 144H620.866L621.329 141.176H622.835L622.994 140.182H621.493L621.911 137.636H623.432L623.591 136.642H622.075L622.537 133.818H621.543L621.08 136.642H618.495L618.957 133.818H617.963L617.501 136.642H615.994L615.835 137.636H617.337L616.919 140.182H615.398L615.239 141.176H616.755L616.293 144H617.287L617.749 141.176H620.335L619.872 144ZM617.913 140.182L618.331 137.636H620.916L620.499 140.182H617.913ZM625.205 144H626.438V139.446H630.853V138.352H626.438V134.912H631.31V133.818H625.205V144ZM633.562 144H634.795V139.446H639.21V138.352H634.795V134.912H639.667V133.818H633.562V144ZM645.061 144C648.163 144 649.913 142.071 649.913 138.889C649.913 135.727 648.163 133.818 645.2 133.818H641.919V144H645.061ZM643.152 142.906V134.912H645.12C647.507 134.912 648.72 136.423 648.72 138.889C648.72 141.375 647.507 142.906 644.981 142.906H643.152ZM655.323 144.139C657.381 144.164 658.723 142.613 658.723 140.719C658.723 138.75 657.267 137.338 655.522 137.338C654.473 137.338 653.573 137.85 653.016 138.69H652.936C652.941 136.21 653.906 134.773 655.482 134.773C656.556 134.773 657.202 135.449 657.431 136.364H658.644C658.395 134.783 657.192 133.679 655.482 133.679C653.19 133.679 651.783 135.707 651.783 139.307C651.783 143.07 653.652 144.119 655.323 144.139ZM655.323 143.045C654.045 143.045 653.11 141.957 653.115 140.739C653.12 139.521 654.1 138.432 655.363 138.432C656.61 138.432 657.53 139.456 657.53 140.719C657.53 142.011 656.571 143.045 655.323 143.045ZM664.139 144.139C666.387 144.139 667.679 142.235 667.679 138.909C667.679 135.608 666.367 133.679 664.139 133.679C661.912 133.679 660.6 135.608 660.6 138.909C660.6 142.235 661.892 144.139 664.139 144.139ZM664.139 143.045C663.612 143.045 663.16 142.857 662.802 142.494L665.979 136.055C666.307 136.756 666.486 137.716 666.486 138.909C666.486 141.559 665.621 143.045 664.139 143.045ZM662.29 141.738C661.967 141.047 661.793 140.097 661.793 138.909C661.793 136.264 662.668 134.753 664.139 134.753C664.656 134.753 665.104 134.942 665.462 135.3L662.29 141.738ZM670.305 144L671.329 141.116H675.446L676.47 144H677.762L674.024 133.818H672.751L669.012 144H670.305ZM671.717 140.023L673.348 135.429H673.427L675.058 140.023H671.717Z" fill="#242426"/>
</g>
<path d="M600.409 201V189.364H604.477C605.288 189.364 605.956 189.504 606.483 189.784C607.009 190.061 607.402 190.434 607.659 190.903C607.917 191.369 608.045 191.886 608.045 192.455C608.045 192.955 607.956 193.367 607.778 193.693C607.604 194.019 607.373 194.277 607.085 194.466C606.801 194.655 606.492 194.795 606.159 194.886V195C606.515 195.023 606.873 195.148 607.233 195.375C607.593 195.602 607.894 195.928 608.136 196.352C608.379 196.777 608.5 197.295 608.5 197.909C608.5 198.492 608.367 199.017 608.102 199.483C607.837 199.949 607.419 200.318 606.847 200.591C606.275 200.864 605.53 201 604.614 201H600.409ZM601.818 199.75H604.614C605.534 199.75 606.188 199.572 606.574 199.216C606.964 198.856 607.159 198.42 607.159 197.909C607.159 197.515 607.059 197.152 606.858 196.818C606.657 196.481 606.371 196.212 606 196.011C605.629 195.807 605.189 195.705 604.682 195.705H601.818V199.75ZM601.818 194.477H604.432C604.856 194.477 605.239 194.394 605.58 194.227C605.924 194.061 606.197 193.826 606.398 193.523C606.602 193.22 606.705 192.864 606.705 192.455C606.705 191.943 606.527 191.509 606.17 191.153C605.814 190.794 605.25 190.614 604.477 190.614H601.818V194.477ZM612.134 189.364V201H610.794V189.364H612.134ZM617.319 201.205C616.766 201.205 616.264 201.1 615.813 200.892C615.362 200.68 615.004 200.375 614.739 199.977C614.474 199.576 614.341 199.091 614.341 198.523C614.341 198.023 614.44 197.617 614.637 197.307C614.834 196.992 615.097 196.746 615.427 196.568C615.756 196.39 616.12 196.258 616.517 196.17C616.919 196.08 617.322 196.008 617.728 195.955C618.258 195.886 618.688 195.835 619.017 195.801C619.351 195.763 619.593 195.701 619.745 195.614C619.9 195.527 619.978 195.375 619.978 195.159V195.114C619.978 194.553 619.824 194.117 619.517 193.807C619.214 193.496 618.754 193.341 618.137 193.341C617.497 193.341 616.995 193.481 616.631 193.761C616.267 194.042 616.012 194.341 615.864 194.659L614.591 194.205C614.819 193.674 615.122 193.261 615.5 192.966C615.883 192.667 616.3 192.458 616.75 192.341C617.205 192.22 617.652 192.159 618.091 192.159C618.372 192.159 618.694 192.193 619.057 192.261C619.425 192.326 619.779 192.46 620.12 192.665C620.464 192.869 620.75 193.178 620.978 193.591C621.205 194.004 621.319 194.557 621.319 195.25V201H619.978V199.818H619.909C619.819 200.008 619.667 200.21 619.455 200.426C619.243 200.642 618.961 200.826 618.608 200.977C618.256 201.129 617.826 201.205 617.319 201.205ZM617.523 200C618.053 200 618.5 199.896 618.864 199.688C619.231 199.479 619.508 199.21 619.694 198.881C619.883 198.551 619.978 198.205 619.978 197.841V196.614C619.921 196.682 619.796 196.744 619.603 196.801C619.413 196.854 619.194 196.902 618.944 196.943C618.697 196.981 618.457 197.015 618.222 197.045C617.991 197.072 617.803 197.095 617.659 197.114C617.311 197.159 616.985 197.233 616.682 197.335C616.383 197.434 616.141 197.583 615.955 197.784C615.773 197.981 615.682 198.25 615.682 198.591C615.682 199.057 615.855 199.409 616.199 199.648C616.548 199.883 616.989 200 617.523 200ZM625.267 195.75V201H623.926V192.273H625.221V193.636H625.335C625.54 193.193 625.85 192.837 626.267 192.568C626.684 192.295 627.221 192.159 627.881 192.159C628.471 192.159 628.989 192.28 629.432 192.523C629.875 192.761 630.22 193.125 630.466 193.614C630.712 194.098 630.835 194.712 630.835 195.455V201H629.494V195.545C629.494 194.86 629.316 194.326 628.96 193.943C628.604 193.557 628.115 193.364 627.494 193.364C627.066 193.364 626.684 193.456 626.346 193.642C626.013 193.828 625.75 194.098 625.557 194.455C625.364 194.811 625.267 195.242 625.267 195.75ZM636.991 201.182C636.173 201.182 635.468 200.989 634.877 200.602C634.286 200.216 633.832 199.684 633.514 199.006C633.195 198.328 633.036 197.553 633.036 196.682C633.036 195.795 633.199 195.013 633.525 194.335C633.854 193.653 634.313 193.121 634.9 192.739C635.491 192.352 636.18 192.159 636.968 192.159C637.582 192.159 638.135 192.273 638.627 192.5C639.12 192.727 639.523 193.045 639.837 193.455C640.152 193.864 640.347 194.341 640.423 194.886H639.082C638.979 194.489 638.752 194.136 638.4 193.83C638.051 193.519 637.582 193.364 636.991 193.364C636.468 193.364 636.01 193.5 635.616 193.773C635.226 194.042 634.921 194.422 634.701 194.915C634.485 195.403 634.377 195.977 634.377 196.636C634.377 197.311 634.483 197.898 634.695 198.398C634.911 198.898 635.214 199.286 635.604 199.562C635.998 199.839 636.461 199.977 636.991 199.977C637.339 199.977 637.656 199.917 637.94 199.795C638.224 199.674 638.464 199.5 638.661 199.273C638.858 199.045 638.998 198.773 639.082 198.455H640.423C640.347 198.97 640.159 199.434 639.86 199.847C639.565 200.256 639.173 200.581 638.684 200.824C638.199 201.062 637.635 201.182 636.991 201.182ZM646.088 201.182C645.3 201.182 644.609 200.994 644.014 200.619C643.424 200.244 642.961 199.72 642.628 199.045C642.299 198.371 642.134 197.583 642.134 196.682C642.134 195.773 642.299 194.979 642.628 194.301C642.961 193.623 643.424 193.097 644.014 192.722C644.609 192.347 645.3 192.159 646.088 192.159C646.876 192.159 647.566 192.347 648.157 192.722C648.751 193.097 649.213 193.623 649.543 194.301C649.876 194.979 650.043 195.773 650.043 196.682C650.043 197.583 649.876 198.371 649.543 199.045C649.213 199.72 648.751 200.244 648.157 200.619C647.566 200.994 646.876 201.182 646.088 201.182ZM646.088 199.977C646.687 199.977 647.179 199.824 647.566 199.517C647.952 199.21 648.238 198.807 648.424 198.307C648.609 197.807 648.702 197.265 648.702 196.682C648.702 196.098 648.609 195.555 648.424 195.051C648.238 194.547 647.952 194.14 647.566 193.83C647.179 193.519 646.687 193.364 646.088 193.364C645.49 193.364 644.997 193.519 644.611 193.83C644.225 194.14 643.939 194.547 643.753 195.051C643.568 195.555 643.475 196.098 643.475 196.682C643.475 197.265 643.568 197.807 643.753 198.307C643.939 198.807 644.225 199.21 644.611 199.517C644.997 199.824 645.49 199.977 646.088 199.977Z" fill="white"/>
</g>
<g filter="url(#filter3_d_689_2194)">
<rect x="873.5" y="1.5" width="266" height="228" rx="23.5" stroke="#BA007C"/>
<g clip-path="url(#clip3_689_2194)">
<rect x="889" y="17" width="248" height="150" rx="8" fill="black"/>
<path d="M909.872 144H910.866L911.329 141.176H912.835L912.994 140.182H911.493L911.911 137.636H913.432L913.591 136.642H912.075L912.537 133.818H911.543L911.08 136.642H908.495L908.957 133.818H907.963L907.501 136.642H905.994L905.835 137.636H907.337L906.919 140.182H905.398L905.239 141.176H906.755L906.293 144H907.287L907.749 141.176H910.335L909.872 144ZM907.913 140.182L908.331 137.636H910.916L910.499 140.182H907.913ZM918.466 144.139C920.44 144.139 921.907 142.901 921.907 141.236C921.907 139.943 921.141 139.004 919.858 138.79V138.71C920.888 138.397 921.529 137.552 921.529 136.403C921.529 134.962 920.39 133.679 918.506 133.679C916.746 133.679 915.285 134.763 915.225 136.364H916.418C916.463 135.349 917.427 134.753 918.486 134.753C919.61 134.753 920.336 135.434 920.336 136.463C920.336 137.537 919.495 138.233 918.287 138.233H917.472V139.327H918.287C919.834 139.327 920.694 140.112 920.694 141.236C920.694 142.315 919.754 143.045 918.446 143.045C917.268 143.045 916.334 142.439 916.259 141.455H915.006C915.081 143.055 916.493 144.139 918.466 144.139ZM924.08 144H930.503V142.906H925.77V142.827L928.057 140.381C929.807 138.506 930.324 137.631 930.324 136.503C930.324 134.932 929.052 133.679 927.262 133.679C925.477 133.679 924.12 134.892 924.12 136.682H925.293C925.293 135.523 926.044 134.753 927.222 134.753C928.326 134.753 929.171 135.429 929.171 136.503C929.171 137.442 928.619 138.138 927.441 139.426L924.08 143.105V144ZM936.018 144C939.12 144 940.87 142.071 940.87 138.889C940.87 135.727 939.12 133.818 936.157 133.818H932.876V144H936.018ZM934.109 142.906V134.912H936.077C938.464 134.912 939.677 136.423 939.677 138.889C939.677 141.375 938.464 142.906 935.938 142.906H934.109ZM943.217 144H944.51L949.044 134.972V133.818H942.521V134.912H947.771V134.991L943.217 144ZM949.978 141.912H954.771V144H955.944V141.912H957.336V140.818H955.944V133.818H954.453L949.978 140.898V141.912ZM954.771 140.818H951.311V140.739L954.691 135.389H954.771V140.818ZM959.518 144H963.197C965.603 144 966.598 142.827 966.598 141.295C966.598 139.685 965.484 138.81 964.55 138.75V138.651C965.425 138.412 966.2 137.835 966.2 136.523C966.2 135.031 965.206 133.818 963.078 133.818H959.518V144ZM960.751 142.906V139.366H963.257C964.589 139.366 965.425 140.261 965.425 141.295C965.425 142.19 964.808 142.906 963.197 142.906H960.751ZM960.751 138.293V134.912H963.078C964.43 134.912 965.027 135.628 965.027 136.523C965.027 137.597 964.152 138.293 963.038 138.293H960.751Z" fill="#242426"/>
</g>
<path d="M899.636 189.364V201H898.273L891.932 191.864H891.818V201H890.409V189.364H891.773L898.136 198.523H898.25V189.364H899.636ZM906.093 201.182C905.252 201.182 904.527 200.996 903.917 200.625C903.311 200.25 902.843 199.727 902.514 199.057C902.188 198.383 902.025 197.598 902.025 196.705C902.025 195.811 902.188 195.023 902.514 194.341C902.843 193.655 903.302 193.121 903.889 192.739C904.48 192.352 905.169 192.159 905.957 192.159C906.411 192.159 906.86 192.235 907.303 192.386C907.747 192.538 908.15 192.784 908.514 193.125C908.877 193.462 909.167 193.909 909.383 194.466C909.599 195.023 909.707 195.708 909.707 196.523V197.091H902.98V195.932H908.343C908.343 195.439 908.245 195 908.048 194.614C907.855 194.227 907.578 193.922 907.218 193.699C906.862 193.475 906.442 193.364 905.957 193.364C905.423 193.364 904.961 193.496 904.571 193.761C904.184 194.023 903.887 194.364 903.678 194.784C903.47 195.205 903.366 195.655 903.366 196.136V196.909C903.366 197.568 903.48 198.127 903.707 198.585C903.938 199.04 904.258 199.386 904.667 199.625C905.076 199.86 905.552 199.977 906.093 199.977C906.446 199.977 906.764 199.928 907.048 199.83C907.336 199.727 907.584 199.576 907.792 199.375C908 199.17 908.161 198.917 908.275 198.614L909.571 198.977C909.434 199.417 909.205 199.803 908.883 200.136C908.561 200.466 908.163 200.723 907.69 200.909C907.216 201.091 906.684 201.182 906.093 201.182ZM915.429 204.455C914.782 204.455 914.225 204.371 913.759 204.205C913.293 204.042 912.905 203.826 912.594 203.557C912.287 203.292 912.043 203.008 911.861 202.705L912.929 201.955C913.051 202.114 913.204 202.295 913.39 202.5C913.575 202.708 913.829 202.888 914.151 203.04C914.477 203.195 914.903 203.273 915.429 203.273C916.134 203.273 916.715 203.102 917.174 202.761C917.632 202.42 917.861 201.886 917.861 201.159V199.386H917.748C917.649 199.545 917.509 199.742 917.327 199.977C917.149 200.208 916.891 200.415 916.554 200.597C916.221 200.775 915.77 200.864 915.202 200.864C914.498 200.864 913.865 200.697 913.304 200.364C912.748 200.03 912.306 199.545 911.981 198.909C911.659 198.273 911.498 197.5 911.498 196.591C911.498 195.697 911.655 194.919 911.969 194.256C912.284 193.589 912.721 193.074 913.282 192.71C913.842 192.343 914.49 192.159 915.225 192.159C915.793 192.159 916.244 192.254 916.577 192.443C916.914 192.629 917.172 192.841 917.35 193.08C917.532 193.314 917.672 193.508 917.77 193.659H917.907V192.273H919.202V201.25C919.202 202 919.032 202.61 918.691 203.08C918.354 203.553 917.899 203.9 917.327 204.119C916.759 204.343 916.126 204.455 915.429 204.455ZM915.384 199.659C915.922 199.659 916.376 199.536 916.748 199.29C917.119 199.044 917.401 198.689 917.594 198.227C917.787 197.765 917.884 197.212 917.884 196.568C917.884 195.939 917.789 195.384 917.6 194.903C917.41 194.422 917.13 194.045 916.759 193.773C916.388 193.5 915.929 193.364 915.384 193.364C914.816 193.364 914.342 193.508 913.963 193.795C913.588 194.083 913.306 194.47 913.117 194.955C912.931 195.439 912.838 195.977 912.838 196.568C912.838 197.174 912.933 197.71 913.123 198.176C913.316 198.638 913.6 199.002 913.975 199.267C914.354 199.528 914.823 199.659 915.384 199.659ZM921.817 201V192.273H923.112V193.591H923.203C923.362 193.159 923.65 192.809 924.067 192.54C924.483 192.271 924.953 192.136 925.476 192.136C925.574 192.136 925.697 192.138 925.845 192.142C925.993 192.146 926.105 192.152 926.18 192.159V193.523C926.135 193.511 926.031 193.494 925.868 193.472C925.709 193.445 925.54 193.432 925.362 193.432C924.938 193.432 924.559 193.521 924.226 193.699C923.896 193.873 923.635 194.116 923.442 194.426C923.252 194.733 923.158 195.083 923.158 195.477V201H921.817ZM931.21 201.182C930.422 201.182 929.73 200.994 929.136 200.619C928.545 200.244 928.083 199.72 927.749 199.045C927.42 198.371 927.255 197.583 927.255 196.682C927.255 195.773 927.42 194.979 927.749 194.301C928.083 193.623 928.545 193.097 929.136 192.722C929.73 192.347 930.422 192.159 931.21 192.159C931.997 192.159 932.687 192.347 933.278 192.722C933.872 193.097 934.335 193.623 934.664 194.301C934.997 194.979 935.164 195.773 935.164 196.682C935.164 197.583 934.997 198.371 934.664 199.045C934.335 199.72 933.872 200.244 933.278 200.619C932.687 200.994 931.997 201.182 931.21 201.182ZM931.21 199.977C931.808 199.977 932.301 199.824 932.687 199.517C933.073 199.21 933.359 198.807 933.545 198.307C933.73 197.807 933.823 197.265 933.823 196.682C933.823 196.098 933.73 195.555 933.545 195.051C933.359 194.547 933.073 194.14 932.687 193.83C932.301 193.519 931.808 193.364 931.21 193.364C930.611 193.364 930.119 193.519 929.732 193.83C929.346 194.14 929.06 194.547 928.874 195.051C928.689 195.555 928.596 196.098 928.596 196.682C928.596 197.265 928.689 197.807 928.874 198.307C929.06 198.807 929.346 199.21 929.732 199.517C930.119 199.824 930.611 199.977 931.21 199.977Z" fill="white"/>
</g>
<g filter="url(#filter4_d_689_2194)">
<rect x="1163.5" y="1.5" width="266" height="228" rx="23.5" stroke="#BA007C"/>
<g clip-path="url(#clip4_689_2194)">
<rect x="1179" y="17" width="248" height="150" rx="8" fill="#313131"/>
<path d="M1199.87 144H1200.87L1201.33 141.176H1202.84L1202.99 140.182H1201.49L1201.91 137.636H1203.43L1203.59 136.642H1202.07L1202.54 133.818H1201.54L1201.08 136.642H1198.5L1198.96 133.818H1197.96L1197.5 136.642H1195.99L1195.84 137.636H1197.34L1196.92 140.182H1195.4L1195.24 141.176H1196.75L1196.29 144H1197.29L1197.75 141.176H1200.33L1199.87 144ZM1197.91 140.182L1198.33 137.636H1200.92L1200.5 140.182H1197.91ZM1208.41 144.139C1210.46 144.164 1211.81 142.613 1211.81 140.719C1211.81 138.75 1210.35 137.338 1208.61 137.338C1207.56 137.338 1206.66 137.85 1206.1 138.69H1206.02C1206.03 136.21 1206.99 134.773 1208.57 134.773C1209.64 134.773 1210.29 135.449 1210.51 136.364H1211.73C1211.48 134.783 1210.28 133.679 1208.57 133.679C1206.27 133.679 1204.87 135.707 1204.87 139.307C1204.87 143.07 1206.74 144.119 1208.41 144.139ZM1208.41 143.045C1207.13 143.045 1206.19 141.957 1206.2 140.739C1206.2 139.521 1207.18 138.432 1208.45 138.432C1209.69 138.432 1210.61 139.456 1210.61 140.719C1210.61 142.011 1209.65 143.045 1208.41 143.045ZM1213.66 141.912H1218.46V144H1219.63V141.912H1221.02V140.818H1219.63V133.818H1218.14L1213.66 140.898V141.912ZM1218.46 140.818H1215V140.739L1218.38 135.389H1218.46V140.818ZM1226.35 144C1229.45 144 1231.2 142.071 1231.2 138.889C1231.2 135.727 1229.45 133.818 1226.48 133.818H1223.2V144H1226.35ZM1224.44 142.906V134.912H1226.41C1228.79 134.912 1230 136.423 1230 138.889C1230 141.375 1228.79 142.906 1226.27 142.906H1224.44ZM1233.23 144H1239.65V142.906H1234.92V142.827L1237.2 140.381C1238.95 138.506 1239.47 137.631 1239.47 136.503C1239.47 134.932 1238.2 133.679 1236.41 133.679C1234.62 133.679 1233.27 134.892 1233.27 136.682H1234.44C1234.44 135.523 1235.19 134.753 1236.37 134.753C1237.47 134.753 1238.32 135.429 1238.32 136.503C1238.32 137.442 1237.77 138.138 1236.59 139.426L1233.23 143.105V144ZM1242.02 144H1243.26V139.446H1247.67V138.352H1243.26V134.912H1248.13V133.818H1242.02V144ZM1250.38 144H1251.61V139.446H1256.03V138.352H1251.61V134.912H1256.48V133.818H1250.38V144Z" fill="#242426"/>
</g>
<path d="M1188.36 193C1188.24 192.617 1188.07 192.275 1187.87 191.972C1187.67 191.665 1187.43 191.403 1187.15 191.188C1186.87 190.972 1186.56 190.807 1186.2 190.693C1185.85 190.58 1185.47 190.523 1185.05 190.523C1184.36 190.523 1183.73 190.701 1183.16 191.057C1182.6 191.413 1182.15 191.938 1181.82 192.631C1181.48 193.324 1181.32 194.174 1181.32 195.182C1181.32 196.189 1181.49 197.04 1181.82 197.733C1182.16 198.426 1182.62 198.951 1183.19 199.307C1183.77 199.663 1184.42 199.841 1185.14 199.841C1185.8 199.841 1186.39 199.699 1186.9 199.415C1187.41 199.127 1187.81 198.722 1188.09 198.199C1188.38 197.672 1188.52 197.053 1188.52 196.341L1188.95 196.432H1185.45V195.182H1189.89V196.432C1189.89 197.39 1189.68 198.223 1189.27 198.932C1188.87 199.64 1188.31 200.189 1187.59 200.58C1186.88 200.966 1186.06 201.159 1185.14 201.159C1184.11 201.159 1183.2 200.917 1182.42 200.432C1181.64 199.947 1181.04 199.258 1180.6 198.364C1180.17 197.47 1179.95 196.409 1179.95 195.182C1179.95 194.261 1180.08 193.434 1180.32 192.699C1180.57 191.96 1180.93 191.331 1181.38 190.812C1181.84 190.294 1182.37 189.896 1182.99 189.619C1183.62 189.343 1184.3 189.205 1185.05 189.205C1185.66 189.205 1186.23 189.297 1186.76 189.483C1187.3 189.665 1187.77 189.924 1188.19 190.261C1188.61 190.595 1188.96 190.994 1189.24 191.46C1189.52 191.922 1189.71 192.436 1189.82 193H1188.36ZM1192.28 201V192.273H1193.57V193.591H1193.66C1193.82 193.159 1194.11 192.809 1194.53 192.54C1194.94 192.271 1195.41 192.136 1195.94 192.136C1196.04 192.136 1196.16 192.138 1196.31 192.142C1196.45 192.146 1196.57 192.152 1196.64 192.159V193.523C1196.6 193.511 1196.49 193.494 1196.33 193.472C1196.17 193.445 1196 193.432 1195.82 193.432C1195.4 193.432 1195.02 193.521 1194.69 193.699C1194.36 193.873 1194.1 194.116 1193.9 194.426C1193.71 194.733 1193.62 195.083 1193.62 195.477V201H1192.28ZM1198.39 201V192.273H1199.73V201H1198.39ZM1199.07 190.818C1198.81 190.818 1198.59 190.729 1198.4 190.551C1198.21 190.373 1198.12 190.159 1198.12 189.909C1198.12 189.659 1198.21 189.445 1198.4 189.267C1198.59 189.089 1198.81 189 1199.07 189C1199.33 189 1199.56 189.089 1199.74 189.267C1199.93 189.445 1200.03 189.659 1200.03 189.909C1200.03 190.159 1199.93 190.373 1199.74 190.551C1199.56 190.729 1199.33 190.818 1199.07 190.818ZM1208.53 194.227L1207.33 194.568C1207.25 194.367 1207.14 194.172 1206.99 193.983C1206.85 193.79 1206.65 193.631 1206.4 193.506C1206.15 193.381 1205.83 193.318 1205.44 193.318C1204.9 193.318 1204.46 193.441 1204.1 193.688C1203.75 193.93 1203.58 194.239 1203.58 194.614C1203.58 194.947 1203.7 195.21 1203.94 195.403C1204.18 195.597 1204.56 195.758 1205.08 195.886L1206.37 196.205C1207.15 196.394 1207.73 196.684 1208.11 197.074C1208.5 197.46 1208.69 197.958 1208.69 198.568C1208.69 199.068 1208.54 199.515 1208.26 199.909C1207.97 200.303 1207.58 200.614 1207.06 200.841C1206.55 201.068 1205.96 201.182 1205.28 201.182C1204.39 201.182 1203.65 200.989 1203.07 200.602C1202.49 200.216 1202.12 199.652 1201.96 198.909L1203.23 198.591C1203.36 199.061 1203.58 199.413 1203.92 199.648C1204.26 199.883 1204.71 200 1205.26 200C1205.88 200 1206.38 199.867 1206.75 199.602C1207.12 199.333 1207.3 199.011 1207.3 198.636C1207.3 198.333 1207.2 198.08 1206.98 197.875C1206.77 197.667 1206.45 197.511 1206.01 197.409L1204.55 197.068C1203.75 196.879 1203.17 196.585 1202.79 196.188C1202.42 195.786 1202.23 195.284 1202.23 194.682C1202.23 194.189 1202.37 193.754 1202.65 193.375C1202.93 192.996 1203.31 192.699 1203.79 192.483C1204.28 192.267 1204.83 192.159 1205.44 192.159C1206.3 192.159 1206.98 192.348 1207.47 192.727C1207.97 193.106 1208.32 193.606 1208.53 194.227ZM1219.07 201.182C1218.28 201.182 1217.59 200.994 1217 200.619C1216.41 200.244 1215.95 199.72 1215.61 199.045C1215.28 198.371 1215.12 197.583 1215.12 196.682C1215.12 195.773 1215.28 194.979 1215.61 194.301C1215.95 193.623 1216.41 193.097 1217 192.722C1217.59 192.347 1218.28 192.159 1219.07 192.159C1219.86 192.159 1220.55 192.347 1221.14 192.722C1221.74 193.097 1222.2 193.623 1222.53 194.301C1222.86 194.979 1223.03 195.773 1223.03 196.682C1223.03 197.583 1222.86 198.371 1222.53 199.045C1222.2 199.72 1221.74 200.244 1221.14 200.619C1220.55 200.994 1219.86 201.182 1219.07 201.182ZM1219.07 199.977C1219.67 199.977 1220.16 199.824 1220.55 199.517C1220.94 199.21 1221.22 198.807 1221.41 198.307C1221.59 197.807 1221.69 197.265 1221.69 196.682C1221.69 196.098 1221.59 195.555 1221.41 195.051C1221.22 194.547 1220.94 194.14 1220.55 193.83C1220.16 193.519 1219.67 193.364 1219.07 193.364C1218.47 193.364 1217.98 193.519 1217.6 193.83C1217.21 194.14 1216.92 194.547 1216.74 195.051C1216.55 195.555 1216.46 196.098 1216.46 196.682C1216.46 197.265 1216.55 197.807 1216.74 198.307C1216.92 198.807 1217.21 199.21 1217.6 199.517C1217.98 199.824 1218.47 199.977 1219.07 199.977ZM1231.42 194.227L1230.21 194.568C1230.14 194.367 1230.02 194.172 1229.88 193.983C1229.73 193.79 1229.54 193.631 1229.29 193.506C1229.04 193.381 1228.72 193.318 1228.33 193.318C1227.79 193.318 1227.35 193.441 1226.99 193.688C1226.64 193.93 1226.46 194.239 1226.46 194.614C1226.46 194.947 1226.58 195.21 1226.83 195.403C1227.07 195.597 1227.45 195.758 1227.96 195.886L1229.26 196.205C1230.04 196.394 1230.62 196.684 1231 197.074C1231.38 197.46 1231.58 197.958 1231.58 198.568C1231.58 199.068 1231.43 199.515 1231.14 199.909C1230.86 200.303 1230.46 200.614 1229.95 200.841C1229.44 201.068 1228.84 201.182 1228.17 201.182C1227.28 201.182 1226.54 200.989 1225.96 200.602C1225.37 200.216 1225 199.652 1224.85 198.909L1226.12 198.591C1226.24 199.061 1226.47 199.413 1226.81 199.648C1227.15 199.883 1227.59 200 1228.14 200C1228.77 200 1229.26 199.867 1229.63 199.602C1230 199.333 1230.19 199.011 1230.19 198.636C1230.19 198.333 1230.08 198.08 1229.87 197.875C1229.66 197.667 1229.33 197.511 1228.89 197.409L1227.44 197.068C1226.64 196.879 1226.05 196.585 1225.68 196.188C1225.31 195.786 1225.12 195.284 1225.12 194.682C1225.12 194.189 1225.26 193.754 1225.54 193.375C1225.82 192.996 1226.2 192.699 1226.68 192.483C1227.16 192.267 1227.71 192.159 1228.33 192.159C1229.19 192.159 1229.87 192.348 1230.36 192.727C1230.86 193.106 1231.21 193.606 1231.42 194.227ZM1237.3 201.182C1236.48 201.182 1235.78 200.989 1235.19 200.602C1234.59 200.216 1234.14 199.684 1233.82 199.006C1233.5 198.328 1233.34 197.553 1233.34 196.682C1233.34 195.795 1233.51 195.013 1233.83 194.335C1234.16 193.653 1234.62 193.121 1235.21 192.739C1235.8 192.352 1236.49 192.159 1237.28 192.159C1237.89 192.159 1238.44 192.273 1238.94 192.5C1239.43 192.727 1239.83 193.045 1240.15 193.455C1240.46 193.864 1240.66 194.341 1240.73 194.886H1239.39C1239.29 194.489 1239.06 194.136 1238.71 193.83C1238.36 193.519 1237.89 193.364 1237.3 193.364C1236.78 193.364 1236.32 193.5 1235.92 193.773C1235.53 194.042 1235.23 194.422 1235.01 194.915C1234.79 195.403 1234.69 195.977 1234.69 196.636C1234.69 197.311 1234.79 197.898 1235 198.398C1235.22 198.898 1235.52 199.286 1235.91 199.562C1236.31 199.839 1236.77 199.977 1237.3 199.977C1237.65 199.977 1237.96 199.917 1238.25 199.795C1238.53 199.674 1238.77 199.5 1238.97 199.273C1239.17 199.045 1239.31 198.773 1239.39 198.455H1240.73C1240.66 198.97 1240.47 199.434 1240.17 199.847C1239.87 200.256 1239.48 200.581 1238.99 200.824C1238.51 201.062 1237.94 201.182 1237.3 201.182ZM1248.35 197.432V192.273H1249.69V201H1248.35V199.523H1248.26C1248.06 199.966 1247.74 200.343 1247.31 200.653C1246.87 200.96 1246.33 201.114 1245.67 201.114C1245.12 201.114 1244.64 200.994 1244.21 200.756C1243.79 200.513 1243.46 200.15 1243.21 199.665C1242.97 199.176 1242.85 198.561 1242.85 197.818V192.273H1244.19V197.727C1244.19 198.364 1244.37 198.871 1244.73 199.25C1245.09 199.629 1245.54 199.818 1246.1 199.818C1246.43 199.818 1246.77 199.733 1247.12 199.562C1247.47 199.392 1247.76 199.131 1247.99 198.778C1248.23 198.426 1248.35 197.977 1248.35 197.432ZM1252.31 201V192.273H1253.6V193.591H1253.69C1253.85 193.159 1254.14 192.809 1254.56 192.54C1254.97 192.271 1255.44 192.136 1255.97 192.136C1256.07 192.136 1256.19 192.138 1256.34 192.142C1256.48 192.146 1256.6 192.152 1256.67 192.159V193.523C1256.63 193.511 1256.52 193.494 1256.36 193.472C1256.2 193.445 1256.03 193.432 1255.85 193.432C1255.43 193.432 1255.05 193.521 1254.72 193.699C1254.39 193.873 1254.13 194.116 1253.93 194.426C1253.74 194.733 1253.65 195.083 1253.65 195.477V201H1252.31ZM1261.7 201.182C1260.91 201.182 1260.22 200.994 1259.63 200.619C1259.04 200.244 1258.57 199.72 1258.24 199.045C1257.91 198.371 1257.75 197.583 1257.75 196.682C1257.75 195.773 1257.91 194.979 1258.24 194.301C1258.57 193.623 1259.04 193.097 1259.63 192.722C1260.22 192.347 1260.91 192.159 1261.7 192.159C1262.49 192.159 1263.18 192.347 1263.77 192.722C1264.36 193.097 1264.83 193.623 1265.16 194.301C1265.49 194.979 1265.66 195.773 1265.66 196.682C1265.66 197.583 1265.49 198.371 1265.16 199.045C1264.83 199.72 1264.36 200.244 1263.77 200.619C1263.18 200.994 1262.49 201.182 1261.7 201.182ZM1261.7 199.977C1262.3 199.977 1262.79 199.824 1263.18 199.517C1263.56 199.21 1263.85 198.807 1264.04 198.307C1264.22 197.807 1264.31 197.265 1264.31 196.682C1264.31 196.098 1264.22 195.555 1264.04 195.051C1263.85 194.547 1263.56 194.14 1263.18 193.83C1262.79 193.519 1262.3 193.364 1261.7 193.364C1261.1 193.364 1260.61 193.519 1260.22 193.83C1259.84 194.14 1259.55 194.547 1259.37 195.051C1259.18 195.555 1259.09 196.098 1259.09 196.682C1259.09 197.265 1259.18 197.807 1259.37 198.307C1259.55 198.807 1259.84 199.21 1260.22 199.517C1260.61 199.824 1261.1 199.977 1261.7 199.977Z" fill="white"/>
</g>
<g filter="url(#filter5_d_689_2194)">
<rect x="1453.5" y="1.5" width="266" height="228" rx="23.5" stroke="#BA007C"/>
<g clip-path="url(#clip5_689_2194)">
<rect x="1469" y="17" width="248" height="150" rx="8" fill="#C5C5C5"/>
<path d="M1489.87 144H1490.87L1491.33 141.176H1492.84L1492.99 140.182H1491.49L1491.91 137.636H1493.43L1493.59 136.642H1492.07L1492.54 133.818H1491.54L1491.08 136.642H1488.5L1488.96 133.818H1487.96L1487.5 136.642H1485.99L1485.84 137.636H1487.34L1486.92 140.182H1485.4L1485.24 141.176H1486.75L1486.29 144H1487.29L1487.75 141.176H1490.33L1489.87 144ZM1487.91 140.182L1488.33 137.636H1490.92L1490.5 140.182H1487.91ZM1498.35 144.139C1500.59 144.139 1501.89 142.235 1501.89 138.909C1501.89 135.608 1500.57 133.679 1498.35 133.679C1496.12 133.679 1494.81 135.608 1494.81 138.909C1494.81 142.235 1496.1 144.139 1498.35 144.139ZM1498.35 143.045C1497.82 143.045 1497.37 142.857 1497.01 142.494L1500.19 136.055C1500.51 136.756 1500.69 137.716 1500.69 138.909C1500.69 141.559 1499.83 143.045 1498.35 143.045ZM1496.5 141.738C1496.17 141.047 1496 140.097 1496 138.909C1496 136.264 1496.88 134.753 1498.35 134.753C1498.86 134.753 1499.31 134.942 1499.67 135.3L1496.5 141.738ZM1504.51 144L1505.54 141.116H1509.65L1510.68 144H1511.97L1508.23 133.818H1506.96L1503.22 144H1504.51ZM1505.92 140.023L1507.56 135.429H1507.63L1509.27 140.023H1505.92ZM1516.78 144.139C1518.81 144.139 1520.23 142.951 1520.24 141.295C1520.23 140.008 1519.37 138.914 1518.27 138.71V138.651C1519.22 138.402 1519.85 137.467 1519.86 136.384C1519.85 134.832 1518.55 133.679 1516.78 133.679C1514.99 133.679 1513.69 134.832 1513.7 136.384C1513.69 137.467 1514.31 138.402 1515.29 138.651V138.71C1514.17 138.914 1513.31 140.008 1513.32 141.295C1513.31 142.951 1514.73 144.139 1516.78 144.139ZM1516.78 143.045C1515.38 143.045 1514.52 142.33 1514.53 141.236C1514.52 140.087 1515.47 139.267 1516.78 139.267C1518.07 139.267 1519.02 140.087 1519.03 141.236C1519.02 142.33 1518.16 143.045 1516.78 143.045ZM1516.78 138.213C1515.66 138.213 1514.88 137.517 1514.89 136.463C1514.88 135.429 1515.63 134.753 1516.78 134.753C1517.9 134.753 1518.66 135.429 1518.67 136.463C1518.66 137.517 1517.87 138.213 1516.78 138.213ZM1522.05 141.912H1526.84V144H1528.01V141.912H1529.4V140.818H1528.01V133.818H1526.52L1522.05 140.898V141.912ZM1526.84 140.818H1523.38V140.739L1526.76 135.389H1526.84V140.818ZM1531.59 144H1532.82V139.446H1537.23V138.352H1532.82V134.912H1537.69V133.818H1531.59V144ZM1539.94 144H1541.18V139.446H1545.59V138.352H1541.18V134.912H1546.05V133.818H1539.94V144Z" fill="#242426"/>
</g>
<path d="M1478.36 193C1478.24 192.617 1478.07 192.275 1477.87 191.972C1477.67 191.665 1477.43 191.403 1477.15 191.188C1476.87 190.972 1476.56 190.807 1476.2 190.693C1475.85 190.58 1475.47 190.523 1475.05 190.523C1474.36 190.523 1473.73 190.701 1473.16 191.057C1472.6 191.413 1472.15 191.938 1471.82 192.631C1471.48 193.324 1471.32 194.174 1471.32 195.182C1471.32 196.189 1471.49 197.04 1471.82 197.733C1472.16 198.426 1472.62 198.951 1473.19 199.307C1473.77 199.663 1474.42 199.841 1475.14 199.841C1475.8 199.841 1476.39 199.699 1476.9 199.415C1477.41 199.127 1477.81 198.722 1478.09 198.199C1478.38 197.672 1478.52 197.053 1478.52 196.341L1478.95 196.432H1475.45V195.182H1479.89V196.432C1479.89 197.39 1479.68 198.223 1479.27 198.932C1478.87 199.64 1478.31 200.189 1477.59 200.58C1476.88 200.966 1476.06 201.159 1475.14 201.159C1474.11 201.159 1473.2 200.917 1472.42 200.432C1471.64 199.947 1471.04 199.258 1470.6 198.364C1470.17 197.47 1469.95 196.409 1469.95 195.182C1469.95 194.261 1470.08 193.434 1470.32 192.699C1470.57 191.96 1470.93 191.331 1471.38 190.812C1471.84 190.294 1472.37 189.896 1472.99 189.619C1473.62 189.343 1474.3 189.205 1475.05 189.205C1475.66 189.205 1476.23 189.297 1476.76 189.483C1477.3 189.665 1477.77 189.924 1478.19 190.261C1478.61 190.595 1478.96 190.994 1479.24 191.46C1479.52 191.922 1479.71 192.436 1479.82 193H1478.36ZM1482.28 201V192.273H1483.57V193.591H1483.66C1483.82 193.159 1484.11 192.809 1484.53 192.54C1484.94 192.271 1485.41 192.136 1485.94 192.136C1486.04 192.136 1486.16 192.138 1486.31 192.142C1486.45 192.146 1486.57 192.152 1486.64 192.159V193.523C1486.6 193.511 1486.49 193.494 1486.33 193.472C1486.17 193.445 1486 193.432 1485.82 193.432C1485.4 193.432 1485.02 193.521 1484.69 193.699C1484.36 193.873 1484.1 194.116 1483.9 194.426C1483.71 194.733 1483.62 195.083 1483.62 195.477V201H1482.28ZM1488.39 201V192.273H1489.73V201H1488.39ZM1489.07 190.818C1488.81 190.818 1488.59 190.729 1488.4 190.551C1488.21 190.373 1488.12 190.159 1488.12 189.909C1488.12 189.659 1488.21 189.445 1488.4 189.267C1488.59 189.089 1488.81 189 1489.07 189C1489.33 189 1489.56 189.089 1489.74 189.267C1489.93 189.445 1490.03 189.659 1490.03 189.909C1490.03 190.159 1489.93 190.373 1489.74 190.551C1489.56 190.729 1489.33 190.818 1489.07 190.818ZM1498.53 194.227L1497.33 194.568C1497.25 194.367 1497.14 194.172 1496.99 193.983C1496.85 193.79 1496.65 193.631 1496.4 193.506C1496.15 193.381 1495.83 193.318 1495.44 193.318C1494.9 193.318 1494.46 193.441 1494.1 193.688C1493.75 193.93 1493.58 194.239 1493.58 194.614C1493.58 194.947 1493.7 195.21 1493.94 195.403C1494.18 195.597 1494.56 195.758 1495.08 195.886L1496.37 196.205C1497.15 196.394 1497.73 196.684 1498.11 197.074C1498.5 197.46 1498.69 197.958 1498.69 198.568C1498.69 199.068 1498.54 199.515 1498.26 199.909C1497.97 200.303 1497.58 200.614 1497.06 200.841C1496.55 201.068 1495.96 201.182 1495.28 201.182C1494.39 201.182 1493.65 200.989 1493.07 200.602C1492.49 200.216 1492.12 199.652 1491.96 198.909L1493.23 198.591C1493.36 199.061 1493.58 199.413 1493.92 199.648C1494.26 199.883 1494.71 200 1495.26 200C1495.88 200 1496.38 199.867 1496.75 199.602C1497.12 199.333 1497.3 199.011 1497.3 198.636C1497.3 198.333 1497.2 198.08 1496.98 197.875C1496.77 197.667 1496.45 197.511 1496.01 197.409L1494.55 197.068C1493.75 196.879 1493.17 196.585 1492.79 196.188C1492.42 195.786 1492.23 195.284 1492.23 194.682C1492.23 194.189 1492.37 193.754 1492.65 193.375C1492.93 192.996 1493.31 192.699 1493.79 192.483C1494.28 192.267 1494.83 192.159 1495.44 192.159C1496.3 192.159 1496.98 192.348 1497.47 192.727C1497.97 193.106 1498.32 193.606 1498.53 194.227ZM1509.07 201.182C1508.25 201.182 1507.55 200.989 1506.96 200.602C1506.37 200.216 1505.91 199.684 1505.6 199.006C1505.28 198.328 1505.12 197.553 1505.12 196.682C1505.12 195.795 1505.28 195.013 1505.61 194.335C1505.94 193.653 1506.39 193.121 1506.98 192.739C1507.57 192.352 1508.26 192.159 1509.05 192.159C1509.66 192.159 1510.22 192.273 1510.71 192.5C1511.2 192.727 1511.6 193.045 1511.92 193.455C1512.23 193.864 1512.43 194.341 1512.5 194.886H1511.16C1511.06 194.489 1510.83 194.136 1510.48 193.83C1510.13 193.519 1509.66 193.364 1509.07 193.364C1508.55 193.364 1508.09 193.5 1507.7 193.773C1507.31 194.042 1507 194.422 1506.78 194.915C1506.57 195.403 1506.46 195.977 1506.46 196.636C1506.46 197.311 1506.57 197.898 1506.78 198.398C1506.99 198.898 1507.3 199.286 1507.69 199.562C1508.08 199.839 1508.54 199.977 1509.07 199.977C1509.42 199.977 1509.74 199.917 1510.02 199.795C1510.31 199.674 1510.55 199.5 1510.74 199.273C1510.94 199.045 1511.08 198.773 1511.16 198.455H1512.5C1512.43 198.97 1512.24 199.434 1511.94 199.847C1511.65 200.256 1511.25 200.581 1510.77 200.824C1510.28 201.062 1509.72 201.182 1509.07 201.182ZM1515.97 189.364V201H1514.62V189.364H1515.97ZM1521.15 201.205C1520.6 201.205 1520.09 201.1 1519.64 200.892C1519.19 200.68 1518.84 200.375 1518.57 199.977C1518.31 199.576 1518.17 199.091 1518.17 198.523C1518.17 198.023 1518.27 197.617 1518.47 197.307C1518.66 196.992 1518.93 196.746 1519.26 196.568C1519.59 196.39 1519.95 196.258 1520.35 196.17C1520.75 196.08 1521.15 196.008 1521.56 195.955C1522.09 195.886 1522.52 195.835 1522.85 195.801C1523.18 195.763 1523.42 195.701 1523.58 195.614C1523.73 195.527 1523.81 195.375 1523.81 195.159V195.114C1523.81 194.553 1523.66 194.117 1523.35 193.807C1523.05 193.496 1522.59 193.341 1521.97 193.341C1521.33 193.341 1520.83 193.481 1520.46 193.761C1520.1 194.042 1519.84 194.341 1519.7 194.659L1518.42 194.205C1518.65 193.674 1518.95 193.261 1519.33 192.966C1519.71 192.667 1520.13 192.458 1520.58 192.341C1521.04 192.22 1521.48 192.159 1521.92 192.159C1522.2 192.159 1522.52 192.193 1522.89 192.261C1523.26 192.326 1523.61 192.46 1523.95 192.665C1524.3 192.869 1524.58 193.178 1524.81 193.591C1525.04 194.004 1525.15 194.557 1525.15 195.25V201H1523.81V199.818H1523.74C1523.65 200.008 1523.5 200.21 1523.29 200.426C1523.07 200.642 1522.79 200.826 1522.44 200.977C1522.09 201.129 1521.66 201.205 1521.15 201.205ZM1521.35 200C1521.88 200 1522.33 199.896 1522.7 199.688C1523.06 199.479 1523.34 199.21 1523.52 198.881C1523.71 198.551 1523.81 198.205 1523.81 197.841V196.614C1523.75 196.682 1523.63 196.744 1523.43 196.801C1523.24 196.854 1523.02 196.902 1522.77 196.943C1522.53 196.981 1522.29 197.015 1522.05 197.045C1521.82 197.072 1521.63 197.095 1521.49 197.114C1521.14 197.159 1520.82 197.233 1520.51 197.335C1520.21 197.434 1519.97 197.583 1519.79 197.784C1519.6 197.981 1519.51 198.25 1519.51 198.591C1519.51 199.057 1519.69 199.409 1520.03 199.648C1520.38 199.883 1520.82 200 1521.35 200ZM1527.76 201V192.273H1529.05V193.591H1529.14C1529.3 193.159 1529.59 192.809 1530.01 192.54C1530.42 192.271 1530.89 192.136 1531.42 192.136C1531.51 192.136 1531.64 192.138 1531.79 192.142C1531.93 192.146 1532.05 192.152 1532.12 192.159V193.523C1532.08 193.511 1531.97 193.494 1531.81 193.472C1531.65 193.445 1531.48 193.432 1531.3 193.432C1530.88 193.432 1530.5 193.521 1530.17 193.699C1529.84 193.873 1529.58 194.116 1529.38 194.426C1529.19 194.733 1529.1 195.083 1529.1 195.477V201H1527.76ZM1537.15 201.182C1536.36 201.182 1535.67 200.994 1535.08 200.619C1534.49 200.244 1534.02 199.72 1533.69 199.045C1533.36 198.371 1533.2 197.583 1533.2 196.682C1533.2 195.773 1533.36 194.979 1533.69 194.301C1534.02 193.623 1534.49 193.097 1535.08 192.722C1535.67 192.347 1536.36 192.159 1537.15 192.159C1537.94 192.159 1538.63 192.347 1539.22 192.722C1539.81 193.097 1540.28 193.623 1540.6 194.301C1540.94 194.979 1541.1 195.773 1541.1 196.682C1541.1 197.583 1540.94 198.371 1540.6 199.045C1540.28 199.72 1539.81 200.244 1539.22 200.619C1538.63 200.994 1537.94 201.182 1537.15 201.182ZM1537.15 199.977C1537.75 199.977 1538.24 199.824 1538.63 199.517C1539.01 199.21 1539.3 198.807 1539.49 198.307C1539.67 197.807 1539.76 197.265 1539.76 196.682C1539.76 196.098 1539.67 195.555 1539.49 195.051C1539.3 194.547 1539.01 194.14 1538.63 193.83C1538.24 193.519 1537.75 193.364 1537.15 193.364C1536.55 193.364 1536.06 193.519 1535.67 193.83C1535.29 194.14 1535 194.547 1534.81 195.051C1534.63 195.555 1534.54 196.098 1534.54 196.682C1534.54 197.265 1534.63 197.807 1534.81 198.307C1535 198.807 1535.29 199.21 1535.67 199.517C1536.06 199.824 1536.55 199.977 1537.15 199.977Z" fill="white"/>
</g>
<defs>
<filter id="filter0_d_689_2194" x="0" y="0" width="273" height="235" filterUnits="userSpaceOnUse" color-interpolation-filters="sRGB">
<feFlood flood-opacity="0" result="BackgroundImageFix"/>
<feColorMatrix in="SourceAlpha" type="matrix" values="0 0 0 0 0 0 0 0 0 0 0 0 0 0 0 0 0 0 127 0" result="hardAlpha"/>
<feOffset dy="2"/>
<feGaussianBlur stdDeviation="1.5"/>
<feColorMatrix type="matrix" values="0 0 0 0 0 0 0 0 0 0 0 0 0 0 0 0 0 0 0.03 0"/>
<feBlend mode="normal" in2="BackgroundImageFix" result="effect1_dropShadow_689_2194"/>
<feBlend mode="normal" in="SourceGraphic" in2="effect1_dropShadow_689_2194" result="shape"/>
</filter>
<filter id="filter1_d_689_2194" x="290" y="0" width="273" height="235" filterUnits="userSpaceOnUse" color-interpolation-filters="sRGB">
<feFlood flood-opacity="0" result="BackgroundImageFix"/>
<feColorMatrix in="SourceAlpha" type="matrix" values="0 0 0 0 0 0 0 0 0 0 0 0 0 0 0 0 0 0 127 0" result="hardAlpha"/>
<feOffset dy="2"/>
<feGaussianBlur stdDeviation="1.5"/>
<feColorMatrix type="matrix" values="0 0 0 0 0 0 0 0 0 0 0 0 0 0 0 0 0 0 0.03 0"/>
<feBlend mode="normal" in2="BackgroundImageFix" result="effect1_dropShadow_689_2194"/>
<feBlend mode="normal" in="SourceGraphic" in2="effect1_dropShadow_689_2194" result="shape"/>
</filter>
<filter id="filter2_d_689_2194" x="580" y="0" width="273" height="235" filterUnits="userSpaceOnUse" color-interpolation-filters="sRGB">
<feFlood flood-opacity="0" result="BackgroundImageFix"/>
<feColorMatrix in="SourceAlpha" type="matrix" values="0 0 0 0 0 0 0 0 0 0 0 0 0 0 0 0 0 0 127 0" result="hardAlpha"/>
<feOffset dy="2"/>
<feGaussianBlur stdDeviation="1.5"/>
<feColorMatrix type="matrix" values="0 0 0 0 0 0 0 0 0 0 0 0 0 0 0 0 0 0 0.03 0"/>
<feBlend mode="normal" in2="BackgroundImageFix" result="effect1_dropShadow_689_2194"/>
<feBlend mode="normal" in="SourceGraphic" in2="effect1_dropShadow_689_2194" result="shape"/>
</filter>
<filter id="filter3_d_689_2194" x="870" y="0" width="273" height="235" filterUnits="userSpaceOnUse" color-interpolation-filters="sRGB">
<feFlood flood-opacity="0" result="BackgroundImageFix"/>
<feColorMatrix in="SourceAlpha" type="matrix" values="0 0 0 0 0 0 0 0 0 0 0 0 0 0 0 0 0 0 127 0" result="hardAlpha"/>
<feOffset dy="2"/>
<feGaussianBlur stdDeviation="1.5"/>
<feColorMatrix type="matrix" values="0 0 0 0 0 0 0 0 0 0 0 0 0 0 0 0 0 0 0.03 0"/>
<feBlend mode="normal" in2="BackgroundImageFix" result="effect1_dropShadow_689_2194"/>
<feBlend mode="normal" in="SourceGraphic" in2="effect1_dropShadow_689_2194" result="shape"/>
</filter>
<filter id="filter4_d_689_2194" x="1160" y="0" width="273" height="235" filterUnits="userSpaceOnUse" color-interpolation-filters="sRGB">
<feFlood flood-opacity="0" result="BackgroundImageFix"/>
<feColorMatrix in="SourceAlpha" type="matrix" values="0 0 0 0 0 0 0 0 0 0 0 0 0 0 0 0 0 0 127 0" result="hardAlpha"/>
<feOffset dy="2"/>
<feGaussianBlur stdDeviation="1.5"/>
<feColorMatrix type="matrix" values="0 0 0 0 0 0 0 0 0 0 0 0 0 0 0 0 0 0 0.03 0"/>
<feBlend mode="normal" in2="BackgroundImageFix" result="effect1_dropShadow_689_2194"/>
<feBlend mode="normal" in="SourceGraphic" in2="effect1_dropShadow_689_2194" result="shape"/>
</filter>
<filter id="filter5_d_689_2194" x="1450" y="0" width="273" height="235" filterUnits="userSpaceOnUse" color-interpolation-filters="sRGB">
<feFlood flood-opacity="0" result="BackgroundImageFix"/>
<feColorMatrix in="SourceAlpha" type="matrix" values="0 0 0 0 0 0 0 0 0 0 0 0 0 0 0 0 0 0 127 0" result="hardAlpha"/>
<feOffset dy="2"/>
<feGaussianBlur stdDeviation="1.5"/>
<feColorMatrix type="matrix" values="0 0 0 0 0 0 0 0 0 0 0 0 0 0 0 0 0 0 0.03 0"/>
<feBlend mode="normal" in2="BackgroundImageFix" result="effect1_dropShadow_689_2194"/>
<feBlend mode="normal" in="SourceGraphic" in2="effect1_dropShadow_689_2194" result="shape"/>
</filter>
<clipPath id="clip0_689_2194">
<rect x="19" y="17" width="235" height="150" rx="24" fill="white"/>
</clipPath>
<clipPath id="clip1_689_2194">
<rect x="309" y="17" width="235" height="150" rx="24" fill="white"/>
</clipPath>
<clipPath id="clip2_689_2194">
<rect x="599" y="17" width="235" height="150" rx="24" fill="white"/>
</clipPath>
<clipPath id="clip3_689_2194">
<rect x="889" y="17" width="235" height="150" rx="24" fill="white"/>
</clipPath>
<clipPath id="clip4_689_2194">
<rect x="1179" y="17" width="235" height="150" rx="24" fill="white"/>
</clipPath>
<clipPath id="clip5_689_2194">
<rect x="1469" y="17" width="235" height="150" rx="24" fill="white"/>
</clipPath>
</defs>
</svg>
