<svg width="1445" height="353" viewBox="0 0 1445 353" fill="none" xmlns="http://www.w3.org/2000/svg">
<path d="M204.747 0V304.374H1444.73" stroke="white" stroke-width="4"/>
<path d="M122.598 43.498H117.645L117.676 39.8418H122.598C123.827 39.8418 124.864 39.5658 125.708 39.0137C126.551 38.4512 127.187 37.6335 127.614 36.5605C128.051 35.4876 128.27 34.1908 128.27 32.6699V31.5605C128.27 30.3939 128.145 29.3678 127.895 28.4824C127.656 27.597 127.296 26.8522 126.817 26.248C126.338 25.6439 125.749 25.1908 125.051 24.8887C124.354 24.5762 123.551 24.4199 122.645 24.4199H117.551V20.748H122.645C124.166 20.748 125.557 21.0085 126.817 21.5293C128.088 22.0397 129.187 22.7741 130.114 23.7324C131.041 24.6908 131.755 25.8366 132.255 27.1699C132.765 28.4928 133.02 29.9668 133.02 31.5918V32.6699C133.02 34.2845 132.765 35.7585 132.255 37.0918C131.755 38.4251 131.041 39.571 130.114 40.5293C129.197 41.4772 128.098 42.2116 126.817 42.7324C125.546 43.2428 124.14 43.498 122.598 43.498ZM120.301 20.748V43.498H115.614V20.748H120.301ZM141.005 26.5918V43.498H136.489V26.5918H141.005ZM136.63 24.5449L139.692 19.7324H144.583L140.286 24.5449H136.63ZM150.52 43.498H146.005V25.8262C146.005 24.3887 146.296 23.1751 146.88 22.1855C147.473 21.196 148.317 20.446 149.411 19.9355C150.515 19.4251 151.848 19.1699 153.411 19.1699C154.296 19.1699 155.156 19.2585 155.989 19.4355C156.822 19.6022 157.682 19.821 158.567 20.0918L157.911 23.7012C157.338 23.5241 156.723 23.3574 156.067 23.2012C155.411 23.0449 154.619 22.9668 153.692 22.9668C152.65 22.9668 151.859 23.2116 151.317 23.7012C150.786 24.1803 150.52 24.8887 150.52 25.8262V43.498ZM153.88 26.5918V29.7793H143.489V26.5918H153.88ZM160.661 26.5918V43.498H156.145V26.5918H160.661ZM171.411 40.2949C171.963 40.2949 172.452 40.1908 172.88 39.9824C173.307 39.7637 173.64 39.4616 173.88 39.0762C174.13 38.6803 174.26 38.2168 174.27 37.6855H178.505C178.494 38.873 178.176 39.9303 177.551 40.8574C176.926 41.7741 176.088 42.498 175.036 43.0293C173.984 43.5501 172.807 43.8105 171.505 43.8105C170.192 43.8105 169.046 43.5918 168.067 43.1543C167.098 42.7168 166.291 42.1126 165.645 41.3418C164.999 40.5605 164.515 39.6543 164.192 38.623C163.869 37.5814 163.708 36.4668 163.708 35.2793V34.8262C163.708 33.6283 163.869 32.5137 164.192 31.4824C164.515 30.4408 164.999 29.5345 165.645 28.7637C166.291 27.9824 167.098 27.373 168.067 26.9355C169.036 26.498 170.171 26.2793 171.473 26.2793C172.859 26.2793 174.072 26.5449 175.114 27.0762C176.166 27.6074 176.989 28.3678 177.583 29.3574C178.187 30.3366 178.494 31.498 178.505 32.8418H174.27C174.26 32.2793 174.14 31.7689 173.911 31.3105C173.692 30.8522 173.369 30.4876 172.942 30.2168C172.525 29.9355 172.01 29.7949 171.395 29.7949C170.739 29.7949 170.202 29.9355 169.786 30.2168C169.369 30.4876 169.046 30.8626 168.817 31.3418C168.588 31.8105 168.426 32.347 168.333 32.9512C168.249 33.5449 168.208 34.1699 168.208 34.8262V35.2793C168.208 35.9355 168.249 36.5658 168.333 37.1699C168.416 37.7741 168.572 38.3105 168.801 38.7793C169.041 39.248 169.369 39.6178 169.786 39.8887C170.202 40.1595 170.744 40.2949 171.411 40.2949ZM185.864 26.5918V43.498H181.348V26.5918H185.864ZM181.067 22.1855C181.067 21.5293 181.296 20.9876 181.755 20.5605C182.213 20.1335 182.827 19.9199 183.598 19.9199C184.359 19.9199 184.968 20.1335 185.426 20.5605C185.895 20.9876 186.13 21.5293 186.13 22.1855C186.13 22.8418 185.895 23.3835 185.426 23.8105C184.968 24.2376 184.359 24.4512 183.598 24.4512C182.827 24.4512 182.213 24.2376 181.755 23.8105C181.296 23.3835 181.067 22.8418 181.067 22.1855ZM194.333 19.498V43.498H189.817V19.498H194.333Z" fill="#C5C5C5"/>
<path d="M112.327 103.057V125.807H107.64L98.4991 110.557V125.807H93.8116V103.057H98.4991L107.655 118.322V103.057H112.327ZM115.405 117.525V117.197C115.405 115.958 115.582 114.817 115.937 113.775C116.291 112.723 116.806 111.812 117.483 111.041C118.161 110.27 118.994 109.671 119.983 109.244C120.973 108.807 122.108 108.588 123.39 108.588C124.671 108.588 125.812 108.807 126.812 109.244C127.812 109.671 128.65 110.27 129.327 111.041C130.015 111.812 130.536 112.723 130.89 113.775C131.244 114.817 131.421 115.958 131.421 117.197V117.525C131.421 118.755 131.244 119.895 130.89 120.947C130.536 121.989 130.015 122.9 129.327 123.682C128.65 124.452 127.817 125.051 126.827 125.479C125.838 125.906 124.702 126.119 123.421 126.119C122.14 126.119 120.999 125.906 119.999 125.479C119.009 125.051 118.171 124.452 117.483 123.682C116.806 122.9 116.291 121.989 115.937 120.947C115.582 119.895 115.405 118.755 115.405 117.525ZM119.905 117.197V117.525C119.905 118.234 119.968 118.895 120.093 119.51C120.218 120.124 120.416 120.666 120.687 121.135C120.968 121.593 121.332 121.952 121.78 122.213C122.228 122.473 122.775 122.604 123.421 122.604C124.046 122.604 124.582 122.473 125.03 122.213C125.478 121.952 125.838 121.593 126.108 121.135C126.379 120.666 126.577 120.124 126.702 119.51C126.838 118.895 126.905 118.234 126.905 117.525V117.197C126.905 116.51 126.838 115.864 126.702 115.26C126.577 114.645 126.374 114.104 126.093 113.635C125.822 113.156 125.463 112.781 125.015 112.51C124.567 112.239 124.025 112.104 123.39 112.104C122.754 112.104 122.213 112.239 121.765 112.51C121.327 112.781 120.968 113.156 120.687 113.635C120.416 114.104 120.218 114.645 120.093 115.26C119.968 115.864 119.905 116.51 119.905 117.197ZM138.687 112.588V125.807H134.187V108.9H138.421L138.687 112.588ZM143.78 108.791L143.702 112.963C143.483 112.932 143.218 112.906 142.905 112.885C142.603 112.854 142.327 112.838 142.077 112.838C141.442 112.838 140.89 112.921 140.421 113.088C139.963 113.244 139.577 113.479 139.265 113.791C138.963 114.104 138.733 114.484 138.577 114.932C138.431 115.38 138.348 115.89 138.327 116.463L137.421 116.182C137.421 115.088 137.53 114.083 137.749 113.166C137.968 112.239 138.286 111.432 138.702 110.744C139.129 110.057 139.65 109.525 140.265 109.15C140.879 108.775 141.582 108.588 142.374 108.588C142.624 108.588 142.879 108.609 143.14 108.65C143.4 108.682 143.614 108.729 143.78 108.791ZM150.405 112.4V125.807H145.89V108.9H150.124L150.405 112.4ZM149.78 116.76H148.53C148.53 115.583 148.671 114.499 148.952 113.51C149.244 112.51 149.666 111.645 150.218 110.916C150.78 110.176 151.473 109.604 152.296 109.197C153.119 108.791 154.072 108.588 155.155 108.588C155.905 108.588 156.593 108.702 157.218 108.932C157.843 109.15 158.379 109.499 158.827 109.979C159.286 110.447 159.64 111.062 159.89 111.822C160.14 112.572 160.265 113.473 160.265 114.525V125.807H155.765V115.025C155.765 114.255 155.661 113.661 155.452 113.244C155.244 112.827 154.947 112.536 154.562 112.369C154.187 112.202 153.733 112.119 153.202 112.119C152.619 112.119 152.108 112.239 151.671 112.479C151.244 112.718 150.89 113.051 150.608 113.479C150.327 113.895 150.119 114.385 149.983 114.947C149.848 115.51 149.78 116.114 149.78 116.76ZM159.843 116.244L158.233 116.447C158.233 115.343 158.369 114.317 158.64 113.369C158.921 112.421 159.332 111.588 159.874 110.869C160.426 110.15 161.108 109.593 161.921 109.197C162.733 108.791 163.671 108.588 164.733 108.588C165.546 108.588 166.286 108.708 166.952 108.947C167.619 109.176 168.187 109.546 168.655 110.057C169.134 110.557 169.499 111.213 169.749 112.025C170.009 112.838 170.14 113.833 170.14 115.01V125.807H165.624V115.01C165.624 114.229 165.52 113.635 165.312 113.229C165.114 112.812 164.822 112.525 164.437 112.369C164.062 112.202 163.614 112.119 163.093 112.119C162.551 112.119 162.077 112.229 161.671 112.447C161.265 112.656 160.926 112.947 160.655 113.322C160.384 113.697 160.181 114.135 160.046 114.635C159.911 115.124 159.843 115.661 159.843 116.244ZM182.749 121.994V114.463C182.749 113.921 182.661 113.458 182.483 113.072C182.306 112.676 182.03 112.369 181.655 112.15C181.291 111.932 180.817 111.822 180.233 111.822C179.733 111.822 179.301 111.911 178.937 112.088C178.572 112.255 178.291 112.499 178.093 112.822C177.895 113.135 177.796 113.505 177.796 113.932H173.296C173.296 113.213 173.463 112.531 173.796 111.885C174.129 111.239 174.614 110.671 175.249 110.182C175.884 109.682 176.64 109.291 177.515 109.01C178.4 108.729 179.39 108.588 180.483 108.588C181.796 108.588 182.963 108.807 183.983 109.244C185.004 109.682 185.806 110.338 186.39 111.213C186.983 112.088 187.28 113.182 187.28 114.494V121.729C187.28 122.656 187.338 123.416 187.452 124.01C187.567 124.593 187.733 125.104 187.952 125.541V125.807H183.405C183.187 125.348 183.02 124.775 182.905 124.088C182.801 123.39 182.749 122.692 182.749 121.994ZM183.343 115.51L183.374 118.057H180.858C180.265 118.057 179.749 118.124 179.312 118.26C178.874 118.395 178.515 118.588 178.233 118.838C177.952 119.077 177.744 119.359 177.608 119.682C177.483 120.005 177.421 120.359 177.421 120.744C177.421 121.13 177.509 121.479 177.687 121.791C177.864 122.093 178.119 122.333 178.452 122.51C178.786 122.676 179.176 122.76 179.624 122.76C180.301 122.76 180.89 122.624 181.39 122.354C181.89 122.083 182.275 121.749 182.546 121.354C182.827 120.958 182.973 120.583 182.983 120.229L184.171 122.135C184.004 122.562 183.775 123.005 183.483 123.463C183.202 123.921 182.843 124.354 182.405 124.76C181.968 125.156 181.442 125.484 180.827 125.744C180.213 125.994 179.483 126.119 178.64 126.119C177.567 126.119 176.593 125.906 175.718 125.479C174.853 125.041 174.166 124.442 173.655 123.682C173.155 122.911 172.905 122.036 172.905 121.057C172.905 120.171 173.072 119.385 173.405 118.697C173.739 118.01 174.228 117.432 174.874 116.963C175.53 116.484 176.348 116.124 177.327 115.885C178.306 115.635 179.442 115.51 180.733 115.51H183.343ZM195.499 101.807V125.807H190.983V101.807H195.499Z" fill="#C5C5C5"/>
<path d="M136.155 183.751V206.501H131.467V183.751H136.155ZM145.217 193.47V197.126H134.873V193.47H145.217ZM146.311 183.751V187.423H134.873V183.751H146.311ZM157.342 202.688V195.157C157.342 194.616 157.254 194.152 157.077 193.767C156.9 193.371 156.623 193.063 156.248 192.845C155.884 192.626 155.41 192.517 154.827 192.517C154.327 192.517 153.894 192.605 153.53 192.782C153.165 192.949 152.884 193.194 152.686 193.517C152.488 193.829 152.389 194.199 152.389 194.626H147.889C147.889 193.907 148.056 193.225 148.389 192.579C148.722 191.933 149.207 191.366 149.842 190.876C150.478 190.376 151.233 189.985 152.108 189.704C152.993 189.423 153.983 189.282 155.077 189.282C156.389 189.282 157.556 189.501 158.577 189.938C159.597 190.376 160.4 191.032 160.983 191.907C161.577 192.782 161.873 193.876 161.873 195.188V202.423C161.873 203.35 161.931 204.11 162.045 204.704C162.16 205.287 162.327 205.798 162.545 206.235V206.501H157.998C157.78 206.043 157.613 205.47 157.498 204.782C157.394 204.084 157.342 203.386 157.342 202.688ZM157.936 196.204L157.967 198.751H155.452C154.858 198.751 154.342 198.819 153.905 198.954C153.467 199.09 153.108 199.282 152.827 199.532C152.545 199.772 152.337 200.053 152.202 200.376C152.077 200.699 152.014 201.053 152.014 201.438C152.014 201.824 152.103 202.173 152.28 202.485C152.457 202.787 152.712 203.027 153.045 203.204C153.379 203.371 153.769 203.454 154.217 203.454C154.894 203.454 155.483 203.319 155.983 203.048C156.483 202.777 156.868 202.444 157.139 202.048C157.42 201.652 157.566 201.277 157.577 200.923L158.764 202.829C158.597 203.256 158.368 203.699 158.077 204.157C157.795 204.616 157.436 205.048 156.998 205.454C156.561 205.85 156.035 206.178 155.42 206.438C154.806 206.688 154.077 206.813 153.233 206.813C152.16 206.813 151.186 206.6 150.311 206.173C149.446 205.735 148.759 205.136 148.248 204.376C147.748 203.605 147.498 202.73 147.498 201.751C147.498 200.866 147.665 200.079 147.998 199.392C148.332 198.704 148.821 198.126 149.467 197.657C150.123 197.178 150.941 196.819 151.92 196.579C152.9 196.329 154.035 196.204 155.327 196.204H157.936ZM152.92 187.313L155.983 182.501H160.873L156.577 187.313H152.92ZM172.327 203.298C172.879 203.298 173.368 203.194 173.795 202.985C174.222 202.767 174.556 202.465 174.795 202.079C175.045 201.683 175.176 201.22 175.186 200.688H179.42C179.41 201.876 179.092 202.933 178.467 203.86C177.842 204.777 177.004 205.501 175.952 206.032C174.9 206.553 173.722 206.813 172.42 206.813C171.108 206.813 169.962 206.595 168.983 206.157C168.014 205.72 167.207 205.116 166.561 204.345C165.915 203.563 165.431 202.657 165.108 201.626C164.785 200.584 164.623 199.47 164.623 198.282V197.829C164.623 196.631 164.785 195.517 165.108 194.485C165.431 193.444 165.915 192.537 166.561 191.767C167.207 190.985 168.014 190.376 168.983 189.938C169.952 189.501 171.087 189.282 172.389 189.282C173.775 189.282 174.988 189.548 176.03 190.079C177.082 190.61 177.905 191.371 178.498 192.36C179.103 193.34 179.41 194.501 179.42 195.845H175.186C175.176 195.282 175.056 194.772 174.827 194.313C174.608 193.855 174.285 193.491 173.858 193.22C173.441 192.938 172.926 192.798 172.311 192.798C171.655 192.798 171.118 192.938 170.702 193.22C170.285 193.491 169.962 193.866 169.733 194.345C169.504 194.813 169.342 195.35 169.248 195.954C169.165 196.548 169.123 197.173 169.123 197.829V198.282C169.123 198.938 169.165 199.569 169.248 200.173C169.332 200.777 169.488 201.313 169.717 201.782C169.957 202.251 170.285 202.621 170.702 202.892C171.118 203.162 171.66 203.298 172.327 203.298ZM186.78 189.595V206.501H182.264V189.595H186.78ZM181.983 185.188C181.983 184.532 182.212 183.991 182.67 183.563C183.129 183.136 183.743 182.923 184.514 182.923C185.275 182.923 185.884 183.136 186.342 183.563C186.811 183.991 187.045 184.532 187.045 185.188C187.045 185.845 186.811 186.386 186.342 186.813C185.884 187.241 185.275 187.454 184.514 187.454C183.743 187.454 183.129 187.241 182.67 186.813C182.212 186.386 181.983 185.845 181.983 185.188ZM195.248 182.501V206.501H190.733V182.501H195.248Z" fill="#C5C5C5"/>
<path d="M69.1403 266.059H73.109L78.9528 282.762L84.7965 266.059H88.7653L80.5465 288.809H77.359L69.1403 266.059ZM66.9996 266.059H70.9528L71.6715 282.34V288.809H66.9996V266.059ZM86.9528 266.059H90.9215V288.809H86.234V282.34L86.9528 266.059ZM104.75 284.762V271.903H109.25V288.809H105.015L104.75 284.762ZM105.25 281.293L106.578 281.262C106.578 282.387 106.448 283.434 106.187 284.403C105.927 285.361 105.536 286.194 105.015 286.903C104.494 287.601 103.838 288.148 103.047 288.543C102.255 288.929 101.323 289.122 100.25 289.122C99.4267 289.122 98.6663 289.007 97.9684 288.778C97.2809 288.538 96.6871 288.168 96.1871 287.668C95.6976 287.158 95.3121 286.507 95.0309 285.715C94.7601 284.913 94.6246 283.95 94.6246 282.825V271.903H99.1246V282.856C99.1246 283.356 99.1819 283.778 99.2965 284.122C99.4215 284.465 99.5934 284.747 99.8121 284.965C100.031 285.184 100.286 285.34 100.578 285.434C100.88 285.528 101.213 285.575 101.578 285.575C102.505 285.575 103.234 285.387 103.765 285.012C104.307 284.637 104.687 284.127 104.906 283.481C105.135 282.825 105.25 282.096 105.25 281.293ZM117.703 286.903L122.187 271.903H127.015L120.218 291.356C120.073 291.783 119.875 292.241 119.625 292.731C119.385 293.221 119.057 293.684 118.64 294.122C118.234 294.569 117.718 294.934 117.093 295.215C116.479 295.497 115.724 295.637 114.828 295.637C114.401 295.637 114.052 295.611 113.781 295.559C113.51 295.507 113.187 295.434 112.812 295.34V292.043C112.927 292.043 113.047 292.043 113.172 292.043C113.297 292.054 113.416 292.059 113.531 292.059C114.125 292.059 114.609 291.991 114.984 291.856C115.359 291.721 115.661 291.512 115.89 291.231C116.119 290.96 116.302 290.606 116.437 290.168L117.703 286.903ZM115.828 271.903L119.5 284.153L120.14 288.918L117.078 289.247L111 271.903H115.828ZM142.515 288.809H137.984V270.403C137.984 269.122 138.234 268.043 138.734 267.168C139.244 266.283 139.958 265.616 140.875 265.168C141.802 264.71 142.901 264.481 144.172 264.481C144.588 264.481 144.989 264.512 145.375 264.575C145.76 264.627 146.135 264.694 146.5 264.778L146.453 268.168C146.255 268.116 146.047 268.08 145.828 268.059C145.609 268.038 145.354 268.028 145.062 268.028C144.52 268.028 144.057 268.122 143.672 268.309C143.297 268.486 143.01 268.752 142.812 269.106C142.614 269.46 142.515 269.892 142.515 270.403V288.809ZM145.89 271.903V275.09H135.468V271.903H145.89ZM157.375 284.997V277.465C157.375 276.924 157.286 276.46 157.109 276.075C156.932 275.679 156.656 275.372 156.281 275.153C155.916 274.934 155.442 274.825 154.859 274.825C154.359 274.825 153.927 274.913 153.562 275.09C153.198 275.257 152.916 275.502 152.718 275.825C152.52 276.137 152.422 276.507 152.422 276.934H147.922C147.922 276.215 148.088 275.533 148.422 274.887C148.755 274.241 149.239 273.674 149.875 273.184C150.51 272.684 151.265 272.293 152.14 272.012C153.026 271.731 154.015 271.59 155.109 271.59C156.422 271.59 157.588 271.809 158.609 272.247C159.63 272.684 160.432 273.34 161.015 274.215C161.609 275.09 161.906 276.184 161.906 277.497V284.731C161.906 285.658 161.963 286.418 162.078 287.012C162.192 287.596 162.359 288.106 162.578 288.543V288.809H158.031C157.812 288.351 157.645 287.778 157.531 287.09C157.427 286.392 157.375 285.694 157.375 284.997ZM157.968 278.512L158 281.059H155.484C154.89 281.059 154.375 281.127 153.937 281.262C153.5 281.398 153.14 281.59 152.859 281.84C152.578 282.08 152.369 282.361 152.234 282.684C152.109 283.007 152.047 283.361 152.047 283.747C152.047 284.132 152.135 284.481 152.312 284.793C152.489 285.096 152.744 285.335 153.078 285.512C153.411 285.679 153.802 285.762 154.25 285.762C154.927 285.762 155.515 285.627 156.015 285.356C156.515 285.085 156.901 284.752 157.172 284.356C157.453 283.96 157.599 283.585 157.609 283.231L158.797 285.137C158.63 285.564 158.401 286.007 158.109 286.465C157.828 286.924 157.468 287.356 157.031 287.762C156.593 288.158 156.067 288.486 155.453 288.747C154.838 288.997 154.109 289.122 153.265 289.122C152.192 289.122 151.218 288.908 150.343 288.481C149.479 288.043 148.791 287.444 148.281 286.684C147.781 285.913 147.531 285.038 147.531 284.059C147.531 283.174 147.698 282.387 148.031 281.7C148.364 281.012 148.854 280.434 149.5 279.965C150.156 279.486 150.974 279.127 151.953 278.887C152.932 278.637 154.067 278.512 155.359 278.512H157.968ZM152.953 269.622L156.015 264.809H160.906L156.609 269.622H152.953ZM172.359 285.606C172.911 285.606 173.401 285.502 173.828 285.293C174.255 285.075 174.588 284.773 174.828 284.387C175.078 283.991 175.208 283.528 175.218 282.997H179.453C179.442 284.184 179.125 285.241 178.5 286.168C177.875 287.085 177.036 287.809 175.984 288.34C174.932 288.861 173.755 289.122 172.453 289.122C171.14 289.122 169.994 288.903 169.015 288.465C168.047 288.028 167.239 287.424 166.593 286.653C165.948 285.872 165.463 284.965 165.14 283.934C164.817 282.892 164.656 281.778 164.656 280.59V280.137C164.656 278.939 164.817 277.825 165.14 276.793C165.463 275.752 165.948 274.846 166.593 274.075C167.239 273.293 168.047 272.684 169.015 272.247C169.984 271.809 171.119 271.59 172.422 271.59C173.807 271.59 175.02 271.856 176.062 272.387C177.114 272.918 177.937 273.679 178.531 274.668C179.135 275.648 179.442 276.809 179.453 278.153H175.218C175.208 277.59 175.088 277.08 174.859 276.622C174.64 276.163 174.317 275.799 173.89 275.528C173.474 275.247 172.958 275.106 172.343 275.106C171.687 275.106 171.151 275.247 170.734 275.528C170.317 275.799 169.994 276.174 169.765 276.653C169.536 277.122 169.375 277.658 169.281 278.262C169.198 278.856 169.156 279.481 169.156 280.137V280.59C169.156 281.247 169.198 281.877 169.281 282.481C169.364 283.085 169.52 283.622 169.75 284.09C169.989 284.559 170.317 284.929 170.734 285.2C171.151 285.471 171.692 285.606 172.359 285.606ZM186.812 271.903V288.809H182.297V271.903H186.812ZM182.015 267.497C182.015 266.84 182.244 266.299 182.703 265.872C183.161 265.444 183.776 265.231 184.547 265.231C185.307 265.231 185.916 265.444 186.375 265.872C186.843 266.299 187.078 266.84 187.078 267.497C187.078 268.153 186.843 268.694 186.375 269.122C185.916 269.549 185.307 269.762 184.547 269.762C183.776 269.762 183.161 269.549 182.703 269.122C182.244 268.694 182.015 268.153 182.015 267.497ZM195.281 264.809V288.809H190.765V264.809H195.281Z" fill="#C5C5C5"/>
<path d="M218.613 339.772V341.94C218.613 343.106 218.509 344.089 218.301 344.89C218.093 345.69 217.793 346.335 217.403 346.823C217.012 347.312 216.54 347.666 215.987 347.888C215.44 348.103 214.821 348.21 214.131 348.21C213.584 348.21 213.08 348.142 212.617 348.005C212.155 347.868 211.738 347.65 211.367 347.351C211.003 347.045 210.69 346.647 210.43 346.159C210.169 345.671 209.971 345.078 209.834 344.382C209.697 343.685 209.629 342.871 209.629 341.94V339.772C209.629 338.607 209.733 337.631 209.942 336.843C210.156 336.055 210.459 335.424 210.85 334.948C211.24 334.466 211.709 334.121 212.256 333.913C212.809 333.705 213.428 333.601 214.112 333.601C214.665 333.601 215.173 333.669 215.635 333.806C216.104 333.936 216.52 334.147 216.885 334.44C217.25 334.727 217.559 335.111 217.813 335.593C218.073 336.068 218.272 336.651 218.408 337.341C218.545 338.031 218.613 338.841 218.613 339.772ZM216.797 342.233V339.47C216.797 338.832 216.758 338.272 216.68 337.79C216.608 337.302 216.501 336.885 216.358 336.54C216.214 336.195 216.032 335.915 215.811 335.7C215.596 335.485 215.345 335.329 215.059 335.231C214.779 335.127 214.463 335.075 214.112 335.075C213.682 335.075 213.301 335.157 212.969 335.319C212.637 335.476 212.357 335.726 212.129 336.071C211.908 336.416 211.738 336.869 211.621 337.429C211.504 337.989 211.445 338.669 211.445 339.47V342.233C211.445 342.871 211.481 343.435 211.553 343.923C211.631 344.411 211.745 344.834 211.895 345.192C212.044 345.544 212.227 345.834 212.442 346.062C212.656 346.289 212.904 346.459 213.184 346.569C213.47 346.674 213.786 346.726 214.131 346.726C214.574 346.726 214.961 346.641 215.293 346.472C215.625 346.302 215.902 346.039 216.123 345.681C216.351 345.316 216.52 344.851 216.631 344.284C216.742 343.711 216.797 343.028 216.797 342.233Z" fill="#C5C5C5"/>
<path d="M508.609 346.53V348.015H499.302V346.716L503.961 341.53C504.534 340.892 504.976 340.352 505.289 339.909C505.608 339.46 505.829 339.06 505.953 338.708C506.083 338.35 506.148 337.985 506.148 337.614C506.148 337.146 506.05 336.722 505.855 336.345C505.666 335.961 505.386 335.655 505.015 335.427C504.644 335.199 504.195 335.085 503.668 335.085C503.036 335.085 502.509 335.209 502.086 335.456C501.669 335.697 501.356 336.035 501.148 336.472C500.94 336.908 500.836 337.409 500.836 337.976H499.029C499.029 337.175 499.205 336.442 499.556 335.778C499.908 335.114 500.429 334.587 501.119 334.196C501.809 333.799 502.659 333.601 503.668 333.601C504.566 333.601 505.334 333.76 505.972 334.079C506.61 334.392 507.099 334.834 507.437 335.407C507.782 335.974 507.955 336.638 507.955 337.399C507.955 337.816 507.883 338.239 507.74 338.669C507.603 339.092 507.411 339.515 507.164 339.938C506.923 340.362 506.64 340.778 506.314 341.188C505.995 341.599 505.653 342.002 505.289 342.399L501.48 346.53H508.609ZM512.828 341.247L511.382 340.876L512.095 333.796H519.39V335.466H513.629L513.199 339.333C513.459 339.183 513.788 339.043 514.185 338.913C514.589 338.783 515.051 338.718 515.572 338.718C516.23 338.718 516.819 338.832 517.34 339.06C517.86 339.281 518.303 339.6 518.668 340.017C519.039 340.433 519.322 340.935 519.517 341.521C519.713 342.106 519.81 342.761 519.81 343.483C519.81 344.167 519.716 344.795 519.527 345.368C519.345 345.941 519.068 346.442 518.697 346.872C518.326 347.295 517.857 347.624 517.291 347.858C516.731 348.093 516.07 348.21 515.308 348.21C514.735 348.21 514.192 348.132 513.677 347.976C513.17 347.813 512.714 347.569 512.31 347.243C511.913 346.911 511.588 346.501 511.334 346.013C511.086 345.518 510.93 344.938 510.865 344.274H512.584C512.662 344.808 512.818 345.257 513.052 345.622C513.287 345.987 513.593 346.263 513.97 346.452C514.355 346.634 514.8 346.726 515.308 346.726C515.738 346.726 516.119 346.651 516.451 346.501C516.783 346.351 517.063 346.136 517.291 345.856C517.519 345.576 517.691 345.238 517.808 344.841C517.932 344.444 517.994 343.998 517.994 343.503C517.994 343.054 517.932 342.637 517.808 342.253C517.685 341.869 517.499 341.534 517.252 341.247C517.011 340.961 516.715 340.739 516.363 340.583C516.011 340.42 515.608 340.339 515.152 340.339C514.547 340.339 514.088 340.42 513.775 340.583C513.469 340.746 513.153 340.967 512.828 341.247Z" fill="#C5C5C5"/>
<path d="M796.573 341.247L795.128 340.876L795.841 333.796H803.136V335.466H797.374L796.944 339.333C797.205 339.183 797.534 339.043 797.931 338.913C798.334 338.783 798.797 338.718 799.317 338.718C799.975 338.718 800.564 338.832 801.085 339.06C801.606 339.281 802.049 339.6 802.413 340.017C802.784 340.433 803.067 340.935 803.263 341.521C803.458 342.106 803.556 342.761 803.556 343.483C803.556 344.167 803.461 344.795 803.273 345.368C803.09 345.941 802.814 346.442 802.442 346.872C802.071 347.295 801.603 347.624 801.036 347.858C800.476 348.093 799.816 348.21 799.054 348.21C798.481 348.21 797.937 348.132 797.423 347.976C796.915 347.813 796.459 347.569 796.056 347.243C795.659 346.911 795.333 346.501 795.079 346.013C794.832 345.518 794.676 344.938 794.61 344.274H796.329C796.407 344.808 796.564 345.257 796.798 345.622C797.032 345.987 797.338 346.263 797.716 346.452C798.1 346.634 798.546 346.726 799.054 346.726C799.484 346.726 799.864 346.651 800.196 346.501C800.528 346.351 800.808 346.136 801.036 345.856C801.264 345.576 801.437 345.238 801.554 344.841C801.678 344.444 801.739 343.998 801.739 343.503C801.739 343.054 801.678 342.637 801.554 342.253C801.43 341.869 801.245 341.534 800.997 341.247C800.756 340.961 800.46 340.739 800.109 340.583C799.757 340.42 799.353 340.339 798.898 340.339C798.292 340.339 797.833 340.42 797.521 340.583C797.215 340.746 796.899 340.967 796.573 341.247ZM814.464 339.772V341.94C814.464 343.106 814.36 344.089 814.151 344.89C813.943 345.69 813.644 346.335 813.253 346.823C812.862 347.312 812.39 347.666 811.837 347.888C811.29 348.103 810.672 348.21 809.982 348.21C809.435 348.21 808.93 348.142 808.468 348.005C808.006 347.868 807.589 347.65 807.218 347.351C806.853 347.045 806.541 346.647 806.28 346.159C806.02 345.671 805.821 345.078 805.685 344.382C805.548 343.685 805.48 342.871 805.48 341.94V339.772C805.48 338.607 805.584 337.631 805.792 336.843C806.007 336.055 806.31 335.424 806.7 334.948C807.091 334.466 807.56 334.121 808.107 333.913C808.66 333.705 809.278 333.601 809.962 333.601C810.515 333.601 811.023 333.669 811.485 333.806C811.954 333.936 812.371 334.147 812.735 334.44C813.1 334.727 813.409 335.111 813.663 335.593C813.924 336.068 814.122 336.651 814.259 337.341C814.396 338.031 814.464 338.841 814.464 339.772ZM812.648 342.233V339.47C812.648 338.832 812.609 338.272 812.53 337.79C812.459 337.302 812.351 336.885 812.208 336.54C812.065 336.195 811.883 335.915 811.661 335.7C811.446 335.485 811.196 335.329 810.909 335.231C810.629 335.127 810.314 335.075 809.962 335.075C809.532 335.075 809.151 335.157 808.819 335.319C808.487 335.476 808.207 335.726 807.98 336.071C807.758 336.416 807.589 336.869 807.472 337.429C807.355 337.989 807.296 338.669 807.296 339.47V342.233C807.296 342.871 807.332 343.435 807.403 343.923C807.482 344.411 807.595 344.834 807.745 345.192C807.895 345.544 808.077 345.834 808.292 346.062C808.507 346.289 808.754 346.459 809.034 346.569C809.321 346.674 809.637 346.726 809.982 346.726C810.424 346.726 810.812 346.641 811.144 346.472C811.476 346.302 811.752 346.039 811.974 345.681C812.202 345.316 812.371 344.851 812.482 344.284C812.592 343.711 812.648 343.028 812.648 342.233Z" fill="#C5C5C5"/>
<path d="M1099.22 333.796V334.812L1093.33 348.015H1091.43L1097.31 335.28H1089.61V333.796H1099.22ZM1103.57 341.247L1102.12 340.876L1102.84 333.796H1110.13V335.466H1104.37L1103.94 339.333C1104.2 339.183 1104.53 339.043 1104.93 338.913C1105.33 338.783 1105.79 338.718 1106.31 338.718C1106.97 338.718 1107.56 338.832 1108.08 339.06C1108.6 339.281 1109.04 339.6 1109.41 340.017C1109.78 340.433 1110.06 340.935 1110.26 341.521C1110.45 342.106 1110.55 342.761 1110.55 343.483C1110.55 344.167 1110.46 344.795 1110.27 345.368C1110.09 345.941 1109.81 346.442 1109.44 346.872C1109.07 347.295 1108.6 347.624 1108.03 347.858C1107.47 348.093 1106.81 348.21 1106.05 348.21C1105.48 348.21 1104.93 348.132 1104.42 347.976C1103.91 347.813 1103.45 347.569 1103.05 347.243C1102.65 346.911 1102.33 346.501 1102.07 346.013C1101.83 345.518 1101.67 344.938 1101.61 344.274H1103.32C1103.4 344.808 1103.56 345.257 1103.79 345.622C1104.03 345.987 1104.33 346.263 1104.71 346.452C1105.1 346.634 1105.54 346.726 1106.05 346.726C1106.48 346.726 1106.86 346.651 1107.19 346.501C1107.52 346.351 1107.8 346.136 1108.03 345.856C1108.26 345.576 1108.43 345.238 1108.55 344.841C1108.67 344.444 1108.73 343.998 1108.73 343.503C1108.73 343.054 1108.67 342.637 1108.55 342.253C1108.43 341.869 1108.24 341.534 1107.99 341.247C1107.75 340.961 1107.46 340.739 1107.1 340.583C1106.75 340.42 1106.35 340.339 1105.89 340.339C1105.29 340.339 1104.83 340.42 1104.52 340.583C1104.21 340.746 1103.89 340.967 1103.57 341.247Z" fill="#C5C5C5"/>
<path d="M1387.25 333.718V348.015H1385.44V335.974L1381.8 337.302V335.671L1386.96 333.718H1387.25ZM1401.49 339.772V341.94C1401.49 343.106 1401.38 344.089 1401.17 344.89C1400.96 345.69 1400.67 346.335 1400.27 346.823C1399.88 347.312 1399.41 347.666 1398.86 347.888C1398.31 348.103 1397.69 348.21 1397 348.21C1396.46 348.21 1395.95 348.142 1395.49 348.005C1395.03 347.868 1394.61 347.65 1394.24 347.351C1393.87 347.045 1393.56 346.647 1393.3 346.159C1393.04 345.671 1392.84 345.078 1392.71 344.382C1392.57 343.685 1392.5 342.871 1392.5 341.94V339.772C1392.5 338.607 1392.61 337.631 1392.81 336.843C1393.03 336.055 1393.33 335.424 1393.72 334.948C1394.11 334.466 1394.58 334.121 1395.13 333.913C1395.68 333.705 1396.3 333.601 1396.98 333.601C1397.54 333.601 1398.04 333.669 1398.51 333.806C1398.98 333.936 1399.39 334.147 1399.76 334.44C1400.12 334.727 1400.43 335.111 1400.68 335.593C1400.95 336.068 1401.14 336.651 1401.28 337.341C1401.42 338.031 1401.49 338.841 1401.49 339.772ZM1399.67 342.233V339.47C1399.67 338.832 1399.63 338.272 1399.55 337.79C1399.48 337.302 1399.37 336.885 1399.23 336.54C1399.09 336.195 1398.9 335.915 1398.68 335.7C1398.47 335.485 1398.22 335.329 1397.93 335.231C1397.65 335.127 1397.34 335.075 1396.98 335.075C1396.55 335.075 1396.17 335.157 1395.84 335.319C1395.51 335.476 1395.23 335.726 1395 336.071C1394.78 336.416 1394.61 336.869 1394.49 337.429C1394.38 337.989 1394.32 338.669 1394.32 339.47V342.233C1394.32 342.871 1394.35 343.435 1394.42 343.923C1394.5 344.411 1394.62 344.834 1394.77 345.192C1394.92 345.544 1395.1 345.834 1395.31 346.062C1395.53 346.289 1395.78 346.459 1396.06 346.569C1396.34 346.674 1396.66 346.726 1397 346.726C1397.45 346.726 1397.83 346.641 1398.17 346.472C1398.5 346.302 1398.77 346.039 1399 345.681C1399.22 345.316 1399.39 344.851 1399.5 344.284C1399.61 343.711 1399.67 343.028 1399.67 342.233ZM1412.74 339.772V341.94C1412.74 343.106 1412.63 344.089 1412.42 344.89C1412.21 345.69 1411.92 346.335 1411.52 346.823C1411.13 347.312 1410.66 347.666 1410.11 347.888C1409.56 348.103 1408.94 348.21 1408.25 348.21C1407.71 348.21 1407.2 348.142 1406.74 348.005C1406.28 347.868 1405.86 347.65 1405.49 347.351C1405.12 347.045 1404.81 346.647 1404.55 346.159C1404.29 345.671 1404.09 345.078 1403.96 344.382C1403.82 343.685 1403.75 342.871 1403.75 341.94V339.772C1403.75 338.607 1403.86 337.631 1404.06 336.843C1404.28 336.055 1404.58 335.424 1404.97 334.948C1405.36 334.466 1405.83 334.121 1406.38 333.913C1406.93 333.705 1407.55 333.601 1408.23 333.601C1408.79 333.601 1409.29 333.669 1409.76 333.806C1410.23 333.936 1410.64 334.147 1411.01 334.44C1411.37 334.727 1411.68 335.111 1411.93 335.593C1412.2 336.068 1412.39 336.651 1412.53 337.341C1412.67 338.031 1412.74 338.841 1412.74 339.772ZM1410.92 342.233V339.47C1410.92 338.832 1410.88 338.272 1410.8 337.79C1410.73 337.302 1410.62 336.885 1410.48 336.54C1410.34 336.195 1410.15 335.915 1409.93 335.7C1409.72 335.485 1409.47 335.329 1409.18 335.231C1408.9 335.127 1408.59 335.075 1408.23 335.075C1407.8 335.075 1407.42 335.157 1407.09 335.319C1406.76 335.476 1406.48 335.726 1406.25 336.071C1406.03 336.416 1405.86 336.869 1405.74 337.429C1405.63 337.989 1405.57 338.669 1405.57 339.47V342.233C1405.57 342.871 1405.6 343.435 1405.67 343.923C1405.75 344.411 1405.87 344.834 1406.02 345.192C1406.17 345.544 1406.35 345.834 1406.56 346.062C1406.78 346.289 1407.03 346.459 1407.31 346.569C1407.59 346.674 1407.91 346.726 1408.25 346.726C1408.7 346.726 1409.08 346.641 1409.42 346.472C1409.75 346.302 1410.02 346.039 1410.25 345.681C1410.47 345.316 1410.64 344.851 1410.75 344.284C1410.86 343.711 1410.92 343.028 1410.92 342.233Z" fill="#C5C5C5"/>
<path d="M213.668 17.415H439.296C444.818 17.415 449.296 21.8922 449.296 27.415V39.6928C449.296 45.2157 444.818 49.6928 439.296 49.6928H213.668V17.415Z" fill="#BA007C"/>
<path d="M213.668 99.7236H558.723C564.246 99.7236 568.723 104.201 568.723 109.724V122.001C568.723 127.524 564.246 132.001 558.723 132.001H213.668V99.7236Z" fill="#BA007C"/>
<path d="M213.668 180.417H321.482C327.005 180.417 331.482 184.895 331.482 190.417V202.695C331.482 208.218 327.005 212.695 321.482 212.695H213.668V180.417Z" fill="#BA007C"/>
<path d="M213.668 262.726H676.537C682.06 262.726 686.537 267.203 686.537 272.726V285.003C686.537 290.526 682.06 295.003 676.537 295.003H213.668V262.726Z" fill="#BA007C"/>
<path d="M469.262 36.9629V38.8379H459.73V37.2266L464.359 32.1777C464.867 31.6048 465.268 31.11 465.561 30.6934C465.854 30.2767 466.059 29.9023 466.176 29.5703C466.299 29.2318 466.361 28.903 466.361 28.584C466.361 28.1348 466.277 27.7409 466.107 27.4023C465.945 27.0573 465.704 26.7871 465.385 26.5918C465.066 26.39 464.678 26.2891 464.223 26.2891C463.695 26.2891 463.253 26.403 462.895 26.6309C462.536 26.8587 462.266 27.1745 462.084 27.5781C461.902 27.9753 461.811 28.431 461.811 28.9453H459.457C459.457 28.1185 459.646 27.3633 460.023 26.6797C460.401 25.9896 460.948 25.4427 461.664 25.0391C462.38 24.6289 463.243 24.4238 464.252 24.4238C465.202 24.4238 466.01 24.5833 466.674 24.9023C467.338 25.2214 467.842 25.6738 468.188 26.2598C468.539 26.8457 468.715 27.5391 468.715 28.3398C468.715 28.7826 468.643 29.222 468.5 29.6582C468.357 30.0944 468.152 30.5306 467.885 30.9668C467.624 31.3965 467.315 31.8294 466.957 32.2656C466.599 32.6953 466.205 33.1315 465.775 33.5742L462.699 36.9629H469.262ZM480.365 30.5371V32.8613C480.365 33.9746 480.255 34.9251 480.033 35.7129C479.818 36.4941 479.506 37.1289 479.096 37.6172C478.686 38.1055 478.194 38.4635 477.621 38.6914C477.055 38.9193 476.42 39.0332 475.717 39.0332C475.157 39.0332 474.636 38.9616 474.154 38.8184C473.679 38.6751 473.249 38.4505 472.865 38.1445C472.481 37.8385 472.152 37.4447 471.879 36.9629C471.612 36.4746 471.404 35.8919 471.254 35.2148C471.111 34.5378 471.039 33.7533 471.039 32.8613V30.5371C471.039 29.4173 471.15 28.4733 471.371 27.7051C471.592 26.9303 471.908 26.3021 472.318 25.8203C472.729 25.332 473.217 24.9772 473.783 24.7559C474.356 24.5345 474.994 24.4238 475.697 24.4238C476.264 24.4238 476.785 24.4954 477.26 24.6387C477.742 24.7754 478.171 24.9935 478.549 25.293C478.933 25.5924 479.258 25.9831 479.525 26.4648C479.799 26.9401 480.007 27.5163 480.15 28.1934C480.294 28.8639 480.365 29.6452 480.365 30.5371ZM478.012 33.1934V30.1855C478.012 29.6191 477.979 29.1211 477.914 28.6914C477.849 28.2552 477.751 27.8874 477.621 27.5879C477.497 27.2819 477.341 27.0345 477.152 26.8457C476.964 26.6504 476.749 26.5104 476.508 26.4258C476.267 26.3346 475.997 26.2891 475.697 26.2891C475.333 26.2891 475.007 26.3607 474.721 26.5039C474.434 26.6406 474.193 26.862 473.998 27.168C473.803 27.474 473.653 27.8776 473.549 28.3789C473.451 28.8737 473.402 29.4759 473.402 30.1855V33.1934C473.402 33.7663 473.435 34.2708 473.5 34.707C473.565 35.1432 473.663 35.5176 473.793 35.8301C473.923 36.1361 474.079 36.39 474.262 36.5918C474.451 36.7871 474.665 36.9303 474.906 37.0215C475.154 37.1126 475.424 37.1582 475.717 37.1582C476.088 37.1582 476.417 37.0866 476.703 36.9434C476.99 36.8001 477.23 36.5723 477.426 36.2598C477.621 35.9408 477.768 35.5273 477.865 35.0195C477.963 34.5117 478.012 33.903 478.012 33.1934ZM482.367 28.1055V27.3535C482.367 26.8132 482.484 26.3216 482.719 25.8789C482.953 25.4362 483.295 25.0814 483.744 24.8145C484.193 24.5475 484.734 24.4141 485.365 24.4141C486.016 24.4141 486.563 24.5475 487.006 24.8145C487.455 25.0814 487.797 25.4362 488.031 25.8789C488.266 26.3216 488.383 26.8132 488.383 27.3535V28.1055C488.383 28.6328 488.266 29.1178 488.031 29.5605C487.803 30.0033 487.465 30.3581 487.016 30.625C486.573 30.8919 486.029 31.0254 485.385 31.0254C484.747 31.0254 484.2 30.8919 483.744 30.625C483.295 30.3581 482.953 30.0033 482.719 29.5605C482.484 29.1178 482.367 28.6328 482.367 28.1055ZM483.998 27.3535V28.1055C483.998 28.3659 484.047 28.6133 484.145 28.8477C484.249 29.082 484.405 29.2708 484.613 29.4141C484.822 29.5573 485.079 29.6289 485.385 29.6289C485.697 29.6289 485.951 29.5573 486.146 29.4141C486.348 29.2708 486.498 29.082 486.596 28.8477C486.693 28.6133 486.742 28.3659 486.742 28.1055V27.3535C486.742 27.0866 486.69 26.8359 486.586 26.6016C486.488 26.3607 486.339 26.1686 486.137 26.0254C485.935 25.8822 485.678 25.8105 485.365 25.8105C485.066 25.8105 484.812 25.8822 484.604 26.0254C484.402 26.1686 484.249 26.3607 484.145 26.6016C484.047 26.8359 483.998 27.0866 483.998 27.3535ZM489.223 36.1133V35.3516C489.223 34.8177 489.34 34.3294 489.574 33.8867C489.815 33.444 490.16 33.0892 490.609 32.8223C491.059 32.5553 491.599 32.4219 492.23 32.4219C492.882 32.4219 493.428 32.5553 493.871 32.8223C494.32 33.0892 494.659 33.444 494.887 33.8867C495.121 34.3294 495.238 34.8177 495.238 35.3516V36.1133C495.238 36.6471 495.121 37.1354 494.887 37.5781C494.659 38.0208 494.324 38.3757 493.881 38.6426C493.438 38.9095 492.898 39.043 492.26 39.043C491.615 39.043 491.065 38.9095 490.609 38.6426C490.16 38.3757 489.815 38.0208 489.574 37.5781C489.34 37.1354 489.223 36.6471 489.223 36.1133ZM490.863 35.3516V36.1133C490.863 36.3737 490.915 36.6211 491.02 36.8555C491.13 37.0898 491.29 37.2819 491.498 37.4316C491.706 37.5749 491.957 37.6465 492.25 37.6465C492.582 37.6465 492.849 37.5749 493.051 37.4316C493.253 37.2819 493.396 37.0931 493.48 36.8652C493.572 36.6309 493.617 36.3802 493.617 36.1133V35.3516C493.617 35.0846 493.565 34.834 493.461 34.5996C493.363 34.3652 493.21 34.1764 493.002 34.0332C492.8 33.89 492.543 33.8184 492.23 33.8184C491.924 33.8184 491.671 33.89 491.469 34.0332C491.267 34.1764 491.114 34.3652 491.01 34.5996C490.912 34.834 490.863 35.0846 490.863 35.3516ZM492.816 26.6504L485.873 37.7637L484.672 37.0703L491.615 25.957L492.816 26.6504Z" fill="#C5C5C5"/>
<path d="M580.954 112.972H582.36C582.907 112.972 583.359 112.878 583.717 112.689C584.082 112.5 584.352 112.24 584.528 111.908C584.704 111.576 584.792 111.195 584.792 110.765C584.792 110.316 584.71 109.932 584.547 109.613C584.391 109.287 584.15 109.037 583.825 108.861C583.506 108.685 583.099 108.597 582.604 108.597C582.187 108.597 581.81 108.682 581.471 108.851C581.139 109.014 580.875 109.248 580.68 109.554C580.485 109.854 580.387 110.212 580.387 110.628H578.024C578.024 109.873 578.222 109.203 578.62 108.617C579.017 108.031 579.557 107.572 580.241 107.24C580.931 106.901 581.706 106.732 582.565 106.732C583.483 106.732 584.284 106.885 584.967 107.191C585.657 107.49 586.194 107.94 586.579 108.539C586.963 109.138 587.155 109.88 587.155 110.765C587.155 111.169 587.06 111.579 586.872 111.996C586.683 112.412 586.403 112.793 586.032 113.138C585.661 113.477 585.198 113.753 584.645 113.968C584.092 114.177 583.45 114.281 582.721 114.281H580.954V112.972ZM580.954 114.808V113.519H582.721C583.555 113.519 584.264 113.617 584.85 113.812C585.443 114.007 585.924 114.278 586.295 114.623C586.667 114.961 586.937 115.348 587.106 115.785C587.282 116.221 587.37 116.683 587.37 117.171C587.37 117.835 587.249 118.428 587.008 118.949C586.774 119.463 586.439 119.899 586.002 120.257C585.566 120.615 585.055 120.886 584.469 121.068C583.89 121.25 583.258 121.341 582.575 121.341C581.963 121.341 581.377 121.257 580.817 121.087C580.257 120.918 579.756 120.667 579.313 120.335C578.87 119.997 578.519 119.577 578.258 119.076C578.004 118.568 577.877 117.982 577.877 117.318H580.231C580.231 117.741 580.329 118.115 580.524 118.441C580.726 118.76 581.006 119.011 581.364 119.193C581.728 119.375 582.145 119.466 582.614 119.466C583.109 119.466 583.535 119.378 583.893 119.203C584.251 119.027 584.525 118.766 584.713 118.421C584.909 118.076 585.006 117.66 585.006 117.171C585.006 116.618 584.899 116.169 584.684 115.824C584.469 115.479 584.163 115.225 583.766 115.062C583.369 114.893 582.9 114.808 582.36 114.808H580.954ZM598.825 112.845V115.169C598.825 116.283 598.714 117.233 598.493 118.021C598.278 118.802 597.965 119.437 597.555 119.925C597.145 120.414 596.653 120.772 596.081 121C595.514 121.227 594.879 121.341 594.176 121.341C593.616 121.341 593.096 121.27 592.614 121.126C592.139 120.983 591.709 120.759 591.325 120.453C590.941 120.147 590.612 119.753 590.338 119.271C590.071 118.783 589.863 118.2 589.713 117.523C589.57 116.846 589.499 116.061 589.499 115.169V112.845C589.499 111.725 589.609 110.781 589.831 110.013C590.052 109.238 590.368 108.61 590.778 108.128C591.188 107.64 591.676 107.285 592.243 107.064C592.816 106.843 593.454 106.732 594.157 106.732C594.723 106.732 595.244 106.804 595.719 106.947C596.201 107.083 596.631 107.302 597.008 107.601C597.392 107.901 597.718 108.291 597.985 108.773C598.258 109.248 598.467 109.824 598.61 110.501C598.753 111.172 598.825 111.953 598.825 112.845ZM596.471 115.501V112.494C596.471 111.927 596.439 111.429 596.374 111C596.308 110.563 596.211 110.195 596.081 109.896C595.957 109.59 595.801 109.343 595.612 109.154C595.423 108.958 595.208 108.819 594.967 108.734C594.726 108.643 594.456 108.597 594.157 108.597C593.792 108.597 593.467 108.669 593.18 108.812C592.894 108.949 592.653 109.17 592.458 109.476C592.262 109.782 592.112 110.186 592.008 110.687C591.911 111.182 591.862 111.784 591.862 112.494V115.501C591.862 116.074 591.894 116.579 591.959 117.015C592.025 117.451 592.122 117.826 592.252 118.138C592.383 118.444 592.539 118.698 592.721 118.9C592.91 119.095 593.125 119.238 593.366 119.33C593.613 119.421 593.883 119.466 594.176 119.466C594.547 119.466 594.876 119.395 595.163 119.251C595.449 119.108 595.69 118.88 595.885 118.568C596.081 118.249 596.227 117.835 596.325 117.328C596.422 116.82 596.471 116.211 596.471 115.501ZM600.827 110.414V109.662C600.827 109.121 600.944 108.63 601.178 108.187C601.413 107.744 601.754 107.389 602.204 107.123C602.653 106.856 603.193 106.722 603.825 106.722C604.476 106.722 605.023 106.856 605.465 107.123C605.915 107.389 606.256 107.744 606.491 108.187C606.725 108.63 606.842 109.121 606.842 109.662V110.414C606.842 110.941 606.725 111.426 606.491 111.869C606.263 112.311 605.924 112.666 605.475 112.933C605.032 113.2 604.489 113.333 603.844 113.333C603.206 113.333 602.659 113.2 602.204 112.933C601.754 112.666 601.413 112.311 601.178 111.869C600.944 111.426 600.827 110.941 600.827 110.414ZM602.458 109.662V110.414C602.458 110.674 602.506 110.921 602.604 111.156C602.708 111.39 602.864 111.579 603.073 111.722C603.281 111.865 603.538 111.937 603.844 111.937C604.157 111.937 604.411 111.865 604.606 111.722C604.808 111.579 604.958 111.39 605.055 111.156C605.153 110.921 605.202 110.674 605.202 110.414V109.662C605.202 109.395 605.15 109.144 605.045 108.91C604.948 108.669 604.798 108.477 604.596 108.333C604.394 108.19 604.137 108.119 603.825 108.119C603.525 108.119 603.271 108.19 603.063 108.333C602.861 108.477 602.708 108.669 602.604 108.91C602.506 109.144 602.458 109.395 602.458 109.662ZM607.682 118.421V117.66C607.682 117.126 607.799 116.638 608.034 116.195C608.275 115.752 608.62 115.397 609.069 115.13C609.518 114.863 610.058 114.73 610.69 114.73C611.341 114.73 611.888 114.863 612.331 115.13C612.78 115.397 613.118 115.752 613.346 116.195C613.581 116.638 613.698 117.126 613.698 117.66V118.421C613.698 118.955 613.581 119.444 613.346 119.886C613.118 120.329 612.783 120.684 612.34 120.951C611.898 121.218 611.357 121.351 610.719 121.351C610.075 121.351 609.525 121.218 609.069 120.951C608.62 120.684 608.275 120.329 608.034 119.886C607.799 119.444 607.682 118.955 607.682 118.421ZM609.323 117.66V118.421C609.323 118.682 609.375 118.929 609.479 119.164C609.59 119.398 609.749 119.59 609.958 119.74C610.166 119.883 610.417 119.955 610.709 119.955C611.042 119.955 611.308 119.883 611.51 119.74C611.712 119.59 611.855 119.401 611.94 119.173C612.031 118.939 612.077 118.688 612.077 118.421V117.66C612.077 117.393 612.025 117.142 611.92 116.908C611.823 116.673 611.67 116.485 611.461 116.341C611.26 116.198 611.002 116.126 610.69 116.126C610.384 116.126 610.13 116.198 609.928 116.341C609.726 116.485 609.573 116.673 609.469 116.908C609.372 117.142 609.323 117.393 609.323 117.66ZM611.276 108.958L604.333 120.072L603.131 119.378L610.075 108.265L611.276 108.958Z" fill="#C5C5C5"/>
<path d="M347.697 187.573V201.841H345.343V190.366L341.857 191.548V189.604L347.413 187.573H347.697ZM361.906 193.54V195.864C361.906 196.978 361.795 197.928 361.573 198.716C361.359 199.497 361.046 200.132 360.636 200.62C360.226 201.108 359.734 201.466 359.161 201.694C358.595 201.922 357.96 202.036 357.257 202.036C356.697 202.036 356.176 201.965 355.695 201.821C355.219 201.678 354.79 201.453 354.406 201.147C354.021 200.841 353.693 200.448 353.419 199.966C353.152 199.478 352.944 198.895 352.794 198.218C352.651 197.541 352.579 196.756 352.579 195.864V193.54C352.579 192.42 352.69 191.476 352.911 190.708C353.133 189.933 353.448 189.305 353.859 188.823C354.269 188.335 354.757 187.98 355.323 187.759C355.896 187.537 356.534 187.427 357.238 187.427C357.804 187.427 358.325 187.498 358.8 187.642C359.282 187.778 359.712 187.996 360.089 188.296C360.473 188.595 360.799 188.986 361.066 189.468C361.339 189.943 361.547 190.519 361.691 191.196C361.834 191.867 361.906 192.648 361.906 193.54ZM359.552 196.196V193.188C359.552 192.622 359.519 192.124 359.454 191.694C359.389 191.258 359.292 190.89 359.161 190.591C359.038 190.285 358.881 190.037 358.693 189.849C358.504 189.653 358.289 189.513 358.048 189.429C357.807 189.338 357.537 189.292 357.238 189.292C356.873 189.292 356.547 189.364 356.261 189.507C355.975 189.644 355.734 189.865 355.538 190.171C355.343 190.477 355.193 190.881 355.089 191.382C354.991 191.877 354.943 192.479 354.943 193.188V196.196C354.943 196.769 354.975 197.274 355.04 197.71C355.105 198.146 355.203 198.521 355.333 198.833C355.463 199.139 355.62 199.393 355.802 199.595C355.991 199.79 356.206 199.933 356.447 200.024C356.694 200.116 356.964 200.161 357.257 200.161C357.628 200.161 357.957 200.09 358.243 199.946C358.53 199.803 358.771 199.575 358.966 199.263C359.161 198.944 359.308 198.53 359.406 198.022C359.503 197.515 359.552 196.906 359.552 196.196ZM363.907 191.108V190.356C363.907 189.816 364.025 189.325 364.259 188.882C364.493 188.439 364.835 188.084 365.284 187.817C365.734 187.55 366.274 187.417 366.906 187.417C367.557 187.417 368.103 187.55 368.546 187.817C368.995 188.084 369.337 188.439 369.572 188.882C369.806 189.325 369.923 189.816 369.923 190.356V191.108C369.923 191.636 369.806 192.121 369.572 192.563C369.344 193.006 369.005 193.361 368.556 193.628C368.113 193.895 367.57 194.028 366.925 194.028C366.287 194.028 365.74 193.895 365.284 193.628C364.835 193.361 364.493 193.006 364.259 192.563C364.025 192.121 363.907 191.636 363.907 191.108ZM365.538 190.356V191.108C365.538 191.369 365.587 191.616 365.685 191.851C365.789 192.085 365.945 192.274 366.154 192.417C366.362 192.56 366.619 192.632 366.925 192.632C367.238 192.632 367.491 192.56 367.687 192.417C367.889 192.274 368.038 192.085 368.136 191.851C368.234 191.616 368.282 191.369 368.282 191.108V190.356C368.282 190.09 368.23 189.839 368.126 189.604C368.029 189.364 367.879 189.172 367.677 189.028C367.475 188.885 367.218 188.813 366.906 188.813C366.606 188.813 366.352 188.885 366.144 189.028C365.942 189.172 365.789 189.364 365.685 189.604C365.587 189.839 365.538 190.09 365.538 190.356ZM370.763 199.116V198.354C370.763 197.821 370.88 197.332 371.115 196.89C371.355 196.447 371.7 196.092 372.15 195.825C372.599 195.558 373.139 195.425 373.771 195.425C374.422 195.425 374.969 195.558 375.411 195.825C375.861 196.092 376.199 196.447 376.427 196.89C376.661 197.332 376.779 197.821 376.779 198.354V199.116C376.779 199.65 376.661 200.138 376.427 200.581C376.199 201.024 375.864 201.379 375.421 201.646C374.978 201.912 374.438 202.046 373.8 202.046C373.156 202.046 372.605 201.912 372.15 201.646C371.7 201.379 371.355 201.024 371.115 200.581C370.88 200.138 370.763 199.65 370.763 199.116ZM372.404 198.354V199.116C372.404 199.377 372.456 199.624 372.56 199.858C372.67 200.093 372.83 200.285 373.038 200.435C373.247 200.578 373.497 200.649 373.79 200.649C374.122 200.649 374.389 200.578 374.591 200.435C374.793 200.285 374.936 200.096 375.021 199.868C375.112 199.634 375.157 199.383 375.157 199.116V198.354C375.157 198.088 375.105 197.837 375.001 197.603C374.904 197.368 374.751 197.179 374.542 197.036C374.34 196.893 374.083 196.821 373.771 196.821C373.465 196.821 373.211 196.893 373.009 197.036C372.807 197.179 372.654 197.368 372.55 197.603C372.452 197.837 372.404 198.088 372.404 198.354ZM374.357 189.653L367.413 200.767L366.212 200.073L373.156 188.96L374.357 189.653Z" fill="#C5C5C5"/>
<path d="M706.444 279.081V280.956H696.19L696.112 279.54L702.245 269.93H704.13L702.089 273.426L698.563 279.081H706.444ZM704.667 269.93V284.149H702.313V269.93H704.667ZM717.284 275.848V278.172C717.284 279.286 717.173 280.236 716.952 281.024C716.737 281.805 716.425 282.44 716.014 282.928C715.604 283.417 715.113 283.775 714.54 284.002C713.973 284.23 713.339 284.344 712.635 284.344C712.076 284.344 711.555 284.273 711.073 284.129C710.598 283.986 710.168 283.762 709.784 283.456C709.4 283.15 709.071 282.756 708.798 282.274C708.531 281.786 708.322 281.203 708.173 280.526C708.029 279.849 707.958 279.064 707.958 278.172V275.848C707.958 274.728 708.068 273.784 708.29 273.016C708.511 272.241 708.827 271.613 709.237 271.131C709.647 270.643 710.135 270.288 710.702 270.067C711.275 269.846 711.913 269.735 712.616 269.735C713.182 269.735 713.703 269.806 714.178 269.95C714.66 270.086 715.09 270.305 715.468 270.604C715.852 270.903 716.177 271.294 716.444 271.776C716.718 272.251 716.926 272.827 717.069 273.504C717.212 274.175 717.284 274.956 717.284 275.848ZM714.93 278.504V275.497C714.93 274.93 714.898 274.432 714.833 274.002C714.768 273.566 714.67 273.198 714.54 272.899C714.416 272.593 714.26 272.346 714.071 272.157C713.882 271.961 713.667 271.821 713.427 271.737C713.186 271.646 712.915 271.6 712.616 271.6C712.251 271.6 711.926 271.672 711.639 271.815C711.353 271.952 711.112 272.173 710.917 272.479C710.721 272.785 710.572 273.189 710.468 273.69C710.37 274.185 710.321 274.787 710.321 275.497V278.504C710.321 279.077 710.354 279.582 710.419 280.018C710.484 280.454 710.581 280.829 710.712 281.141C710.842 281.447 710.998 281.701 711.18 281.903C711.369 282.098 711.584 282.241 711.825 282.333C712.072 282.424 712.343 282.469 712.635 282.469C713.007 282.469 713.335 282.398 713.622 282.254C713.908 282.111 714.149 281.883 714.344 281.571C714.54 281.252 714.686 280.838 714.784 280.331C714.882 279.823 714.93 279.214 714.93 278.504ZM719.286 273.417V272.665C719.286 272.124 719.403 271.633 719.637 271.19C719.872 270.747 720.214 270.392 720.663 270.125C721.112 269.859 721.652 269.725 722.284 269.725C722.935 269.725 723.482 269.859 723.925 270.125C724.374 270.392 724.716 270.747 724.95 271.19C725.184 271.633 725.302 272.124 725.302 272.665V273.417C725.302 273.944 725.184 274.429 724.95 274.872C724.722 275.314 724.384 275.669 723.934 275.936C723.492 276.203 722.948 276.336 722.303 276.336C721.665 276.336 721.119 276.203 720.663 275.936C720.214 275.669 719.872 275.314 719.637 274.872C719.403 274.429 719.286 273.944 719.286 273.417ZM720.917 272.665V273.417C720.917 273.677 720.966 273.924 721.063 274.159C721.167 274.393 721.324 274.582 721.532 274.725C721.74 274.868 721.997 274.94 722.303 274.94C722.616 274.94 722.87 274.868 723.065 274.725C723.267 274.582 723.417 274.393 723.514 274.159C723.612 273.924 723.661 273.677 723.661 273.417V272.665C723.661 272.398 723.609 272.147 723.505 271.913C723.407 271.672 723.257 271.48 723.055 271.336C722.854 271.193 722.596 271.122 722.284 271.122C721.984 271.122 721.731 271.193 721.522 271.336C721.32 271.48 721.167 271.672 721.063 271.913C720.966 272.147 720.917 272.398 720.917 272.665ZM726.141 281.424V280.663C726.141 280.129 726.259 279.64 726.493 279.198C726.734 278.755 727.079 278.4 727.528 278.133C727.977 277.866 728.518 277.733 729.149 277.733C729.8 277.733 730.347 277.866 730.79 278.133C731.239 278.4 731.578 278.755 731.805 279.198C732.04 279.64 732.157 280.129 732.157 280.663V281.424C732.157 281.958 732.04 282.446 731.805 282.889C731.578 283.332 731.242 283.687 730.8 283.954C730.357 284.221 729.816 284.354 729.178 284.354C728.534 284.354 727.984 284.221 727.528 283.954C727.079 283.687 726.734 283.332 726.493 282.889C726.259 282.446 726.141 281.958 726.141 281.424ZM727.782 280.663V281.424C727.782 281.685 727.834 281.932 727.938 282.167C728.049 282.401 728.208 282.593 728.417 282.743C728.625 282.886 728.876 282.958 729.169 282.958C729.501 282.958 729.768 282.886 729.969 282.743C730.171 282.593 730.315 282.404 730.399 282.176C730.49 281.942 730.536 281.691 730.536 281.424V280.663C730.536 280.396 730.484 280.145 730.38 279.911C730.282 279.676 730.129 279.487 729.921 279.344C729.719 279.201 729.462 279.129 729.149 279.129C728.843 279.129 728.589 279.201 728.387 279.344C728.186 279.487 728.033 279.676 727.928 279.911C727.831 280.145 727.782 280.396 727.782 280.663ZM729.735 271.961L722.792 283.075L721.591 282.381L728.534 271.268L729.735 271.961Z" fill="#C5C5C5"/>
</svg>
