<svg width="414" height="385" viewBox="0 0 414 385" fill="none" xmlns="http://www.w3.org/2000/svg">
<path d="M359.403 32.5768C356.186 34.4922 347.752 38.4034 352.889 43.2975C355.398 45.6882 358.193 47.3981 361.707 47.3981H381.758C385.271 47.3981 388.066 45.6882 390.576 43.2975C395.713 38.4034 387.279 34.4922 384.062 32.5768C376.518 28.0851 366.947 28.0851 359.403 32.5768Z" stroke="#BA007C" stroke-width="1.5" stroke-linecap="round" stroke-linejoin="round"/>
<path d="M381.965 12.1548C381.965 17.8057 377.384 22.3867 371.733 22.3867C366.082 22.3867 361.501 17.8057 361.501 12.1548C361.501 6.50383 366.082 1.92285 371.733 1.92285C377.384 1.92285 381.965 6.50383 381.965 12.1548Z" stroke="#BA007C" stroke-width="1.5"/>
<path d="M281.67 23.9497C281.67 35.9623 271.489 45.7021 258.933 45.7021C257.457 45.7039 255.984 45.5675 254.534 45.2951C253.49 45.0991 252.968 45.0011 252.604 45.0567C252.24 45.1124 251.723 45.387 250.69 45.9362C247.769 47.4898 244.363 48.0384 241.086 47.4291C242.332 45.8975 243.182 44.0599 243.557 42.0898C243.785 40.8849 243.221 39.7142 242.377 38.8573C238.545 34.9656 236.195 29.7213 236.195 23.9497C236.195 11.9371 246.377 2.19727 258.933 2.19727C271.489 2.19727 281.67 11.9371 281.67 23.9497Z" stroke="#BA007C" stroke-width="1.5" stroke-linejoin="round"/>
<path d="M258.922 24.9346H258.942M268.007 24.9346H268.027M249.837 24.9346H249.857" stroke="#BA007C" stroke-width="2" stroke-linecap="round" stroke-linejoin="round"/>
<path d="M171.871 41.5146C174 41.5146 175.694 40.1744 177.215 38.3005C180.329 34.4644 175.217 31.3987 173.267 29.8974C171.285 28.3712 169.072 27.5066 166.829 27.3036M163.986 21.6192C167.911 21.6192 171.092 18.438 171.092 14.5137C171.092 10.5894 167.911 7.4082 163.986 7.4082" stroke="#BA007C" stroke-width="1.5" stroke-linecap="round"/>
<path d="M121.996 41.5146C119.866 41.5146 118.172 40.1744 116.651 38.3005C113.538 34.4644 118.649 31.3987 120.599 29.8974C122.581 28.3712 124.794 27.5066 127.038 27.3036M128.459 21.6192C124.535 21.6192 121.353 18.438 121.353 14.5137C121.353 10.5894 124.535 7.4082 128.459 7.4082" stroke="#BA007C" stroke-width="1.5" stroke-linecap="round"/>
<path d="M135.803 33.3037C132.899 35.0995 125.284 38.7661 129.922 43.3544C132.187 45.5957 134.71 47.1987 137.883 47.1987H155.984C159.156 47.1987 161.679 45.5957 163.945 43.3544C168.582 38.7661 160.968 35.0995 158.064 33.3037C151.254 29.0928 142.613 29.0928 135.803 33.3037Z" stroke="#BA007C" stroke-width="1.5" stroke-linecap="round" stroke-linejoin="round"/>
<path d="M156.881 11.6713C156.881 17.1653 152.427 21.619 146.933 21.619C141.439 21.619 136.985 17.1653 136.985 11.6713C136.985 6.17737 141.439 1.72363 146.933 1.72363C152.427 1.72363 156.881 6.17737 156.881 11.6713Z" stroke="#BA007C" stroke-width="1.5"/>
<path d="M41.8762 19.1895C41.5261 20.2397 40.8058 21.0459 39.7861 21.498C36.5113 22.9497 34.148 25.313 32.6962 28.5879C32.2442 29.6075 31.438 30.3278 30.3877 30.6779" stroke="#BA007C" stroke-linejoin="round"/>
<path d="M23.4948 37.5721L21.7715 39.2954M48.7694 12.2975L50.4926 10.5742" stroke="#BA007C" stroke-linecap="round" stroke-linejoin="round"/>
<path d="M27.7921 27.7148L28.1456 27.3612L28.1456 27.3612L27.7921 27.7148ZM33.3521 33.2748L32.9985 33.6283L32.9985 33.6283L33.3521 33.2748ZM30.0161 36.6108L30.3696 36.2572L30.3696 36.2572L30.0161 36.6108ZM32.2859 37.5077L32.4772 37.9696L32.4772 37.9696L32.2859 37.5077ZM31.0823 37.5077L30.8909 37.9696L30.8909 37.9696L31.0823 37.5077ZM34.249 34.341L34.7109 34.1496L34.7109 34.1496L34.249 34.341ZM34.249 35.5446L34.7109 35.7359L34.7109 35.7359L34.249 35.5446ZM25.5223 26.8179L25.3309 26.356L25.3309 26.356L25.5223 26.8179ZM26.7259 26.8179L26.9172 26.356L26.9172 26.356L26.7259 26.8179ZM23.5592 28.781L23.0972 28.5896L23.0972 28.5896L23.5592 28.781ZM23.5592 29.9846L23.0972 30.1759L23.0972 30.1759L23.5592 29.9846ZM28.9041 37.7228L29.2576 38.0763L29.2576 38.0763L28.9041 37.7228ZM24.4561 37.7228L24.1025 38.0763L24.1025 38.0763L24.4561 37.7228ZM23.3441 36.6108L23.6976 36.2572L23.6976 36.2572L23.3441 36.6108ZM26.6801 39.2954L26.6801 38.7954L26.6801 38.7954L26.6801 39.2954ZM38.9121 16.5948L38.5585 16.9484L38.5585 16.9484L38.9121 16.5948ZM44.472 22.1548L44.8256 21.8012L44.8256 21.8012L44.472 22.1548ZM47.808 18.8188L47.4545 19.1724L47.4545 19.1724L47.808 18.8188ZM48.7049 21.0886L49.1669 21.28L49.1669 21.28L48.7049 21.0886ZM48.7049 19.885L49.1669 19.6937L49.1669 19.6937L48.7049 19.885ZM45.5382 23.0517L45.3469 23.5136L45.3469 23.5136L45.5382 23.0517ZM46.7419 23.0517L46.9332 23.5136L46.9332 23.5136L46.7419 23.0517ZM38.0152 14.325L37.5532 14.1337L37.5532 14.1337L38.0152 14.325ZM38.0152 15.5286L37.5532 15.72L37.5532 15.72L38.0152 15.5286ZM39.9782 12.3619L39.7869 11.9L39.7869 11.9L39.9782 12.3619ZM41.1819 12.3619L41.3732 11.9L41.3732 11.9L41.1819 12.3619ZM48.92 17.7068L49.2736 18.0604L49.2736 18.0604L48.92 17.7068ZM48.92 13.2588L49.2736 12.9053L49.2736 12.9053L48.92 13.2588ZM47.808 12.1468L47.4545 12.5004L47.4545 12.5004L47.808 12.1468ZM50.4926 15.4828L49.9926 15.4828L49.9926 15.4828L50.4926 15.4828ZM27.4385 28.0683L32.9985 33.6283L33.7056 32.9212L28.1456 27.3612L27.4385 28.0683ZM30.3696 36.2572L24.8096 30.6972L24.1025 31.4043L29.6625 36.9643L30.3696 36.2572ZM32.9985 36.2572C32.7346 36.5211 32.5542 36.7011 32.4044 36.8318C32.258 36.9596 32.168 37.0153 32.0945 37.0457L32.4772 37.9696C32.6928 37.8803 32.8768 37.7467 33.0617 37.5854C33.2432 37.4271 33.4514 37.2186 33.7056 36.9643L32.9985 36.2572ZM29.6625 36.9643C29.9167 37.2186 30.1249 37.4271 30.3064 37.5854C30.4913 37.7467 30.6753 37.8803 30.8909 37.9696L31.2736 37.0457C31.2002 37.0153 31.1102 36.9596 30.9638 36.8318C30.8139 36.7011 30.6335 36.5211 30.3696 36.2572L29.6625 36.9643ZM32.0945 37.0457C31.8317 37.1546 31.5364 37.1546 31.2736 37.0457L30.8909 37.9696C31.3988 38.18 31.9694 38.18 32.4772 37.9696L32.0945 37.0457ZM32.9985 33.6283C33.2624 33.8922 33.4424 34.0726 33.5731 34.2225C33.7008 34.3689 33.7566 34.4589 33.787 34.5323L34.7109 34.1496C34.6216 33.934 34.488 33.75 34.3267 33.5651C34.1684 33.3836 33.9598 33.1755 33.7056 32.9212L32.9985 33.6283ZM33.7056 36.9643C33.9598 36.7101 34.1684 36.5019 34.3267 36.3204C34.488 36.1355 34.6216 35.9515 34.7109 35.7359L33.787 35.3532C33.7566 35.4267 33.7008 35.5167 33.5731 35.6631C33.4424 35.8129 33.2624 35.9933 32.9985 36.2572L33.7056 36.9643ZM33.787 34.5323C33.8959 34.7951 33.8959 35.0904 33.787 35.3532L34.7109 35.7359C34.9213 35.2281 34.9213 34.6575 34.7109 34.1496L33.787 34.5323ZM24.8096 28.0683C25.0735 27.8044 25.2539 27.6244 25.4038 27.4937C25.5502 27.366 25.6402 27.3102 25.7136 27.2798L25.3309 26.356C25.1154 26.4453 24.9313 26.5789 24.7464 26.7401C24.5649 26.8984 24.3568 27.107 24.1025 27.3612L24.8096 28.0683ZM28.1456 27.3612C27.8914 27.107 27.6832 26.8984 27.5017 26.7401C27.3168 26.5789 27.1328 26.4453 26.9172 26.356L26.5345 27.2798C26.608 27.3102 26.698 27.366 26.8444 27.4937C26.9942 27.6244 27.1746 27.8044 27.4385 28.0683L28.1456 27.3612ZM25.7136 27.2798C25.9764 27.171 26.2717 27.171 26.5345 27.2798L26.9172 26.356C26.4094 26.1456 25.8388 26.1456 25.3309 26.356L25.7136 27.2798ZM24.1025 27.3612C23.8483 27.6155 23.6397 27.8236 23.4814 28.0051C23.3202 28.19 23.1865 28.3741 23.0972 28.5896L24.0211 28.9723C24.0515 28.8989 24.1073 28.8089 24.235 28.6625C24.3657 28.5127 24.5457 28.3322 24.8096 28.0683L24.1025 27.3612ZM24.8096 30.6972C24.5457 30.4333 24.3657 30.2529 24.235 30.1031C24.1073 29.9567 24.0515 29.8667 24.0211 29.7933L23.0972 30.1759C23.1865 30.3915 23.3202 30.5755 23.4814 30.7604C23.6397 30.9419 23.8483 31.1501 24.1025 31.4043L24.8096 30.6972ZM23.0972 28.5896C22.8869 29.0975 22.8869 29.6681 23.0972 30.1759L24.0211 29.7933C23.9123 29.5304 23.9123 29.2351 24.0211 28.9723L23.0972 28.5896ZM23.6976 32.5163L24.8096 31.4043L24.1025 30.6972L22.9905 31.8092L23.6976 32.5163ZM29.6625 36.2572L28.5505 37.3692L29.2576 38.0763L30.3696 36.9643L29.6625 36.2572ZM24.8096 37.3692L23.6976 36.2572L22.9905 36.9643L24.1025 38.0763L24.8096 37.3692ZM28.5505 37.3692C28.0163 37.9034 27.6505 38.2677 27.3399 38.5047C27.0409 38.7329 26.8525 38.7954 26.6801 38.7954L26.6801 39.7954C27.1591 39.7954 27.5585 39.5958 27.9465 39.2997C28.323 39.0125 28.7434 38.5905 29.2576 38.0763L28.5505 37.3692ZM24.1025 38.0763C24.6167 38.5905 25.0372 39.0125 25.4137 39.2997C25.8017 39.5958 26.2011 39.7954 26.6801 39.7954L26.6801 38.7954C26.5077 38.7954 26.3193 38.7329 26.0203 38.5047C25.7097 38.2677 25.3438 37.9034 24.8096 37.3692L24.1025 38.0763ZM22.9905 31.8092C22.4763 32.3234 22.0544 32.7439 21.7671 33.1204C21.4711 33.5084 21.2715 33.9078 21.2715 34.3868H22.2715C22.2715 34.2144 22.334 34.026 22.5621 33.7269C22.7991 33.4164 23.1634 33.0505 23.6976 32.5163L22.9905 31.8092ZM23.6976 36.2572C23.1634 35.723 22.7991 35.3572 22.5621 35.0466C22.334 34.7476 22.2715 34.5592 22.2715 34.3868H21.2715C21.2715 34.8658 21.4711 35.2652 21.7671 35.6532C22.0544 36.0297 22.4763 36.4501 22.9905 36.9643L23.6976 36.2572ZM38.5585 16.9484L44.1185 22.5084L44.8256 21.8012L39.2656 16.2413L38.5585 16.9484ZM48.1616 18.4653L42.6016 12.9053L41.8945 13.6124L47.4545 19.1724L48.1616 18.4653ZM48.1616 22.5084C48.4158 22.2541 48.6244 22.0459 48.7827 21.8645C48.944 21.6796 49.0776 21.4955 49.1669 21.28L48.243 20.8973C48.2126 20.9707 48.1568 21.0607 48.0291 21.2071C47.8984 21.3569 47.7184 21.5373 47.4545 21.8012L48.1616 22.5084ZM47.4545 19.1724C47.7184 19.4363 47.8984 19.6167 48.0291 19.7665C48.1568 19.9129 48.2126 20.0029 48.243 20.0763L49.1669 19.6937C49.0776 19.4781 48.944 19.294 48.7827 19.1092C48.6244 18.9277 48.4158 18.7195 48.1616 18.4653L47.4545 19.1724ZM49.1669 21.28C49.3772 20.7721 49.3772 20.2015 49.1669 19.6937L48.243 20.0763C48.3519 20.3392 48.3519 20.6345 48.243 20.8973L49.1669 21.28ZM44.1185 22.5084C44.3727 22.7626 44.5809 22.9711 44.7624 23.1295C44.9473 23.2907 45.1313 23.4243 45.3469 23.5136L45.7296 22.5898C45.6562 22.5593 45.5662 22.5036 45.4197 22.3759C45.2699 22.2452 45.0895 22.0651 44.8256 21.8012L44.1185 22.5084ZM47.4545 21.8012C47.1906 22.0651 47.0102 22.2452 46.8604 22.3759C46.7139 22.5036 46.6239 22.5593 46.5505 22.5898L46.9332 23.5136C47.1488 23.4243 47.3328 23.2907 47.5177 23.1295C47.6992 22.9711 47.9074 22.7626 48.1616 22.5084L47.4545 21.8012ZM45.3469 23.5136C45.8547 23.724 46.4253 23.724 46.9332 23.5136L46.5505 22.5898C46.2877 22.6986 45.9924 22.6986 45.7296 22.5898L45.3469 23.5136ZM38.5585 12.9053C38.3043 13.1595 38.0957 13.3677 37.9374 13.5492C37.7761 13.7341 37.6425 13.9181 37.5532 14.1337L38.4771 14.5163C38.5075 14.4429 38.5633 14.3529 38.691 14.2065C38.8217 14.0567 39.0017 13.8763 39.2656 13.6124L38.5585 12.9053ZM39.2656 16.2413C39.0017 15.9774 38.8217 15.7969 38.691 15.6471C38.5633 15.5007 38.5075 15.4107 38.4771 15.3373L37.5532 15.72C37.6425 15.9355 37.7761 16.1196 37.9374 16.3045C38.0957 16.486 38.3043 16.6941 38.5585 16.9484L39.2656 16.2413ZM37.5532 14.1337C37.3429 14.6415 37.3429 15.2121 37.5532 15.72L38.4771 15.3373C38.3682 15.0745 38.3682 14.7792 38.4771 14.5163L37.5532 14.1337ZM39.2656 13.6124C39.5295 13.3485 39.7099 13.1684 39.8597 13.0378C40.0062 12.91 40.0962 12.8543 40.1696 12.8239L39.7869 11.9C39.5713 11.9893 39.3873 12.1229 39.2024 12.2842C39.0209 12.4425 38.8127 12.651 38.5585 12.9053L39.2656 13.6124ZM42.6016 12.9053C42.3474 12.651 42.1392 12.4425 41.9577 12.2842C41.7728 12.1229 41.5888 11.9893 41.3732 11.9L40.9905 12.8239C41.0639 12.8543 41.1539 12.91 41.3004 13.0378C41.4502 13.1684 41.6306 13.3485 41.8945 13.6124L42.6016 12.9053ZM40.1696 12.8239C40.4324 12.715 40.7277 12.715 40.9905 12.8239L41.3732 11.9C40.8654 11.6896 40.2947 11.6896 39.7869 11.9L40.1696 12.8239ZM43.0065 11.7933L41.8945 12.9053L42.6016 13.6124L43.7136 12.5004L43.0065 11.7933ZM48.1616 19.1724L49.2736 18.0604L48.5665 17.3533L47.4545 18.4653L48.1616 19.1724ZM49.2736 12.9053L48.1616 11.7933L47.4545 12.5004L48.5665 13.6124L49.2736 12.9053ZM49.2736 18.0604C49.7878 17.5462 50.2098 17.1257 50.497 16.7492C50.793 16.3612 50.9926 15.9618 50.9926 15.4828L49.9926 15.4828C49.9926 15.6552 49.9301 15.8436 49.702 16.1426C49.465 16.4532 49.1007 16.8191 48.5665 17.3533L49.2736 18.0604ZM48.5665 13.6124C49.1007 14.1466 49.465 14.5124 49.702 14.823C49.9301 15.122 49.9926 15.3104 49.9926 15.4828L50.9926 15.4828C50.9926 15.0038 50.793 14.6044 50.497 14.2164C50.2098 13.8399 49.7878 13.4195 49.2736 12.9053L48.5665 13.6124ZM43.7136 12.5004C44.2478 11.9662 44.6136 11.6018 44.9242 11.3649C45.2233 11.1367 45.4116 11.0742 45.584 11.0742V10.0742C45.1051 10.0742 44.7056 10.2738 44.3176 10.5699C43.9412 10.8571 43.5207 11.2791 43.0065 11.7933L43.7136 12.5004ZM48.1616 11.7933C47.6474 11.2791 47.2269 10.8571 46.8505 10.5699C46.4625 10.2738 46.063 10.0742 45.584 10.0742V11.0742C45.7565 11.0742 45.9448 11.1367 46.2439 11.3649C46.5545 11.6018 46.9203 11.9662 47.4545 12.5004L48.1616 11.7933Z" fill="#BA007C"/>
<rect x="14.5889" y="1" width="41.885" height="47.8686" rx="4" stroke="#BA007C" stroke-width="1.5"/>
<path d="M16.9836 10.5742L11 10.5742M16.9836 24.9348L11 24.9348M16.9836 39.2954H11" stroke="#BA007C" stroke-width="1.5" stroke-linecap="round" stroke-linejoin="round"/>
<path d="M53.1641 282.766L62.1406 254.875H68.6328L56.3984 289H52.0156L53.1641 282.766ZM44.8672 254.875L53.7734 282.766L54.9922 289H50.5859L38.3984 254.875H44.8672ZM70.0844 276.602V276.062C70.0844 274.234 70.35 272.539 70.8813 270.977C71.4125 269.398 72.1781 268.031 73.1781 266.875C74.1938 265.703 75.4281 264.797 76.8813 264.156C78.35 263.5 80.0063 263.172 81.85 263.172C83.7094 263.172 85.3656 263.5 86.8188 264.156C88.2875 264.797 89.5297 265.703 90.5453 266.875C91.5609 268.031 92.3344 269.398 92.8656 270.977C93.3969 272.539 93.6625 274.234 93.6625 276.062V276.602C93.6625 278.43 93.3969 280.125 92.8656 281.688C92.3344 283.25 91.5609 284.617 90.5453 285.789C89.5297 286.945 88.2953 287.852 86.8422 288.508C85.3891 289.148 83.7406 289.469 81.8969 289.469C80.0375 289.469 78.3734 289.148 76.9047 288.508C75.4516 287.852 74.2172 286.945 73.2016 285.789C72.1859 284.617 71.4125 283.25 70.8813 281.688C70.35 280.125 70.0844 278.43 70.0844 276.602ZM75.7328 276.062V276.602C75.7328 277.742 75.85 278.82 76.0844 279.836C76.3188 280.852 76.6859 281.742 77.1859 282.508C77.6859 283.273 78.3266 283.875 79.1078 284.312C79.8891 284.75 80.8188 284.969 81.8969 284.969C82.9438 284.969 83.85 284.75 84.6156 284.312C85.3969 283.875 86.0375 283.273 86.5375 282.508C87.0375 281.742 87.4047 280.852 87.6391 279.836C87.8891 278.82 88.0141 277.742 88.0141 276.602V276.062C88.0141 274.938 87.8891 273.875 87.6391 272.875C87.4047 271.859 87.0297 270.961 86.5141 270.18C86.0141 269.398 85.3734 268.789 84.5922 268.352C83.8266 267.898 82.9125 267.672 81.85 267.672C80.7875 267.672 79.8656 267.898 79.0844 268.352C78.3188 268.789 77.6859 269.398 77.1859 270.18C76.6859 270.961 76.3188 271.859 76.0844 272.875C75.85 273.875 75.7328 274.938 75.7328 276.062ZM104.794 253V289H99.1219V253H104.794ZM119.581 284.523L125.792 263.641H131.652L122.839 289H119.183L119.581 284.523ZM114.823 263.641L121.152 284.617L121.456 289H117.8L108.941 263.641H114.823ZM146.345 289.469C144.47 289.469 142.775 289.164 141.259 288.555C139.759 287.93 138.478 287.062 137.416 285.953C136.369 284.844 135.564 283.539 135.002 282.039C134.439 280.539 134.158 278.922 134.158 277.188V276.25C134.158 274.266 134.447 272.469 135.025 270.859C135.603 269.25 136.408 267.875 137.439 266.734C138.47 265.578 139.689 264.695 141.095 264.086C142.502 263.477 144.025 263.172 145.666 263.172C147.478 263.172 149.064 263.477 150.423 264.086C151.783 264.695 152.908 265.555 153.798 266.664C154.705 267.758 155.377 269.062 155.814 270.578C156.267 272.094 156.494 273.766 156.494 275.594V278.008H136.9V273.953H150.916V273.508C150.884 272.492 150.681 271.539 150.306 270.648C149.947 269.758 149.392 269.039 148.642 268.492C147.892 267.945 146.892 267.672 145.642 267.672C144.705 267.672 143.869 267.875 143.134 268.281C142.416 268.672 141.814 269.242 141.33 269.992C140.845 270.742 140.47 271.648 140.205 272.711C139.955 273.758 139.83 274.938 139.83 276.25V277.188C139.83 278.297 139.978 279.328 140.275 280.281C140.588 281.219 141.041 282.039 141.634 282.742C142.228 283.445 142.947 284 143.791 284.406C144.634 284.797 145.595 284.992 146.673 284.992C148.033 284.992 149.244 284.719 150.306 284.172C151.369 283.625 152.291 282.852 153.072 281.852L156.048 284.734C155.502 285.531 154.791 286.297 153.916 287.031C153.041 287.75 151.97 288.336 150.705 288.789C149.455 289.242 148.002 289.469 146.345 289.469ZM166.922 268.469V289H161.273V263.641H166.664L166.922 268.469ZM174.68 263.477L174.633 268.727C174.289 268.664 173.914 268.617 173.508 268.586C173.117 268.555 172.727 268.539 172.336 268.539C171.367 268.539 170.516 268.68 169.781 268.961C169.047 269.227 168.43 269.617 167.93 270.133C167.445 270.633 167.07 271.242 166.805 271.961C166.539 272.68 166.383 273.484 166.336 274.375L165.047 274.469C165.047 272.875 165.203 271.398 165.516 270.039C165.828 268.68 166.297 267.484 166.922 266.453C167.562 265.422 168.359 264.617 169.312 264.039C170.281 263.461 171.398 263.172 172.664 263.172C173.008 263.172 173.375 263.203 173.766 263.266C174.172 263.328 174.477 263.398 174.68 263.477Z" fill="#FADAEF"/>
<path d="M17 259L3.34598 273.109C2.70972 273.767 2.39159 274.095 2.39159 274.5C2.39159 274.905 2.70972 275.233 3.34598 275.891L17 290" stroke="#FADAEF" stroke-width="3" stroke-linecap="round" stroke-linejoin="round"/>
<path d="M41.8762 91.1895C41.5261 92.2397 40.8058 93.0459 39.7861 93.498C36.5113 94.9497 34.148 97.313 32.6962 100.588C32.2442 101.608 31.438 102.328 30.3877 102.678" stroke="#FADAEF" stroke-linejoin="round"/>
<path d="M23.4948 109.572L21.7715 111.295M48.7694 84.2975L50.4926 82.5742" stroke="#FADAEF" stroke-linecap="round" stroke-linejoin="round"/>
<path d="M27.7921 99.7148L28.1456 99.3612L28.1456 99.3612L27.7921 99.7148ZM33.3521 105.275L32.9985 105.628L32.9985 105.628L33.3521 105.275ZM30.0161 108.611L30.3696 108.257L30.3696 108.257L30.0161 108.611ZM32.2859 109.508L32.4772 109.97L32.4772 109.97L32.2859 109.508ZM31.0823 109.508L30.8909 109.97L30.8909 109.97L31.0823 109.508ZM34.249 106.341L34.7109 106.15L34.7109 106.15L34.249 106.341ZM34.249 107.545L34.7109 107.736L34.7109 107.736L34.249 107.545ZM25.5223 98.8179L25.3309 98.356L25.3309 98.356L25.5223 98.8179ZM26.7259 98.8179L26.9172 98.356L26.9172 98.356L26.7259 98.8179ZM23.5592 100.781L23.0972 100.59L23.0972 100.59L23.5592 100.781ZM23.5592 101.985L23.0972 102.176L23.0972 102.176L23.5592 101.985ZM28.9041 109.723L29.2576 110.076L29.2576 110.076L28.9041 109.723ZM24.4561 109.723L24.1025 110.076L24.1025 110.076L24.4561 109.723ZM23.3441 108.611L23.6976 108.257L23.6976 108.257L23.3441 108.611ZM26.6801 111.295L26.6801 110.795L26.6801 110.795L26.6801 111.295ZM38.9121 88.5948L38.5585 88.9484L38.5585 88.9484L38.9121 88.5948ZM44.472 94.1548L44.8256 93.8012L44.8256 93.8012L44.472 94.1548ZM47.808 90.8188L47.4545 91.1724L47.4545 91.1724L47.808 90.8188ZM48.7049 93.0886L49.1669 93.28L49.1669 93.28L48.7049 93.0886ZM48.7049 91.885L49.1669 91.6937L49.1669 91.6937L48.7049 91.885ZM45.5382 95.0517L45.3469 95.5136L45.3469 95.5136L45.5382 95.0517ZM46.7419 95.0517L46.9332 95.5136L46.9332 95.5136L46.7419 95.0517ZM38.0152 86.325L37.5532 86.1337L37.5532 86.1337L38.0152 86.325ZM38.0152 87.5286L37.5532 87.72L37.5532 87.72L38.0152 87.5286ZM39.9782 84.3619L39.7869 83.9L39.7869 83.9L39.9782 84.3619ZM41.1819 84.3619L41.3732 83.9L41.3732 83.9L41.1819 84.3619ZM48.92 89.7068L49.2736 90.0604L49.2736 90.0604L48.92 89.7068ZM48.92 85.2588L49.2736 84.9053L49.2736 84.9053L48.92 85.2588ZM47.808 84.1468L47.4545 84.5004L47.4545 84.5004L47.808 84.1468ZM50.4926 87.4828L49.9926 87.4828L49.9926 87.4828L50.4926 87.4828ZM27.4385 100.068L32.9985 105.628L33.7056 104.921L28.1456 99.3612L27.4385 100.068ZM30.3696 108.257L24.8096 102.697L24.1025 103.404L29.6625 108.964L30.3696 108.257ZM32.9985 108.257C32.7346 108.521 32.5542 108.701 32.4044 108.832C32.258 108.96 32.168 109.015 32.0945 109.046L32.4772 109.97C32.6928 109.88 32.8768 109.747 33.0617 109.585C33.2432 109.427 33.4514 109.219 33.7056 108.964L32.9985 108.257ZM29.6625 108.964C29.9167 109.219 30.1249 109.427 30.3064 109.585C30.4913 109.747 30.6753 109.88 30.8909 109.97L31.2736 109.046C31.2002 109.015 31.1102 108.96 30.9638 108.832C30.8139 108.701 30.6335 108.521 30.3696 108.257L29.6625 108.964ZM32.0945 109.046C31.8317 109.155 31.5364 109.155 31.2736 109.046L30.8909 109.97C31.3988 110.18 31.9694 110.18 32.4772 109.97L32.0945 109.046ZM32.9985 105.628C33.2624 105.892 33.4424 106.073 33.5731 106.222C33.7008 106.369 33.7566 106.459 33.787 106.532L34.7109 106.15C34.6216 105.934 34.488 105.75 34.3267 105.565C34.1684 105.384 33.9598 105.175 33.7056 104.921L32.9985 105.628ZM33.7056 108.964C33.9598 108.71 34.1684 108.502 34.3267 108.32C34.488 108.136 34.6216 107.952 34.7109 107.736L33.787 107.353C33.7566 107.427 33.7008 107.517 33.5731 107.663C33.4424 107.813 33.2624 107.993 32.9985 108.257L33.7056 108.964ZM33.787 106.532C33.8959 106.795 33.8959 107.09 33.787 107.353L34.7109 107.736C34.9213 107.228 34.9213 106.657 34.7109 106.15L33.787 106.532ZM24.8096 100.068C25.0735 99.8044 25.2539 99.6244 25.4038 99.4937C25.5502 99.366 25.6402 99.3102 25.7136 99.2798L25.3309 98.356C25.1154 98.4453 24.9313 98.5789 24.7464 98.7401C24.5649 98.8984 24.3568 99.107 24.1025 99.3612L24.8096 100.068ZM28.1456 99.3612C27.8914 99.107 27.6832 98.8984 27.5017 98.7401C27.3168 98.5789 27.1328 98.4453 26.9172 98.356L26.5345 99.2798C26.608 99.3102 26.698 99.366 26.8444 99.4937C26.9942 99.6244 27.1746 99.8044 27.4385 100.068L28.1456 99.3612ZM25.7136 99.2798C25.9764 99.171 26.2717 99.171 26.5345 99.2798L26.9172 98.356C26.4094 98.1456 25.8388 98.1456 25.3309 98.356L25.7136 99.2798ZM24.1025 99.3612C23.8483 99.6155 23.6397 99.8236 23.4814 100.005C23.3202 100.19 23.1865 100.374 23.0972 100.59L24.0211 100.972C24.0515 100.899 24.1073 100.809 24.235 100.662C24.3657 100.513 24.5457 100.332 24.8096 100.068L24.1025 99.3612ZM24.8096 102.697C24.5457 102.433 24.3657 102.253 24.235 102.103C24.1073 101.957 24.0515 101.867 24.0211 101.793L23.0972 102.176C23.1865 102.392 23.3202 102.576 23.4814 102.76C23.6397 102.942 23.8483 103.15 24.1025 103.404L24.8096 102.697ZM23.0972 100.59C22.8869 101.097 22.8869 101.668 23.0972 102.176L24.0211 101.793C23.9123 101.53 23.9123 101.235 24.0211 100.972L23.0972 100.59ZM23.6976 104.516L24.8096 103.404L24.1025 102.697L22.9905 103.809L23.6976 104.516ZM29.6625 108.257L28.5505 109.369L29.2576 110.076L30.3696 108.964L29.6625 108.257ZM24.8096 109.369L23.6976 108.257L22.9905 108.964L24.1025 110.076L24.8096 109.369ZM28.5505 109.369C28.0163 109.903 27.6505 110.268 27.3399 110.505C27.0409 110.733 26.8525 110.795 26.6801 110.795L26.6801 111.795C27.1591 111.795 27.5585 111.596 27.9465 111.3C28.323 111.013 28.7434 110.591 29.2576 110.076L28.5505 109.369ZM24.1025 110.076C24.6167 110.591 25.0372 111.013 25.4137 111.3C25.8017 111.596 26.2011 111.795 26.6801 111.795L26.6801 110.795C26.5077 110.795 26.3193 110.733 26.0203 110.505C25.7097 110.268 25.3438 109.903 24.8096 109.369L24.1025 110.076ZM22.9905 103.809C22.4763 104.323 22.0544 104.744 21.7671 105.12C21.4711 105.508 21.2715 105.908 21.2715 106.387H22.2715C22.2715 106.214 22.334 106.026 22.5621 105.727C22.7991 105.416 23.1634 105.051 23.6976 104.516L22.9905 103.809ZM23.6976 108.257C23.1634 107.723 22.7991 107.357 22.5621 107.047C22.334 106.748 22.2715 106.559 22.2715 106.387H21.2715C21.2715 106.866 21.4711 107.265 21.7671 107.653C22.0544 108.03 22.4763 108.45 22.9905 108.964L23.6976 108.257ZM38.5585 88.9484L44.1185 94.5084L44.8256 93.8012L39.2656 88.2413L38.5585 88.9484ZM48.1616 90.4653L42.6016 84.9053L41.8945 85.6124L47.4545 91.1724L48.1616 90.4653ZM48.1616 94.5084C48.4158 94.2541 48.6244 94.0459 48.7827 93.8645C48.944 93.6796 49.0776 93.4955 49.1669 93.28L48.243 92.8973C48.2126 92.9707 48.1568 93.0607 48.0291 93.2071C47.8984 93.3569 47.7184 93.5373 47.4545 93.8012L48.1616 94.5084ZM47.4545 91.1724C47.7184 91.4363 47.8984 91.6167 48.0291 91.7665C48.1568 91.9129 48.2126 92.0029 48.243 92.0763L49.1669 91.6937C49.0776 91.4781 48.944 91.294 48.7827 91.1092C48.6244 90.9277 48.4158 90.7195 48.1616 90.4653L47.4545 91.1724ZM49.1669 93.28C49.3772 92.7721 49.3772 92.2015 49.1669 91.6937L48.243 92.0763C48.3519 92.3392 48.3519 92.6345 48.243 92.8973L49.1669 93.28ZM44.1185 94.5084C44.3727 94.7626 44.5809 94.9711 44.7624 95.1295C44.9473 95.2907 45.1313 95.4243 45.3469 95.5136L45.7296 94.5898C45.6562 94.5593 45.5662 94.5036 45.4197 94.3759C45.2699 94.2452 45.0895 94.0651 44.8256 93.8012L44.1185 94.5084ZM47.4545 93.8012C47.1906 94.0651 47.0102 94.2452 46.8604 94.3759C46.7139 94.5036 46.6239 94.5593 46.5505 94.5898L46.9332 95.5136C47.1488 95.4243 47.3328 95.2907 47.5177 95.1295C47.6992 94.9711 47.9074 94.7626 48.1616 94.5084L47.4545 93.8012ZM45.3469 95.5136C45.8547 95.724 46.4253 95.724 46.9332 95.5136L46.5505 94.5898C46.2877 94.6986 45.9924 94.6986 45.7296 94.5898L45.3469 95.5136ZM38.5585 84.9053C38.3043 85.1595 38.0957 85.3677 37.9374 85.5492C37.7761 85.7341 37.6425 85.9181 37.5532 86.1337L38.4771 86.5163C38.5075 86.4429 38.5633 86.3529 38.691 86.2065C38.8217 86.0567 39.0017 85.8763 39.2656 85.6124L38.5585 84.9053ZM39.2656 88.2413C39.0017 87.9774 38.8217 87.7969 38.691 87.6471C38.5633 87.5007 38.5075 87.4107 38.4771 87.3373L37.5532 87.72C37.6425 87.9355 37.7761 88.1196 37.9374 88.3045C38.0957 88.486 38.3043 88.6941 38.5585 88.9484L39.2656 88.2413ZM37.5532 86.1337C37.3429 86.6415 37.3429 87.2121 37.5532 87.72L38.4771 87.3373C38.3682 87.0745 38.3682 86.7792 38.4771 86.5163L37.5532 86.1337ZM39.2656 85.6124C39.5295 85.3485 39.7099 85.1684 39.8597 85.0378C40.0062 84.91 40.0962 84.8543 40.1696 84.8239L39.7869 83.9C39.5713 83.9893 39.3873 84.1229 39.2024 84.2842C39.0209 84.4425 38.8127 84.651 38.5585 84.9053L39.2656 85.6124ZM42.6016 84.9053C42.3474 84.651 42.1392 84.4425 41.9577 84.2842C41.7728 84.1229 41.5888 83.9893 41.3732 83.9L40.9905 84.8239C41.0639 84.8543 41.1539 84.91 41.3004 85.0378C41.4502 85.1684 41.6306 85.3485 41.8945 85.6124L42.6016 84.9053ZM40.1696 84.8239C40.4324 84.715 40.7277 84.715 40.9905 84.8239L41.3732 83.9C40.8654 83.6896 40.2947 83.6896 39.7869 83.9L40.1696 84.8239ZM43.0065 83.7933L41.8945 84.9053L42.6016 85.6124L43.7136 84.5004L43.0065 83.7933ZM48.1616 91.1724L49.2736 90.0604L48.5665 89.3533L47.4545 90.4653L48.1616 91.1724ZM49.2736 84.9053L48.1616 83.7933L47.4545 84.5004L48.5665 85.6124L49.2736 84.9053ZM49.2736 90.0604C49.7878 89.5462 50.2098 89.1257 50.497 88.7492C50.793 88.3612 50.9926 87.9618 50.9926 87.4828L49.9926 87.4828C49.9926 87.6552 49.9301 87.8436 49.702 88.1426C49.465 88.4532 49.1007 88.8191 48.5665 89.3533L49.2736 90.0604ZM48.5665 85.6124C49.1007 86.1466 49.465 86.5124 49.702 86.823C49.9301 87.122 49.9926 87.3104 49.9926 87.4828L50.9926 87.4828C50.9926 87.0038 50.793 86.6044 50.497 86.2164C50.2098 85.8399 49.7878 85.4195 49.2736 84.9053L48.5665 85.6124ZM43.7136 84.5004C44.2478 83.9662 44.6136 83.6018 44.9242 83.3649C45.2233 83.1367 45.4116 83.0742 45.584 83.0742V82.0742C45.1051 82.0742 44.7056 82.2738 44.3176 82.5699C43.9412 82.8571 43.5207 83.2791 43.0065 83.7933L43.7136 84.5004ZM48.1616 83.7933C47.6474 83.2791 47.2269 82.8571 46.8505 82.5699C46.4625 82.2738 46.063 82.0742 45.584 82.0742V83.0742C45.7565 83.0742 45.9448 83.1367 46.2439 83.3649C46.5545 83.6018 46.9203 83.9662 47.4545 84.5004L48.1616 83.7933Z" fill="#FADAEF"/>
<rect x="14.5889" y="73" width="41.885" height="47.8686" rx="4" stroke="#FADAEF" stroke-width="1.5"/>
<path d="M16.9836 82.5742L11 82.5742M16.9836 96.9348L11 96.9348M16.9836 111.295H11" stroke="#FADAEF" stroke-width="1.5" stroke-linecap="round" stroke-linejoin="round"/>
<path d="M52.4743 341.255C52.4743 340.01 51.4655 339.001 50.221 339.001C48.9766 339.001 47.9678 340.01 47.9678 341.255C47.9678 342.499 48.9766 343.508 50.221 343.508C51.4655 343.508 52.4743 342.499 52.4743 341.255Z" fill="#FADAEF"/>
<path d="M35.0641 341.255C35.0641 340.01 34.0553 339.001 32.8109 339.001C31.5664 339.001 30.5576 340.01 30.5576 341.255C30.5576 342.499 31.5664 343.508 32.8109 343.508C34.0553 343.508 35.0641 342.499 35.0641 341.255Z" fill="#FADAEF"/>
<path d="M44.2809 341.255C44.2809 340.01 43.2721 339.001 42.0277 339.001C40.7832 339.001 39.7744 340.01 39.7744 341.255C39.7744 342.499 40.7832 343.508 42.0277 343.508C43.2721 343.508 44.2809 342.499 44.2809 341.255Z" fill="#FADAEF"/>
<path d="M52.4743 358.255C52.4743 357.01 51.4655 356.001 50.221 356.001C48.9766 356.001 47.9678 357.01 47.9678 358.255C47.9678 359.499 48.9766 360.508 50.221 360.508C51.4655 360.508 52.4743 359.499 52.4743 358.255Z" fill="#FADAEF"/>
<path d="M35.0641 358.255C35.0641 357.01 34.0553 356.001 32.8109 356.001C31.5664 356.001 30.5576 357.01 30.5576 358.255C30.5576 359.499 31.5664 360.508 32.8109 360.508C34.0553 360.508 35.0641 359.499 35.0641 358.255Z" fill="#FADAEF"/>
<path d="M44.2809 358.255C44.2809 357.01 43.2721 356.001 42.0277 356.001C40.7832 356.001 39.7744 357.01 39.7744 358.255C39.7744 359.499 40.7832 360.508 42.0277 360.508C43.2721 360.508 44.2809 359.499 44.2809 358.255Z" fill="#FADAEF"/>
<path d="M52.4743 350.061C52.4743 348.817 51.4655 347.808 50.221 347.808C48.9766 347.808 47.9678 348.817 47.9678 350.061C47.9678 351.306 48.9766 352.314 50.221 352.314C51.4655 352.314 52.4743 351.306 52.4743 350.061Z" fill="#FADAEF"/>
<path d="M35.0641 350.061C35.0641 348.817 34.0553 347.808 32.8109 347.808C31.5664 347.808 30.5576 348.817 30.5576 350.061C30.5576 351.306 31.5664 352.314 32.8109 352.314C34.0553 352.314 35.0641 351.306 35.0641 350.061Z" fill="#FADAEF"/>
<path d="M44.2809 350.061C44.2809 348.817 43.2721 347.808 42.0277 347.808C40.7832 347.808 39.7744 348.817 39.7744 350.061C39.7744 351.306 40.7832 352.314 42.0277 352.314C43.2721 352.314 44.2809 351.306 44.2809 350.061Z" fill="#FADAEF"/>
<rect x="30.5576" y="362.557" width="21.5084" height="21.5084" rx="3" fill="#FADAEF"/>
<rect x="7" y="362.558" width="21.5084" height="21.5084" rx="3" fill="#FADAEF"/>
<rect x="7" y="339" width="21.5084" height="21.5084" rx="3" fill="#FADAEF"/>
<rect x="34.6533" y="366.652" width="13.3147" height="13.3147" rx="1" stroke="black" stroke-width="2" stroke-linejoin="round"/>
<rect x="11.0977" y="366.653" width="13.3147" height="13.3147" rx="1" stroke="black" stroke-width="2" stroke-linejoin="round"/>
<rect x="11.0977" y="343.098" width="13.3147" height="13.3147" rx="1" stroke="black" stroke-width="2" stroke-linejoin="round"/>
<path d="M172.871 115.791C175 115.791 176.694 114.451 178.215 112.577C181.329 108.741 176.217 105.675 174.267 104.174C172.285 102.648 170.072 101.783 167.829 101.58M164.986 95.8956C168.911 95.8956 172.092 92.7143 172.092 88.7901C172.092 84.8658 168.911 81.6846 164.986 81.6846" stroke="#FADAEF" stroke-width="1.5" stroke-linecap="round"/>
<path d="M122.996 115.791C120.866 115.791 119.172 114.451 117.651 112.577C114.538 108.741 119.649 105.675 121.599 104.174C123.581 102.648 125.794 101.783 128.038 101.58M129.459 95.8956C125.535 95.8956 122.353 92.7143 122.353 88.7901C122.353 84.8658 125.535 81.6846 129.459 81.6846" stroke="#FADAEF" stroke-width="1.5" stroke-linecap="round"/>
<path d="M136.803 107.58C133.899 109.376 126.284 113.043 130.922 117.631C133.187 119.872 135.71 121.475 138.883 121.475H156.984C160.156 121.475 162.679 119.872 164.945 117.631C169.582 113.043 161.968 109.376 159.064 107.58C152.254 103.369 143.613 103.369 136.803 107.58Z" stroke="#FADAEF" stroke-width="1.5" stroke-linecap="round" stroke-linejoin="round"/>
<path d="M157.881 85.9477C157.881 91.4417 153.427 95.8954 147.933 95.8954C142.439 95.8954 137.985 91.4417 137.985 85.9477C137.985 80.4537 142.439 76 147.933 76C153.427 76 157.881 80.4537 157.881 85.9477Z" stroke="#FADAEF" stroke-width="1.5"/>
<path d="M281.67 97.7524C281.67 109.765 271.489 119.505 258.933 119.505C257.457 119.507 255.984 119.37 254.534 119.098C253.49 118.902 252.968 118.804 252.604 118.859C252.24 118.915 251.723 119.19 250.69 119.739C247.769 121.293 244.363 121.841 241.086 121.232C242.332 119.7 243.182 117.863 243.557 115.893C243.785 114.688 243.221 113.517 242.377 112.66C238.545 108.768 236.195 103.524 236.195 97.7524C236.195 85.7398 246.377 76 258.933 76C271.489 76 281.67 85.7398 281.67 97.7524Z" stroke="#FADAEF" stroke-width="1.5" stroke-linejoin="round"/>
<path d="M258.922 98.7373H258.942M268.007 98.7373H268.027M249.837 98.7373H249.857" stroke="#FADAEF" stroke-width="2" stroke-linecap="round" stroke-linejoin="round"/>
<path fill-rule="evenodd" clip-rule="evenodd" d="M101.798 166.072C99.597 166.349 97.5521 167.034 96.1602 167.961C95.0892 168.674 94.024 169.872 93.706 170.722C93.5515 171.135 93.0279 174.058 92.449 177.738C90.3215 191.266 88.5453 202.581 88.217 204.696C87.7473 207.723 87.8741 208.323 89.2602 209.633C90.7538 211.046 92.7837 211.629 96.2209 211.632C100.618 211.635 103.814 210.761 105.663 209.049C106.904 207.9 107.156 207.244 107.713 203.714C107.968 202.095 108.42 199.259 108.717 197.412C109.014 195.565 109.26 193.699 109.263 193.264C109.277 191.075 107.064 189.319 103.54 188.724C102.331 188.52 99.3739 188.464 99.2279 188.643C99.163 188.722 99.0675 189.187 99.0158 189.676L98.9216 190.565H99.5744C100.554 190.565 102.233 191.037 102.77 191.464C103.33 191.909 103.824 192.832 103.824 193.431C103.824 193.944 102.032 205.519 101.831 206.3C101.505 207.573 100.648 208.467 99.222 209.022C98.1437 209.442 96.1152 209.443 95.2011 209.024C93.9898 208.47 93.5265 207.812 93.5239 206.642C93.5228 206.237 93.9716 203.061 94.521 199.585C95.0703 196.109 96.087 189.65 96.78 185.232C98.8755 171.876 98.9438 171.475 99.2341 170.8C99.7077 169.699 100.768 168.927 102.384 168.506C103.914 168.107 105.632 168.538 106.569 169.555C107.307 170.356 107.349 170.729 106.988 173.315C106.729 175.174 106.709 175.573 106.848 176.078C107.069 176.878 107.888 177.673 108.864 178.035C109.813 178.388 111.432 178.666 111.589 178.504C111.652 178.438 111.893 177.17 112.124 175.685C112.788 171.416 112.585 169.676 111.247 168.188C110.47 167.324 109.159 166.673 107.515 166.337C106.075 166.042 103.123 165.905 101.798 166.072ZM146.093 179.124C142.042 179.458 138.466 181.412 137.325 183.915C137.12 184.365 136.877 185.535 136.558 187.602C136.3 189.268 135.731 192.912 135.293 195.7C134.855 198.489 134.32 201.896 134.105 203.272C133.889 204.648 133.516 207.011 133.275 208.522L132.837 211.271L133.795 211.184C136.288 210.958 138.116 209.877 138.701 208.281C138.835 207.916 139.012 207.173 139.095 206.63C139.307 205.238 140.674 196.507 141.692 190.041C142.202 186.799 142.649 184.36 142.791 184.038C143.517 182.397 145.834 181.358 147.931 181.733C149.744 182.056 150.702 182.971 150.702 184.378C150.702 184.746 149.9 190.15 148.92 196.385L147.138 207.722L147.358 208.394C147.648 209.282 148.163 210.311 148.501 210.679C148.697 210.893 148.921 210.975 149.307 210.975C149.794 210.975 149.915 210.898 150.688 210.089C152.002 208.716 152.607 207.681 152.789 206.498C152.872 205.955 153.387 202.666 153.932 199.19C156.34 183.835 156.228 184.487 156.598 183.807C157.203 182.694 158.332 182.008 160.018 181.73C161.883 181.422 163.688 182.098 164.342 183.349C164.725 184.082 164.676 184.448 161.699 203.253C161.368 205.343 161.061 207.402 161.016 207.827C160.81 209.798 162.18 211.008 164.952 211.305C165.804 211.396 165.834 211.389 165.902 211.088C165.94 210.917 166.355 208.318 166.825 205.313C167.295 202.307 168.188 196.619 168.81 192.672C169.432 188.725 169.973 185.11 170.013 184.639C170.119 183.384 169.734 182.446 168.687 181.411C167.273 180.013 165.282 179.287 162.487 179.15C159.765 179.017 156.951 179.532 154.99 180.522L154.34 180.85L153.448 180.368C152.384 179.793 150.438 179.275 148.95 179.169C148.356 179.127 147.752 179.076 147.607 179.057C147.462 179.037 146.781 179.067 146.093 179.124ZM132.829 179.523C130.799 179.705 129.238 180.446 128.71 181.482C128.507 181.88 128.121 184.042 127.178 190.075C126.485 194.509 125.863 198.359 125.795 198.632C125.308 200.59 121.728 201.581 119.371 200.41C118.718 200.086 118.177 199.402 118.177 198.901C118.177 198.728 118.745 194.988 119.438 190.592C120.131 186.195 120.703 182.361 120.709 182.072C120.724 181.339 120.384 180.759 119.706 180.361C119.06 179.983 117.641 179.642 116.698 179.638C116.159 179.636 116.067 179.675 116.01 179.932C115.973 180.095 115.284 184.458 114.477 189.628C112.845 200.088 112.876 199.608 113.777 200.509C115.535 202.267 120.352 202.988 124.362 202.092C124.83 201.988 125.232 201.921 125.254 201.943C125.277 201.966 125.052 203.548 124.754 205.459C124.165 209.241 124.027 209.665 123.191 210.244C122.314 210.85 121.642 211.021 120.087 211.031C118.779 211.04 118.565 211.006 117.884 210.688C116.827 210.192 116.592 209.769 116.617 208.405C116.64 207.138 116.432 206.646 115.669 206.165C114.856 205.652 112.255 205.119 112.065 205.426C112.021 205.498 111.857 206.384 111.701 207.397C111.43 209.148 111.427 209.266 111.637 209.81C112.209 211.296 113.916 212.226 116.663 212.547C118.191 212.726 122.208 212.727 123.534 212.548C124.785 212.379 126.353 211.96 127.066 211.602C127.919 211.174 128.73 210.44 128.984 209.865C129.216 209.339 133.898 180.062 133.818 179.636C133.787 179.472 133.617 179.453 132.829 179.523Z" fill="white"/>
<path fill-rule="evenodd" clip-rule="evenodd" d="M21.6016 169.125C21.502 169.443 20.8625 173.771 20.8652 174.107C20.8747 175.272 21.7292 176.37 22.9945 176.844C23.6617 177.093 25.7049 177.476 25.81 177.371C25.837 177.344 26.0096 176.388 26.1938 175.248C26.7342 171.899 26.6398 171.137 25.5715 170.222C25.0448 169.772 23.9053 169.32 22.9074 169.166C22.6177 169.122 22.2177 169.055 22.0185 169.018C21.7841 168.974 21.637 169.012 21.6016 169.125ZM37.8528 179.068C36.8709 179.17 34.7188 179.675 33.9025 179.996C31.7495 180.841 29.978 182.243 29.2854 183.65C28.9022 184.429 28.7483 185.3 26.7811 197.82C25.6283 205.157 24.6851 211.178 24.6851 211.2C24.6851 211.304 25.8157 211.221 26.7003 211.051C28.5315 210.701 29.9007 209.751 30.4861 208.424C30.692 207.958 31.1451 205.394 32.1383 199.075C34.6091 183.357 34.4134 184.457 34.8751 183.693C35.6267 182.45 37.17 181.697 38.9721 181.694C40.7241 181.692 42.1088 182.483 42.4699 183.693C42.6633 184.341 42.8217 183.195 40.4809 198.072C39.6562 203.314 39.0443 207.584 39.0753 207.882C39.1453 208.55 39.9654 210.335 40.4038 210.774C41.0606 211.431 41.7558 211.107 43.0837 209.525C44.5397 207.791 44.3601 208.54 46.2856 196.163C47.2319 190.079 48.0631 184.885 48.1325 184.62C48.3274 183.878 49.048 182.91 49.7085 182.503C50.037 182.301 50.8306 182.006 51.4721 181.848C52.6014 181.569 52.6717 181.567 53.671 181.774C54.3026 181.904 54.9213 182.132 55.2651 182.36C55.9072 182.787 56.4194 183.672 56.4194 184.356C56.4194 184.603 55.6166 189.909 54.6354 196.146C53.6543 202.383 52.85 207.8 52.8484 208.183C52.8404 209.988 54.2288 211.083 56.8304 211.325L57.7075 211.407L57.7871 211.027C57.8309 210.818 58.2502 208.188 58.719 205.183C59.1878 202.177 60.1095 196.311 60.7674 192.146C61.649 186.565 61.9429 184.402 61.8856 183.917C61.6481 181.906 59.9222 180.322 57.0778 179.503C55.824 179.143 52.8109 179.006 51.0865 179.232C49.9251 179.384 47.6128 180.083 46.6501 180.572L46.1641 180.82L45.2017 180.308C43.4394 179.37 40.2079 178.825 37.8528 179.068ZM75.8419 179.315C74.1611 179.628 72.8995 180.01 71.7171 180.564C69.6559 181.53 68.3328 182.686 67.731 184.046C67.5079 184.551 66.7101 188.825 66.6937 189.605C66.6868 189.926 69.3167 189.46 70.2772 188.97C71.6815 188.254 72.3562 187.329 72.8089 185.501C73.1813 183.997 73.3791 183.618 74.1391 182.949C74.7917 182.374 75.6371 182.003 76.8715 181.748C77.514 181.615 77.7936 181.624 78.6055 181.805C80.1086 182.14 81.0451 182.957 81.2388 184.103C81.3298 184.642 80.6181 189.511 80.3111 190.449C80.0238 191.327 79.3236 192.075 78.369 192.523C77.3157 193.017 76.5815 193.165 74.7089 193.262C72.7846 193.36 71.7888 193.517 70.3805 193.943C67.7055 194.751 66.026 196.029 65.3839 197.745C65.0652 198.597 63.925 205.7 63.925 206.834C63.925 208.245 64.8376 209.634 66.4269 210.643C67.6702 211.432 69.5899 211.698 73.2742 211.591C75.9895 211.513 76.9677 211.376 78.501 210.858L79.2576 210.603L80.2431 210.933C81.1938 211.253 82.6233 211.491 82.6233 211.33C82.6233 211.238 83.7024 204.382 85.4666 193.266C86.1678 188.848 86.7461 184.819 86.7519 184.312C86.7652 183.143 86.404 182.344 85.4301 181.389C84.5951 180.57 82.9565 179.722 81.6357 179.426C80.3144 179.13 77.1602 179.069 75.8419 179.315ZM19.7509 180.979C19.6115 181.379 14.9338 211.54 15.0007 211.607C15.1199 211.726 17.1137 211.38 17.9349 211.097C19.763 210.468 20.7926 209.298 21.117 207.479C21.1938 207.049 22.0314 201.779 22.9785 195.768C24.8747 183.733 24.8967 183.504 24.2455 182.565C23.6486 181.703 22.3661 181.138 20.4376 180.887C19.9802 180.828 19.7948 180.852 19.7509 180.979ZM79.6314 195.311C78.7289 201.293 77.9657 205.953 77.7882 206.565C77.4794 207.63 76.5639 208.582 75.4468 209C74.264 209.443 72.5216 209.509 71.5052 209.149C70.3829 208.752 69.8004 208.153 69.5701 207.161C69.4548 206.665 70.4682 199.578 70.845 198.245C71.3135 196.588 72.2785 196.116 76.3027 195.574C77.4253 195.423 78.5511 195.247 78.8046 195.183C79.4051 195.032 79.6674 195.073 79.6314 195.311Z" fill="white"/>
<path d="M359.604 106.654C356.387 108.569 347.953 112.48 353.09 117.375C355.6 119.765 358.394 121.475 361.908 121.475H381.959C385.473 121.475 388.268 119.765 390.777 117.375C395.914 112.48 387.48 108.569 384.263 106.654C376.719 102.162 367.148 102.162 359.604 106.654Z" stroke="#FADAEF" stroke-width="1.5" stroke-linecap="round" stroke-linejoin="round"/>
<path d="M382.166 86.2319C382.166 91.8828 377.585 96.4638 371.934 96.4638C366.283 96.4638 361.702 91.8828 361.702 86.2319C361.702 80.581 366.283 76 371.934 76C377.585 76 382.166 80.581 382.166 86.2319Z" stroke="#FADAEF" stroke-width="1.5"/>
<circle cx="322.95" cy="247.95" r="89.9503" fill="#BA007C" stroke="#FADAEF" stroke-width="2"/>
<path d="M366.972 208.973C366.972 206.525 364.988 204.542 362.541 204.542C360.094 204.542 358.11 206.525 358.11 208.973C358.11 211.42 360.094 213.403 362.541 213.403C364.988 213.403 366.972 211.42 366.972 208.973Z" fill="black"/>
<path d="M332.735 208.973C332.735 206.526 330.751 204.543 328.304 204.543C325.857 204.543 323.873 206.526 323.873 208.973C323.873 211.421 325.857 213.404 328.304 213.404C330.751 213.404 332.735 211.421 332.735 208.973Z" fill="black"/>
<path d="M350.86 208.973C350.86 206.525 348.876 204.542 346.429 204.542C343.982 204.542 341.998 206.525 341.998 208.973C341.998 211.42 343.982 213.403 346.429 213.403C348.876 213.403 350.86 211.42 350.86 208.973Z" fill="black"/>
<path d="M366.972 242.405C366.972 239.958 364.988 237.974 362.541 237.974C360.094 237.974 358.11 239.958 358.11 242.405C358.11 244.852 360.094 246.836 362.541 246.836C364.988 246.836 366.972 244.852 366.972 242.405Z" fill="black"/>
<path d="M332.735 242.405C332.735 239.958 330.751 237.974 328.304 237.974C325.857 237.974 323.873 239.958 323.873 242.405C323.873 244.852 325.857 246.836 328.304 246.836C330.751 246.836 332.735 244.852 332.735 242.405Z" fill="black"/>
<path d="M350.86 242.405C350.86 239.958 348.876 237.974 346.429 237.974C343.982 237.974 341.998 239.958 341.998 242.405C341.998 244.852 343.982 246.836 346.429 246.836C348.876 246.836 350.86 244.852 350.86 242.405Z" fill="black"/>
<path d="M366.972 226.293C366.972 223.846 364.988 221.862 362.541 221.862C360.094 221.862 358.11 223.846 358.11 226.293C358.11 228.74 360.094 230.724 362.541 230.724C364.988 230.724 366.972 228.74 366.972 226.293Z" fill="black"/>
<path d="M332.735 226.292C332.735 223.845 330.751 221.861 328.304 221.861C325.857 221.861 323.873 223.845 323.873 226.292C323.873 228.739 325.857 230.723 328.304 230.723C330.751 230.723 332.735 228.739 332.735 226.292Z" fill="black"/>
<path d="M350.86 226.293C350.86 223.846 348.876 221.862 346.429 221.862C343.982 221.862 341.998 223.846 341.998 226.293C341.998 228.74 343.982 230.724 346.429 230.724C348.876 230.724 350.86 228.74 350.86 226.293Z" fill="black"/>
<rect x="323.873" y="250.865" width="42.2942" height="42.2942" rx="6" fill="black"/>
<rect x="277.55" y="250.865" width="42.2942" height="42.2942" rx="6" fill="black"/>
<rect x="277.55" y="204.542" width="42.2942" height="42.2942" rx="6" fill="black"/>
<rect x="331.929" y="258.922" width="26.1821" height="26.1821" rx="3" stroke="#BA007C" stroke-width="3" stroke-linejoin="round"/>
<rect x="285.606" y="258.922" width="26.1821" height="26.1821" rx="3" stroke="#BA007C" stroke-width="3" stroke-linejoin="round"/>
<rect x="285.606" y="212.598" width="26.1821" height="26.1821" rx="3" stroke="#BA007C" stroke-width="3" stroke-linejoin="round"/>
</svg>
