<svg width="712" height="323" viewBox="0 0 712 323" fill="none" xmlns="http://www.w3.org/2000/svg">
<path d="M557.82 245.045V249H540.312V245.625L548.592 236.748C549.424 235.822 550.08 235.008 550.561 234.305C551.041 233.59 551.387 232.951 551.598 232.389C551.82 231.814 551.932 231.27 551.932 230.754C551.932 229.98 551.803 229.318 551.545 228.768C551.287 228.205 550.906 227.771 550.402 227.467C549.91 227.162 549.301 227.01 548.574 227.01C547.801 227.01 547.133 227.197 546.57 227.572C546.02 227.947 545.598 228.469 545.305 229.137C545.023 229.805 544.883 230.561 544.883 231.404H539.803C539.803 229.881 540.166 228.486 540.893 227.221C541.619 225.943 542.645 224.93 543.969 224.18C545.293 223.418 546.863 223.037 548.68 223.037C550.473 223.037 551.984 223.33 553.215 223.916C554.457 224.49 555.395 225.322 556.027 226.412C556.672 227.49 556.994 228.779 556.994 230.279C556.994 231.123 556.859 231.949 556.59 232.758C556.32 233.555 555.934 234.352 555.43 235.148C554.938 235.934 554.34 236.73 553.637 237.539C552.934 238.348 552.154 239.186 551.299 240.053L546.852 245.045H557.82ZM573.324 223.354V249H568.262V229.189L562.18 231.123V227.133L572.779 223.354H573.324ZM591.852 236.027V240H581.92V236.027H591.852ZM613.789 239.438V243.41H595.35L595.104 240.334L605.773 223.406H609.799L605.439 230.701L600.131 239.438H613.789ZM610.889 223.406V249H605.826V223.406H610.889ZM621.717 234.006H624.424C625.291 234.006 626.006 233.859 626.568 233.566C627.131 233.262 627.547 232.84 627.816 232.301C628.098 231.75 628.238 231.111 628.238 230.385C628.238 229.729 628.109 229.148 627.852 228.645C627.605 228.129 627.225 227.73 626.709 227.449C626.193 227.156 625.543 227.01 624.758 227.01C624.137 227.01 623.562 227.133 623.035 227.379C622.508 227.625 622.086 227.971 621.77 228.416C621.453 228.861 621.295 229.4 621.295 230.033H616.215C616.215 228.627 616.59 227.402 617.34 226.359C618.102 225.316 619.121 224.502 620.398 223.916C621.676 223.33 623.082 223.037 624.617 223.037C626.352 223.037 627.869 223.318 629.17 223.881C630.471 224.432 631.484 225.246 632.211 226.324C632.938 227.402 633.301 228.738 633.301 230.332C633.301 231.141 633.113 231.926 632.738 232.688C632.363 233.438 631.824 234.117 631.121 234.727C630.43 235.324 629.586 235.805 628.59 236.168C627.594 236.52 626.475 236.695 625.232 236.695H621.717V234.006ZM621.717 237.855V235.236H625.232C626.627 235.236 627.852 235.395 628.906 235.711C629.961 236.027 630.846 236.484 631.561 237.082C632.275 237.668 632.814 238.365 633.178 239.174C633.541 239.971 633.723 240.855 633.723 241.828C633.723 243.023 633.494 244.09 633.037 245.027C632.58 245.953 631.936 246.738 631.104 247.383C630.283 248.027 629.322 248.52 628.221 248.859C627.119 249.188 625.918 249.352 624.617 249.352C623.539 249.352 622.479 249.205 621.436 248.912C620.404 248.607 619.467 248.156 618.623 247.559C617.791 246.949 617.123 246.188 616.619 245.273C616.127 244.348 615.881 243.252 615.881 241.986H620.961C620.961 242.643 621.125 243.229 621.453 243.744C621.781 244.26 622.232 244.664 622.807 244.957C623.393 245.25 624.043 245.396 624.758 245.396C625.566 245.396 626.258 245.25 626.832 244.957C627.418 244.652 627.863 244.23 628.168 243.691C628.484 243.141 628.643 242.502 628.643 241.775C628.643 240.838 628.473 240.088 628.133 239.525C627.793 238.951 627.307 238.529 626.674 238.26C626.041 237.99 625.291 237.855 624.424 237.855H621.717ZM560.105 286.711V278.238C560.105 277.629 560.006 277.107 559.807 276.674C559.607 276.229 559.297 275.883 558.875 275.637C558.465 275.391 557.932 275.268 557.275 275.268C556.713 275.268 556.227 275.367 555.816 275.566C555.406 275.754 555.09 276.029 554.867 276.393C554.645 276.744 554.533 277.16 554.533 277.641H549.471C549.471 276.832 549.658 276.064 550.033 275.338C550.408 274.611 550.953 273.973 551.668 273.422C552.383 272.859 553.232 272.42 554.217 272.104C555.213 271.787 556.326 271.629 557.557 271.629C559.033 271.629 560.346 271.875 561.494 272.367C562.643 272.859 563.545 273.598 564.201 274.582C564.869 275.566 565.203 276.797 565.203 278.273V286.412C565.203 287.455 565.268 288.311 565.396 288.979C565.525 289.635 565.713 290.209 565.959 290.701V291H560.844C560.598 290.484 560.41 289.84 560.281 289.066C560.164 288.281 560.105 287.496 560.105 286.711ZM560.773 279.416L560.809 282.281H557.979C557.311 282.281 556.73 282.357 556.238 282.51C555.746 282.662 555.342 282.879 555.025 283.16C554.709 283.43 554.475 283.746 554.322 284.109C554.182 284.473 554.111 284.871 554.111 285.305C554.111 285.738 554.211 286.131 554.41 286.482C554.609 286.822 554.896 287.092 555.271 287.291C555.646 287.479 556.086 287.572 556.59 287.572C557.352 287.572 558.014 287.42 558.576 287.115C559.139 286.811 559.572 286.436 559.877 285.99C560.193 285.545 560.357 285.123 560.369 284.725L561.705 286.869C561.518 287.35 561.26 287.848 560.932 288.363C560.615 288.879 560.211 289.365 559.719 289.822C559.227 290.268 558.635 290.637 557.943 290.93C557.252 291.211 556.432 291.352 555.482 291.352C554.275 291.352 553.18 291.111 552.195 290.631C551.223 290.139 550.449 289.465 549.875 288.609C549.312 287.742 549.031 286.758 549.031 285.656C549.031 284.66 549.219 283.775 549.594 283.002C549.969 282.229 550.52 281.578 551.246 281.051C551.984 280.512 552.904 280.107 554.006 279.838C555.107 279.557 556.385 279.416 557.838 279.416H560.773ZM574.062 276.041V291H569V271.98H573.746L574.062 276.041ZM573.324 280.822H571.953C571.953 279.416 572.135 278.15 572.498 277.025C572.861 275.889 573.371 274.922 574.027 274.125C574.684 273.316 575.463 272.701 576.365 272.279C577.279 271.846 578.299 271.629 579.424 271.629C580.314 271.629 581.129 271.758 581.867 272.016C582.605 272.273 583.238 272.684 583.766 273.246C584.305 273.809 584.715 274.553 584.996 275.479C585.289 276.404 585.436 277.535 585.436 278.871V291H580.338V278.854C580.338 278.01 580.221 277.354 579.986 276.885C579.752 276.416 579.406 276.088 578.949 275.9C578.504 275.701 577.953 275.602 577.297 275.602C576.617 275.602 576.025 275.736 575.521 276.006C575.029 276.275 574.619 276.65 574.291 277.131C573.975 277.6 573.734 278.15 573.57 278.783C573.406 279.416 573.324 280.096 573.324 280.822ZM580.953 264.088L583.871 264.281C583.871 265.137 583.701 265.916 583.361 266.619C583.021 267.311 582.553 267.867 581.955 268.289C581.357 268.699 580.672 268.904 579.898 268.904C579.336 268.904 578.85 268.828 578.439 268.676C578.041 268.523 577.672 268.348 577.332 268.148C576.992 267.938 576.641 267.756 576.277 267.604C575.926 267.451 575.521 267.375 575.064 267.375C574.654 267.375 574.303 267.521 574.01 267.814C573.729 268.107 573.588 268.529 573.588 269.08L570.652 268.922C570.652 268.078 570.822 267.305 571.162 266.602C571.502 265.898 571.971 265.336 572.568 264.914C573.166 264.48 573.846 264.264 574.607 264.264C575.088 264.264 575.527 264.346 575.926 264.51C576.324 264.662 576.705 264.838 577.068 265.037C577.443 265.236 577.824 265.412 578.211 265.564C578.598 265.717 579.008 265.793 579.441 265.793C579.852 265.793 580.203 265.646 580.496 265.354C580.801 265.049 580.953 264.627 580.953 264.088ZM588.477 281.684V281.314C588.477 279.92 588.676 278.637 589.074 277.465C589.473 276.281 590.053 275.256 590.814 274.389C591.576 273.521 592.514 272.848 593.627 272.367C594.74 271.875 596.018 271.629 597.459 271.629C598.9 271.629 600.184 271.875 601.309 272.367C602.434 272.848 603.377 273.521 604.139 274.389C604.912 275.256 605.498 276.281 605.896 277.465C606.295 278.637 606.494 279.92 606.494 281.314V281.684C606.494 283.066 606.295 284.35 605.896 285.533C605.498 286.705 604.912 287.73 604.139 288.609C603.377 289.477 602.439 290.15 601.326 290.631C600.213 291.111 598.936 291.352 597.494 291.352C596.053 291.352 594.77 291.111 593.645 290.631C592.531 290.15 591.588 289.477 590.814 288.609C590.053 287.73 589.473 286.705 589.074 285.533C588.676 284.35 588.477 283.066 588.477 281.684ZM593.539 281.314V281.684C593.539 282.48 593.609 283.225 593.75 283.916C593.891 284.607 594.113 285.217 594.418 285.744C594.734 286.26 595.145 286.664 595.648 286.957C596.152 287.25 596.768 287.396 597.494 287.396C598.197 287.396 598.801 287.25 599.305 286.957C599.809 286.664 600.213 286.26 600.518 285.744C600.822 285.217 601.045 284.607 601.186 283.916C601.338 283.225 601.414 282.48 601.414 281.684V281.314C601.414 280.541 601.338 279.814 601.186 279.135C601.045 278.443 600.816 277.834 600.5 277.307C600.195 276.768 599.791 276.346 599.287 276.041C598.783 275.736 598.174 275.584 597.459 275.584C596.744 275.584 596.135 275.736 595.631 276.041C595.139 276.346 594.734 276.768 594.418 277.307C594.113 277.834 593.891 278.443 593.75 279.135C593.609 279.814 593.539 280.541 593.539 281.314ZM619.889 285.744C619.889 285.381 619.783 285.053 619.572 284.76C619.361 284.467 618.969 284.197 618.395 283.951C617.832 283.693 617.018 283.459 615.951 283.248C614.99 283.037 614.094 282.773 613.262 282.457C612.441 282.129 611.727 281.736 611.117 281.279C610.52 280.822 610.051 280.283 609.711 279.662C609.371 279.029 609.201 278.309 609.201 277.5C609.201 276.703 609.371 275.953 609.711 275.25C610.062 274.547 610.561 273.926 611.205 273.387C611.861 272.836 612.658 272.408 613.596 272.104C614.545 271.787 615.611 271.629 616.795 271.629C618.447 271.629 619.865 271.893 621.049 272.42C622.244 272.947 623.158 273.674 623.791 274.6C624.436 275.514 624.758 276.557 624.758 277.729H619.695C619.695 277.236 619.59 276.797 619.379 276.41C619.18 276.012 618.863 275.701 618.43 275.479C618.008 275.244 617.457 275.127 616.777 275.127C616.215 275.127 615.729 275.227 615.318 275.426C614.908 275.613 614.592 275.871 614.369 276.199C614.158 276.516 614.053 276.867 614.053 277.254C614.053 277.547 614.111 277.811 614.229 278.045C614.357 278.268 614.562 278.473 614.844 278.66C615.125 278.848 615.488 279.023 615.934 279.188C616.391 279.34 616.953 279.48 617.621 279.609C618.992 279.891 620.217 280.26 621.295 280.717C622.373 281.162 623.229 281.771 623.861 282.545C624.494 283.307 624.811 284.309 624.811 285.551C624.811 286.395 624.623 287.168 624.248 287.871C623.873 288.574 623.334 289.189 622.631 289.717C621.928 290.232 621.084 290.637 620.1 290.93C619.127 291.211 618.031 291.352 616.812 291.352C615.043 291.352 613.543 291.035 612.312 290.402C611.094 289.77 610.168 288.967 609.535 287.994C608.914 287.01 608.604 286.002 608.604 284.971H613.402C613.426 285.662 613.602 286.219 613.93 286.641C614.27 287.062 614.697 287.367 615.213 287.555C615.74 287.742 616.309 287.836 616.918 287.836C617.574 287.836 618.119 287.748 618.553 287.572C618.986 287.385 619.314 287.139 619.537 286.834C619.771 286.518 619.889 286.154 619.889 285.744Z" fill="#BA007C"/>
<line x1="452.5" y1="187" x2="452.5" y2="323" stroke="#313131" stroke-width="3"/>
<line x1="699" y1="152.5" y2="152.5" stroke="#313131" stroke-width="3"/>
<path d="M101.938 64.2837C108.772 64.2837 114.313 58.3632 114.313 51.0598C114.313 43.7565 108.772 37.8359 101.938 37.8359C95.1031 37.8359 89.5626 43.7565 89.5626 51.0598C89.5626 58.3632 95.1031 64.2837 101.938 64.2837Z" stroke="#BA007C" stroke-width="6" stroke-linecap="round" stroke-linejoin="round"/>
<path d="M132.875 51.0597C132.875 80.8134 101.938 103.955 101.938 103.955C101.938 103.955 71 80.8134 71 51.0597C71 42.2917 74.2595 33.8829 80.0614 27.683C85.8634 21.4831 93.7325 18 101.938 18C110.143 18 118.012 21.4831 123.814 27.683C129.616 33.8829 132.875 42.2917 132.875 51.0597V51.0597Z" stroke="#BA007C" stroke-width="7" stroke-linecap="round" stroke-linejoin="round"/>
<path d="M186.594 20.6094V89H173.094V36.1719L156.875 41.3281V30.6875L185.141 20.6094H186.594ZM254.75 48.875V60.6875C254.75 65.8125 254.203 70.2344 253.109 73.9531C252.016 77.6406 250.438 80.6719 248.375 83.0469C246.344 85.3906 243.922 87.125 241.109 88.25C238.297 89.375 235.172 89.9375 231.734 89.9375C228.984 89.9375 226.422 89.5938 224.047 88.9062C221.672 88.1875 219.531 87.0781 217.625 85.5781C215.75 84.0781 214.125 82.1875 212.75 79.9062C211.406 77.5938 210.375 74.8438 209.656 71.6562C208.938 68.4688 208.578 64.8125 208.578 60.6875V48.875C208.578 43.75 209.125 39.3594 210.219 35.7031C211.344 32.0156 212.922 29 214.953 26.6562C217.016 24.3125 219.453 22.5937 222.266 21.5C225.078 20.375 228.203 19.8125 231.641 19.8125C234.391 19.8125 236.938 20.1719 239.281 20.8906C241.656 21.5781 243.797 22.6563 245.703 24.125C247.609 25.5937 249.234 27.4844 250.578 29.7969C251.922 32.0781 252.953 34.8125 253.672 38C254.391 41.1562 254.75 44.7812 254.75 48.875ZM241.203 62.4688V47.0469C241.203 44.5781 241.062 42.4219 240.781 40.5781C240.531 38.7344 240.141 37.1719 239.609 35.8906C239.078 34.5781 238.422 33.5156 237.641 32.7031C236.859 31.8906 235.969 31.2969 234.969 30.9219C233.969 30.5469 232.859 30.3594 231.641 30.3594C230.109 30.3594 228.75 30.6562 227.562 31.25C226.406 31.8438 225.422 32.7969 224.609 34.1094C223.797 35.3906 223.172 37.1094 222.734 39.2656C222.328 41.3906 222.125 43.9844 222.125 47.0469V62.4688C222.125 64.9375 222.25 67.1094 222.5 68.9844C222.781 70.8594 223.188 72.4688 223.719 73.8125C224.281 75.125 224.938 76.2031 225.688 77.0469C226.469 77.8594 227.359 78.4531 228.359 78.8281C229.391 79.2031 230.516 79.3906 231.734 79.3906C233.234 79.3906 234.562 79.0938 235.719 78.5C236.906 77.875 237.906 76.9062 238.719 75.5938C239.562 74.25 240.188 72.5 240.594 70.3438C241 68.1875 241.203 65.5625 241.203 62.4688ZM309.875 48.875V60.6875C309.875 65.8125 309.328 70.2344 308.234 73.9531C307.141 77.6406 305.562 80.6719 303.5 83.0469C301.469 85.3906 299.047 87.125 296.234 88.25C293.422 89.375 290.297 89.9375 286.859 89.9375C284.109 89.9375 281.547 89.5938 279.172 88.9062C276.797 88.1875 274.656 87.0781 272.75 85.5781C270.875 84.0781 269.25 82.1875 267.875 79.9062C266.531 77.5938 265.5 74.8438 264.781 71.6562C264.062 68.4688 263.703 64.8125 263.703 60.6875V48.875C263.703 43.75 264.25 39.3594 265.344 35.7031C266.469 32.0156 268.047 29 270.078 26.6562C272.141 24.3125 274.578 22.5937 277.391 21.5C280.203 20.375 283.328 19.8125 286.766 19.8125C289.516 19.8125 292.062 20.1719 294.406 20.8906C296.781 21.5781 298.922 22.6563 300.828 24.125C302.734 25.5937 304.359 27.4844 305.703 29.7969C307.047 32.0781 308.078 34.8125 308.797 38C309.516 41.1562 309.875 44.7812 309.875 48.875ZM296.328 62.4688V47.0469C296.328 44.5781 296.188 42.4219 295.906 40.5781C295.656 38.7344 295.266 37.1719 294.734 35.8906C294.203 34.5781 293.547 33.5156 292.766 32.7031C291.984 31.8906 291.094 31.2969 290.094 30.9219C289.094 30.5469 287.984 30.3594 286.766 30.3594C285.234 30.3594 283.875 30.6562 282.688 31.25C281.531 31.8438 280.547 32.7969 279.734 34.1094C278.922 35.3906 278.297 37.1094 277.859 39.2656C277.453 41.3906 277.25 43.9844 277.25 47.0469V62.4688C277.25 64.9375 277.375 67.1094 277.625 68.9844C277.906 70.8594 278.312 72.4688 278.844 73.8125C279.406 75.125 280.062 76.2031 280.812 77.0469C281.594 77.8594 282.484 78.4531 283.484 78.8281C284.516 79.2031 285.641 79.3906 286.859 79.3906C288.359 79.3906 289.688 79.0938 290.844 78.5C292.031 77.875 293.031 76.9062 293.844 75.5938C294.688 74.25 295.312 72.5 295.719 70.3438C296.125 68.1875 296.328 65.5625 296.328 62.4688ZM318.875 37.4844V33.875C318.875 31.2813 319.438 28.9219 320.562 26.7969C321.688 24.6719 323.344 22.9687 325.531 21.6875C327.719 20.4063 330.406 19.7656 333.594 19.7656C336.875 19.7656 339.609 20.4063 341.797 21.6875C344.016 22.9687 345.672 24.6719 346.766 26.7969C347.891 28.9219 348.453 31.2813 348.453 33.875V37.4844C348.453 40.0156 347.891 42.3438 346.766 44.4688C345.672 46.5938 344.031 48.2969 341.844 49.5781C339.656 50.8594 336.953 51.5 333.734 51.5C330.484 51.5 327.75 50.8594 325.531 49.5781C323.344 48.2969 321.688 46.5938 320.562 44.4688C319.438 42.3438 318.875 40.0156 318.875 37.4844ZM327.828 33.875V37.4844C327.828 38.5781 328.031 39.625 328.438 40.625C328.875 41.5938 329.531 42.3906 330.406 43.0156C331.312 43.6094 332.406 43.9062 333.688 43.9062C335.031 43.9062 336.125 43.6094 336.969 43.0156C337.812 42.3906 338.438 41.5938 338.844 40.625C339.25 39.625 339.453 38.5781 339.453 37.4844V33.875C339.453 32.7188 339.234 31.6563 338.797 30.6875C338.391 29.6875 337.75 28.8906 336.875 28.2969C336.031 27.6719 334.938 27.3594 333.594 27.3594C332.344 27.3594 331.281 27.6719 330.406 28.2969C329.531 28.8906 328.875 29.6875 328.438 30.6875C328.031 31.6563 327.828 32.7188 327.828 33.875ZM351.5 75.875V72.2656C351.5 69.7031 352.062 67.3594 353.188 65.2344C354.344 63.1094 356.016 61.4062 358.203 60.125C360.422 58.8438 363.141 58.2031 366.359 58.2031C369.609 58.2031 372.328 58.8438 374.516 60.125C376.703 61.4062 378.359 63.1094 379.484 65.2344C380.609 67.3594 381.172 69.7031 381.172 72.2656V75.875C381.172 78.4375 380.609 80.7812 379.484 82.9062C378.391 85.0312 376.75 86.7344 374.562 88.0156C372.375 89.2969 369.672 89.9375 366.453 89.9375C363.203 89.9375 360.469 89.2969 358.25 88.0156C356.031 86.7344 354.344 85.0312 353.188 82.9062C352.062 80.7812 351.5 78.4375 351.5 75.875ZM360.5 72.2656V75.875C360.5 77 360.75 78.0625 361.25 79.0625C361.75 80.0625 362.438 80.8594 363.312 81.4531C364.219 82.0469 365.266 82.3438 366.453 82.3438C367.953 82.3438 369.125 82.0469 369.969 81.4531C370.812 80.8594 371.391 80.0625 371.703 79.0625C372.047 78.0625 372.219 77 372.219 75.875V72.2656C372.219 71.1406 372 70.0938 371.562 69.125C371.125 68.125 370.469 67.3281 369.594 66.7344C368.75 66.1094 367.672 65.7969 366.359 65.7969C365.047 65.7969 363.953 66.1094 363.078 66.7344C362.234 67.3281 361.594 68.125 361.156 69.125C360.719 70.0938 360.5 71.1406 360.5 72.2656ZM369.688 30.5L336.359 83.8438L329.797 80.375L363.125 27.0312L369.688 30.5Z" fill="#BA007C"/>
<path d="M439.594 27.25H444.266V42.2812C444.266 44.0312 443.891 45.5052 443.141 46.7031C442.401 47.901 441.375 48.8021 440.062 49.4062C438.76 50.0104 437.26 50.3125 435.562 50.3125C433.865 50.3125 432.354 50.0104 431.031 49.4062C429.719 48.8021 428.688 47.901 427.938 46.7031C427.198 45.5052 426.828 44.0312 426.828 42.2812V27.25H431.516V42.2812C431.516 43.3021 431.677 44.1354 432 44.7812C432.323 45.4271 432.786 45.901 433.391 46.2031C434.005 46.5052 434.729 46.6562 435.562 46.6562C436.417 46.6562 437.141 46.5052 437.734 46.2031C438.339 45.901 438.797 45.4271 439.109 44.7812C439.432 44.1354 439.594 43.3021 439.594 42.2812V27.25ZM459.969 44.0469C459.969 43.6406 459.906 43.276 459.781 42.9531C459.667 42.6198 459.448 42.3177 459.125 42.0469C458.802 41.7656 458.349 41.4896 457.766 41.2188C457.182 40.9479 456.427 40.6667 455.5 40.375C454.469 40.0417 453.49 39.6667 452.562 39.25C451.646 38.8333 450.833 38.349 450.125 37.7969C449.427 37.2344 448.875 36.5833 448.469 35.8438C448.073 35.1042 447.875 34.2448 447.875 33.2656C447.875 32.3177 448.083 31.4583 448.5 30.6875C448.917 29.9062 449.5 29.2396 450.25 28.6875C451 28.125 451.885 27.6927 452.906 27.3906C453.938 27.0885 455.068 26.9375 456.297 26.9375C457.974 26.9375 459.438 27.2396 460.688 27.8438C461.938 28.4479 462.906 29.276 463.594 30.3281C464.292 31.3802 464.641 32.5833 464.641 33.9375H459.984C459.984 33.2708 459.844 32.6875 459.562 32.1875C459.292 31.6771 458.875 31.276 458.312 30.9844C457.76 30.6927 457.062 30.5469 456.219 30.5469C455.406 30.5469 454.729 30.6719 454.188 30.9219C453.646 31.1615 453.24 31.4896 452.969 31.9062C452.698 32.3125 452.562 32.7708 452.562 33.2812C452.562 33.6667 452.656 34.0156 452.844 34.3281C453.042 34.6406 453.333 34.9323 453.719 35.2031C454.104 35.474 454.578 35.7292 455.141 35.9688C455.703 36.2083 456.354 36.4427 457.094 36.6719C458.333 37.0469 459.422 37.4688 460.359 37.9375C461.307 38.4062 462.099 38.9323 462.734 39.5156C463.37 40.099 463.849 40.7604 464.172 41.5C464.495 42.2396 464.656 43.0781 464.656 44.0156C464.656 45.0052 464.464 45.8906 464.078 46.6719C463.693 47.4531 463.135 48.1146 462.406 48.6562C461.677 49.1979 460.807 49.6094 459.797 49.8906C458.786 50.1719 457.656 50.3125 456.406 50.3125C455.281 50.3125 454.172 50.1667 453.078 49.875C451.984 49.5729 450.99 49.1198 450.094 48.5156C449.208 47.9115 448.5 47.1406 447.969 46.2031C447.438 45.2656 447.172 44.1562 447.172 42.875H451.875C451.875 43.5833 451.984 44.1823 452.203 44.6719C452.422 45.1615 452.729 45.5573 453.125 45.8594C453.531 46.1615 454.01 46.3802 454.562 46.5156C455.125 46.651 455.74 46.7188 456.406 46.7188C457.219 46.7188 457.885 46.6042 458.406 46.375C458.938 46.1458 459.328 45.8281 459.578 45.4219C459.839 45.0156 459.969 44.5573 459.969 44.0469ZM480.406 27.25H485.078V42.2812C485.078 44.0312 484.703 45.5052 483.953 46.7031C483.214 47.901 482.188 48.8021 480.875 49.4062C479.573 50.0104 478.073 50.3125 476.375 50.3125C474.677 50.3125 473.167 50.0104 471.844 49.4062C470.531 48.8021 469.5 47.901 468.75 46.7031C468.01 45.5052 467.641 44.0312 467.641 42.2812V27.25H472.328V42.2812C472.328 43.3021 472.49 44.1354 472.812 44.7812C473.135 45.4271 473.599 45.901 474.203 46.2031C474.818 46.5052 475.542 46.6562 476.375 46.6562C477.229 46.6562 477.953 46.5052 478.547 46.2031C479.151 45.901 479.609 45.4271 479.922 44.7812C480.245 44.1354 480.406 43.3021 480.406 42.2812V27.25ZM497.844 31.1406L491.656 50H486.672L495.125 27.25H498.297L497.844 31.1406ZM502.984 50L496.781 31.1406L496.281 27.25H499.484L507.984 50H502.984ZM502.703 41.5312V45.2031H490.688V41.5312H502.703ZM510.094 27.25H518.578C520.318 27.25 521.812 27.5104 523.062 28.0312C524.323 28.5521 525.292 29.3229 525.969 30.3438C526.646 31.3646 526.984 32.6198 526.984 34.1094C526.984 35.3281 526.776 36.375 526.359 37.25C525.953 38.1146 525.375 38.8385 524.625 39.4219C523.885 39.9948 523.016 40.4531 522.016 40.7969L520.531 41.5781H513.156L513.125 37.9219H518.609C519.432 37.9219 520.115 37.776 520.656 37.4844C521.198 37.1927 521.604 36.7865 521.875 36.2656C522.156 35.7448 522.297 35.1406 522.297 34.4531C522.297 33.724 522.161 33.0938 521.891 32.5625C521.62 32.0312 521.208 31.625 520.656 31.3438C520.104 31.0625 519.411 30.9219 518.578 30.9219H514.781V50H510.094V27.25ZM522.812 50L517.625 39.8594L522.578 39.8281L527.828 49.7812V50H522.812ZM535.578 27.25V50H530.906V27.25H535.578ZM558.656 38.0938V39.1719C558.656 40.901 558.422 42.4531 557.953 43.8281C557.484 45.2031 556.823 46.375 555.969 47.3438C555.115 48.3021 554.094 49.0365 552.906 49.5469C551.729 50.0573 550.422 50.3125 548.984 50.3125C547.557 50.3125 546.25 50.0573 545.062 49.5469C543.885 49.0365 542.865 48.3021 542 47.3438C541.135 46.375 540.464 45.2031 539.984 43.8281C539.516 42.4531 539.281 40.901 539.281 39.1719V38.0938C539.281 36.3542 539.516 34.8021 539.984 33.4375C540.453 32.0625 541.115 30.8906 541.969 29.9219C542.833 28.9531 543.854 28.2135 545.031 27.7031C546.219 27.1927 547.526 26.9375 548.953 26.9375C550.391 26.9375 551.698 27.1927 552.875 27.7031C554.062 28.2135 555.083 28.9531 555.938 29.9219C556.802 30.8906 557.469 32.0625 557.938 33.4375C558.417 34.8021 558.656 36.3542 558.656 38.0938ZM553.922 39.1719V38.0625C553.922 36.8542 553.812 35.7917 553.594 34.875C553.375 33.9583 553.052 33.1875 552.625 32.5625C552.198 31.9375 551.677 31.4688 551.062 31.1562C550.448 30.8333 549.745 30.6719 548.953 30.6719C548.161 30.6719 547.458 30.8333 546.844 31.1562C546.24 31.4688 545.724 31.9375 545.297 32.5625C544.88 33.1875 544.562 33.9583 544.344 34.875C544.125 35.7917 544.016 36.8542 544.016 38.0625V39.1719C544.016 40.3698 544.125 41.4323 544.344 42.3594C544.562 43.276 544.885 44.0521 545.312 44.6875C545.74 45.3125 546.26 45.7865 546.875 46.1094C547.49 46.4323 548.193 46.5938 548.984 46.5938C549.776 46.5938 550.479 46.4323 551.094 46.1094C551.708 45.7865 552.224 45.3125 552.641 44.6875C553.057 44.0521 553.375 43.276 553.594 42.3594C553.812 41.4323 553.922 40.3698 553.922 39.1719ZM573.875 44.0469C573.875 43.6406 573.812 43.276 573.688 42.9531C573.573 42.6198 573.354 42.3177 573.031 42.0469C572.708 41.7656 572.255 41.4896 571.672 41.2188C571.089 40.9479 570.333 40.6667 569.406 40.375C568.375 40.0417 567.396 39.6667 566.469 39.25C565.552 38.8333 564.74 38.349 564.031 37.7969C563.333 37.2344 562.781 36.5833 562.375 35.8438C561.979 35.1042 561.781 34.2448 561.781 33.2656C561.781 32.3177 561.99 31.4583 562.406 30.6875C562.823 29.9062 563.406 29.2396 564.156 28.6875C564.906 28.125 565.792 27.6927 566.812 27.3906C567.844 27.0885 568.974 26.9375 570.203 26.9375C571.88 26.9375 573.344 27.2396 574.594 27.8438C575.844 28.4479 576.812 29.276 577.5 30.3281C578.198 31.3802 578.547 32.5833 578.547 33.9375H573.891C573.891 33.2708 573.75 32.6875 573.469 32.1875C573.198 31.6771 572.781 31.276 572.219 30.9844C571.667 30.6927 570.969 30.5469 570.125 30.5469C569.312 30.5469 568.635 30.6719 568.094 30.9219C567.552 31.1615 567.146 31.4896 566.875 31.9062C566.604 32.3125 566.469 32.7708 566.469 33.2812C566.469 33.6667 566.562 34.0156 566.75 34.3281C566.948 34.6406 567.24 34.9323 567.625 35.2031C568.01 35.474 568.484 35.7292 569.047 35.9688C569.609 36.2083 570.26 36.4427 571 36.6719C572.24 37.0469 573.328 37.4688 574.266 37.9375C575.214 38.4062 576.005 38.9323 576.641 39.5156C577.276 40.099 577.755 40.7604 578.078 41.5C578.401 42.2396 578.562 43.0781 578.562 44.0156C578.562 45.0052 578.37 45.8906 577.984 46.6719C577.599 47.4531 577.042 48.1146 576.312 48.6562C575.583 49.1979 574.714 49.6094 573.703 49.8906C572.693 50.1719 571.562 50.3125 570.312 50.3125C569.188 50.3125 568.078 50.1667 566.984 49.875C565.891 49.5729 564.896 49.1198 564 48.5156C563.115 47.9115 562.406 47.1406 561.875 46.2031C561.344 45.2656 561.078 44.1562 561.078 42.875H565.781C565.781 43.5833 565.891 44.1823 566.109 44.6719C566.328 45.1615 566.635 45.5573 567.031 45.8594C567.438 46.1615 567.917 46.3802 568.469 46.5156C569.031 46.651 569.646 46.7188 570.312 46.7188C571.125 46.7188 571.792 46.6042 572.312 46.375C572.844 46.1458 573.234 45.8281 573.484 45.4219C573.745 45.0156 573.875 44.5573 573.875 44.0469ZM596.703 50H591.75L591.781 46.3438H596.703C597.932 46.3438 598.969 46.0677 599.812 45.5156C600.656 44.9531 601.292 44.1354 601.719 43.0625C602.156 41.9896 602.375 40.6927 602.375 39.1719V38.0625C602.375 36.8958 602.25 35.8698 602 34.9844C601.76 34.099 601.401 33.3542 600.922 32.75C600.443 32.1458 599.854 31.6927 599.156 31.3906C598.458 31.0781 597.656 30.9219 596.75 30.9219H591.656V27.25H596.75C598.271 27.25 599.661 27.5104 600.922 28.0312C602.193 28.5417 603.292 29.276 604.219 30.2344C605.146 31.1927 605.859 32.3385 606.359 33.6719C606.87 34.9948 607.125 36.4688 607.125 38.0938V39.1719C607.125 40.7865 606.87 42.2604 606.359 43.5938C605.859 44.9271 605.146 46.0729 604.219 47.0312C603.302 47.9792 602.203 48.7135 600.922 49.2344C599.651 49.7448 598.245 50 596.703 50ZM594.406 27.25V50H589.719V27.25H594.406ZM625.797 46.3438V50H613.688V46.3438H625.797ZM615.219 27.25V50H610.531V27.25H615.219ZM624.219 36.5156V40.0781H613.688V36.5156H624.219ZM625.781 27.25V30.9219H613.688V27.25H625.781ZM438.875 82.0469C438.875 81.6406 438.812 81.276 438.688 80.9531C438.573 80.6198 438.354 80.3177 438.031 80.0469C437.708 79.7656 437.255 79.4896 436.672 79.2188C436.089 78.9479 435.333 78.6667 434.406 78.375C433.375 78.0417 432.396 77.6667 431.469 77.25C430.552 76.8333 429.74 76.349 429.031 75.7969C428.333 75.2344 427.781 74.5833 427.375 73.8438C426.979 73.1042 426.781 72.2448 426.781 71.2656C426.781 70.3177 426.99 69.4583 427.406 68.6875C427.823 67.9062 428.406 67.2396 429.156 66.6875C429.906 66.125 430.792 65.6927 431.812 65.3906C432.844 65.0885 433.974 64.9375 435.203 64.9375C436.88 64.9375 438.344 65.2396 439.594 65.8438C440.844 66.4479 441.812 67.276 442.5 68.3281C443.198 69.3802 443.547 70.5833 443.547 71.9375H438.891C438.891 71.2708 438.75 70.6875 438.469 70.1875C438.198 69.6771 437.781 69.276 437.219 68.9844C436.667 68.6927 435.969 68.5469 435.125 68.5469C434.312 68.5469 433.635 68.6719 433.094 68.9219C432.552 69.1615 432.146 69.4896 431.875 69.9062C431.604 70.3125 431.469 70.7708 431.469 71.2812C431.469 71.6667 431.562 72.0156 431.75 72.3281C431.948 72.6406 432.24 72.9323 432.625 73.2031C433.01 73.474 433.484 73.7292 434.047 73.9688C434.609 74.2083 435.26 74.4427 436 74.6719C437.24 75.0469 438.328 75.4688 439.266 75.9375C440.214 76.4062 441.005 76.9323 441.641 77.5156C442.276 78.099 442.755 78.7604 443.078 79.5C443.401 80.2396 443.562 81.0781 443.562 82.0156C443.562 83.0052 443.37 83.8906 442.984 84.6719C442.599 85.4531 442.042 86.1146 441.312 86.6562C440.583 87.1979 439.714 87.6094 438.703 87.8906C437.693 88.1719 436.562 88.3125 435.312 88.3125C434.188 88.3125 433.078 88.1667 431.984 87.875C430.891 87.5729 429.896 87.1198 429 86.5156C428.115 85.9115 427.406 85.1406 426.875 84.2031C426.344 83.2656 426.078 82.1562 426.078 80.875H430.781C430.781 81.5833 430.891 82.1823 431.109 82.6719C431.328 83.1615 431.635 83.5573 432.031 83.8594C432.438 84.1615 432.917 84.3802 433.469 84.5156C434.031 84.651 434.646 84.7188 435.312 84.7188C436.125 84.7188 436.792 84.6042 437.312 84.375C437.844 84.1458 438.234 83.8281 438.484 83.4219C438.745 83.0156 438.875 82.5573 438.875 82.0469ZM456 69.1406L449.812 88H444.828L453.281 65.25H456.453L456 69.1406ZM461.141 88L454.938 69.1406L454.438 65.25H457.641L466.141 88H461.141ZM460.859 79.5312V83.2031H448.844V79.5312H460.859ZM486.766 65.25V88H482.078L472.938 72.75V88H468.25V65.25H472.938L482.094 80.5156V65.25H486.766ZM500.547 65.25V88H495.875V65.25H500.547ZM507.547 65.25V68.9219H488.984V65.25H507.547ZM517.781 69.1406L511.594 88H506.609L515.062 65.25H518.234L517.781 69.1406ZM522.922 88L516.719 69.1406L516.219 65.25H519.422L527.922 88H522.922ZM522.641 79.5312V83.2031H510.625V79.5312H522.641ZM548.547 65.25V88H543.859L534.719 72.75V88H530.031V65.25H534.719L543.875 80.5156V65.25H548.547ZM559.609 88H554.656L554.688 84.3438H559.609C560.839 84.3438 561.875 84.0677 562.719 83.5156C563.562 82.9531 564.198 82.1354 564.625 81.0625C565.062 79.9896 565.281 78.6927 565.281 77.1719V76.0625C565.281 74.8958 565.156 73.8698 564.906 72.9844C564.667 72.099 564.307 71.3542 563.828 70.75C563.349 70.1458 562.76 69.6927 562.062 69.3906C561.365 69.0781 560.562 68.9219 559.656 68.9219H554.562V65.25H559.656C561.177 65.25 562.568 65.5104 563.828 66.0312C565.099 66.5417 566.198 67.276 567.125 68.2344C568.052 69.1927 568.766 70.3385 569.266 71.6719C569.776 72.9948 570.031 74.4688 570.031 76.0938V77.1719C570.031 78.7865 569.776 80.2604 569.266 81.5938C568.766 82.9271 568.052 84.0729 567.125 85.0312C566.208 85.9792 565.109 86.7135 563.828 87.2344C562.557 87.7448 561.151 88 559.609 88ZM557.312 65.25V88H552.625V65.25H557.312ZM588.703 84.3438V88H576.594V84.3438H588.703ZM578.125 65.25V88H573.438V65.25H578.125ZM587.125 74.5156V78.0781H576.594V74.5156H587.125ZM588.688 65.25V68.9219H576.594V65.25H588.688ZM591.438 65.25H599.922C601.661 65.25 603.156 65.5104 604.406 66.0312C605.667 66.5521 606.635 67.3229 607.312 68.3438C607.99 69.3646 608.328 70.6198 608.328 72.1094C608.328 73.3281 608.12 74.375 607.703 75.25C607.297 76.1146 606.719 76.8385 605.969 77.4219C605.229 77.9948 604.359 78.4531 603.359 78.7969L601.875 79.5781H594.5L594.469 75.9219H599.953C600.776 75.9219 601.458 75.776 602 75.4844C602.542 75.1927 602.948 74.7865 603.219 74.2656C603.5 73.7448 603.641 73.1406 603.641 72.4531C603.641 71.724 603.505 71.0938 603.234 70.5625C602.964 70.0312 602.552 69.625 602 69.3438C601.448 69.0625 600.755 68.9219 599.922 68.9219H596.125V88H591.438V65.25ZM604.156 88L598.969 77.8594L603.922 77.8281L609.172 87.7812V88H604.156Z" fill="#BA007C"/>
<path d="M85.6719 257.297C85.6719 261.578 84.6719 265.188 82.6719 268.125C80.6719 271.031 77.9219 273.234 74.4219 274.734C70.9531 276.203 67.0156 276.938 62.6094 276.938C58.2031 276.938 54.25 276.203 50.75 274.734C47.25 273.234 44.4844 271.031 42.4531 268.125C40.4219 265.188 39.4062 261.578 39.4062 257.297C39.4062 254.422 39.9844 251.828 41.1406 249.516C42.2969 247.172 43.9062 245.172 45.9688 243.516C48.0625 241.828 50.5156 240.547 53.3281 239.672C56.1406 238.766 59.2031 238.312 62.5156 238.312C66.9531 238.312 70.9219 239.094 74.4219 240.656C77.9219 242.219 80.6719 244.422 82.6719 247.266C84.6719 250.109 85.6719 253.453 85.6719 257.297ZM72.0781 256.406C72.0781 254.312 71.6719 252.516 70.8594 251.016C70.0781 249.484 68.9688 248.312 67.5312 247.5C66.0938 246.688 64.4219 246.281 62.5156 246.281C60.6094 246.281 58.9375 246.688 57.5 247.5C56.0625 248.312 54.9375 249.484 54.125 251.016C53.3438 252.516 52.9531 254.312 52.9531 256.406C52.9531 258.469 53.3438 260.25 54.125 261.75C54.9375 263.25 56.0625 264.406 57.5 265.219C58.9688 266 60.6719 266.391 62.6094 266.391C64.5469 266.391 66.2188 266 67.625 265.219C69.0625 264.406 70.1562 263.25 70.9062 261.75C71.6875 260.25 72.0781 258.469 72.0781 256.406ZM84.2188 225.844C84.2188 229.312 83.2969 232.391 81.4531 235.078C79.6094 237.734 77.0469 239.812 73.7656 241.312C70.5156 242.812 66.7969 243.562 62.6094 243.562C58.3906 243.562 54.6406 242.812 51.3594 241.312C48.0781 239.812 45.5156 237.734 43.6719 235.078C41.8281 232.391 40.9062 229.312 40.9062 225.844C40.9062 221.719 41.8281 218.25 43.6719 215.438C45.5469 212.594 48.1094 210.438 51.3594 208.969C54.6406 207.5 58.3594 206.766 62.5156 206.766C66.7344 206.766 70.4688 207.5 73.7188 208.969C77 210.438 79.5625 212.594 81.4062 215.438C83.2812 218.25 84.2188 221.719 84.2188 225.844ZM70.7188 226.453C70.7188 224.609 70.3906 223.016 69.7344 221.672C69.0781 220.297 68.1406 219.234 66.9219 218.484C65.7344 217.734 64.2656 217.359 62.5156 217.359C60.8281 217.359 59.375 217.719 58.1562 218.438C56.9688 219.156 56.0469 220.203 55.3906 221.578C54.7656 222.922 54.4531 224.547 54.4531 226.453C54.4531 228.297 54.7656 229.922 55.3906 231.328C56.0469 232.703 56.9844 233.781 58.2031 234.562C59.4219 235.344 60.8906 235.734 62.6094 235.734C64.3281 235.734 65.7812 235.344 66.9688 234.562C68.1875 233.781 69.1094 232.703 69.7344 231.328C70.3906 229.922 70.7188 228.297 70.7188 226.453Z" fill="#BA007C"/>
<path d="M119.242 214.562H125.082V233.352C125.082 235.539 124.613 237.382 123.676 238.879C122.751 240.376 121.469 241.503 119.828 242.258C118.201 243.013 116.326 243.391 114.203 243.391C112.081 243.391 110.193 243.013 108.539 242.258C106.898 241.503 105.609 240.376 104.672 238.879C103.747 237.382 103.285 235.539 103.285 233.352V214.562H109.145V233.352C109.145 234.628 109.346 235.669 109.75 236.477C110.154 237.284 110.733 237.876 111.488 238.254C112.257 238.632 113.161 238.82 114.203 238.82C115.271 238.82 116.176 238.632 116.918 238.254C117.673 237.876 118.246 237.284 118.637 236.477C119.04 235.669 119.242 234.628 119.242 233.352V214.562ZM144.711 235.559C144.711 235.051 144.633 234.595 144.477 234.191C144.333 233.775 144.06 233.397 143.656 233.059C143.253 232.707 142.686 232.362 141.957 232.023C141.228 231.685 140.284 231.333 139.125 230.969C137.836 230.552 136.612 230.083 135.453 229.562C134.307 229.042 133.292 228.436 132.406 227.746C131.534 227.043 130.844 226.229 130.336 225.305C129.841 224.38 129.594 223.306 129.594 222.082C129.594 220.897 129.854 219.823 130.375 218.859C130.896 217.883 131.625 217.049 132.562 216.359C133.5 215.656 134.607 215.116 135.883 214.738C137.172 214.361 138.585 214.172 140.121 214.172C142.217 214.172 144.047 214.549 145.609 215.305C147.172 216.06 148.383 217.095 149.242 218.41C150.115 219.725 150.551 221.229 150.551 222.922H144.73C144.73 222.089 144.555 221.359 144.203 220.734C143.865 220.096 143.344 219.595 142.641 219.23C141.951 218.866 141.078 218.684 140.023 218.684C139.008 218.684 138.161 218.84 137.484 219.152C136.807 219.452 136.299 219.862 135.961 220.383C135.622 220.891 135.453 221.464 135.453 222.102C135.453 222.583 135.57 223.02 135.805 223.41C136.052 223.801 136.417 224.165 136.898 224.504C137.38 224.842 137.973 225.161 138.676 225.461C139.379 225.76 140.193 226.053 141.117 226.34C142.667 226.809 144.027 227.336 145.199 227.922C146.384 228.508 147.374 229.165 148.168 229.895C148.962 230.624 149.561 231.451 149.965 232.375C150.368 233.299 150.57 234.348 150.57 235.52C150.57 236.757 150.329 237.863 149.848 238.84C149.366 239.816 148.669 240.643 147.758 241.32C146.846 241.997 145.759 242.512 144.496 242.863C143.233 243.215 141.82 243.391 140.258 243.391C138.852 243.391 137.465 243.208 136.098 242.844C134.73 242.466 133.487 241.9 132.367 241.145C131.26 240.389 130.375 239.426 129.711 238.254C129.047 237.082 128.715 235.695 128.715 234.094H134.594C134.594 234.979 134.73 235.728 135.004 236.34C135.277 236.952 135.661 237.447 136.156 237.824C136.664 238.202 137.263 238.475 137.953 238.645C138.656 238.814 139.424 238.898 140.258 238.898C141.273 238.898 142.107 238.755 142.758 238.469C143.422 238.182 143.91 237.785 144.223 237.277C144.548 236.77 144.711 236.197 144.711 235.559ZM170.258 214.562H176.098V233.352C176.098 235.539 175.629 237.382 174.691 238.879C173.767 240.376 172.484 241.503 170.844 242.258C169.216 243.013 167.341 243.391 165.219 243.391C163.096 243.391 161.208 243.013 159.555 242.258C157.914 241.503 156.625 240.376 155.688 238.879C154.763 237.382 154.301 235.539 154.301 233.352V214.562H160.16V233.352C160.16 234.628 160.362 235.669 160.766 236.477C161.169 237.284 161.749 237.876 162.504 238.254C163.272 238.632 164.177 238.82 165.219 238.82C166.286 238.82 167.191 238.632 167.934 238.254C168.689 237.876 169.262 237.284 169.652 236.477C170.056 235.669 170.258 234.628 170.258 233.352V214.562ZM192.055 219.426L184.32 243H178.09L188.656 214.562H192.621L192.055 219.426ZM198.48 243L190.727 219.426L190.102 214.562H194.105L204.73 243H198.48ZM198.129 232.414V237.004H183.109V232.414H198.129ZM207.367 214.562H217.973C220.147 214.562 222.016 214.888 223.578 215.539C225.154 216.19 226.365 217.154 227.211 218.43C228.057 219.706 228.48 221.275 228.48 223.137C228.48 224.66 228.22 225.969 227.699 227.062C227.191 228.143 226.469 229.048 225.531 229.777C224.607 230.493 223.52 231.066 222.27 231.496L220.414 232.473H211.195L211.156 227.902H218.012C219.04 227.902 219.893 227.72 220.57 227.355C221.247 226.991 221.755 226.483 222.094 225.832C222.445 225.181 222.621 224.426 222.621 223.566C222.621 222.655 222.452 221.867 222.113 221.203C221.775 220.539 221.26 220.031 220.57 219.68C219.88 219.328 219.014 219.152 217.973 219.152H213.227V243H207.367V214.562ZM223.266 243L216.781 230.324L222.973 230.285L229.535 242.727V243H223.266ZM239.223 214.562V243H233.383V214.562H239.223ZM268.07 228.117V229.465C268.07 231.626 267.777 233.566 267.191 235.285C266.605 237.004 265.779 238.469 264.711 239.68C263.643 240.878 262.367 241.796 260.883 242.434C259.411 243.072 257.777 243.391 255.98 243.391C254.197 243.391 252.562 243.072 251.078 242.434C249.607 241.796 248.331 240.878 247.25 239.68C246.169 238.469 245.329 237.004 244.73 235.285C244.145 233.566 243.852 231.626 243.852 229.465V228.117C243.852 225.943 244.145 224.003 244.73 222.297C245.316 220.578 246.143 219.113 247.211 217.902C248.292 216.691 249.568 215.767 251.039 215.129C252.523 214.491 254.158 214.172 255.941 214.172C257.738 214.172 259.372 214.491 260.844 215.129C262.328 215.767 263.604 216.691 264.672 217.902C265.753 219.113 266.586 220.578 267.172 222.297C267.771 224.003 268.07 225.943 268.07 228.117ZM262.152 229.465V228.078C262.152 226.568 262.016 225.24 261.742 224.094C261.469 222.948 261.065 221.984 260.531 221.203C259.997 220.422 259.346 219.836 258.578 219.445C257.81 219.042 256.931 218.84 255.941 218.84C254.952 218.84 254.073 219.042 253.305 219.445C252.549 219.836 251.905 220.422 251.371 221.203C250.85 221.984 250.453 222.948 250.18 224.094C249.906 225.24 249.77 226.568 249.77 228.078V229.465C249.77 230.962 249.906 232.29 250.18 233.449C250.453 234.595 250.857 235.565 251.391 236.359C251.924 237.141 252.576 237.733 253.344 238.137C254.112 238.54 254.991 238.742 255.98 238.742C256.97 238.742 257.849 238.54 258.617 238.137C259.385 237.733 260.03 237.141 260.551 236.359C261.072 235.565 261.469 234.595 261.742 233.449C262.016 232.29 262.152 230.962 262.152 229.465ZM287.094 235.559C287.094 235.051 287.016 234.595 286.859 234.191C286.716 233.775 286.443 233.397 286.039 233.059C285.635 232.707 285.069 232.362 284.34 232.023C283.611 231.685 282.667 231.333 281.508 230.969C280.219 230.552 278.995 230.083 277.836 229.562C276.69 229.042 275.674 228.436 274.789 227.746C273.917 227.043 273.227 226.229 272.719 225.305C272.224 224.38 271.977 223.306 271.977 222.082C271.977 220.897 272.237 219.823 272.758 218.859C273.279 217.883 274.008 217.049 274.945 216.359C275.883 215.656 276.99 215.116 278.266 214.738C279.555 214.361 280.967 214.172 282.504 214.172C284.6 214.172 286.43 214.549 287.992 215.305C289.555 216.06 290.766 217.095 291.625 218.41C292.497 219.725 292.934 221.229 292.934 222.922H287.113C287.113 222.089 286.938 221.359 286.586 220.734C286.247 220.096 285.727 219.595 285.023 219.23C284.333 218.866 283.461 218.684 282.406 218.684C281.391 218.684 280.544 218.84 279.867 219.152C279.19 219.452 278.682 219.862 278.344 220.383C278.005 220.891 277.836 221.464 277.836 222.102C277.836 222.583 277.953 223.02 278.188 223.41C278.435 223.801 278.799 224.165 279.281 224.504C279.763 224.842 280.355 225.161 281.059 225.461C281.762 225.76 282.576 226.053 283.5 226.34C285.049 226.809 286.41 227.336 287.582 227.922C288.767 228.508 289.757 229.165 290.551 229.895C291.345 230.624 291.944 231.451 292.348 232.375C292.751 233.299 292.953 234.348 292.953 235.52C292.953 236.757 292.712 237.863 292.23 238.84C291.749 239.816 291.052 240.643 290.141 241.32C289.229 241.997 288.142 242.512 286.879 242.863C285.616 243.215 284.203 243.391 282.641 243.391C281.234 243.391 279.848 243.208 278.48 242.844C277.113 242.466 275.87 241.9 274.75 241.145C273.643 240.389 272.758 239.426 272.094 238.254C271.43 237.082 271.098 235.695 271.098 234.094H276.977C276.977 234.979 277.113 235.728 277.387 236.34C277.66 236.952 278.044 237.447 278.539 237.824C279.047 238.202 279.646 238.475 280.336 238.645C281.039 238.814 281.807 238.898 282.641 238.898C283.656 238.898 284.49 238.755 285.141 238.469C285.805 238.182 286.293 237.785 286.605 237.277C286.931 236.77 287.094 236.197 287.094 235.559Z" fill="#BA007C"/>
<path d="M105.629 266.004H107.434C108.012 266.004 108.488 265.906 108.863 265.711C109.238 265.508 109.516 265.227 109.695 264.867C109.883 264.5 109.977 264.074 109.977 263.59C109.977 263.152 109.891 262.766 109.719 262.43C109.555 262.086 109.301 261.82 108.957 261.633C108.613 261.438 108.18 261.34 107.656 261.34C107.242 261.34 106.859 261.422 106.508 261.586C106.156 261.75 105.875 261.98 105.664 262.277C105.453 262.574 105.348 262.934 105.348 263.355H101.961C101.961 262.418 102.211 261.602 102.711 260.906C103.219 260.211 103.898 259.668 104.75 259.277C105.602 258.887 106.539 258.691 107.562 258.691C108.719 258.691 109.73 258.879 110.598 259.254C111.465 259.621 112.141 260.164 112.625 260.883C113.109 261.602 113.352 262.492 113.352 263.555C113.352 264.094 113.227 264.617 112.977 265.125C112.727 265.625 112.367 266.078 111.898 266.484C111.438 266.883 110.875 267.203 110.211 267.445C109.547 267.68 108.801 267.797 107.973 267.797H105.629V266.004ZM105.629 268.57V266.824H107.973C108.902 266.824 109.719 266.93 110.422 267.141C111.125 267.352 111.715 267.656 112.191 268.055C112.668 268.445 113.027 268.91 113.27 269.449C113.512 269.98 113.633 270.57 113.633 271.219C113.633 272.016 113.48 272.727 113.176 273.352C112.871 273.969 112.441 274.492 111.887 274.922C111.34 275.352 110.699 275.68 109.965 275.906C109.23 276.125 108.43 276.234 107.562 276.234C106.844 276.234 106.137 276.137 105.441 275.941C104.754 275.738 104.129 275.438 103.566 275.039C103.012 274.633 102.566 274.125 102.23 273.516C101.902 272.898 101.738 272.168 101.738 271.324H105.125C105.125 271.762 105.234 272.152 105.453 272.496C105.672 272.84 105.973 273.109 106.355 273.305C106.746 273.5 107.18 273.598 107.656 273.598C108.195 273.598 108.656 273.5 109.039 273.305C109.43 273.102 109.727 272.82 109.93 272.461C110.141 272.094 110.246 271.668 110.246 271.184C110.246 270.559 110.133 270.059 109.906 269.684C109.68 269.301 109.355 269.02 108.934 268.84C108.512 268.66 108.012 268.57 107.434 268.57H105.629ZM125.363 258V276H121.988V258H125.363ZM124.883 269.215H123.957C123.965 268.332 124.082 267.52 124.309 266.777C124.535 266.027 124.859 265.379 125.281 264.832C125.703 264.277 126.207 263.848 126.793 263.543C127.387 263.238 128.043 263.086 128.762 263.086C129.387 263.086 129.953 263.176 130.461 263.355C130.977 263.527 131.418 263.809 131.785 264.199C132.16 264.582 132.449 265.086 132.652 265.711C132.855 266.336 132.957 267.094 132.957 267.984V276H129.559V267.961C129.559 267.398 129.477 266.957 129.312 266.637C129.156 266.309 128.926 266.078 128.621 265.945C128.324 265.805 127.957 265.734 127.52 265.734C127.035 265.734 126.621 265.824 126.277 266.004C125.941 266.184 125.672 266.434 125.469 266.754C125.266 267.066 125.117 267.434 125.023 267.855C124.93 268.277 124.883 268.73 124.883 269.215ZM134.984 269.789V269.543C134.984 268.613 135.117 267.758 135.383 266.977C135.648 266.188 136.035 265.504 136.543 264.926C137.051 264.348 137.676 263.898 138.418 263.578C139.16 263.25 140.012 263.086 140.973 263.086C141.934 263.086 142.789 263.25 143.539 263.578C144.289 263.898 144.918 264.348 145.426 264.926C145.941 265.504 146.332 266.188 146.598 266.977C146.863 267.758 146.996 268.613 146.996 269.543V269.789C146.996 270.711 146.863 271.566 146.598 272.355C146.332 273.137 145.941 273.82 145.426 274.406C144.918 274.984 144.293 275.434 143.551 275.754C142.809 276.074 141.957 276.234 140.996 276.234C140.035 276.234 139.18 276.074 138.43 275.754C137.688 275.434 137.059 274.984 136.543 274.406C136.035 273.82 135.648 273.137 135.383 272.355C135.117 271.566 134.984 270.711 134.984 269.789ZM138.359 269.543V269.789C138.359 270.32 138.406 270.816 138.5 271.277C138.594 271.738 138.742 272.145 138.945 272.496C139.156 272.84 139.43 273.109 139.766 273.305C140.102 273.5 140.512 273.598 140.996 273.598C141.465 273.598 141.867 273.5 142.203 273.305C142.539 273.109 142.809 272.84 143.012 272.496C143.215 272.145 143.363 271.738 143.457 271.277C143.559 270.816 143.609 270.32 143.609 269.789V269.543C143.609 269.027 143.559 268.543 143.457 268.09C143.363 267.629 143.211 267.223 143 266.871C142.797 266.512 142.527 266.23 142.191 266.027C141.855 265.824 141.449 265.723 140.973 265.723C140.496 265.723 140.09 265.824 139.754 266.027C139.426 266.23 139.156 266.512 138.945 266.871C138.742 267.223 138.594 267.629 138.5 268.09C138.406 268.543 138.359 269.027 138.359 269.543ZM152.445 265.945V276H149.059V263.32H152.234L152.445 265.945ZM151.977 269.215H151.039C151.039 268.332 151.145 267.52 151.355 266.777C151.574 266.027 151.891 265.379 152.305 264.832C152.727 264.277 153.246 263.848 153.863 263.543C154.48 263.238 155.195 263.086 156.008 263.086C156.57 263.086 157.086 263.172 157.555 263.344C158.023 263.508 158.426 263.77 158.762 264.129C159.105 264.48 159.371 264.941 159.559 265.512C159.746 266.074 159.84 266.75 159.84 267.539V276H156.465V267.914C156.465 267.336 156.387 266.891 156.23 266.578C156.074 266.266 155.852 266.047 155.562 265.922C155.281 265.797 154.941 265.734 154.543 265.734C154.105 265.734 153.723 265.824 153.395 266.004C153.074 266.184 152.809 266.434 152.598 266.754C152.387 267.066 152.23 267.434 152.129 267.855C152.027 268.277 151.977 268.73 151.977 269.215ZM159.523 268.828L158.316 268.98C158.316 268.152 158.418 267.383 158.621 266.672C158.832 265.961 159.141 265.336 159.547 264.797C159.961 264.258 160.473 263.84 161.082 263.543C161.691 263.238 162.395 263.086 163.191 263.086C163.801 263.086 164.355 263.176 164.855 263.355C165.355 263.527 165.781 263.805 166.133 264.188C166.492 264.562 166.766 265.055 166.953 265.664C167.148 266.273 167.246 267.02 167.246 267.902V276H163.859V267.902C163.859 267.316 163.781 266.871 163.625 266.566C163.477 266.254 163.258 266.039 162.969 265.922C162.688 265.797 162.352 265.734 161.961 265.734C161.555 265.734 161.199 265.816 160.895 265.98C160.59 266.137 160.336 266.355 160.133 266.637C159.93 266.918 159.777 267.246 159.676 267.621C159.574 267.988 159.523 268.391 159.523 268.828ZM169.859 258H173.234V273.094L172.895 276H169.859V258ZM181.262 269.531V269.777C181.262 270.723 181.16 271.59 180.957 272.379C180.762 273.168 180.457 273.852 180.043 274.43C179.629 275 179.113 275.445 178.496 275.766C177.887 276.078 177.168 276.234 176.34 276.234C175.566 276.234 174.895 276.078 174.324 275.766C173.762 275.453 173.289 275.012 172.906 274.441C172.523 273.871 172.215 273.203 171.98 272.438C171.746 271.672 171.57 270.836 171.453 269.93V269.391C171.57 268.484 171.746 267.648 171.98 266.883C172.215 266.117 172.523 265.449 172.906 264.879C173.289 264.309 173.762 263.867 174.324 263.555C174.887 263.242 175.551 263.086 176.316 263.086C177.152 263.086 177.879 263.246 178.496 263.566C179.121 263.879 179.637 264.324 180.043 264.902C180.457 265.473 180.762 266.152 180.957 266.941C181.16 267.723 181.262 268.586 181.262 269.531ZM177.887 269.777V269.531C177.887 269.016 177.848 268.531 177.77 268.078C177.699 267.617 177.574 267.215 177.395 266.871C177.215 266.52 176.969 266.242 176.656 266.039C176.352 265.836 175.957 265.734 175.473 265.734C175.012 265.734 174.621 265.812 174.301 265.969C173.98 266.125 173.715 266.344 173.504 266.625C173.301 266.906 173.148 267.242 173.047 267.633C172.945 268.016 172.883 268.438 172.859 268.898V270.434C172.883 271.051 172.984 271.598 173.164 272.074C173.352 272.543 173.633 272.914 174.008 273.188C174.391 273.453 174.887 273.586 175.496 273.586C175.973 273.586 176.367 273.492 176.68 273.305C176.992 273.117 177.234 272.852 177.406 272.508C177.586 272.164 177.711 271.762 177.781 271.301C177.852 270.832 177.887 270.324 177.887 269.777ZM186.734 266.086V276H183.359V263.32H186.535L186.734 266.086ZM190.555 263.238L190.496 266.367C190.332 266.344 190.133 266.324 189.898 266.309C189.672 266.285 189.465 266.273 189.277 266.273C188.801 266.273 188.387 266.336 188.035 266.461C187.691 266.578 187.402 266.754 187.168 266.988C186.941 267.223 186.77 267.508 186.652 267.844C186.543 268.18 186.48 268.562 186.465 268.992L185.785 268.781C185.785 267.961 185.867 267.207 186.031 266.52C186.195 265.824 186.434 265.219 186.746 264.703C187.066 264.188 187.457 263.789 187.918 263.508C188.379 263.227 188.906 263.086 189.5 263.086C189.688 263.086 189.879 263.102 190.074 263.133C190.27 263.156 190.43 263.191 190.555 263.238ZM197.75 276.234C196.766 276.234 195.883 276.078 195.102 275.766C194.32 275.445 193.656 275.004 193.109 274.441C192.57 273.879 192.156 273.227 191.867 272.484C191.578 271.734 191.434 270.938 191.434 270.094V269.625C191.434 268.664 191.57 267.785 191.844 266.988C192.117 266.191 192.508 265.5 193.016 264.914C193.531 264.328 194.156 263.879 194.891 263.566C195.625 263.246 196.453 263.086 197.375 263.086C198.273 263.086 199.07 263.234 199.766 263.531C200.461 263.828 201.043 264.25 201.512 264.797C201.988 265.344 202.348 266 202.59 266.766C202.832 267.523 202.953 268.367 202.953 269.297V270.703H192.875V268.453H199.637V268.195C199.637 267.727 199.551 267.309 199.379 266.941C199.215 266.566 198.965 266.27 198.629 266.051C198.293 265.832 197.863 265.723 197.34 265.723C196.895 265.723 196.512 265.82 196.191 266.016C195.871 266.211 195.609 266.484 195.406 266.836C195.211 267.188 195.062 267.602 194.961 268.078C194.867 268.547 194.82 269.062 194.82 269.625V270.094C194.82 270.602 194.891 271.07 195.031 271.5C195.18 271.93 195.387 272.301 195.652 272.613C195.926 272.926 196.254 273.168 196.637 273.34C197.027 273.512 197.469 273.598 197.961 273.598C198.57 273.598 199.137 273.48 199.66 273.246C200.191 273.004 200.648 272.641 201.031 272.156L202.672 273.938C202.406 274.32 202.043 274.688 201.582 275.039C201.129 275.391 200.582 275.68 199.941 275.906C199.301 276.125 198.57 276.234 197.75 276.234ZM211.73 272.496C211.73 272.254 211.66 272.035 211.52 271.84C211.379 271.645 211.117 271.465 210.734 271.301C210.359 271.129 209.816 270.973 209.105 270.832C208.465 270.691 207.867 270.516 207.312 270.305C206.766 270.086 206.289 269.824 205.883 269.52C205.484 269.215 205.172 268.855 204.945 268.441C204.719 268.02 204.605 267.539 204.605 267C204.605 266.469 204.719 265.969 204.945 265.5C205.18 265.031 205.512 264.617 205.941 264.258C206.379 263.891 206.91 263.605 207.535 263.402C208.168 263.191 208.879 263.086 209.668 263.086C210.77 263.086 211.715 263.262 212.504 263.613C213.301 263.965 213.91 264.449 214.332 265.066C214.762 265.676 214.977 266.371 214.977 267.152H211.602C211.602 266.824 211.531 266.531 211.391 266.273C211.258 266.008 211.047 265.801 210.758 265.652C210.477 265.496 210.109 265.418 209.656 265.418C209.281 265.418 208.957 265.484 208.684 265.617C208.41 265.742 208.199 265.914 208.051 266.133C207.91 266.344 207.84 266.578 207.84 266.836C207.84 267.031 207.879 267.207 207.957 267.363C208.043 267.512 208.18 267.648 208.367 267.773C208.555 267.898 208.797 268.016 209.094 268.125C209.398 268.227 209.773 268.32 210.219 268.406C211.133 268.594 211.949 268.84 212.668 269.145C213.387 269.441 213.957 269.848 214.379 270.363C214.801 270.871 215.012 271.539 215.012 272.367C215.012 272.93 214.887 273.445 214.637 273.914C214.387 274.383 214.027 274.793 213.559 275.145C213.09 275.488 212.527 275.758 211.871 275.953C211.223 276.141 210.492 276.234 209.68 276.234C208.5 276.234 207.5 276.023 206.68 275.602C205.867 275.18 205.25 274.645 204.828 273.996C204.414 273.34 204.207 272.668 204.207 271.98H207.406C207.422 272.441 207.539 272.812 207.758 273.094C207.984 273.375 208.27 273.578 208.613 273.703C208.965 273.828 209.344 273.891 209.75 273.891C210.188 273.891 210.551 273.832 210.84 273.715C211.129 273.59 211.348 273.426 211.496 273.223C211.652 273.012 211.73 272.77 211.73 272.496ZM226.941 274.57L230.305 263.32H233.926L228.828 277.91C228.719 278.23 228.57 278.574 228.383 278.941C228.203 279.309 227.957 279.656 227.645 279.984C227.34 280.32 226.953 280.594 226.484 280.805C226.023 281.016 225.457 281.121 224.785 281.121C224.465 281.121 224.203 281.102 224 281.062C223.797 281.023 223.555 280.969 223.273 280.898V278.426C223.359 278.426 223.449 278.426 223.543 278.426C223.637 278.434 223.727 278.438 223.812 278.438C224.258 278.438 224.621 278.387 224.902 278.285C225.184 278.184 225.41 278.027 225.582 277.816C225.754 277.613 225.891 277.348 225.992 277.02L226.941 274.57ZM225.535 263.32L228.289 272.508L228.77 276.082L226.473 276.328L221.914 263.32H225.535ZM244.285 268.23L241.59 267.586L242.562 258.938H252.148V261.668H245.34L244.918 265.453C245.145 265.32 245.488 265.18 245.949 265.031C246.41 264.875 246.926 264.797 247.496 264.797C248.324 264.797 249.059 264.926 249.699 265.184C250.34 265.441 250.883 265.816 251.328 266.309C251.781 266.801 252.125 267.402 252.359 268.113C252.594 268.824 252.711 269.629 252.711 270.527C252.711 271.285 252.594 272.008 252.359 272.695C252.125 273.375 251.77 273.984 251.293 274.523C250.816 275.055 250.219 275.473 249.5 275.777C248.781 276.082 247.93 276.234 246.945 276.234C246.211 276.234 245.5 276.125 244.812 275.906C244.133 275.688 243.52 275.363 242.973 274.934C242.434 274.504 242 273.984 241.672 273.375C241.352 272.758 241.184 272.055 241.168 271.266H244.52C244.566 271.75 244.691 272.168 244.895 272.52C245.105 272.863 245.383 273.129 245.727 273.316C246.07 273.504 246.473 273.598 246.934 273.598C247.363 273.598 247.73 273.516 248.035 273.352C248.34 273.188 248.586 272.961 248.773 272.672C248.961 272.375 249.098 272.031 249.184 271.641C249.277 271.242 249.324 270.812 249.324 270.352C249.324 269.891 249.27 269.473 249.16 269.098C249.051 268.723 248.883 268.398 248.656 268.125C248.43 267.852 248.141 267.641 247.789 267.492C247.445 267.344 247.043 267.27 246.582 267.27C245.957 267.27 245.473 267.367 245.129 267.562C244.793 267.758 244.512 267.98 244.285 268.23ZM264.383 265.945V276H260.996V263.32H264.172L264.383 265.945ZM263.914 269.215H262.977C262.977 268.332 263.082 267.52 263.293 266.777C263.512 266.027 263.828 265.379 264.242 264.832C264.664 264.277 265.184 263.848 265.801 263.543C266.418 263.238 267.133 263.086 267.945 263.086C268.508 263.086 269.023 263.172 269.492 263.344C269.961 263.508 270.363 263.77 270.699 264.129C271.043 264.48 271.309 264.941 271.496 265.512C271.684 266.074 271.777 266.75 271.777 267.539V276H268.402V267.914C268.402 267.336 268.324 266.891 268.168 266.578C268.012 266.266 267.789 266.047 267.5 265.922C267.219 265.797 266.879 265.734 266.48 265.734C266.043 265.734 265.66 265.824 265.332 266.004C265.012 266.184 264.746 266.434 264.535 266.754C264.324 267.066 264.168 267.434 264.066 267.855C263.965 268.277 263.914 268.73 263.914 269.215ZM271.461 268.828L270.254 268.98C270.254 268.152 270.355 267.383 270.559 266.672C270.77 265.961 271.078 265.336 271.484 264.797C271.898 264.258 272.41 263.84 273.02 263.543C273.629 263.238 274.332 263.086 275.129 263.086C275.738 263.086 276.293 263.176 276.793 263.355C277.293 263.527 277.719 263.805 278.07 264.188C278.43 264.562 278.703 265.055 278.891 265.664C279.086 266.273 279.184 267.02 279.184 267.902V276H275.797V267.902C275.797 267.316 275.719 266.871 275.562 266.566C275.414 266.254 275.195 266.039 274.906 265.922C274.625 265.797 274.289 265.734 273.898 265.734C273.492 265.734 273.137 265.816 272.832 265.98C272.527 266.137 272.273 266.355 272.07 266.637C271.867 266.918 271.715 267.246 271.613 267.621C271.512 267.988 271.461 268.391 271.461 268.828ZM289.297 272.965V263.32H292.672V276H289.496L289.297 272.965ZM289.672 270.363L290.668 270.34C290.668 271.184 290.57 271.969 290.375 272.695C290.18 273.414 289.887 274.039 289.496 274.57C289.105 275.094 288.613 275.504 288.02 275.801C287.426 276.09 286.727 276.234 285.922 276.234C285.305 276.234 284.734 276.148 284.211 275.977C283.695 275.797 283.25 275.52 282.875 275.145C282.508 274.762 282.219 274.273 282.008 273.68C281.805 273.078 281.703 272.355 281.703 271.512V263.32H285.078V271.535C285.078 271.91 285.121 272.227 285.207 272.484C285.301 272.742 285.43 272.953 285.594 273.117C285.758 273.281 285.949 273.398 286.168 273.469C286.395 273.539 286.645 273.574 286.918 273.574C287.613 273.574 288.16 273.434 288.559 273.152C288.965 272.871 289.25 272.488 289.414 272.004C289.586 271.512 289.672 270.965 289.672 270.363ZM295.438 263.32H298.824V276.762C298.824 277.699 298.652 278.492 298.309 279.141C297.965 279.789 297.469 280.281 296.82 280.617C296.172 280.953 295.387 281.121 294.465 281.121C294.176 281.121 293.895 281.105 293.621 281.074C293.34 281.043 293.051 280.992 292.754 280.922L292.766 278.332C292.953 278.363 293.137 278.387 293.316 278.402C293.488 278.426 293.664 278.438 293.844 278.438C294.195 278.438 294.488 278.379 294.723 278.262C294.957 278.145 295.133 277.961 295.25 277.711C295.375 277.469 295.438 277.152 295.438 276.762V263.32ZM295.168 260.016C295.168 259.523 295.34 259.117 295.684 258.797C296.035 258.477 296.496 258.316 297.066 258.316C297.645 258.316 298.105 258.477 298.449 258.797C298.793 259.117 298.965 259.523 298.965 260.016C298.965 260.508 298.793 260.914 298.449 261.234C298.105 261.555 297.645 261.715 297.066 261.715C296.496 261.715 296.035 261.555 295.684 261.234C295.34 260.914 295.168 260.508 295.168 260.016ZM307.344 276.234C306.359 276.234 305.477 276.078 304.695 275.766C303.914 275.445 303.25 275.004 302.703 274.441C302.164 273.879 301.75 273.227 301.461 272.484C301.172 271.734 301.027 270.938 301.027 270.094V269.625C301.027 268.664 301.164 267.785 301.438 266.988C301.711 266.191 302.102 265.5 302.609 264.914C303.125 264.328 303.75 263.879 304.484 263.566C305.219 263.246 306.047 263.086 306.969 263.086C307.867 263.086 308.664 263.234 309.359 263.531C310.055 263.828 310.637 264.25 311.105 264.797C311.582 265.344 311.941 266 312.184 266.766C312.426 267.523 312.547 268.367 312.547 269.297V270.703H302.469V268.453H309.23V268.195C309.23 267.727 309.145 267.309 308.973 266.941C308.809 266.566 308.559 266.27 308.223 266.051C307.887 265.832 307.457 265.723 306.934 265.723C306.488 265.723 306.105 265.82 305.785 266.016C305.465 266.211 305.203 266.484 305 266.836C304.805 267.188 304.656 267.602 304.555 268.078C304.461 268.547 304.414 269.062 304.414 269.625V270.094C304.414 270.602 304.484 271.07 304.625 271.5C304.773 271.93 304.98 272.301 305.246 272.613C305.52 272.926 305.848 273.168 306.23 273.34C306.621 273.512 307.062 273.598 307.555 273.598C308.164 273.598 308.73 273.48 309.254 273.246C309.785 273.004 310.242 272.641 310.625 272.156L312.266 273.938C312 274.32 311.637 274.688 311.176 275.039C310.723 275.391 310.176 275.68 309.535 275.906C308.895 276.125 308.164 276.234 307.344 276.234ZM317.844 266.086V276H314.469V263.32H317.645L317.844 266.086ZM321.664 263.238L321.605 266.367C321.441 266.344 321.242 266.324 321.008 266.309C320.781 266.285 320.574 266.273 320.387 266.273C319.91 266.273 319.496 266.336 319.145 266.461C318.801 266.578 318.512 266.754 318.277 266.988C318.051 267.223 317.879 267.508 317.762 267.844C317.652 268.18 317.59 268.562 317.574 268.992L316.895 268.781C316.895 267.961 316.977 267.207 317.141 266.52C317.305 265.824 317.543 265.219 317.855 264.703C318.176 264.188 318.566 263.789 319.027 263.508C319.488 263.227 320.016 263.086 320.609 263.086C320.797 263.086 320.988 263.102 321.184 263.133C321.379 263.156 321.539 263.191 321.664 263.238ZM328.859 276.234C327.875 276.234 326.992 276.078 326.211 275.766C325.43 275.445 324.766 275.004 324.219 274.441C323.68 273.879 323.266 273.227 322.977 272.484C322.688 271.734 322.543 270.938 322.543 270.094V269.625C322.543 268.664 322.68 267.785 322.953 266.988C323.227 266.191 323.617 265.5 324.125 264.914C324.641 264.328 325.266 263.879 326 263.566C326.734 263.246 327.562 263.086 328.484 263.086C329.383 263.086 330.18 263.234 330.875 263.531C331.57 263.828 332.152 264.25 332.621 264.797C333.098 265.344 333.457 266 333.699 266.766C333.941 267.523 334.062 268.367 334.062 269.297V270.703H323.984V268.453H330.746V268.195C330.746 267.727 330.66 267.309 330.488 266.941C330.324 266.566 330.074 266.27 329.738 266.051C329.402 265.832 328.973 265.723 328.449 265.723C328.004 265.723 327.621 265.82 327.301 266.016C326.98 266.211 326.719 266.484 326.516 266.836C326.32 267.188 326.172 267.602 326.07 268.078C325.977 268.547 325.93 269.062 325.93 269.625V270.094C325.93 270.602 326 271.07 326.141 271.5C326.289 271.93 326.496 272.301 326.762 272.613C327.035 272.926 327.363 273.168 327.746 273.34C328.137 273.512 328.578 273.598 329.07 273.598C329.68 273.598 330.246 273.48 330.77 273.246C331.301 273.004 331.758 272.641 332.141 272.156L333.781 273.938C333.516 274.32 333.152 274.688 332.691 275.039C332.238 275.391 331.691 275.68 331.051 275.906C330.41 276.125 329.68 276.234 328.859 276.234ZM342.84 272.496C342.84 272.254 342.77 272.035 342.629 271.84C342.488 271.645 342.227 271.465 341.844 271.301C341.469 271.129 340.926 270.973 340.215 270.832C339.574 270.691 338.977 270.516 338.422 270.305C337.875 270.086 337.398 269.824 336.992 269.52C336.594 269.215 336.281 268.855 336.055 268.441C335.828 268.02 335.715 267.539 335.715 267C335.715 266.469 335.828 265.969 336.055 265.5C336.289 265.031 336.621 264.617 337.051 264.258C337.488 263.891 338.02 263.605 338.645 263.402C339.277 263.191 339.988 263.086 340.777 263.086C341.879 263.086 342.824 263.262 343.613 263.613C344.41 263.965 345.02 264.449 345.441 265.066C345.871 265.676 346.086 266.371 346.086 267.152H342.711C342.711 266.824 342.641 266.531 342.5 266.273C342.367 266.008 342.156 265.801 341.867 265.652C341.586 265.496 341.219 265.418 340.766 265.418C340.391 265.418 340.066 265.484 339.793 265.617C339.52 265.742 339.309 265.914 339.16 266.133C339.02 266.344 338.949 266.578 338.949 266.836C338.949 267.031 338.988 267.207 339.066 267.363C339.152 267.512 339.289 267.648 339.477 267.773C339.664 267.898 339.906 268.016 340.203 268.125C340.508 268.227 340.883 268.32 341.328 268.406C342.242 268.594 343.059 268.84 343.777 269.145C344.496 269.441 345.066 269.848 345.488 270.363C345.91 270.871 346.121 271.539 346.121 272.367C346.121 272.93 345.996 273.445 345.746 273.914C345.496 274.383 345.137 274.793 344.668 275.145C344.199 275.488 343.637 275.758 342.98 275.953C342.332 276.141 341.602 276.234 340.789 276.234C339.609 276.234 338.609 276.023 337.789 275.602C336.977 275.18 336.359 274.645 335.938 273.996C335.523 273.34 335.316 272.668 335.316 271.98H338.516C338.531 272.441 338.648 272.812 338.867 273.094C339.094 273.375 339.379 273.578 339.723 273.703C340.074 273.828 340.453 273.891 340.859 273.891C341.297 273.891 341.66 273.832 341.949 273.715C342.238 273.59 342.457 273.426 342.605 273.223C342.762 273.012 342.84 272.77 342.84 272.496Z" fill="#BA007C"/>
</svg>
