<svg width="948" height="150" viewBox="0 0 948 150" fill="none" xmlns="http://www.w3.org/2000/svg">
<rect x="0.75" y="0.75" width="308.5" height="148.5" rx="11.25" fill="#BA007C" stroke="#292C33" stroke-width="1.5"/>
<path d="M62.3082 63.7273V87H59.4901V63.7273H62.3082ZM70.277 76.5V87H67.5952V69.5455H70.1861V72.2727H70.4134C70.8224 71.3864 71.4437 70.6742 72.277 70.1364C73.1103 69.5909 74.1861 69.3182 75.5043 69.3182C76.6861 69.3182 77.7202 69.5606 78.6065 70.0455C79.4929 70.5227 80.1823 71.25 80.6747 72.2273C81.1671 73.197 81.4134 74.4242 81.4134 75.9091V87H78.7315V76.0909C78.7315 74.7197 78.3755 73.6515 77.6634 72.8864C76.9512 72.1136 75.974 71.7273 74.7315 71.7273C73.8755 71.7273 73.1103 71.9129 72.4361 72.2841C71.7694 72.6553 71.2429 73.197 70.8565 73.9091C70.4702 74.6212 70.277 75.4848 70.277 76.5ZM86.3139 87V69.5455H88.9957V87H86.3139ZM87.6776 66.6364C87.1548 66.6364 86.7041 66.4583 86.3253 66.1023C85.9541 65.7462 85.7685 65.3182 85.7685 64.8182C85.7685 64.3182 85.9541 63.8902 86.3253 63.5341C86.7041 63.178 87.1548 63 87.6776 63C88.2003 63 88.6473 63.178 89.0185 63.5341C89.3973 63.8902 89.5866 64.3182 89.5866 64.8182C89.5866 65.3182 89.3973 65.7462 89.0185 66.1023C88.6473 66.4583 88.2003 66.6364 87.6776 66.6364ZM100.999 87.3636C99.3622 87.3636 97.9531 86.9773 96.7713 86.2045C95.5895 85.4318 94.6804 84.3674 94.044 83.0114C93.4077 81.6553 93.0895 80.1061 93.0895 78.3636C93.0895 76.5909 93.4152 75.0265 94.0668 73.6705C94.7259 72.3068 95.6425 71.2424 96.8168 70.4773C97.9986 69.7045 99.3774 69.3182 100.953 69.3182C102.18 69.3182 103.286 69.5455 104.271 70C105.256 70.4545 106.063 71.0909 106.692 71.9091C107.321 72.7273 107.711 73.6818 107.862 74.7727H105.18C104.976 73.9773 104.521 73.2727 103.817 72.6591C103.12 72.0379 102.18 71.7273 100.999 71.7273C99.9531 71.7273 99.0365 72 98.2486 72.5455C97.4683 73.0833 96.8584 73.8447 96.419 74.8295C95.9872 75.8068 95.7713 76.9545 95.7713 78.2727C95.7713 79.6212 95.9834 80.7955 96.4077 81.7955C96.8395 82.7955 97.4455 83.572 98.2259 84.125C99.0137 84.678 99.938 84.9545 100.999 84.9545C101.696 84.9545 102.328 84.8333 102.896 84.5909C103.464 84.3485 103.946 84 104.339 83.5455C104.733 83.0909 105.014 82.5455 105.18 81.9091H107.862C107.711 82.9394 107.336 83.8674 106.737 84.6932C106.146 85.5114 105.362 86.1629 104.385 86.6477C103.415 87.125 102.286 87.3636 100.999 87.3636ZM111.783 87V69.5455H114.464V87H111.783ZM113.146 66.6364C112.624 66.6364 112.173 66.4583 111.794 66.1023C111.423 65.7462 111.237 65.3182 111.237 64.8182C111.237 64.3182 111.423 63.8902 111.794 63.5341C112.173 63.178 112.624 63 113.146 63C113.669 63 114.116 63.178 114.487 63.5341C114.866 63.8902 115.055 64.3182 115.055 64.8182C115.055 65.3182 114.866 65.7462 114.487 66.1023C114.116 66.4583 113.669 66.6364 113.146 66.6364ZM124.513 87.4091C123.407 87.4091 122.403 87.2008 121.501 86.7841C120.6 86.3598 119.884 85.75 119.354 84.9545C118.823 84.1515 118.558 83.1818 118.558 82.0455C118.558 81.0455 118.755 80.2348 119.149 79.6136C119.543 78.9848 120.07 78.4924 120.729 78.1364C121.388 77.7803 122.115 77.5152 122.911 77.3409C123.714 77.1591 124.52 77.0152 125.331 76.9091C126.392 76.7727 127.251 76.6705 127.911 76.6023C128.577 76.5265 129.062 76.4015 129.365 76.2273C129.676 76.053 129.831 75.75 129.831 75.3182V75.2273C129.831 74.1061 129.524 73.2348 128.911 72.6136C128.304 71.9924 127.384 71.6818 126.149 71.6818C124.869 71.6818 123.865 71.9621 123.138 72.5227C122.411 73.0833 121.899 73.6818 121.604 74.3182L119.058 73.4091C119.513 72.3485 120.119 71.5227 120.876 70.9318C121.642 70.3333 122.475 69.9167 123.376 69.6818C124.286 69.4394 125.179 69.3182 126.058 69.3182C126.619 69.3182 127.263 69.3864 127.99 69.5227C128.725 69.6515 129.433 69.9205 130.115 70.3295C130.804 70.7386 131.376 71.3561 131.831 72.1818C132.286 73.0076 132.513 74.1136 132.513 75.5V87H129.831V84.6364H129.695C129.513 85.0152 129.21 85.4205 128.786 85.8523C128.361 86.2841 127.797 86.6515 127.092 86.9545C126.388 87.2576 125.528 87.4091 124.513 87.4091ZM124.922 85C125.982 85 126.876 84.7917 127.604 84.375C128.339 83.9583 128.892 83.4205 129.263 82.7614C129.642 82.1023 129.831 81.4091 129.831 80.6818V78.2273C129.717 78.3636 129.467 78.4886 129.081 78.6023C128.702 78.7083 128.263 78.803 127.763 78.8864C127.27 78.9621 126.789 79.0303 126.32 79.0909C125.857 79.1439 125.482 79.1894 125.195 79.2273C124.498 79.3182 123.846 79.4659 123.24 79.6705C122.642 79.8674 122.157 80.1667 121.786 80.5682C121.422 80.9621 121.24 81.5 121.24 82.1818C121.24 83.1136 121.585 83.8182 122.274 84.2955C122.971 84.7652 123.854 85 124.922 85ZM137.408 87V69.5455H139.999V72.1818H140.18C140.499 71.3182 141.074 70.6174 141.908 70.0795C142.741 69.5417 143.68 69.2727 144.726 69.2727C144.923 69.2727 145.169 69.2765 145.464 69.2841C145.76 69.2917 145.983 69.303 146.135 69.3182V72.0455C146.044 72.0227 145.836 71.9886 145.51 71.9432C145.192 71.8902 144.855 71.8636 144.499 71.8636C143.65 71.8636 142.893 72.0417 142.226 72.3977C141.567 72.7462 141.044 73.2311 140.658 73.8523C140.279 74.4659 140.089 75.1667 140.089 75.9545V87H137.408ZM170.678 73.4545L168.268 74.1364C168.117 73.7348 167.893 73.3447 167.598 72.9659C167.31 72.5795 166.916 72.2614 166.416 72.0114C165.916 71.7614 165.276 71.6364 164.496 71.6364C163.428 71.6364 162.537 71.8826 161.825 72.375C161.121 72.8598 160.768 73.4773 160.768 74.2273C160.768 74.8939 161.011 75.4205 161.496 75.8068C161.981 76.1932 162.738 76.5152 163.768 76.7727L166.359 77.4091C167.92 77.7879 169.083 78.3674 169.848 79.1477C170.613 79.9205 170.996 80.9167 170.996 82.1364C170.996 83.1364 170.708 84.0303 170.132 84.8182C169.564 85.6061 168.768 86.2273 167.746 86.6818C166.723 87.1364 165.534 87.3636 164.178 87.3636C162.397 87.3636 160.924 86.9773 159.757 86.2045C158.59 85.4318 157.852 84.303 157.541 82.8182L160.087 82.1818C160.329 83.1212 160.787 83.8258 161.462 84.2955C162.143 84.7652 163.034 85 164.132 85C165.382 85 166.375 84.7348 167.109 84.2045C167.852 83.6667 168.223 83.0227 168.223 82.2727C168.223 81.6667 168.011 81.1591 167.587 80.75C167.162 80.3333 166.511 80.0227 165.632 79.8182L162.723 79.1364C161.125 78.7576 159.95 78.1705 159.2 77.375C158.458 76.572 158.087 75.5682 158.087 74.3636C158.087 73.3788 158.363 72.5076 158.916 71.75C159.477 70.9924 160.238 70.3977 161.2 69.9659C162.17 69.5341 163.268 69.3182 164.496 69.3182C166.223 69.3182 167.579 69.697 168.564 70.4545C169.556 71.2121 170.261 72.2121 170.678 73.4545ZM182.351 87.3636C180.669 87.3636 179.218 86.9924 177.999 86.25C176.786 85.5 175.851 84.4545 175.192 83.1136C174.54 81.7652 174.214 80.197 174.214 78.4091C174.214 76.6212 174.54 75.0455 175.192 73.6818C175.851 72.3106 176.768 71.2424 177.942 70.4773C179.124 69.7045 180.502 69.3182 182.078 69.3182C182.987 69.3182 183.885 69.4697 184.771 69.7727C185.658 70.0758 186.464 70.5682 187.192 71.25C187.919 71.9242 188.499 72.8182 188.93 73.9318C189.362 75.0455 189.578 76.4167 189.578 78.0455V79.1818H176.124V76.8636H186.851C186.851 75.8788 186.654 75 186.26 74.2273C185.874 73.4545 185.321 72.8447 184.601 72.3977C183.889 71.9508 183.048 71.7273 182.078 71.7273C181.01 71.7273 180.086 71.9924 179.305 72.5227C178.533 73.0455 177.938 73.7273 177.521 74.5682C177.105 75.4091 176.896 76.3106 176.896 77.2727V78.8182C176.896 80.1364 177.124 81.2538 177.578 82.1705C178.04 83.0795 178.68 83.7727 179.499 84.25C180.317 84.7197 181.268 84.9545 182.351 84.9545C183.055 84.9545 183.692 84.8561 184.26 84.6591C184.836 84.4545 185.332 84.1515 185.749 83.75C186.165 83.3409 186.487 82.8333 186.714 82.2273L189.305 82.9545C189.033 83.8333 188.574 84.6061 187.93 85.2727C187.286 85.9318 186.491 86.447 185.544 86.8182C184.597 87.1818 183.533 87.3636 182.351 87.3636ZM206.021 73.4545L203.612 74.1364C203.461 73.7348 203.237 73.3447 202.942 72.9659C202.654 72.5795 202.26 72.2614 201.76 72.0114C201.26 71.7614 200.62 71.6364 199.839 71.6364C198.771 71.6364 197.881 71.8826 197.169 72.375C196.464 72.8598 196.112 73.4773 196.112 74.2273C196.112 74.8939 196.355 75.4205 196.839 75.8068C197.324 76.1932 198.082 76.5152 199.112 76.7727L201.703 77.4091C203.264 77.7879 204.427 78.3674 205.192 79.1477C205.957 79.9205 206.339 80.9167 206.339 82.1364C206.339 83.1364 206.052 84.0303 205.476 84.8182C204.908 85.6061 204.112 86.2273 203.089 86.6818C202.067 87.1364 200.877 87.3636 199.521 87.3636C197.741 87.3636 196.268 86.9773 195.101 86.2045C193.934 85.4318 193.196 84.303 192.885 82.8182L195.43 82.1818C195.673 83.1212 196.131 83.8258 196.805 84.2955C197.487 84.7652 198.377 85 199.476 85C200.726 85 201.718 84.7348 202.453 84.2045C203.196 83.6667 203.567 83.0227 203.567 82.2727C203.567 81.6667 203.355 81.1591 202.93 80.75C202.506 80.3333 201.855 80.0227 200.976 79.8182L198.067 79.1364C196.468 78.7576 195.294 78.1705 194.544 77.375C193.802 76.572 193.43 75.5682 193.43 74.3636C193.43 73.3788 193.707 72.5076 194.26 71.75C194.821 70.9924 195.582 70.3977 196.544 69.9659C197.514 69.5341 198.612 69.3182 199.839 69.3182C201.567 69.3182 202.923 69.697 203.908 70.4545C204.9 71.2121 205.605 72.2121 206.021 73.4545ZM210.376 87V69.5455H213.058V87H210.376ZM211.74 66.6364C211.217 66.6364 210.767 66.4583 210.388 66.1023C210.017 65.7462 209.831 65.3182 209.831 64.8182C209.831 64.3182 210.017 63.8902 210.388 63.5341C210.767 63.178 211.217 63 211.74 63C212.263 63 212.71 63.178 213.081 63.5341C213.46 63.8902 213.649 64.3182 213.649 64.8182C213.649 65.3182 213.46 65.7462 213.081 66.1023C212.71 66.4583 212.263 66.6364 211.74 66.6364ZM225.061 87.3636C223.485 87.3636 222.103 86.9886 220.913 86.2386C219.732 85.4886 218.807 84.4394 218.141 83.0909C217.482 81.7424 217.152 80.1667 217.152 78.3636C217.152 76.5455 217.482 74.9583 218.141 73.6023C218.807 72.2462 219.732 71.1932 220.913 70.4432C222.103 69.6932 223.485 69.3182 225.061 69.3182C226.637 69.3182 228.016 69.6932 229.197 70.4432C230.387 71.1932 231.311 72.2462 231.97 73.6023C232.637 74.9583 232.97 76.5455 232.97 78.3636C232.97 80.1667 232.637 81.7424 231.97 83.0909C231.311 84.4394 230.387 85.4886 229.197 86.2386C228.016 86.9886 226.637 87.3636 225.061 87.3636ZM225.061 84.9545C226.258 84.9545 227.243 84.6477 228.016 84.0341C228.788 83.4205 229.36 82.6136 229.732 81.6136C230.103 80.6136 230.288 79.5303 230.288 78.3636C230.288 77.197 230.103 76.1098 229.732 75.1023C229.36 74.0947 228.788 73.2803 228.016 72.6591C227.243 72.0379 226.258 71.7273 225.061 71.7273C223.864 71.7273 222.879 72.0379 222.107 72.6591C221.334 73.2803 220.762 74.0947 220.391 75.1023C220.019 76.1098 219.834 77.197 219.834 78.3636C219.834 79.5303 220.019 80.6136 220.391 81.6136C220.762 82.6136 221.334 83.4205 222.107 84.0341C222.879 84.6477 223.864 84.9545 225.061 84.9545ZM223.834 67.1818L226.607 61.9091H229.743L226.197 67.1818H223.834ZM239.746 76.5V87H237.064V69.5455H239.655V72.2727H239.882C240.291 71.3864 240.912 70.6742 241.746 70.1364C242.579 69.5909 243.655 69.3182 244.973 69.3182C246.155 69.3182 247.189 69.5606 248.075 70.0455C248.962 70.5227 249.651 71.25 250.143 72.2273C250.636 73.197 250.882 74.4242 250.882 75.9091V87H248.2V76.0909C248.2 74.7197 247.844 73.6515 247.132 72.8864C246.42 72.1136 245.443 71.7273 244.2 71.7273C243.344 71.7273 242.579 71.9129 241.905 72.2841C241.238 72.6553 240.712 73.197 240.325 73.9091C239.939 74.6212 239.746 75.4848 239.746 76.5Z" fill="#FADAEF"/>
<rect x="638.75" y="0.75" width="308.5" height="148.5" rx="11.25" fill="#BA007C" stroke="#292C33" stroke-width="1.5"/>
<path d="M701.814 55.3636C701.814 57.8182 701.371 59.9394 700.484 61.7273C699.598 63.5152 698.382 64.8939 696.837 65.8636C695.291 66.8333 693.526 67.3182 691.541 67.3182C689.556 67.3182 687.791 66.8333 686.246 65.8636C684.7 64.8939 683.484 63.5152 682.598 61.7273C681.712 59.9394 681.268 57.8182 681.268 55.3636C681.268 52.9091 681.712 50.7879 682.598 49C683.484 47.2121 684.7 45.8333 686.246 44.8636C687.791 43.8939 689.556 43.4091 691.541 43.4091C693.526 43.4091 695.291 43.8939 696.837 44.8636C698.382 45.8333 699.598 47.2121 700.484 49C701.371 50.7879 701.814 52.9091 701.814 55.3636ZM699.087 55.3636C699.087 53.3485 698.75 51.6477 698.075 50.2614C697.409 48.875 696.503 47.8258 695.359 47.1136C694.223 46.4015 692.95 46.0455 691.541 46.0455C690.132 46.0455 688.856 46.4015 687.712 47.1136C686.575 47.8258 685.67 48.875 684.996 50.2614C684.329 51.6477 683.996 53.3485 683.996 55.3636C683.996 57.3788 684.329 59.0795 684.996 60.4659C685.67 61.8523 686.575 62.9015 687.712 63.6136C688.856 64.3258 690.132 64.6818 691.541 64.6818C692.95 64.6818 694.223 64.3258 695.359 63.6136C696.503 62.9015 697.409 61.8523 698.075 60.4659C698.75 59.0795 699.087 57.3788 699.087 55.3636ZM706.553 67V43.7273H709.234V52.3182H709.462C709.659 52.0152 709.931 51.6288 710.28 51.1591C710.636 50.6818 711.143 50.2576 711.803 49.8864C712.469 49.5076 713.371 49.3182 714.507 49.3182C715.977 49.3182 717.272 49.6856 718.393 50.4205C719.515 51.1553 720.39 52.197 721.018 53.5455C721.647 54.8939 721.962 56.4848 721.962 58.3182C721.962 60.1667 721.647 61.7689 721.018 63.125C720.39 64.4735 719.518 65.5189 718.405 66.2614C717.291 66.9962 716.007 67.3636 714.553 67.3636C713.431 67.3636 712.534 67.178 711.859 66.8068C711.185 66.428 710.666 66 710.303 65.5227C709.939 65.0379 709.659 64.6364 709.462 64.3182H709.143V67H706.553ZM709.189 58.2727C709.189 59.5909 709.382 60.7538 709.768 61.7614C710.155 62.7614 710.719 63.5455 711.462 64.1136C712.204 64.6742 713.113 64.9545 714.189 64.9545C715.31 64.9545 716.246 64.6591 716.996 64.0682C717.753 63.4697 718.321 62.6667 718.7 61.6591C719.087 60.6439 719.28 59.5152 719.28 58.2727C719.28 57.0455 719.09 55.9394 718.712 54.9545C718.34 53.9621 717.776 53.178 717.018 52.6023C716.268 52.0189 715.325 51.7273 714.189 51.7273C713.098 51.7273 712.181 52.0038 711.439 52.5568C710.696 53.1023 710.136 53.8674 709.757 54.8523C709.378 55.8295 709.189 56.9697 709.189 58.2727ZM733.655 49.5455V51.8182H724.609V49.5455H733.655ZM727.246 45.3636H729.928V62C729.928 62.7576 730.037 63.3258 730.257 63.7045C730.484 64.0758 730.772 64.3258 731.121 64.4545C731.477 64.5758 731.852 64.6364 732.246 64.6364C732.541 64.6364 732.784 64.6212 732.973 64.5909C733.162 64.553 733.314 64.5227 733.428 64.5L733.973 66.9091C733.791 66.9773 733.537 67.0455 733.212 67.1136C732.886 67.1894 732.473 67.2273 731.973 67.2273C731.215 67.2273 730.473 67.0644 729.746 66.7386C729.026 66.4129 728.428 65.9167 727.95 65.25C727.481 64.5833 727.246 63.7424 727.246 62.7273V45.3636ZM744.82 67.3636C743.138 67.3636 741.687 66.9924 740.467 66.25C739.255 65.5 738.32 64.4545 737.661 63.1136C737.009 61.7652 736.683 60.197 736.683 58.4091C736.683 56.6212 737.009 55.0455 737.661 53.6818C738.32 52.3106 739.236 51.2424 740.411 50.4773C741.592 49.7045 742.971 49.3182 744.547 49.3182C745.456 49.3182 746.354 49.4697 747.24 49.7727C748.126 50.0758 748.933 50.5682 749.661 51.25C750.388 51.9242 750.967 52.8182 751.399 53.9318C751.831 55.0455 752.047 56.4167 752.047 58.0455V59.1818H738.592V56.8636H749.32C749.32 55.8788 749.123 55 748.729 54.2273C748.342 53.4545 747.789 52.8447 747.07 52.3977C746.357 51.9508 745.517 51.7273 744.547 51.7273C743.479 51.7273 742.554 51.9924 741.774 52.5227C741.001 53.0455 740.407 53.7273 739.99 54.5682C739.573 55.4091 739.365 56.3106 739.365 57.2727V58.8182C739.365 60.1364 739.592 61.2538 740.047 62.1705C740.509 63.0795 741.149 63.7727 741.967 64.25C742.786 64.7197 743.736 64.9545 744.82 64.9545C745.524 64.9545 746.161 64.8561 746.729 64.6591C747.304 64.4545 747.801 64.1515 748.217 63.75C748.634 63.3409 748.956 62.8333 749.183 62.2273L751.774 62.9545C751.501 63.8333 751.043 64.6061 750.399 65.2727C749.755 65.9318 748.96 66.447 748.013 66.8182C747.066 67.1818 746.001 67.3636 744.82 67.3636ZM758.808 56.5V67H756.126V49.5455H758.717V52.2727H758.945C759.354 51.3864 759.975 50.6742 760.808 50.1364C761.642 49.5909 762.717 49.3182 764.036 49.3182C765.217 49.3182 766.251 49.5606 767.138 50.0455C768.024 50.5227 768.714 51.25 769.206 52.2273C769.698 53.197 769.945 54.4242 769.945 55.9091V67H767.263V56.0909C767.263 54.7197 766.907 53.6515 766.195 52.8864C765.482 52.1136 764.505 51.7273 763.263 51.7273C762.407 51.7273 761.642 51.9129 760.967 52.2841C760.301 52.6553 759.774 53.197 759.388 53.9091C759.001 54.6212 758.808 55.4848 758.808 56.5ZM782.163 67.3636C780.482 67.3636 779.031 66.9924 777.811 66.25C776.599 65.5 775.663 64.4545 775.004 63.1136C774.353 61.7652 774.027 60.197 774.027 58.4091C774.027 56.6212 774.353 55.0455 775.004 53.6818C775.663 52.3106 776.58 51.2424 777.754 50.4773C778.936 49.7045 780.315 49.3182 781.891 49.3182C782.8 49.3182 783.697 49.4697 784.584 49.7727C785.47 50.0758 786.277 50.5682 787.004 51.25C787.732 51.9242 788.311 52.8182 788.743 53.9318C789.175 55.0455 789.391 56.4167 789.391 58.0455V59.1818H775.936V56.8636H786.663C786.663 55.8788 786.466 55 786.072 54.2273C785.686 53.4545 785.133 52.8447 784.413 52.3977C783.701 51.9508 782.86 51.7273 781.891 51.7273C780.822 51.7273 779.898 51.9924 779.118 52.5227C778.345 53.0455 777.75 53.7273 777.334 54.5682C776.917 55.4091 776.709 56.3106 776.709 57.2727V58.8182C776.709 60.1364 776.936 61.2538 777.391 62.1705C777.853 63.0795 778.493 63.7727 779.311 64.25C780.129 64.7197 781.08 64.9545 782.163 64.9545C782.868 64.9545 783.504 64.8561 784.072 64.6591C784.648 64.4545 785.144 64.1515 785.561 63.75C785.978 63.3409 786.3 62.8333 786.527 62.2273L789.118 62.9545C788.845 63.8333 788.387 64.6061 787.743 65.2727C787.099 65.9318 786.304 66.447 785.357 66.8182C784.41 67.1818 783.345 67.3636 782.163 67.3636ZM793.47 67V49.5455H796.061V52.1818H796.243C796.561 51.3182 797.137 50.6174 797.97 50.0795C798.804 49.5417 799.743 49.2727 800.788 49.2727C800.985 49.2727 801.232 49.2765 801.527 49.2841C801.822 49.2917 802.046 49.303 802.197 49.3182V52.0455C802.107 52.0227 801.898 51.9886 801.572 51.9432C801.254 51.8902 800.917 51.8636 800.561 51.8636C799.713 51.8636 798.955 52.0417 798.288 52.3977C797.629 52.7462 797.107 53.2311 796.72 53.8523C796.341 54.4659 796.152 55.1667 796.152 55.9545V67H793.47ZM823.195 59.7273H826.286L828.876 63.1364L829.558 64.0455L833.422 69.1818H830.331L827.786 65.7727L827.149 64.9091L823.195 59.7273ZM834.376 55.3636C834.376 57.8182 833.933 59.9394 833.047 61.7273C832.161 63.5152 830.945 64.8939 829.399 65.8636C827.854 66.8333 826.089 67.3182 824.104 67.3182C822.119 67.3182 820.354 66.8333 818.808 65.8636C817.263 64.8939 816.047 63.5152 815.161 61.7273C814.274 59.9394 813.831 57.8182 813.831 55.3636C813.831 52.9091 814.274 50.7879 815.161 49C816.047 47.2121 817.263 45.8333 818.808 44.8636C820.354 43.8939 822.119 43.4091 824.104 43.4091C826.089 43.4091 827.854 43.8939 829.399 44.8636C830.945 45.8333 832.161 47.2121 833.047 49C833.933 50.7879 834.376 52.9091 834.376 55.3636ZM831.649 55.3636C831.649 53.3485 831.312 51.6477 830.638 50.2614C829.971 48.875 829.066 47.8258 827.922 47.1136C826.786 46.4015 825.513 46.0455 824.104 46.0455C822.695 46.0455 821.418 46.4015 820.274 47.1136C819.138 47.8258 818.232 48.875 817.558 50.2614C816.892 51.6477 816.558 53.3485 816.558 55.3636C816.558 57.3788 816.892 59.0795 817.558 60.4659C818.232 61.8523 819.138 62.9015 820.274 63.6136C821.418 64.3258 822.695 64.6818 824.104 64.6818C825.513 64.6818 826.786 64.3258 827.922 63.6136C829.066 62.9015 829.971 61.8523 830.638 60.4659C831.312 59.0795 831.649 57.3788 831.649 55.3636ZM838.751 67V49.5455H841.342V52.1818H841.524C841.842 51.3182 842.418 50.6174 843.251 50.0795C844.085 49.5417 845.024 49.2727 846.07 49.2727C846.267 49.2727 846.513 49.2765 846.808 49.2841C847.104 49.2917 847.327 49.303 847.479 49.3182V52.0455C847.388 52.0227 847.179 51.9886 846.854 51.9432C846.536 51.8902 846.198 51.8636 845.842 51.8636C844.994 51.8636 844.236 52.0417 843.57 52.3977C842.911 52.7462 842.388 53.2311 842.001 53.8523C841.623 54.4659 841.433 55.1667 841.433 55.9545V67H838.751ZM859.658 73.5455V49.5455H862.249V52.3182H862.567C862.764 52.0152 863.036 51.6288 863.385 51.1591C863.741 50.6818 864.249 50.2576 864.908 49.8864C865.574 49.5076 866.476 49.3182 867.612 49.3182C869.082 49.3182 870.377 49.6856 871.499 50.4205C872.62 51.1553 873.495 52.197 874.124 53.5455C874.752 54.8939 875.067 56.4848 875.067 58.3182C875.067 60.1667 874.752 61.7689 874.124 63.125C873.495 64.4735 872.624 65.5189 871.51 66.2614C870.396 66.9962 869.112 67.3636 867.658 67.3636C866.536 67.3636 865.639 67.178 864.964 66.8068C864.29 66.428 863.771 66 863.408 65.5227C863.044 65.0379 862.764 64.6364 862.567 64.3182H862.339V73.5455H859.658ZM862.294 58.2727C862.294 59.5909 862.487 60.7538 862.874 61.7614C863.26 62.7614 863.824 63.5455 864.567 64.1136C865.309 64.6742 866.218 64.9545 867.294 64.9545C868.415 64.9545 869.351 64.6591 870.101 64.0682C870.858 63.4697 871.427 62.6667 871.805 61.6591C872.192 60.6439 872.385 59.5152 872.385 58.2727C872.385 57.0455 872.196 55.9394 871.817 54.9545C871.446 53.9621 870.881 53.178 870.124 52.6023C869.374 52.0189 868.43 51.7273 867.294 51.7273C866.203 51.7273 865.286 52.0038 864.544 52.5568C863.802 53.1023 863.241 53.8674 862.862 54.8523C862.483 55.8295 862.294 56.9697 862.294 58.2727ZM884.294 67.4091C883.188 67.4091 882.184 67.2008 881.283 66.7841C880.381 66.3598 879.665 65.75 879.135 64.9545C878.605 64.1515 878.339 63.1818 878.339 62.0455C878.339 61.0455 878.536 60.2348 878.93 59.6136C879.324 58.9848 879.851 58.4924 880.51 58.1364C881.169 57.7803 881.896 57.5152 882.692 57.3409C883.495 57.1591 884.302 57.0152 885.112 56.9091C886.173 56.7727 887.033 56.6705 887.692 56.6023C888.358 56.5265 888.843 56.4015 889.146 56.2273C889.457 56.053 889.612 55.75 889.612 55.3182V55.2273C889.612 54.1061 889.305 53.2348 888.692 52.6136C888.086 51.9924 887.165 51.6818 885.93 51.6818C884.65 51.6818 883.646 51.9621 882.919 52.5227C882.192 53.0833 881.68 53.6818 881.385 54.3182L878.839 53.4091C879.294 52.3485 879.9 51.5227 880.658 50.9318C881.423 50.3333 882.256 49.9167 883.158 49.6818C884.067 49.4394 884.961 49.3182 885.839 49.3182C886.4 49.3182 887.044 49.3864 887.771 49.5227C888.506 49.6515 889.214 49.9205 889.896 50.3295C890.586 50.7386 891.158 51.3561 891.612 52.1818C892.067 53.0076 892.294 54.1136 892.294 55.5V67H889.612V64.6364H889.476C889.294 65.0152 888.991 65.4205 888.567 65.8523C888.143 66.2841 887.578 66.6515 886.874 66.9545C886.169 67.2576 885.309 67.4091 884.294 67.4091ZM884.703 65C885.764 65 886.658 64.7917 887.385 64.375C888.12 63.9583 888.673 63.4205 889.044 62.7614C889.423 62.1023 889.612 61.4091 889.612 60.6818V58.2273C889.499 58.3636 889.249 58.4886 888.862 58.6023C888.483 58.7083 888.044 58.803 887.544 58.8864C887.052 58.9621 886.571 59.0303 886.101 59.0909C885.639 59.1439 885.264 59.1894 884.976 59.2273C884.279 59.3182 883.627 59.4659 883.021 59.6705C882.423 59.8674 881.938 60.1667 881.567 60.5682C881.203 60.9621 881.021 61.5 881.021 62.1818C881.021 63.1136 881.366 63.8182 882.055 64.2955C882.752 64.7652 883.635 65 884.703 65ZM897.189 67V49.5455H899.78V52.1818H899.962C900.28 51.3182 900.856 50.6174 901.689 50.0795C902.522 49.5417 903.462 49.2727 904.507 49.2727C904.704 49.2727 904.95 49.2765 905.246 49.2841C905.541 49.2917 905.765 49.303 905.916 49.3182V52.0455C905.825 52.0227 905.617 51.9886 905.291 51.9432C904.973 51.8902 904.636 51.8636 904.28 51.8636C903.431 51.8636 902.674 52.0417 902.007 52.3977C901.348 52.7462 900.825 53.2311 900.439 53.8523C900.06 54.4659 899.871 55.1667 899.871 55.9545V67H897.189ZM739.185 106.409C738.079 106.409 737.075 106.201 736.173 105.784C735.272 105.36 734.556 104.75 734.026 103.955C733.495 103.152 733.23 102.182 733.23 101.045C733.23 100.045 733.427 99.2348 733.821 98.6136C734.215 97.9848 734.741 97.4924 735.401 97.1364C736.06 96.7803 736.787 96.5152 737.582 96.3409C738.385 96.1591 739.192 96.0152 740.003 95.9091C741.063 95.7727 741.923 95.6705 742.582 95.6023C743.249 95.5265 743.734 95.4015 744.037 95.2273C744.348 95.053 744.503 94.75 744.503 94.3182V94.2273C744.503 93.1061 744.196 92.2348 743.582 91.6136C742.976 90.9924 742.056 90.6818 740.821 90.6818C739.541 90.6818 738.537 90.9621 737.81 91.5227C737.082 92.0833 736.571 92.6818 736.276 93.3182L733.73 92.4091C734.185 91.3485 734.791 90.5227 735.548 89.9318C736.313 89.3333 737.147 88.9167 738.048 88.6818C738.957 88.4394 739.851 88.3182 740.73 88.3182C741.291 88.3182 741.935 88.3864 742.662 88.5227C743.397 88.6515 744.105 88.9205 744.787 89.3295C745.476 89.7386 746.048 90.3561 746.503 91.1818C746.957 92.0076 747.185 93.1136 747.185 94.5V106H744.503V103.636H744.366C744.185 104.015 743.882 104.42 743.457 104.852C743.033 105.284 742.469 105.652 741.764 105.955C741.06 106.258 740.2 106.409 739.185 106.409ZM739.594 104C740.654 104 741.548 103.792 742.276 103.375C743.01 102.958 743.563 102.42 743.935 101.761C744.313 101.102 744.503 100.409 744.503 99.6818V97.2273C744.389 97.3636 744.139 97.4886 743.753 97.6023C743.374 97.7083 742.935 97.803 742.435 97.8864C741.942 97.9621 741.461 98.0303 740.991 98.0909C740.529 98.1439 740.154 98.1894 739.866 98.2273C739.17 98.3182 738.518 98.4659 737.912 98.6705C737.313 98.8674 736.829 99.1667 736.457 99.5682C736.094 99.9621 735.912 100.5 735.912 101.182C735.912 102.114 736.257 102.818 736.946 103.295C737.643 103.765 738.526 104 739.594 104ZM759.17 106.364C757.534 106.364 756.125 105.977 754.943 105.205C753.761 104.432 752.852 103.367 752.216 102.011C751.58 100.655 751.261 99.1061 751.261 97.3636C751.261 95.5909 751.587 94.0265 752.239 92.6705C752.898 91.3068 753.814 90.2424 754.989 89.4773C756.17 88.7045 757.549 88.3182 759.125 88.3182C760.352 88.3182 761.458 88.5455 762.443 89C763.428 89.4545 764.235 90.0909 764.864 90.9091C765.492 91.7273 765.883 92.6818 766.034 93.7727H763.352C763.148 92.9773 762.693 92.2727 761.989 91.6591C761.292 91.0379 760.352 90.7273 759.17 90.7273C758.125 90.7273 757.208 91 756.42 91.5455C755.64 92.0833 755.03 92.8447 754.591 93.8295C754.159 94.8068 753.943 95.9545 753.943 97.2727C753.943 98.6212 754.155 99.7955 754.58 100.795C755.011 101.795 755.617 102.572 756.398 103.125C757.186 103.678 758.11 103.955 759.17 103.955C759.867 103.955 760.5 103.833 761.068 103.591C761.636 103.348 762.117 103 762.511 102.545C762.905 102.091 763.186 101.545 763.352 100.909H766.034C765.883 101.939 765.508 102.867 764.909 103.693C764.318 104.511 763.534 105.163 762.557 105.648C761.587 106.125 760.458 106.364 759.17 106.364ZM777.045 106.364C775.409 106.364 774 105.977 772.818 105.205C771.636 104.432 770.727 103.367 770.091 102.011C769.455 100.655 769.136 99.1061 769.136 97.3636C769.136 95.5909 769.462 94.0265 770.114 92.6705C770.773 91.3068 771.689 90.2424 772.864 89.4773C774.045 88.7045 775.424 88.3182 777 88.3182C778.227 88.3182 779.333 88.5455 780.318 89C781.303 89.4545 782.11 90.0909 782.739 90.9091C783.367 91.7273 783.758 92.6818 783.909 93.7727H781.227C781.023 92.9773 780.568 92.2727 779.864 91.6591C779.167 91.0379 778.227 90.7273 777.045 90.7273C776 90.7273 775.083 91 774.295 91.5455C773.515 92.0833 772.905 92.8447 772.466 93.8295C772.034 94.8068 771.818 95.9545 771.818 97.2727C771.818 98.6212 772.03 99.7955 772.455 100.795C772.886 101.795 773.492 102.572 774.273 103.125C775.061 103.678 775.985 103.955 777.045 103.955C777.742 103.955 778.375 103.833 778.943 103.591C779.511 103.348 779.992 103 780.386 102.545C780.78 102.091 781.061 101.545 781.227 100.909H783.909C783.758 101.939 783.383 102.867 782.784 103.693C782.193 104.511 781.409 105.163 780.432 105.648C779.462 106.125 778.333 106.364 777.045 106.364ZM795.148 106.364C793.466 106.364 792.015 105.992 790.795 105.25C789.583 104.5 788.648 103.455 787.989 102.114C787.337 100.765 787.011 99.197 787.011 97.4091C787.011 95.6212 787.337 94.0455 787.989 92.6818C788.648 91.3106 789.564 90.2424 790.739 89.4773C791.92 88.7045 793.299 88.3182 794.875 88.3182C795.784 88.3182 796.682 88.4697 797.568 88.7727C798.455 89.0758 799.261 89.5682 799.989 90.25C800.716 90.9242 801.295 91.8182 801.727 92.9318C802.159 94.0455 802.375 95.4167 802.375 97.0455V98.1818H788.92V95.8636H799.648C799.648 94.8788 799.451 94 799.057 93.2273C798.67 92.4545 798.117 91.8447 797.398 91.3977C796.686 90.9508 795.845 90.7273 794.875 90.7273C793.807 90.7273 792.883 90.9924 792.102 91.5227C791.33 92.0455 790.735 92.7273 790.318 93.5682C789.902 94.4091 789.693 95.3106 789.693 96.2727V97.8182C789.693 99.1364 789.92 100.254 790.375 101.17C790.837 102.08 791.477 102.773 792.295 103.25C793.114 103.72 794.064 103.955 795.148 103.955C795.852 103.955 796.489 103.856 797.057 103.659C797.633 103.455 798.129 103.152 798.545 102.75C798.962 102.341 799.284 101.833 799.511 101.227L802.102 101.955C801.83 102.833 801.371 103.606 800.727 104.273C800.083 104.932 799.288 105.447 798.341 105.818C797.394 106.182 796.33 106.364 795.148 106.364ZM813.045 106.364C811.591 106.364 810.307 105.996 809.193 105.261C808.08 104.519 807.208 103.473 806.58 102.125C805.951 100.769 805.636 99.1667 805.636 97.3182C805.636 95.4848 805.951 93.8939 806.58 92.5455C807.208 91.197 808.083 90.1553 809.205 89.4205C810.326 88.6856 811.621 88.3182 813.091 88.3182C814.227 88.3182 815.125 88.5076 815.784 88.8864C816.451 89.2576 816.958 89.6818 817.307 90.1591C817.663 90.6288 817.939 91.0152 818.136 91.3182H818.364V82.7273H821.045V106H818.455V103.318H818.136C817.939 103.636 817.659 104.038 817.295 104.523C816.932 105 816.413 105.428 815.739 105.807C815.064 106.178 814.167 106.364 813.045 106.364ZM813.409 103.955C814.485 103.955 815.394 103.674 816.136 103.114C816.879 102.545 817.443 101.761 817.83 100.761C818.216 99.7538 818.409 98.5909 818.409 97.2727C818.409 95.9697 818.22 94.8295 817.841 93.8523C817.462 92.8674 816.902 92.1023 816.159 91.5568C815.417 91.0038 814.5 90.7273 813.409 90.7273C812.273 90.7273 811.326 91.0189 810.568 91.6023C809.818 92.178 809.254 92.9621 808.875 93.9545C808.504 94.9394 808.318 96.0455 808.318 97.2727C808.318 98.5152 808.508 99.6439 808.886 100.659C809.273 101.667 809.841 102.47 810.591 103.068C811.348 103.659 812.288 103.955 813.409 103.955ZM833.648 106.364C831.966 106.364 830.515 105.992 829.295 105.25C828.083 104.5 827.148 103.455 826.489 102.114C825.837 100.765 825.511 99.197 825.511 97.4091C825.511 95.6212 825.837 94.0455 826.489 92.6818C827.148 91.3106 828.064 90.2424 829.239 89.4773C830.42 88.7045 831.799 88.3182 833.375 88.3182C834.284 88.3182 835.182 88.4697 836.068 88.7727C836.955 89.0758 837.761 89.5682 838.489 90.25C839.216 90.9242 839.795 91.8182 840.227 92.9318C840.659 94.0455 840.875 95.4167 840.875 97.0455V98.1818H827.42V95.8636H838.148C838.148 94.8788 837.951 94 837.557 93.2273C837.17 92.4545 836.617 91.8447 835.898 91.3977C835.186 90.9508 834.345 90.7273 833.375 90.7273C832.307 90.7273 831.383 90.9924 830.602 91.5227C829.83 92.0455 829.235 92.7273 828.818 93.5682C828.402 94.4091 828.193 95.3106 828.193 96.2727V97.8182C828.193 99.1364 828.42 100.254 828.875 101.17C829.337 102.08 829.977 102.773 830.795 103.25C831.614 103.72 832.564 103.955 833.648 103.955C834.352 103.955 834.989 103.856 835.557 103.659C836.133 103.455 836.629 103.152 837.045 102.75C837.462 102.341 837.784 101.833 838.011 101.227L840.602 101.955C840.33 102.833 839.871 103.606 839.227 104.273C838.583 104.932 837.788 105.447 836.841 105.818C835.894 106.182 834.83 106.364 833.648 106.364ZM844.955 106V88.5455H847.545V91.1818H847.727C848.045 90.3182 848.621 89.6174 849.455 89.0795C850.288 88.5417 851.227 88.2727 852.273 88.2727C852.47 88.2727 852.716 88.2765 853.011 88.2841C853.307 88.2917 853.53 88.303 853.682 88.3182V91.0455C853.591 91.0227 853.383 90.9886 853.057 90.9432C852.739 90.8902 852.402 90.8636 852.045 90.8636C851.197 90.8636 850.439 91.0417 849.773 91.3977C849.114 91.7462 848.591 92.2311 848.205 92.8523C847.826 93.4659 847.636 94.1667 847.636 94.9545V106H844.955Z" fill="#FADAEF"/>
<rect x="319.75" y="0.75" width="308.5" height="148.5" rx="11.25" fill="#FADAEF" stroke="#292C33" stroke-width="1.5"/>
<path d="M379.506 67V43.7273H382.324V54.0909H394.733V43.7273H397.551V67H394.733V56.5909H382.324V67H379.506ZM407.966 67.4091C406.86 67.4091 405.856 67.2008 404.955 66.7841C404.053 66.3598 403.337 65.75 402.807 64.9545C402.277 64.1515 402.011 63.1818 402.011 62.0455C402.011 61.0455 402.208 60.2348 402.602 59.6136C402.996 58.9848 403.523 58.4924 404.182 58.1364C404.841 57.7803 405.568 57.5152 406.364 57.3409C407.167 57.1591 407.973 57.0152 408.784 56.9091C409.845 56.7727 410.705 56.6705 411.364 56.6023C412.03 56.5265 412.515 56.4015 412.818 56.2273C413.129 56.053 413.284 55.75 413.284 55.3182V55.2273C413.284 54.1061 412.977 53.2348 412.364 52.6136C411.758 51.9924 410.837 51.6818 409.602 51.6818C408.322 51.6818 407.318 51.9621 406.591 52.5227C405.864 53.0833 405.352 53.6818 405.057 54.3182L402.511 53.4091C402.966 52.3485 403.572 51.5227 404.33 50.9318C405.095 50.3333 405.928 49.9167 406.83 49.6818C407.739 49.4394 408.633 49.3182 409.511 49.3182C410.072 49.3182 410.716 49.3864 411.443 49.5227C412.178 49.6515 412.886 49.9205 413.568 50.3295C414.258 50.7386 414.83 51.3561 415.284 52.1818C415.739 53.0076 415.966 54.1136 415.966 55.5V67H413.284V64.6364H413.148C412.966 65.0152 412.663 65.4205 412.239 65.8523C411.814 66.2841 411.25 66.6515 410.545 66.9545C409.841 67.2576 408.981 67.4091 407.966 67.4091ZM408.375 65C409.436 65 410.33 64.7917 411.057 64.375C411.792 63.9583 412.345 63.4205 412.716 62.7614C413.095 62.1023 413.284 61.4091 413.284 60.6818V58.2273C413.17 58.3636 412.92 58.4886 412.534 58.6023C412.155 58.7083 411.716 58.803 411.216 58.8864C410.723 58.9621 410.242 59.0303 409.773 59.0909C409.311 59.1439 408.936 59.1894 408.648 59.2273C407.951 59.3182 407.299 59.4659 406.693 59.6705C406.095 59.8674 405.61 60.1667 405.239 60.5682C404.875 60.9621 404.693 61.5 404.693 62.1818C404.693 63.1136 405.038 63.8182 405.727 64.2955C406.424 64.7652 407.307 65 408.375 65ZM427.952 67.3636C426.315 67.3636 424.906 66.9773 423.724 66.2045C422.543 65.4318 421.634 64.3674 420.997 63.0114C420.361 61.6553 420.043 60.1061 420.043 58.3636C420.043 56.5909 420.368 55.0265 421.02 53.6705C421.679 52.3068 422.596 51.2424 423.77 50.4773C424.952 49.7045 426.33 49.3182 427.906 49.3182C429.134 49.3182 430.24 49.5455 431.224 50C432.209 50.4545 433.016 51.0909 433.645 51.9091C434.274 52.7273 434.664 53.6818 434.815 54.7727H432.134C431.929 53.9773 431.474 53.2727 430.77 52.6591C430.073 52.0379 429.134 51.7273 427.952 51.7273C426.906 51.7273 425.99 52 425.202 52.5455C424.421 53.0833 423.812 53.8447 423.372 54.8295C422.94 55.8068 422.724 56.9545 422.724 58.2727C422.724 59.6212 422.937 60.7955 423.361 61.7955C423.793 62.7955 424.399 63.572 425.179 64.125C425.967 64.678 426.891 64.9545 427.952 64.9545C428.649 64.9545 429.281 64.8333 429.849 64.5909C430.418 64.3485 430.899 64 431.293 63.5455C431.687 63.0909 431.967 62.5455 432.134 61.9091H434.815C434.664 62.9394 434.289 63.8674 433.69 64.6932C433.099 65.5114 432.315 66.1629 431.338 66.6477C430.368 67.125 429.24 67.3636 427.952 67.3636ZM446.054 67.3636C444.372 67.3636 442.921 66.9924 441.702 66.25C440.49 65.5 439.554 64.4545 438.895 63.1136C438.243 61.7652 437.918 60.197 437.918 58.4091C437.918 56.6212 438.243 55.0455 438.895 53.6818C439.554 52.3106 440.471 51.2424 441.645 50.4773C442.827 49.7045 444.205 49.3182 445.781 49.3182C446.69 49.3182 447.588 49.4697 448.474 49.7727C449.361 50.0758 450.168 50.5682 450.895 51.25C451.622 51.9242 452.202 52.8182 452.634 53.9318C453.065 55.0455 453.281 56.4167 453.281 58.0455V59.1818H439.827V56.8636H450.554C450.554 55.8788 450.357 55 449.963 54.2273C449.577 53.4545 449.024 52.8447 448.304 52.3977C447.592 51.9508 446.751 51.7273 445.781 51.7273C444.713 51.7273 443.789 51.9924 443.009 52.5227C442.236 53.0455 441.641 53.7273 441.224 54.5682C440.808 55.4091 440.599 56.3106 440.599 57.2727V58.8182C440.599 60.1364 440.827 61.2538 441.281 62.1705C441.743 63.0795 442.384 63.7727 443.202 64.25C444.02 64.7197 444.971 64.9545 446.054 64.9545C446.759 64.9545 447.395 64.8561 447.963 64.6591C448.539 64.4545 449.035 64.1515 449.452 63.75C449.868 63.3409 450.19 62.8333 450.418 62.2273L453.009 62.9545C452.736 63.8333 452.277 64.6061 451.634 65.2727C450.99 65.9318 450.194 66.447 449.247 66.8182C448.3 67.1818 447.236 67.3636 446.054 67.3636ZM457.361 67V49.5455H459.952V52.1818H460.134C460.452 51.3182 461.027 50.6174 461.861 50.0795C462.694 49.5417 463.634 49.2727 464.679 49.2727C464.876 49.2727 465.122 49.2765 465.418 49.2841C465.713 49.2917 465.937 49.303 466.088 49.3182V52.0455C465.997 52.0227 465.789 51.9886 465.463 51.9432C465.145 51.8902 464.808 51.8636 464.452 51.8636C463.603 51.8636 462.846 52.0417 462.179 52.3977C461.52 52.7462 460.997 53.2311 460.611 53.8523C460.232 54.4659 460.043 55.1667 460.043 55.9545V67H457.361ZM485.858 49.5455V51.8182H476.812V49.5455H485.858ZM479.449 45.3636H482.131V62C482.131 62.7576 482.241 63.3258 482.46 63.7045C482.688 64.0758 482.975 64.3258 483.324 64.4545C483.68 64.5758 484.055 64.6364 484.449 64.6364C484.744 64.6364 484.987 64.6212 485.176 64.5909C485.366 64.553 485.517 64.5227 485.631 64.5L486.176 66.9091C485.994 66.9773 485.741 67.0455 485.415 67.1136C485.089 67.1894 484.676 67.2273 484.176 67.2273C483.419 67.2273 482.676 67.0644 481.949 66.7386C481.229 66.4129 480.631 65.9167 480.153 65.25C479.684 64.5833 479.449 63.7424 479.449 62.7273V45.3636ZM495.028 67.4091C493.922 67.4091 492.919 67.2008 492.017 66.7841C491.116 66.3598 490.4 65.75 489.869 64.9545C489.339 64.1515 489.074 63.1818 489.074 62.0455C489.074 61.0455 489.271 60.2348 489.665 59.6136C490.059 58.9848 490.585 58.4924 491.244 58.1364C491.903 57.7803 492.631 57.5152 493.426 57.3409C494.229 57.1591 495.036 57.0152 495.847 56.9091C496.907 56.7727 497.767 56.6705 498.426 56.6023C499.093 56.5265 499.578 56.4015 499.881 56.2273C500.191 56.053 500.347 55.75 500.347 55.3182V55.2273C500.347 54.1061 500.04 53.2348 499.426 52.6136C498.82 51.9924 497.9 51.6818 496.665 51.6818C495.384 51.6818 494.381 51.9621 493.653 52.5227C492.926 53.0833 492.415 53.6818 492.119 54.3182L489.574 53.4091C490.028 52.3485 490.634 51.5227 491.392 50.9318C492.157 50.3333 492.991 49.9167 493.892 49.6818C494.801 49.4394 495.695 49.3182 496.574 49.3182C497.134 49.3182 497.778 49.3864 498.506 49.5227C499.241 49.6515 499.949 49.9205 500.631 50.3295C501.32 50.7386 501.892 51.3561 502.347 52.1818C502.801 53.0076 503.028 54.1136 503.028 55.5V67H500.347V64.6364H500.21C500.028 65.0152 499.725 65.4205 499.301 65.8523C498.877 66.2841 498.313 66.6515 497.608 66.9545C496.903 67.2576 496.044 67.4091 495.028 67.4091ZM495.438 65C496.498 65 497.392 64.7917 498.119 64.375C498.854 63.9583 499.407 63.4205 499.778 62.7614C500.157 62.1023 500.347 61.4091 500.347 60.6818V58.2273C500.233 58.3636 499.983 58.4886 499.597 58.6023C499.218 58.7083 498.778 58.803 498.278 58.8864C497.786 58.9621 497.305 59.0303 496.835 59.0909C496.373 59.1439 495.998 59.1894 495.71 59.2273C495.013 59.3182 494.362 59.4659 493.756 59.6705C493.157 59.8674 492.672 60.1667 492.301 60.5682C491.938 60.9621 491.756 61.5 491.756 62.1818C491.756 63.1136 492.1 63.8182 492.79 64.2955C493.487 64.7652 494.369 65 495.438 65ZM507.923 73.5455V49.5455H510.514V52.3182H510.832C511.029 52.0152 511.302 51.6288 511.651 51.1591C512.007 50.6818 512.514 50.2576 513.173 49.8864C513.84 49.5076 514.741 49.3182 515.878 49.3182C517.348 49.3182 518.643 49.6856 519.764 50.4205C520.885 51.1553 521.76 52.197 522.389 53.5455C523.018 54.8939 523.332 56.4848 523.332 58.3182C523.332 60.1667 523.018 61.7689 522.389 63.125C521.76 64.4735 520.889 65.5189 519.776 66.2614C518.662 66.9962 517.378 67.3636 515.923 67.3636C514.802 67.3636 513.904 67.178 513.23 66.8068C512.556 66.428 512.037 66 511.673 65.5227C511.31 65.0379 511.029 64.6364 510.832 64.3182H510.605V73.5455H507.923ZM510.56 58.2727C510.56 59.5909 510.753 60.7538 511.139 61.7614C511.526 62.7614 512.09 63.5455 512.832 64.1136C513.575 64.6742 514.484 64.9545 515.56 64.9545C516.681 64.9545 517.616 64.6591 518.366 64.0682C519.124 63.4697 519.692 62.6667 520.071 61.6591C520.457 60.6439 520.651 59.5152 520.651 58.2727C520.651 57.0455 520.461 55.9394 520.082 54.9545C519.711 53.9621 519.147 53.178 518.389 52.6023C517.639 52.0189 516.696 51.7273 515.56 51.7273C514.469 51.7273 513.552 52.0038 512.81 52.5568C512.067 53.1023 511.507 53.8674 511.128 54.8523C510.749 55.8295 510.56 56.9697 510.56 58.2727ZM543.741 67.3636C542.06 67.3636 540.609 66.9924 539.389 66.25C538.177 65.5 537.241 64.4545 536.582 63.1136C535.931 61.7652 535.605 60.197 535.605 58.4091C535.605 56.6212 535.931 55.0455 536.582 53.6818C537.241 52.3106 538.158 51.2424 539.332 50.4773C540.514 49.7045 541.893 49.3182 543.469 49.3182C544.378 49.3182 545.276 49.4697 546.162 49.7727C547.048 50.0758 547.855 50.5682 548.582 51.25C549.31 51.9242 549.889 52.8182 550.321 53.9318C550.753 55.0455 550.969 56.4167 550.969 58.0455V59.1818H537.514V56.8636H548.241C548.241 55.8788 548.045 55 547.651 54.2273C547.264 53.4545 546.711 52.8447 545.991 52.3977C545.279 51.9508 544.438 51.7273 543.469 51.7273C542.401 51.7273 541.476 51.9924 540.696 52.5227C539.923 53.0455 539.329 53.7273 538.912 54.5682C538.495 55.4091 538.287 56.3106 538.287 57.2727V58.8182C538.287 60.1364 538.514 61.2538 538.969 62.1705C539.431 63.0795 540.071 63.7727 540.889 64.25C541.707 64.7197 542.658 64.9545 543.741 64.9545C544.446 64.9545 545.082 64.8561 545.651 64.6591C546.226 64.4545 546.723 64.1515 547.139 63.75C547.556 63.3409 547.878 62.8333 548.105 62.2273L550.696 62.9545C550.423 63.8333 549.965 64.6061 549.321 65.2727C548.677 65.9318 547.882 66.447 546.935 66.8182C545.988 67.1818 544.923 67.3636 543.741 67.3636ZM557.73 56.5V67H555.048V49.5455H557.639V52.2727H557.866C558.276 51.3864 558.897 50.6742 559.73 50.1364C560.563 49.5909 561.639 49.3182 562.957 49.3182C564.139 49.3182 565.173 49.5606 566.06 50.0455C566.946 50.5227 567.635 51.25 568.128 52.2273C568.62 53.197 568.866 54.4242 568.866 55.9091V67H566.185V56.0909C566.185 54.7197 565.829 53.6515 565.116 52.8864C564.404 52.1136 563.427 51.7273 562.185 51.7273C561.329 51.7273 560.563 51.9129 559.889 52.2841C559.223 52.6553 558.696 53.197 558.31 53.9091C557.923 54.6212 557.73 55.4848 557.73 56.5ZM462.851 98.7273H465.942L468.533 102.136L469.214 103.045L473.078 108.182H469.987L467.442 104.773L466.805 103.909L462.851 98.7273ZM474.033 94.3636C474.033 96.8182 473.589 98.9394 472.703 100.727C471.817 102.515 470.601 103.894 469.055 104.864C467.51 105.833 465.745 106.318 463.76 106.318C461.775 106.318 460.01 105.833 458.464 104.864C456.919 103.894 455.703 102.515 454.817 100.727C453.93 98.9394 453.487 96.8182 453.487 94.3636C453.487 91.9091 453.93 89.7879 454.817 88C455.703 86.2121 456.919 84.8333 458.464 83.8636C460.01 82.8939 461.775 82.4091 463.76 82.4091C465.745 82.4091 467.51 82.8939 469.055 83.8636C470.601 84.8333 471.817 86.2121 472.703 88C473.589 89.7879 474.033 91.9091 474.033 94.3636ZM471.305 94.3636C471.305 92.3485 470.968 90.6477 470.294 89.2614C469.627 87.875 468.722 86.8258 467.578 86.1136C466.442 85.4015 465.169 85.0455 463.76 85.0455C462.351 85.0455 461.074 85.4015 459.93 86.1136C458.794 86.8258 457.889 87.875 457.214 89.2614C456.548 90.6477 456.214 92.3485 456.214 94.3636C456.214 96.3788 456.548 98.0795 457.214 99.4659C457.889 100.852 458.794 101.902 459.93 102.614C461.074 103.326 462.351 103.682 463.76 103.682C465.169 103.682 466.442 103.326 467.578 102.614C468.722 101.902 469.627 100.852 470.294 99.4659C470.968 98.0795 471.305 96.3788 471.305 94.3636ZM478.771 106V82.7273H486.635C488.453 82.7273 489.946 83.0379 491.112 83.6591C492.279 84.2727 493.143 85.1174 493.703 86.1932C494.264 87.2689 494.544 88.4924 494.544 89.8636C494.544 91.2348 494.264 92.4508 493.703 93.5114C493.143 94.572 492.283 95.4053 491.124 96.0114C489.964 96.6098 488.483 96.9091 486.68 96.9091H480.317V94.3636H486.589C487.832 94.3636 488.832 94.1818 489.589 93.8182C490.355 93.4545 490.908 92.9394 491.249 92.2727C491.597 91.5985 491.771 90.7955 491.771 89.8636C491.771 88.9318 491.597 88.1174 491.249 87.4205C490.9 86.7235 490.343 86.1856 489.578 85.8068C488.813 85.4205 487.802 85.2273 486.544 85.2273H481.589V106H478.771ZM489.726 95.5455L495.453 106H492.18L486.544 95.5455H489.726Z" fill="#BA007C"/>
</svg>
