<svg width="635" height="392" viewBox="0 0 635 392" fill="none" xmlns="http://www.w3.org/2000/svg">
<path fill-rule="evenodd" clip-rule="evenodd" d="M303.022 18.5391L487.414 152.508L416.982 369.274H189.061L118.629 152.508L303.022 18.5391Z" fill="#E6E6E6" stroke="#C0C0C0"/>
<path fill-rule="evenodd" clip-rule="evenodd" d="M303.022 57.3149L450.536 164.49L394.191 337.903H211.854L155.508 164.49L303.022 57.3149Z" fill="#F5F5F5" stroke="#C0C0C0"/>
<path fill-rule="evenodd" clip-rule="evenodd" d="M303.022 96.0918L413.657 176.473L371.398 306.533H234.645L192.386 176.473L303.022 96.0918Z" fill="#E6E6E6" stroke="#C0C0C0"/>
<path fill-rule="evenodd" clip-rule="evenodd" d="M303.022 134.868L376.779 188.455L348.606 275.162H257.438L229.265 188.455L303.022 134.868Z" fill="#F5F5F5" stroke="#C0C0C0"/>
<path fill-rule="evenodd" clip-rule="evenodd" d="M303.022 173.645L339.9 200.438L325.814 243.792H280.23L266.144 200.438L303.022 173.645Z" fill="#E6E6E6" stroke="#C0C0C0"/>
<path d="M303.022 212.421V18.5391" stroke="#C0C0C0"/>
<path d="M303.022 212.42L487.414 152.507" stroke="#C0C0C0"/>
<path d="M303.022 212.42L416.982 369.274" stroke="#C0C0C0"/>
<path d="M303.022 212.42L189.061 369.274" stroke="#C0C0C0"/>
<path d="M303.022 212.42L118.629 152.507" stroke="#C0C0C0"/>
<path opacity="0.5" fill-rule="evenodd" clip-rule="evenodd" d="M303.022 18.5391L450.536 164.49L371.398 306.533L257.438 275.162L266.143 200.438L303.022 18.5391Z" fill="#BA007C"/>
<path fill-rule="evenodd" clip-rule="evenodd" d="M303.022 18.5391L450.536 164.49L371.398 306.533L257.438 275.162L266.143 200.438L303.022 18.5391Z" stroke="#BA007C" stroke-width="2"/>
<circle cx="303.022" cy="18.5387" r="3.4542" fill="#E391C8" stroke="#BA007C" stroke-width="2"/>
<circle cx="450.535" cy="164.49" r="3.4542" fill="#E391C8" stroke="#BA007C" stroke-width="2"/>
<circle cx="371.398" cy="306.533" r="3.4542" fill="#E391C8" stroke="#BA007C" stroke-width="2"/>
<circle cx="257.437" cy="275.161" r="3.4542" fill="#E391C8" stroke="#BA007C" stroke-width="2"/>
<circle cx="266.143" cy="200.438" r="3.4542" fill="#E391C8" stroke="#BA007C" stroke-width="2"/>
<path d="M230.537 0.78125H235.566C236.647 0.78125 237.568 0.94401 238.33 1.26953C239.092 1.59505 239.674 2.07682 240.078 2.71484C240.488 3.34635 240.693 4.1276 240.693 5.05859C240.693 5.76823 240.563 6.39323 240.303 6.93359C240.042 7.47396 239.674 7.92969 239.199 8.30078C238.724 8.66536 238.158 8.94857 237.5 9.15039L236.758 9.51172H232.236L232.217 7.56836H235.605C236.191 7.56836 236.68 7.46419 237.07 7.25586C237.461 7.04753 237.754 6.76432 237.949 6.40625C238.151 6.04167 238.252 5.63151 238.252 5.17578C238.252 4.68099 238.154 4.2513 237.959 3.88672C237.77 3.51562 237.477 3.23242 237.08 3.03711C236.683 2.83529 236.178 2.73438 235.566 2.73438H232.988V15H230.537V0.78125ZM238.652 15L235.312 8.61328L237.881 8.60352L241.27 14.873V15H238.652ZM247.559 15.1953C246.777 15.1953 246.071 15.0684 245.439 14.8145C244.814 14.554 244.281 14.1927 243.838 13.7305C243.402 13.2682 243.066 12.7246 242.832 12.0996C242.598 11.4746 242.48 10.8008 242.48 10.0781V9.6875C242.48 8.86068 242.601 8.11198 242.842 7.44141C243.083 6.77083 243.418 6.19792 243.848 5.72266C244.277 5.24089 244.785 4.87305 245.371 4.61914C245.957 4.36523 246.592 4.23828 247.275 4.23828C248.031 4.23828 248.691 4.36523 249.258 4.61914C249.824 4.87305 250.293 5.23112 250.664 5.69336C251.042 6.14909 251.322 6.69271 251.504 7.32422C251.693 7.95573 251.787 8.65234 251.787 9.41406V10.4199H243.623V8.73047H249.463V8.54492C249.45 8.12174 249.365 7.72461 249.209 7.35352C249.059 6.98242 248.828 6.68294 248.516 6.45508C248.203 6.22721 247.786 6.11328 247.266 6.11328C246.875 6.11328 246.527 6.19792 246.221 6.36719C245.921 6.52995 245.671 6.76758 245.469 7.08008C245.267 7.39258 245.111 7.77018 245 8.21289C244.896 8.64909 244.844 9.14062 244.844 9.6875V10.0781C244.844 10.5404 244.906 10.9701 245.029 11.3672C245.16 11.7578 245.348 12.0996 245.596 12.3926C245.843 12.6855 246.143 12.9167 246.494 13.0859C246.846 13.2487 247.246 13.3301 247.695 13.3301C248.262 13.3301 248.766 13.2161 249.209 12.9883C249.652 12.7604 250.036 12.4382 250.361 12.0215L251.602 13.2227C251.374 13.5547 251.077 13.8737 250.713 14.1797C250.348 14.4792 249.902 14.7233 249.375 14.9121C248.854 15.1009 248.249 15.1953 247.559 15.1953ZM259.551 12.1387C259.551 11.9043 259.492 11.6927 259.375 11.5039C259.258 11.3086 259.033 11.1328 258.701 10.9766C258.376 10.8203 257.894 10.6771 257.256 10.5469C256.696 10.4232 256.182 10.2767 255.713 10.1074C255.251 9.93164 254.854 9.72005 254.521 9.47266C254.189 9.22526 253.932 8.93229 253.75 8.59375C253.568 8.25521 253.477 7.86458 253.477 7.42188C253.477 6.99219 253.571 6.58529 253.76 6.20117C253.949 5.81706 254.219 5.47852 254.57 5.18555C254.922 4.89258 255.348 4.66146 255.85 4.49219C256.357 4.32292 256.924 4.23828 257.549 4.23828C258.434 4.23828 259.193 4.38802 259.824 4.6875C260.462 4.98047 260.951 5.38086 261.289 5.88867C261.628 6.38997 261.797 6.95638 261.797 7.58789H259.443C259.443 7.30794 259.372 7.04753 259.229 6.80664C259.092 6.55924 258.883 6.36068 258.604 6.21094C258.324 6.05469 257.972 5.97656 257.549 5.97656C257.145 5.97656 256.81 6.04167 256.543 6.17188C256.283 6.29557 256.087 6.45833 255.957 6.66016C255.833 6.86198 255.771 7.08333 255.771 7.32422C255.771 7.5 255.804 7.65951 255.869 7.80273C255.941 7.93945 256.058 8.06641 256.221 8.18359C256.383 8.29427 256.605 8.39844 256.885 8.49609C257.171 8.59375 257.529 8.68815 257.959 8.7793C258.766 8.94857 259.46 9.16667 260.039 9.43359C260.625 9.69401 261.074 10.0326 261.387 10.4492C261.699 10.8594 261.855 11.3802 261.855 12.0117C261.855 12.4805 261.755 12.9102 261.553 13.3008C261.357 13.6849 261.071 14.0202 260.693 14.3066C260.316 14.5866 259.863 14.8047 259.336 14.9609C258.815 15.1172 258.229 15.1953 257.578 15.1953C256.621 15.1953 255.811 15.026 255.146 14.6875C254.482 14.3424 253.978 13.903 253.633 13.3691C253.294 12.8288 253.125 12.2689 253.125 11.6895H255.4C255.426 12.1257 255.547 12.474 255.762 12.7344C255.983 12.9883 256.257 13.1738 256.582 13.291C256.914 13.4017 257.256 13.457 257.607 13.457C258.031 13.457 258.385 13.4017 258.672 13.291C258.958 13.1738 259.176 13.0176 259.326 12.8223C259.476 12.6204 259.551 12.3926 259.551 12.1387ZM268.574 15.1953C267.793 15.1953 267.087 15.0684 266.455 14.8145C265.83 14.554 265.296 14.1927 264.854 13.7305C264.417 13.2682 264.082 12.7246 263.848 12.0996C263.613 11.4746 263.496 10.8008 263.496 10.0781V9.6875C263.496 8.86068 263.617 8.11198 263.857 7.44141C264.098 6.77083 264.434 6.19792 264.863 5.72266C265.293 5.24089 265.801 4.87305 266.387 4.61914C266.973 4.36523 267.607 4.23828 268.291 4.23828C269.046 4.23828 269.707 4.36523 270.273 4.61914C270.84 4.87305 271.309 5.23112 271.68 5.69336C272.057 6.14909 272.337 6.69271 272.52 7.32422C272.708 7.95573 272.803 8.65234 272.803 9.41406V10.4199H264.639V8.73047H270.479V8.54492C270.465 8.12174 270.381 7.72461 270.225 7.35352C270.075 6.98242 269.844 6.68294 269.531 6.45508C269.219 6.22721 268.802 6.11328 268.281 6.11328C267.891 6.11328 267.542 6.19792 267.236 6.36719C266.937 6.52995 266.686 6.76758 266.484 7.08008C266.283 7.39258 266.126 7.77018 266.016 8.21289C265.911 8.64909 265.859 9.14062 265.859 9.6875V10.0781C265.859 10.5404 265.921 10.9701 266.045 11.3672C266.175 11.7578 266.364 12.0996 266.611 12.3926C266.859 12.6855 267.158 12.9167 267.51 13.0859C267.861 13.2487 268.262 13.3301 268.711 13.3301C269.277 13.3301 269.782 13.2161 270.225 12.9883C270.667 12.7604 271.051 12.4382 271.377 12.0215L272.617 13.2227C272.389 13.5547 272.093 13.8737 271.729 14.1797C271.364 14.4792 270.918 14.7233 270.391 14.9121C269.87 15.1009 269.264 15.1953 268.574 15.1953ZM277.002 6.44531V15H274.648V4.43359H276.895L277.002 6.44531ZM280.234 4.36523L280.215 6.55273C280.072 6.52669 279.915 6.50716 279.746 6.49414C279.583 6.48112 279.421 6.47461 279.258 6.47461C278.854 6.47461 278.499 6.5332 278.193 6.65039C277.887 6.76107 277.63 6.92383 277.422 7.13867C277.22 7.34701 277.064 7.60091 276.953 7.90039C276.842 8.19987 276.777 8.53516 276.758 8.90625L276.221 8.94531C276.221 8.28125 276.286 7.66602 276.416 7.09961C276.546 6.5332 276.742 6.03516 277.002 5.60547C277.269 5.17578 277.601 4.84049 277.998 4.59961C278.402 4.35872 278.867 4.23828 279.395 4.23828C279.538 4.23828 279.691 4.2513 279.854 4.27734C280.023 4.30339 280.15 4.33268 280.234 4.36523ZM285.322 13.1348L287.91 4.43359H290.352L286.68 15H285.156L285.322 13.1348ZM283.34 4.43359L285.977 13.1738L286.104 15H284.58L280.889 4.43359H283.34ZM297.607 12.8809V7.8418C297.607 7.46419 297.539 7.13867 297.402 6.86523C297.266 6.5918 297.057 6.38021 296.777 6.23047C296.504 6.08073 296.159 6.00586 295.742 6.00586C295.358 6.00586 295.026 6.07096 294.746 6.20117C294.466 6.33138 294.248 6.50716 294.092 6.72852C293.936 6.94987 293.857 7.20052 293.857 7.48047H291.514C291.514 7.0638 291.615 6.66016 291.816 6.26953C292.018 5.87891 292.311 5.5306 292.695 5.22461C293.079 4.91862 293.538 4.67773 294.072 4.50195C294.606 4.32617 295.205 4.23828 295.869 4.23828C296.663 4.23828 297.367 4.37174 297.979 4.63867C298.597 4.9056 299.082 5.30924 299.434 5.84961C299.792 6.38346 299.971 7.05404 299.971 7.86133V12.5586C299.971 13.0404 300.003 13.4733 300.068 13.8574C300.14 14.235 300.241 14.5638 300.371 14.8438V15H297.959C297.848 14.7461 297.76 14.4238 297.695 14.0332C297.637 13.6361 297.607 13.252 297.607 12.8809ZM297.949 8.57422L297.969 10.0293H296.279C295.843 10.0293 295.459 10.0716 295.127 10.1562C294.795 10.2344 294.518 10.3516 294.297 10.5078C294.076 10.6641 293.91 10.8529 293.799 11.0742C293.688 11.2956 293.633 11.5462 293.633 11.8262C293.633 12.1061 293.698 12.3633 293.828 12.5977C293.958 12.8255 294.147 13.0046 294.395 13.1348C294.648 13.265 294.954 13.3301 295.312 13.3301C295.794 13.3301 296.214 13.2324 296.572 13.0371C296.937 12.8353 297.223 12.5911 297.432 12.3047C297.64 12.0117 297.751 11.735 297.764 11.4746L298.525 12.5195C298.447 12.7865 298.314 13.0729 298.125 13.3789C297.936 13.6849 297.689 13.9779 297.383 14.2578C297.083 14.5312 296.722 14.7559 296.299 14.9316C295.882 15.1074 295.4 15.1953 294.854 15.1953C294.163 15.1953 293.548 15.0586 293.008 14.7852C292.467 14.5052 292.044 14.1309 291.738 13.6621C291.432 13.1868 291.279 12.6497 291.279 12.0508C291.279 11.4909 291.383 10.9961 291.592 10.5664C291.807 10.1302 292.119 9.76562 292.529 9.47266C292.946 9.17969 293.454 8.95833 294.053 8.80859C294.652 8.65234 295.335 8.57422 296.104 8.57422H297.949ZM304.795 6.44531V15H302.441V4.43359H304.688L304.795 6.44531ZM308.027 4.36523L308.008 6.55273C307.865 6.52669 307.708 6.50716 307.539 6.49414C307.376 6.48112 307.214 6.47461 307.051 6.47461C306.647 6.47461 306.292 6.5332 305.986 6.65039C305.68 6.76107 305.423 6.92383 305.215 7.13867C305.013 7.34701 304.857 7.60091 304.746 7.90039C304.635 8.19987 304.57 8.53516 304.551 8.90625L304.014 8.94531C304.014 8.28125 304.079 7.66602 304.209 7.09961C304.339 6.5332 304.535 6.03516 304.795 5.60547C305.062 5.17578 305.394 4.84049 305.791 4.59961C306.195 4.35872 306.66 4.23828 307.188 4.23828C307.331 4.23828 307.484 4.2513 307.646 4.27734C307.816 4.30339 307.943 4.33268 308.027 4.36523ZM318.799 13.3203C319.183 13.3203 319.528 13.2454 319.834 13.0957C320.146 12.9395 320.397 12.7246 320.586 12.4512C320.781 12.1777 320.889 11.862 320.908 11.5039H323.125C323.112 12.1875 322.91 12.8092 322.52 13.3691C322.129 13.929 321.611 14.375 320.967 14.707C320.322 15.0326 319.609 15.1953 318.828 15.1953C318.021 15.1953 317.318 15.0586 316.719 14.7852C316.12 14.5052 315.622 14.1211 315.225 13.6328C314.827 13.1445 314.528 12.5814 314.326 11.9434C314.131 11.3053 314.033 10.6217 314.033 9.89258V9.55078C314.033 8.82161 314.131 8.13802 314.326 7.5C314.528 6.85547 314.827 6.28906 315.225 5.80078C315.622 5.3125 316.12 4.93164 316.719 4.6582C317.318 4.37826 318.018 4.23828 318.818 4.23828C319.665 4.23828 320.407 4.40755 321.045 4.74609C321.683 5.07812 322.184 5.54362 322.549 6.14258C322.92 6.73503 323.112 7.42513 323.125 8.21289H320.908C320.889 7.82227 320.791 7.4707 320.615 7.1582C320.446 6.83919 320.205 6.58529 319.893 6.39648C319.587 6.20768 319.219 6.11328 318.789 6.11328C318.314 6.11328 317.92 6.21094 317.607 6.40625C317.295 6.59505 317.051 6.85547 316.875 7.1875C316.699 7.51302 316.572 7.88086 316.494 8.29102C316.423 8.69466 316.387 9.11458 316.387 9.55078V9.89258C316.387 10.3288 316.423 10.752 316.494 11.1621C316.566 11.5723 316.689 11.9401 316.865 12.2656C317.048 12.5846 317.295 12.8418 317.607 13.0371C317.92 13.2259 318.317 13.3203 318.799 13.3203ZM327.451 0V15H325.088V0H327.451ZM335.986 12.8809V7.8418C335.986 7.46419 335.918 7.13867 335.781 6.86523C335.645 6.5918 335.436 6.38021 335.156 6.23047C334.883 6.08073 334.538 6.00586 334.121 6.00586C333.737 6.00586 333.405 6.07096 333.125 6.20117C332.845 6.33138 332.627 6.50716 332.471 6.72852C332.314 6.94987 332.236 7.20052 332.236 7.48047H329.893C329.893 7.0638 329.993 6.66016 330.195 6.26953C330.397 5.87891 330.69 5.5306 331.074 5.22461C331.458 4.91862 331.917 4.67773 332.451 4.50195C332.985 4.32617 333.584 4.23828 334.248 4.23828C335.042 4.23828 335.745 4.37174 336.357 4.63867C336.976 4.9056 337.461 5.30924 337.812 5.84961C338.171 6.38346 338.35 7.05404 338.35 7.86133V12.5586C338.35 13.0404 338.382 13.4733 338.447 13.8574C338.519 14.235 338.62 14.5638 338.75 14.8438V15H336.338C336.227 14.7461 336.139 14.4238 336.074 14.0332C336.016 13.6361 335.986 13.252 335.986 12.8809ZM336.328 8.57422L336.348 10.0293H334.658C334.222 10.0293 333.838 10.0716 333.506 10.1562C333.174 10.2344 332.897 10.3516 332.676 10.5078C332.454 10.6641 332.288 10.8529 332.178 11.0742C332.067 11.2956 332.012 11.5462 332.012 11.8262C332.012 12.1061 332.077 12.3633 332.207 12.5977C332.337 12.8255 332.526 13.0046 332.773 13.1348C333.027 13.265 333.333 13.3301 333.691 13.3301C334.173 13.3301 334.593 13.2324 334.951 13.0371C335.316 12.8353 335.602 12.5911 335.811 12.3047C336.019 12.0117 336.13 11.735 336.143 11.4746L336.904 12.5195C336.826 12.7865 336.693 13.0729 336.504 13.3789C336.315 13.6849 336.068 13.9779 335.762 14.2578C335.462 14.5312 335.101 14.7559 334.678 14.9316C334.261 15.1074 333.779 15.1953 333.232 15.1953C332.542 15.1953 331.927 15.0586 331.387 14.7852C330.846 14.5052 330.423 14.1309 330.117 13.6621C329.811 13.1868 329.658 12.6497 329.658 12.0508C329.658 11.4909 329.762 10.9961 329.971 10.5664C330.186 10.1302 330.498 9.76562 330.908 9.47266C331.325 9.17969 331.833 8.95833 332.432 8.80859C333.031 8.65234 333.714 8.57422 334.482 8.57422H336.328ZM346.738 12.1387C346.738 11.9043 346.68 11.6927 346.562 11.5039C346.445 11.3086 346.221 11.1328 345.889 10.9766C345.563 10.8203 345.081 10.6771 344.443 10.5469C343.883 10.4232 343.369 10.2767 342.9 10.1074C342.438 9.93164 342.041 9.72005 341.709 9.47266C341.377 9.22526 341.12 8.93229 340.938 8.59375C340.755 8.25521 340.664 7.86458 340.664 7.42188C340.664 6.99219 340.758 6.58529 340.947 6.20117C341.136 5.81706 341.406 5.47852 341.758 5.18555C342.109 4.89258 342.536 4.66146 343.037 4.49219C343.545 4.32292 344.111 4.23828 344.736 4.23828C345.622 4.23828 346.38 4.38802 347.012 4.6875C347.65 4.98047 348.138 5.38086 348.477 5.88867C348.815 6.38997 348.984 6.95638 348.984 7.58789H346.631C346.631 7.30794 346.559 7.04753 346.416 6.80664C346.279 6.55924 346.071 6.36068 345.791 6.21094C345.511 6.05469 345.16 5.97656 344.736 5.97656C344.333 5.97656 343.997 6.04167 343.73 6.17188C343.47 6.29557 343.275 6.45833 343.145 6.66016C343.021 6.86198 342.959 7.08333 342.959 7.32422C342.959 7.5 342.992 7.65951 343.057 7.80273C343.128 7.93945 343.245 8.06641 343.408 8.18359C343.571 8.29427 343.792 8.39844 344.072 8.49609C344.359 8.59375 344.717 8.68815 345.146 8.7793C345.954 8.94857 346.647 9.16667 347.227 9.43359C347.812 9.69401 348.262 10.0326 348.574 10.4492C348.887 10.8594 349.043 11.3802 349.043 12.0117C349.043 12.4805 348.942 12.9102 348.74 13.3008C348.545 13.6849 348.258 14.0202 347.881 14.3066C347.503 14.5866 347.051 14.8047 346.523 14.9609C346.003 15.1172 345.417 15.1953 344.766 15.1953C343.809 15.1953 342.998 15.026 342.334 14.6875C341.67 14.3424 341.165 13.903 340.82 13.3691C340.482 12.8288 340.312 12.2689 340.312 11.6895H342.588C342.614 12.1257 342.734 12.474 342.949 12.7344C343.171 12.9883 343.444 13.1738 343.77 13.291C344.102 13.4017 344.443 13.457 344.795 13.457C345.218 13.457 345.573 13.4017 345.859 13.291C346.146 13.1738 346.364 13.0176 346.514 12.8223C346.663 12.6204 346.738 12.3926 346.738 12.1387ZM355.762 15.1953C354.98 15.1953 354.274 15.0684 353.643 14.8145C353.018 14.554 352.484 14.1927 352.041 13.7305C351.605 13.2682 351.27 12.7246 351.035 12.0996C350.801 11.4746 350.684 10.8008 350.684 10.0781V9.6875C350.684 8.86068 350.804 8.11198 351.045 7.44141C351.286 6.77083 351.621 6.19792 352.051 5.72266C352.48 5.24089 352.988 4.87305 353.574 4.61914C354.16 4.36523 354.795 4.23828 355.479 4.23828C356.234 4.23828 356.895 4.36523 357.461 4.61914C358.027 4.87305 358.496 5.23112 358.867 5.69336C359.245 6.14909 359.525 6.69271 359.707 7.32422C359.896 7.95573 359.99 8.65234 359.99 9.41406V10.4199H351.826V8.73047H357.666V8.54492C357.653 8.12174 357.568 7.72461 357.412 7.35352C357.262 6.98242 357.031 6.68294 356.719 6.45508C356.406 6.22721 355.99 6.11328 355.469 6.11328C355.078 6.11328 354.73 6.19792 354.424 6.36719C354.124 6.52995 353.874 6.76758 353.672 7.08008C353.47 7.39258 353.314 7.77018 353.203 8.21289C353.099 8.64909 353.047 9.14062 353.047 9.6875V10.0781C353.047 10.5404 353.109 10.9701 353.232 11.3672C353.363 11.7578 353.551 12.0996 353.799 12.3926C354.046 12.6855 354.346 12.9167 354.697 13.0859C355.049 13.2487 355.449 13.3301 355.898 13.3301C356.465 13.3301 356.969 13.2161 357.412 12.9883C357.855 12.7604 358.239 12.4382 358.564 12.0215L359.805 13.2227C359.577 13.5547 359.281 13.8737 358.916 14.1797C358.551 14.4792 358.105 14.7233 357.578 14.9121C357.057 15.1009 356.452 15.1953 355.762 15.1953ZM367.754 12.1387C367.754 11.9043 367.695 11.6927 367.578 11.5039C367.461 11.3086 367.236 11.1328 366.904 10.9766C366.579 10.8203 366.097 10.6771 365.459 10.5469C364.899 10.4232 364.385 10.2767 363.916 10.1074C363.454 9.93164 363.057 9.72005 362.725 9.47266C362.393 9.22526 362.135 8.93229 361.953 8.59375C361.771 8.25521 361.68 7.86458 361.68 7.42188C361.68 6.99219 361.774 6.58529 361.963 6.20117C362.152 5.81706 362.422 5.47852 362.773 5.18555C363.125 4.89258 363.551 4.66146 364.053 4.49219C364.561 4.32292 365.127 4.23828 365.752 4.23828C366.637 4.23828 367.396 4.38802 368.027 4.6875C368.665 4.98047 369.154 5.38086 369.492 5.88867C369.831 6.38997 370 6.95638 370 7.58789H367.646C367.646 7.30794 367.575 7.04753 367.432 6.80664C367.295 6.55924 367.087 6.36068 366.807 6.21094C366.527 6.05469 366.175 5.97656 365.752 5.97656C365.348 5.97656 365.013 6.04167 364.746 6.17188C364.486 6.29557 364.29 6.45833 364.16 6.66016C364.036 6.86198 363.975 7.08333 363.975 7.32422C363.975 7.5 364.007 7.65951 364.072 7.80273C364.144 7.93945 364.261 8.06641 364.424 8.18359C364.587 8.29427 364.808 8.39844 365.088 8.49609C365.374 8.59375 365.732 8.68815 366.162 8.7793C366.969 8.94857 367.663 9.16667 368.242 9.43359C368.828 9.69401 369.277 10.0326 369.59 10.4492C369.902 10.8594 370.059 11.3802 370.059 12.0117C370.059 12.4805 369.958 12.9102 369.756 13.3008C369.561 13.6849 369.274 14.0202 368.896 14.3066C368.519 14.5866 368.066 14.8047 367.539 14.9609C367.018 15.1172 366.432 15.1953 365.781 15.1953C364.824 15.1953 364.014 15.026 363.35 14.6875C362.686 14.3424 362.181 13.903 361.836 13.3691C361.497 12.8288 361.328 12.2689 361.328 11.6895H363.604C363.63 12.1257 363.75 12.474 363.965 12.7344C364.186 12.9883 364.46 13.1738 364.785 13.291C365.117 13.4017 365.459 13.457 365.811 13.457C366.234 13.457 366.589 13.4017 366.875 13.291C367.161 13.1738 367.38 13.0176 367.529 12.8223C367.679 12.6204 367.754 12.3926 367.754 12.1387Z" fill="#BA007C"/>
<path d="M496.785 144.784L492.537 157.108H489.969L495.32 142.89H496.961L496.785 144.784ZM500.34 157.108L496.082 144.784L495.896 142.89H497.547L502.918 157.108H500.34ZM500.135 151.835V153.778H492.4V151.835H500.135ZM508.592 155.429C508.976 155.429 509.321 155.354 509.627 155.204C509.939 155.048 510.19 154.833 510.379 154.56C510.574 154.286 510.682 153.97 510.701 153.612H512.918C512.905 154.296 512.703 154.918 512.312 155.478C511.922 156.037 511.404 156.483 510.76 156.815C510.115 157.141 509.402 157.304 508.621 157.304C507.814 157.304 507.111 157.167 506.512 156.894C505.913 156.614 505.415 156.229 505.018 155.741C504.62 155.253 504.321 154.69 504.119 154.052C503.924 153.414 503.826 152.73 503.826 152.001V151.659C503.826 150.93 503.924 150.246 504.119 149.608C504.321 148.964 504.62 148.397 505.018 147.909C505.415 147.421 505.913 147.04 506.512 146.767C507.111 146.487 507.811 146.347 508.611 146.347C509.458 146.347 510.2 146.516 510.838 146.854C511.476 147.187 511.977 147.652 512.342 148.251C512.713 148.843 512.905 149.534 512.918 150.321H510.701C510.682 149.931 510.584 149.579 510.408 149.267C510.239 148.948 509.998 148.694 509.686 148.505C509.38 148.316 509.012 148.222 508.582 148.222C508.107 148.222 507.713 148.319 507.4 148.515C507.088 148.703 506.844 148.964 506.668 149.296C506.492 149.621 506.365 149.989 506.287 150.399C506.215 150.803 506.18 151.223 506.18 151.659V152.001C506.18 152.437 506.215 152.86 506.287 153.271C506.359 153.681 506.482 154.049 506.658 154.374C506.84 154.693 507.088 154.95 507.4 155.146C507.713 155.334 508.11 155.429 508.592 155.429ZM519.041 155.429C519.425 155.429 519.77 155.354 520.076 155.204C520.389 155.048 520.639 154.833 520.828 154.56C521.023 154.286 521.131 153.97 521.15 153.612H523.367C523.354 154.296 523.152 154.918 522.762 155.478C522.371 156.037 521.854 156.483 521.209 156.815C520.564 157.141 519.852 157.304 519.07 157.304C518.263 157.304 517.56 157.167 516.961 156.894C516.362 156.614 515.864 156.229 515.467 155.741C515.07 155.253 514.77 154.69 514.568 154.052C514.373 153.414 514.275 152.73 514.275 152.001V151.659C514.275 150.93 514.373 150.246 514.568 149.608C514.77 148.964 515.07 148.397 515.467 147.909C515.864 147.421 516.362 147.04 516.961 146.767C517.56 146.487 518.26 146.347 519.061 146.347C519.907 146.347 520.649 146.516 521.287 146.854C521.925 147.187 522.426 147.652 522.791 148.251C523.162 148.843 523.354 149.534 523.367 150.321H521.15C521.131 149.931 521.033 149.579 520.857 149.267C520.688 148.948 520.447 148.694 520.135 148.505C519.829 148.316 519.461 148.222 519.031 148.222C518.556 148.222 518.162 148.319 517.85 148.515C517.537 148.703 517.293 148.964 517.117 149.296C516.941 149.621 516.814 149.989 516.736 150.399C516.665 150.803 516.629 151.223 516.629 151.659V152.001C516.629 152.437 516.665 152.86 516.736 153.271C516.808 153.681 516.932 154.049 517.107 154.374C517.29 154.693 517.537 154.95 517.85 155.146C518.162 155.334 518.559 155.429 519.041 155.429ZM529.832 157.304C529.051 157.304 528.344 157.177 527.713 156.923C527.088 156.662 526.554 156.301 526.111 155.839C525.675 155.377 525.34 154.833 525.105 154.208C524.871 153.583 524.754 152.909 524.754 152.187V151.796C524.754 150.969 524.874 150.22 525.115 149.55C525.356 148.879 525.691 148.306 526.121 147.831C526.551 147.349 527.059 146.981 527.645 146.728C528.23 146.474 528.865 146.347 529.549 146.347C530.304 146.347 530.965 146.474 531.531 146.728C532.098 146.981 532.566 147.34 532.938 147.802C533.315 148.257 533.595 148.801 533.777 149.433C533.966 150.064 534.061 150.761 534.061 151.522V152.528H525.896V150.839H531.736V150.653C531.723 150.23 531.639 149.833 531.482 149.462C531.333 149.091 531.102 148.791 530.789 148.563C530.477 148.336 530.06 148.222 529.539 148.222C529.148 148.222 528.8 148.306 528.494 148.476C528.195 148.638 527.944 148.876 527.742 149.188C527.54 149.501 527.384 149.879 527.273 150.321C527.169 150.757 527.117 151.249 527.117 151.796V152.187C527.117 152.649 527.179 153.078 527.303 153.476C527.433 153.866 527.622 154.208 527.869 154.501C528.117 154.794 528.416 155.025 528.768 155.194C529.119 155.357 529.52 155.438 529.969 155.438C530.535 155.438 531.04 155.325 531.482 155.097C531.925 154.869 532.309 154.547 532.635 154.13L533.875 155.331C533.647 155.663 533.351 155.982 532.986 156.288C532.622 156.588 532.176 156.832 531.648 157.021C531.128 157.209 530.522 157.304 529.832 157.304ZM542.342 154.921V142.108H544.705V157.108H542.566L542.342 154.921ZM535.467 151.942V151.737C535.467 150.937 535.561 150.207 535.75 149.55C535.939 148.886 536.212 148.316 536.57 147.841C536.928 147.359 537.365 146.991 537.879 146.737C538.393 146.477 538.973 146.347 539.617 146.347C540.255 146.347 540.815 146.47 541.297 146.718C541.779 146.965 542.189 147.32 542.527 147.782C542.866 148.238 543.136 148.785 543.338 149.423C543.54 150.054 543.683 150.757 543.768 151.532V152.187C543.683 152.942 543.54 153.632 543.338 154.257C543.136 154.882 542.866 155.422 542.527 155.878C542.189 156.334 541.775 156.685 541.287 156.933C540.805 157.18 540.242 157.304 539.598 157.304C538.96 157.304 538.383 157.17 537.869 156.903C537.361 156.636 536.928 156.262 536.57 155.78C536.212 155.299 535.939 154.732 535.75 154.081C535.561 153.424 535.467 152.711 535.467 151.942ZM537.82 151.737V151.942C537.82 152.424 537.863 152.873 537.947 153.29C538.038 153.707 538.178 154.075 538.367 154.394C538.556 154.706 538.8 154.953 539.1 155.136C539.406 155.312 539.77 155.399 540.193 155.399C540.727 155.399 541.167 155.282 541.512 155.048C541.857 154.813 542.127 154.498 542.322 154.101C542.524 153.697 542.661 153.248 542.732 152.753V150.985C542.693 150.601 542.612 150.243 542.488 149.911C542.371 149.579 542.212 149.289 542.01 149.042C541.808 148.788 541.557 148.593 541.258 148.456C540.965 148.313 540.617 148.241 540.213 148.241C539.783 148.241 539.419 148.332 539.119 148.515C538.82 148.697 538.572 148.948 538.377 149.267C538.188 149.586 538.048 149.957 537.957 150.38C537.866 150.803 537.82 151.256 537.82 151.737ZM551.824 157.304C551.043 157.304 550.337 157.177 549.705 156.923C549.08 156.662 548.546 156.301 548.104 155.839C547.667 155.377 547.332 154.833 547.098 154.208C546.863 153.583 546.746 152.909 546.746 152.187V151.796C546.746 150.969 546.867 150.22 547.107 149.55C547.348 148.879 547.684 148.306 548.113 147.831C548.543 147.349 549.051 146.981 549.637 146.728C550.223 146.474 550.857 146.347 551.541 146.347C552.296 146.347 552.957 146.474 553.523 146.728C554.09 146.981 554.559 147.34 554.93 147.802C555.307 148.257 555.587 148.801 555.77 149.433C555.958 150.064 556.053 150.761 556.053 151.522V152.528H547.889V150.839H553.729V150.653C553.715 150.23 553.631 149.833 553.475 149.462C553.325 149.091 553.094 148.791 552.781 148.563C552.469 148.336 552.052 148.222 551.531 148.222C551.141 148.222 550.792 148.306 550.486 148.476C550.187 148.638 549.936 148.876 549.734 149.188C549.533 149.501 549.376 149.879 549.266 150.321C549.161 150.757 549.109 151.249 549.109 151.796V152.187C549.109 152.649 549.171 153.078 549.295 153.476C549.425 153.866 549.614 154.208 549.861 154.501C550.109 154.794 550.408 155.025 550.76 155.194C551.111 155.357 551.512 155.438 551.961 155.438C552.527 155.438 553.032 155.325 553.475 155.097C553.917 154.869 554.301 154.547 554.627 154.13L555.867 155.331C555.639 155.663 555.343 155.982 554.979 156.288C554.614 156.588 554.168 156.832 553.641 157.021C553.12 157.209 552.514 157.304 551.824 157.304ZM560.252 148.554V157.108H557.898V146.542H560.145L560.252 148.554ZM563.484 146.474L563.465 148.661C563.322 148.635 563.165 148.616 562.996 148.603C562.833 148.59 562.671 148.583 562.508 148.583C562.104 148.583 561.749 148.642 561.443 148.759C561.137 148.869 560.88 149.032 560.672 149.247C560.47 149.455 560.314 149.709 560.203 150.009C560.092 150.308 560.027 150.644 560.008 151.015L559.471 151.054C559.471 150.39 559.536 149.774 559.666 149.208C559.796 148.642 559.992 148.144 560.252 147.714C560.519 147.284 560.851 146.949 561.248 146.708C561.652 146.467 562.117 146.347 562.645 146.347C562.788 146.347 562.941 146.36 563.104 146.386C563.273 146.412 563.4 146.441 563.484 146.474ZM575.896 154.989V149.95C575.896 149.573 575.828 149.247 575.691 148.974C575.555 148.7 575.346 148.489 575.066 148.339C574.793 148.189 574.448 148.114 574.031 148.114C573.647 148.114 573.315 148.179 573.035 148.31C572.755 148.44 572.537 148.616 572.381 148.837C572.225 149.058 572.146 149.309 572.146 149.589H569.803C569.803 149.172 569.904 148.769 570.105 148.378C570.307 147.987 570.6 147.639 570.984 147.333C571.368 147.027 571.827 146.786 572.361 146.61C572.895 146.435 573.494 146.347 574.158 146.347C574.952 146.347 575.656 146.48 576.268 146.747C576.886 147.014 577.371 147.418 577.723 147.958C578.081 148.492 578.26 149.162 578.26 149.97V154.667C578.26 155.149 578.292 155.582 578.357 155.966C578.429 156.343 578.53 156.672 578.66 156.952V157.108H576.248C576.137 156.854 576.049 156.532 575.984 156.142C575.926 155.744 575.896 155.36 575.896 154.989ZM576.238 150.683L576.258 152.138H574.568C574.132 152.138 573.748 152.18 573.416 152.265C573.084 152.343 572.807 152.46 572.586 152.616C572.365 152.772 572.199 152.961 572.088 153.183C571.977 153.404 571.922 153.655 571.922 153.935C571.922 154.215 571.987 154.472 572.117 154.706C572.247 154.934 572.436 155.113 572.684 155.243C572.938 155.373 573.243 155.438 573.602 155.438C574.083 155.438 574.503 155.341 574.861 155.146C575.226 154.944 575.512 154.7 575.721 154.413C575.929 154.12 576.04 153.843 576.053 153.583L576.814 154.628C576.736 154.895 576.603 155.181 576.414 155.487C576.225 155.793 575.978 156.086 575.672 156.366C575.372 156.64 575.011 156.864 574.588 157.04C574.171 157.216 573.689 157.304 573.143 157.304C572.452 157.304 571.837 157.167 571.297 156.894C570.757 156.614 570.333 156.239 570.027 155.771C569.721 155.295 569.568 154.758 569.568 154.159C569.568 153.599 569.673 153.104 569.881 152.675C570.096 152.239 570.408 151.874 570.818 151.581C571.235 151.288 571.743 151.067 572.342 150.917C572.941 150.761 573.624 150.683 574.393 150.683H576.238ZM583.24 142.108V157.108H580.877V142.108H583.24ZM597.566 146.542H599.705V156.815C599.705 157.766 599.503 158.573 599.1 159.237C598.696 159.901 598.133 160.406 597.41 160.751C596.688 161.103 595.851 161.278 594.9 161.278C594.497 161.278 594.048 161.22 593.553 161.103C593.064 160.985 592.589 160.797 592.127 160.536C591.671 160.282 591.29 159.947 590.984 159.53L592.088 158.144C592.465 158.593 592.882 158.922 593.338 159.13C593.794 159.338 594.272 159.442 594.773 159.442C595.314 159.442 595.773 159.341 596.15 159.14C596.535 158.944 596.831 158.655 597.039 158.271C597.247 157.886 597.352 157.418 597.352 156.864V148.935L597.566 146.542ZM590.389 151.942V151.737C590.389 150.937 590.486 150.207 590.682 149.55C590.877 148.886 591.157 148.316 591.521 147.841C591.886 147.359 592.329 146.991 592.85 146.737C593.37 146.477 593.96 146.347 594.617 146.347C595.301 146.347 595.883 146.47 596.365 146.718C596.854 146.965 597.26 147.32 597.586 147.782C597.911 148.238 598.165 148.785 598.348 149.423C598.536 150.054 598.676 150.757 598.768 151.532V152.187C598.683 152.942 598.54 153.632 598.338 154.257C598.136 154.882 597.869 155.422 597.537 155.878C597.205 156.334 596.795 156.685 596.307 156.933C595.825 157.18 595.255 157.304 594.598 157.304C593.953 157.304 593.37 157.17 592.85 156.903C592.335 156.636 591.893 156.262 591.521 155.78C591.157 155.299 590.877 154.732 590.682 154.081C590.486 153.424 590.389 152.711 590.389 151.942ZM592.742 151.737V151.942C592.742 152.424 592.788 152.873 592.879 153.29C592.977 153.707 593.123 154.075 593.318 154.394C593.52 154.706 593.774 154.953 594.08 155.136C594.393 155.312 594.76 155.399 595.184 155.399C595.737 155.399 596.189 155.282 596.541 155.048C596.899 154.813 597.173 154.498 597.361 154.101C597.557 153.697 597.693 153.248 597.771 152.753V150.985C597.732 150.601 597.651 150.243 597.527 149.911C597.41 149.579 597.251 149.289 597.049 149.042C596.847 148.788 596.593 148.593 596.287 148.456C595.981 148.313 595.62 148.241 595.203 148.241C594.78 148.241 594.412 148.332 594.1 148.515C593.787 148.697 593.53 148.948 593.328 149.267C593.133 149.586 592.986 149.957 592.889 150.38C592.791 150.803 592.742 151.256 592.742 151.737ZM605.213 155.956L608.084 146.542H610.604L606.365 158.72C606.268 158.98 606.141 159.263 605.984 159.569C605.828 159.875 605.623 160.165 605.369 160.438C605.122 160.718 604.812 160.943 604.441 161.112C604.07 161.288 603.621 161.376 603.094 161.376C602.885 161.376 602.684 161.356 602.488 161.317C602.299 161.285 602.12 161.249 601.951 161.21L601.941 159.413C602.007 159.42 602.085 159.426 602.176 159.433C602.273 159.439 602.352 159.442 602.41 159.442C602.801 159.442 603.126 159.394 603.387 159.296C603.647 159.205 603.859 159.055 604.021 158.847C604.191 158.638 604.334 158.358 604.451 158.007L605.213 155.956ZM603.592 146.542L606.102 154.452L606.521 156.933L604.891 157.353L601.053 146.542H603.592ZM614.305 148.69V157.108H611.951V146.542H614.168L614.305 148.69ZM613.924 151.435L613.123 151.425C613.123 150.696 613.214 150.022 613.396 149.403C613.579 148.785 613.846 148.248 614.197 147.792C614.549 147.33 614.985 146.975 615.506 146.728C616.033 146.474 616.642 146.347 617.332 146.347C617.814 146.347 618.253 146.418 618.65 146.562C619.054 146.698 619.402 146.916 619.695 147.216C619.995 147.515 620.223 147.899 620.379 148.368C620.542 148.837 620.623 149.403 620.623 150.067V157.108H618.27V150.272C618.27 149.758 618.191 149.354 618.035 149.062C617.885 148.769 617.667 148.56 617.381 148.437C617.101 148.306 616.766 148.241 616.375 148.241C615.932 148.241 615.555 148.326 615.242 148.495C614.936 148.664 614.686 148.896 614.49 149.188C614.295 149.481 614.152 149.82 614.061 150.204C613.969 150.588 613.924 150.998 613.924 151.435ZM620.477 150.81L619.373 151.054C619.373 150.416 619.461 149.813 619.637 149.247C619.819 148.674 620.083 148.173 620.428 147.743C620.779 147.307 621.212 146.965 621.727 146.718C622.241 146.47 622.83 146.347 623.494 146.347C624.035 146.347 624.516 146.422 624.939 146.571C625.369 146.715 625.734 146.942 626.033 147.255C626.333 147.567 626.561 147.974 626.717 148.476C626.873 148.97 626.951 149.569 626.951 150.272V157.108H624.588V150.263C624.588 149.729 624.51 149.315 624.354 149.022C624.204 148.729 623.989 148.528 623.709 148.417C623.429 148.3 623.094 148.241 622.703 148.241C622.339 148.241 622.016 148.31 621.736 148.446C621.463 148.576 621.232 148.762 621.043 149.003C620.854 149.237 620.711 149.507 620.613 149.813C620.522 150.119 620.477 150.451 620.477 150.81Z" fill="#BA007C"/>
<path d="M422.076 383.384C422.076 383.091 422.031 382.83 421.939 382.603C421.855 382.375 421.702 382.166 421.48 381.978C421.259 381.789 420.947 381.606 420.543 381.431C420.146 381.248 419.638 381.063 419.02 380.874C418.342 380.666 417.717 380.435 417.145 380.181C416.578 379.92 416.083 379.621 415.66 379.282C415.237 378.937 414.908 378.543 414.674 378.101C414.439 377.651 414.322 377.134 414.322 376.548C414.322 375.968 414.443 375.441 414.684 374.966C414.931 374.491 415.279 374.08 415.729 373.735C416.184 373.384 416.721 373.114 417.34 372.925C417.958 372.729 418.642 372.632 419.391 372.632C420.445 372.632 421.354 372.827 422.115 373.218C422.883 373.608 423.473 374.132 423.883 374.79C424.299 375.448 424.508 376.174 424.508 376.968H422.076C422.076 376.499 421.975 376.086 421.773 375.728C421.578 375.363 421.279 375.076 420.875 374.868C420.478 374.66 419.973 374.556 419.361 374.556C418.782 374.556 418.3 374.644 417.916 374.819C417.532 374.995 417.245 375.233 417.057 375.532C416.868 375.832 416.773 376.17 416.773 376.548C416.773 376.815 416.835 377.059 416.959 377.28C417.083 377.495 417.271 377.697 417.525 377.886C417.779 378.068 418.098 378.241 418.482 378.403C418.867 378.566 419.319 378.722 419.84 378.872C420.628 379.106 421.314 379.367 421.9 379.653C422.486 379.933 422.975 380.252 423.365 380.61C423.756 380.968 424.049 381.375 424.244 381.831C424.439 382.28 424.537 382.791 424.537 383.364C424.537 383.963 424.417 384.504 424.176 384.985C423.935 385.461 423.59 385.868 423.141 386.206C422.698 386.538 422.164 386.795 421.539 386.978C420.921 387.153 420.23 387.241 419.469 387.241C418.785 387.241 418.111 387.15 417.447 386.968C416.79 386.785 416.191 386.509 415.65 386.138C415.11 385.76 414.68 385.291 414.361 384.731C414.042 384.165 413.883 383.504 413.883 382.749H416.334C416.334 383.211 416.412 383.605 416.568 383.931C416.731 384.256 416.956 384.523 417.242 384.731C417.529 384.933 417.861 385.083 418.238 385.181C418.622 385.278 419.033 385.327 419.469 385.327C420.042 385.327 420.52 385.246 420.904 385.083C421.295 384.92 421.588 384.692 421.783 384.399C421.979 384.106 422.076 383.768 422.076 383.384ZM428.834 378.511V391.108H426.48V376.479H428.648L428.834 378.511ZM435.719 381.665V381.87C435.719 382.638 435.628 383.351 435.445 384.009C435.27 384.66 435.006 385.229 434.654 385.718C434.309 386.2 433.883 386.574 433.375 386.841C432.867 387.108 432.281 387.241 431.617 387.241C430.96 387.241 430.383 387.121 429.889 386.88C429.4 386.632 428.987 386.284 428.648 385.835C428.31 385.386 428.036 384.858 427.828 384.253C427.626 383.641 427.483 382.97 427.398 382.241V381.45C427.483 380.675 427.626 379.972 427.828 379.341C428.036 378.709 428.31 378.166 428.648 377.71C428.987 377.254 429.4 376.903 429.889 376.655C430.377 376.408 430.947 376.284 431.598 376.284C432.262 376.284 432.851 376.414 433.365 376.675C433.88 376.929 434.312 377.293 434.664 377.769C435.016 378.237 435.279 378.804 435.455 379.468C435.631 380.125 435.719 380.858 435.719 381.665ZM433.365 381.87V381.665C433.365 381.177 433.32 380.724 433.229 380.308C433.137 379.884 432.994 379.513 432.799 379.194C432.604 378.875 432.353 378.628 432.047 378.452C431.747 378.27 431.386 378.179 430.963 378.179C430.546 378.179 430.188 378.25 429.889 378.394C429.589 378.53 429.339 378.722 429.137 378.97C428.935 379.217 428.779 379.507 428.668 379.839C428.557 380.164 428.479 380.519 428.434 380.903V382.798C428.512 383.267 428.645 383.696 428.834 384.087C429.023 384.478 429.29 384.79 429.635 385.024C429.986 385.252 430.436 385.366 430.982 385.366C431.406 385.366 431.767 385.275 432.066 385.093C432.366 384.91 432.61 384.66 432.799 384.341C432.994 384.015 433.137 383.641 433.229 383.218C433.32 382.795 433.365 382.345 433.365 381.87ZM437.271 381.88V381.655C437.271 380.894 437.382 380.187 437.604 379.536C437.825 378.879 438.144 378.309 438.561 377.827C438.984 377.339 439.498 376.961 440.104 376.694C440.715 376.421 441.406 376.284 442.174 376.284C442.949 376.284 443.639 376.421 444.244 376.694C444.856 376.961 445.374 377.339 445.797 377.827C446.22 378.309 446.542 378.879 446.764 379.536C446.985 380.187 447.096 380.894 447.096 381.655V381.88C447.096 382.642 446.985 383.348 446.764 383.999C446.542 384.65 446.22 385.22 445.797 385.708C445.374 386.19 444.859 386.567 444.254 386.841C443.648 387.108 442.962 387.241 442.193 387.241C441.419 387.241 440.725 387.108 440.113 386.841C439.508 386.567 438.993 386.19 438.57 385.708C438.147 385.22 437.825 384.65 437.604 383.999C437.382 383.348 437.271 382.642 437.271 381.88ZM439.625 381.655V381.88C439.625 382.355 439.674 382.804 439.771 383.228C439.869 383.651 440.022 384.022 440.23 384.341C440.439 384.66 440.706 384.91 441.031 385.093C441.357 385.275 441.744 385.366 442.193 385.366C442.63 385.366 443.007 385.275 443.326 385.093C443.652 384.91 443.919 384.66 444.127 384.341C444.335 384.022 444.488 383.651 444.586 383.228C444.69 382.804 444.742 382.355 444.742 381.88V381.655C444.742 381.187 444.69 380.744 444.586 380.327C444.488 379.904 444.332 379.53 444.117 379.204C443.909 378.879 443.642 378.625 443.316 378.442C442.997 378.254 442.617 378.159 442.174 378.159C441.731 378.159 441.347 378.254 441.021 378.442C440.702 378.625 440.439 378.879 440.23 379.204C440.022 379.53 439.869 379.904 439.771 380.327C439.674 380.744 439.625 381.187 439.625 381.655ZM451.432 378.491V387.046H449.078V376.479H451.324L451.432 378.491ZM454.664 376.411L454.645 378.599C454.501 378.573 454.345 378.553 454.176 378.54C454.013 378.527 453.85 378.521 453.688 378.521C453.284 378.521 452.929 378.579 452.623 378.696C452.317 378.807 452.06 378.97 451.852 379.185C451.65 379.393 451.493 379.647 451.383 379.946C451.272 380.246 451.207 380.581 451.188 380.952L450.65 380.991C450.65 380.327 450.715 379.712 450.846 379.146C450.976 378.579 451.171 378.081 451.432 377.651C451.699 377.222 452.031 376.886 452.428 376.646C452.831 376.405 453.297 376.284 453.824 376.284C453.967 376.284 454.12 376.297 454.283 376.323C454.452 376.349 454.579 376.379 454.664 376.411ZM461.471 376.479V378.198H455.514V376.479H461.471ZM457.232 373.892H459.586V384.126C459.586 384.451 459.632 384.702 459.723 384.878C459.82 385.047 459.954 385.161 460.123 385.22C460.292 385.278 460.491 385.308 460.719 385.308C460.882 385.308 461.038 385.298 461.188 385.278C461.337 385.259 461.458 385.239 461.549 385.22L461.559 387.017C461.363 387.075 461.135 387.127 460.875 387.173C460.621 387.218 460.328 387.241 459.996 387.241C459.456 387.241 458.977 387.147 458.561 386.958C458.144 386.763 457.818 386.447 457.584 386.011C457.35 385.575 457.232 384.995 457.232 384.272V373.892ZM474.859 379.546V380.327C474.859 381.401 474.719 382.365 474.439 383.218C474.16 384.071 473.759 384.797 473.238 385.396C472.724 385.994 472.105 386.453 471.383 386.772C470.66 387.085 469.859 387.241 468.98 387.241C468.108 387.241 467.311 387.085 466.588 386.772C465.872 386.453 465.25 385.994 464.723 385.396C464.195 384.797 463.785 384.071 463.492 383.218C463.206 382.365 463.062 381.401 463.062 380.327V379.546C463.062 378.472 463.206 377.511 463.492 376.665C463.779 375.812 464.182 375.086 464.703 374.487C465.23 373.882 465.852 373.423 466.568 373.11C467.291 372.791 468.089 372.632 468.961 372.632C469.84 372.632 470.641 372.791 471.363 373.11C472.086 373.423 472.708 373.882 473.229 374.487C473.749 375.086 474.15 375.812 474.43 376.665C474.716 377.511 474.859 378.472 474.859 379.546ZM472.408 380.327V379.526C472.408 378.732 472.33 378.032 472.174 377.427C472.024 376.815 471.799 376.304 471.5 375.894C471.207 375.477 470.846 375.164 470.416 374.956C469.986 374.741 469.501 374.634 468.961 374.634C468.421 374.634 467.939 374.741 467.516 374.956C467.092 375.164 466.731 375.477 466.432 375.894C466.139 376.304 465.914 376.815 465.758 377.427C465.602 378.032 465.523 378.732 465.523 379.526V380.327C465.523 381.121 465.602 381.825 465.758 382.437C465.914 383.049 466.142 383.566 466.441 383.989C466.747 384.406 467.112 384.722 467.535 384.937C467.958 385.145 468.44 385.249 468.98 385.249C469.527 385.249 470.012 385.145 470.436 384.937C470.859 384.722 471.217 384.406 471.51 383.989C471.803 383.566 472.024 383.049 472.174 382.437C472.33 381.825 472.408 381.121 472.408 380.327ZM479.41 378.735V387.046H477.057V376.479H479.273L479.41 378.735ZM478.99 381.372L478.229 381.362C478.235 380.614 478.339 379.927 478.541 379.302C478.749 378.677 479.036 378.14 479.4 377.69C479.771 377.241 480.214 376.896 480.729 376.655C481.243 376.408 481.816 376.284 482.447 376.284C482.955 376.284 483.414 376.356 483.824 376.499C484.241 376.636 484.596 376.86 484.889 377.173C485.188 377.485 485.416 377.892 485.572 378.394C485.729 378.888 485.807 379.497 485.807 380.22V387.046H483.443V380.21C483.443 379.702 483.368 379.302 483.219 379.009C483.076 378.709 482.864 378.498 482.584 378.374C482.311 378.244 481.969 378.179 481.559 378.179C481.155 378.179 480.794 378.263 480.475 378.433C480.156 378.602 479.885 378.833 479.664 379.126C479.449 379.419 479.283 379.757 479.166 380.142C479.049 380.526 478.99 380.936 478.99 381.372ZM492.574 387.046H489.537L489.557 385.103H492.574C493.453 385.103 494.189 384.91 494.781 384.526C495.38 384.142 495.829 383.592 496.129 382.876C496.435 382.16 496.588 381.307 496.588 380.317V379.546C496.588 378.778 496.5 378.097 496.324 377.505C496.155 376.912 495.901 376.414 495.562 376.011C495.23 375.607 494.82 375.301 494.332 375.093C493.85 374.884 493.294 374.78 492.662 374.78H489.479V372.827H492.662C493.606 372.827 494.469 372.987 495.25 373.306C496.031 373.618 496.705 374.071 497.271 374.663C497.844 375.256 498.284 375.965 498.59 376.792C498.896 377.619 499.049 378.543 499.049 379.565V380.317C499.049 381.34 498.896 382.264 498.59 383.091C498.284 383.918 497.844 384.627 497.271 385.22C496.699 385.806 496.015 386.258 495.221 386.577C494.433 386.89 493.551 387.046 492.574 387.046ZM490.895 372.827V387.046H488.443V372.827H490.895ZM505.934 387.241C505.152 387.241 504.446 387.114 503.814 386.86C503.189 386.6 502.656 386.239 502.213 385.776C501.777 385.314 501.441 384.771 501.207 384.146C500.973 383.521 500.855 382.847 500.855 382.124V381.733C500.855 380.907 500.976 380.158 501.217 379.487C501.458 378.817 501.793 378.244 502.223 377.769C502.652 377.287 503.16 376.919 503.746 376.665C504.332 376.411 504.967 376.284 505.65 376.284C506.406 376.284 507.066 376.411 507.633 376.665C508.199 376.919 508.668 377.277 509.039 377.739C509.417 378.195 509.697 378.739 509.879 379.37C510.068 380.002 510.162 380.698 510.162 381.46V382.466H501.998V380.776H507.838V380.591C507.825 380.168 507.74 379.771 507.584 379.399C507.434 379.028 507.203 378.729 506.891 378.501C506.578 378.273 506.161 378.159 505.641 378.159C505.25 378.159 504.902 378.244 504.596 378.413C504.296 378.576 504.046 378.813 503.844 379.126C503.642 379.438 503.486 379.816 503.375 380.259C503.271 380.695 503.219 381.187 503.219 381.733V382.124C503.219 382.586 503.281 383.016 503.404 383.413C503.535 383.804 503.723 384.146 503.971 384.438C504.218 384.731 504.518 384.963 504.869 385.132C505.221 385.295 505.621 385.376 506.07 385.376C506.637 385.376 507.141 385.262 507.584 385.034C508.027 384.806 508.411 384.484 508.736 384.067L509.977 385.269C509.749 385.601 509.452 385.92 509.088 386.226C508.723 386.525 508.277 386.769 507.75 386.958C507.229 387.147 506.624 387.241 505.934 387.241ZM514.352 378.628V387.046H511.998V376.479H514.215L514.352 378.628ZM513.971 381.372L513.17 381.362C513.17 380.633 513.261 379.959 513.443 379.341C513.626 378.722 513.893 378.185 514.244 377.729C514.596 377.267 515.032 376.912 515.553 376.665C516.08 376.411 516.689 376.284 517.379 376.284C517.861 376.284 518.3 376.356 518.697 376.499C519.101 376.636 519.449 376.854 519.742 377.153C520.042 377.453 520.27 377.837 520.426 378.306C520.589 378.774 520.67 379.341 520.67 380.005V387.046H518.316V380.21C518.316 379.696 518.238 379.292 518.082 378.999C517.932 378.706 517.714 378.498 517.428 378.374C517.148 378.244 516.812 378.179 516.422 378.179C515.979 378.179 515.602 378.263 515.289 378.433C514.983 378.602 514.732 378.833 514.537 379.126C514.342 379.419 514.199 379.757 514.107 380.142C514.016 380.526 513.971 380.936 513.971 381.372ZM520.523 380.747L519.42 380.991C519.42 380.353 519.508 379.751 519.684 379.185C519.866 378.612 520.13 378.11 520.475 377.681C520.826 377.244 521.259 376.903 521.773 376.655C522.288 376.408 522.877 376.284 523.541 376.284C524.081 376.284 524.563 376.359 524.986 376.509C525.416 376.652 525.781 376.88 526.08 377.192C526.38 377.505 526.607 377.912 526.764 378.413C526.92 378.908 526.998 379.507 526.998 380.21V387.046H524.635V380.2C524.635 379.666 524.557 379.253 524.4 378.96C524.251 378.667 524.036 378.465 523.756 378.354C523.476 378.237 523.141 378.179 522.75 378.179C522.385 378.179 522.063 378.247 521.783 378.384C521.51 378.514 521.279 378.7 521.09 378.94C520.901 379.175 520.758 379.445 520.66 379.751C520.569 380.057 520.523 380.389 520.523 380.747ZM535.377 384.927V379.888C535.377 379.51 535.309 379.185 535.172 378.911C535.035 378.638 534.827 378.426 534.547 378.276C534.273 378.127 533.928 378.052 533.512 378.052C533.128 378.052 532.796 378.117 532.516 378.247C532.236 378.377 532.018 378.553 531.861 378.774C531.705 378.996 531.627 379.246 531.627 379.526H529.283C529.283 379.11 529.384 378.706 529.586 378.315C529.788 377.925 530.081 377.576 530.465 377.271C530.849 376.965 531.308 376.724 531.842 376.548C532.376 376.372 532.975 376.284 533.639 376.284C534.433 376.284 535.136 376.418 535.748 376.685C536.367 376.951 536.852 377.355 537.203 377.896C537.561 378.429 537.74 379.1 537.74 379.907V384.604C537.74 385.086 537.773 385.519 537.838 385.903C537.91 386.281 538.01 386.61 538.141 386.89V387.046H535.729C535.618 386.792 535.53 386.47 535.465 386.079C535.406 385.682 535.377 385.298 535.377 384.927ZM535.719 380.62L535.738 382.075H534.049C533.613 382.075 533.229 382.118 532.896 382.202C532.564 382.28 532.288 382.397 532.066 382.554C531.845 382.71 531.679 382.899 531.568 383.12C531.458 383.341 531.402 383.592 531.402 383.872C531.402 384.152 531.467 384.409 531.598 384.644C531.728 384.871 531.917 385.05 532.164 385.181C532.418 385.311 532.724 385.376 533.082 385.376C533.564 385.376 533.984 385.278 534.342 385.083C534.706 384.881 534.993 384.637 535.201 384.351C535.41 384.058 535.52 383.781 535.533 383.521L536.295 384.565C536.217 384.832 536.083 385.119 535.895 385.425C535.706 385.731 535.458 386.024 535.152 386.304C534.853 386.577 534.492 386.802 534.068 386.978C533.652 387.153 533.17 387.241 532.623 387.241C531.933 387.241 531.318 387.104 530.777 386.831C530.237 386.551 529.814 386.177 529.508 385.708C529.202 385.233 529.049 384.696 529.049 384.097C529.049 383.537 529.153 383.042 529.361 382.612C529.576 382.176 529.889 381.812 530.299 381.519C530.715 381.226 531.223 381.004 531.822 380.854C532.421 380.698 533.105 380.62 533.873 380.62H535.719ZM542.535 378.735V387.046H540.182V376.479H542.398L542.535 378.735ZM542.115 381.372L541.354 381.362C541.36 380.614 541.464 379.927 541.666 379.302C541.874 378.677 542.161 378.14 542.525 377.69C542.896 377.241 543.339 376.896 543.854 376.655C544.368 376.408 544.941 376.284 545.572 376.284C546.08 376.284 546.539 376.356 546.949 376.499C547.366 376.636 547.721 376.86 548.014 377.173C548.313 377.485 548.541 377.892 548.697 378.394C548.854 378.888 548.932 379.497 548.932 380.22V387.046H546.568V380.21C546.568 379.702 546.493 379.302 546.344 379.009C546.201 378.709 545.989 378.498 545.709 378.374C545.436 378.244 545.094 378.179 544.684 378.179C544.28 378.179 543.919 378.263 543.6 378.433C543.281 378.602 543.01 378.833 542.789 379.126C542.574 379.419 542.408 379.757 542.291 380.142C542.174 380.526 542.115 380.936 542.115 381.372ZM557.779 384.858V372.046H560.143V387.046H558.004L557.779 384.858ZM550.904 381.88V381.675C550.904 380.874 550.999 380.145 551.188 379.487C551.376 378.823 551.65 378.254 552.008 377.778C552.366 377.297 552.802 376.929 553.316 376.675C553.831 376.414 554.41 376.284 555.055 376.284C555.693 376.284 556.253 376.408 556.734 376.655C557.216 376.903 557.626 377.257 557.965 377.72C558.303 378.175 558.574 378.722 558.775 379.36C558.977 379.992 559.12 380.695 559.205 381.47V382.124C559.12 382.879 558.977 383.569 558.775 384.194C558.574 384.819 558.303 385.36 557.965 385.815C557.626 386.271 557.213 386.623 556.725 386.87C556.243 387.118 555.68 387.241 555.035 387.241C554.397 387.241 553.821 387.108 553.307 386.841C552.799 386.574 552.366 386.2 552.008 385.718C551.65 385.236 551.376 384.67 551.188 384.019C550.999 383.361 550.904 382.648 550.904 381.88ZM553.258 381.675V381.88C553.258 382.362 553.3 382.811 553.385 383.228C553.476 383.644 553.616 384.012 553.805 384.331C553.993 384.644 554.238 384.891 554.537 385.073C554.843 385.249 555.208 385.337 555.631 385.337C556.165 385.337 556.604 385.22 556.949 384.985C557.294 384.751 557.564 384.435 557.76 384.038C557.962 383.634 558.098 383.185 558.17 382.69V380.923C558.131 380.539 558.049 380.181 557.926 379.849C557.809 379.517 557.649 379.227 557.447 378.979C557.245 378.726 556.995 378.53 556.695 378.394C556.402 378.25 556.054 378.179 555.65 378.179C555.221 378.179 554.856 378.27 554.557 378.452C554.257 378.634 554.01 378.885 553.814 379.204C553.626 379.523 553.486 379.894 553.395 380.317C553.303 380.741 553.258 381.193 553.258 381.675Z" fill="#BA007C"/>
<path d="M140.527 381.743H136.826V379.8H140.527C141.172 379.8 141.693 379.696 142.09 379.487C142.487 379.279 142.777 378.993 142.959 378.628C143.148 378.257 143.242 377.834 143.242 377.358C143.242 376.909 143.148 376.489 142.959 376.099C142.777 375.701 142.487 375.382 142.09 375.142C141.693 374.901 141.172 374.78 140.527 374.78H137.578V387.046H135.127V372.827H140.527C141.628 372.827 142.562 373.022 143.33 373.413C144.105 373.797 144.694 374.331 145.098 375.015C145.501 375.692 145.703 376.466 145.703 377.339C145.703 378.257 145.501 379.045 145.098 379.702C144.694 380.36 144.105 380.864 143.33 381.216C142.562 381.567 141.628 381.743 140.527 381.743ZM153.506 384.927V379.888C153.506 379.51 153.438 379.185 153.301 378.911C153.164 378.638 152.956 378.426 152.676 378.276C152.402 378.127 152.057 378.052 151.641 378.052C151.257 378.052 150.924 378.117 150.645 378.247C150.365 378.377 150.146 378.553 149.99 378.774C149.834 378.996 149.756 379.246 149.756 379.526H147.412C147.412 379.11 147.513 378.706 147.715 378.315C147.917 377.925 148.21 377.576 148.594 377.271C148.978 376.965 149.437 376.724 149.971 376.548C150.505 376.372 151.104 376.284 151.768 376.284C152.562 376.284 153.265 376.418 153.877 376.685C154.495 376.951 154.98 377.355 155.332 377.896C155.69 378.429 155.869 379.1 155.869 379.907V384.604C155.869 385.086 155.902 385.519 155.967 385.903C156.038 386.281 156.139 386.61 156.27 386.89V387.046H153.857C153.747 386.792 153.659 386.47 153.594 386.079C153.535 385.682 153.506 385.298 153.506 384.927ZM153.848 380.62L153.867 382.075H152.178C151.742 382.075 151.357 382.118 151.025 382.202C150.693 382.28 150.417 382.397 150.195 382.554C149.974 382.71 149.808 382.899 149.697 383.12C149.587 383.341 149.531 383.592 149.531 383.872C149.531 384.152 149.596 384.409 149.727 384.644C149.857 384.871 150.046 385.05 150.293 385.181C150.547 385.311 150.853 385.376 151.211 385.376C151.693 385.376 152.113 385.278 152.471 385.083C152.835 384.881 153.122 384.637 153.33 384.351C153.538 384.058 153.649 383.781 153.662 383.521L154.424 384.565C154.346 384.832 154.212 385.119 154.023 385.425C153.835 385.731 153.587 386.024 153.281 386.304C152.982 386.577 152.62 386.802 152.197 386.978C151.781 387.153 151.299 387.241 150.752 387.241C150.062 387.241 149.447 387.104 148.906 386.831C148.366 386.551 147.943 386.177 147.637 385.708C147.331 385.233 147.178 384.696 147.178 384.097C147.178 383.537 147.282 383.042 147.49 382.612C147.705 382.176 148.018 381.812 148.428 381.519C148.844 381.226 149.352 381.004 149.951 380.854C150.55 380.698 151.234 380.62 152.002 380.62H153.848ZM165.098 376.479H167.236V386.753C167.236 387.703 167.035 388.511 166.631 389.175C166.227 389.839 165.664 390.343 164.941 390.688C164.219 391.04 163.382 391.216 162.432 391.216C162.028 391.216 161.579 391.157 161.084 391.04C160.596 390.923 160.12 390.734 159.658 390.474C159.202 390.22 158.822 389.884 158.516 389.468L159.619 388.081C159.997 388.53 160.413 388.859 160.869 389.067C161.325 389.276 161.803 389.38 162.305 389.38C162.845 389.38 163.304 389.279 163.682 389.077C164.066 388.882 164.362 388.592 164.57 388.208C164.779 387.824 164.883 387.355 164.883 386.802V378.872L165.098 376.479ZM157.92 381.88V381.675C157.92 380.874 158.018 380.145 158.213 379.487C158.408 378.823 158.688 378.254 159.053 377.778C159.417 377.297 159.86 376.929 160.381 376.675C160.902 376.414 161.491 376.284 162.148 376.284C162.832 376.284 163.415 376.408 163.896 376.655C164.385 376.903 164.792 377.257 165.117 377.72C165.443 378.175 165.697 378.722 165.879 379.36C166.068 379.992 166.208 380.695 166.299 381.47V382.124C166.214 382.879 166.071 383.569 165.869 384.194C165.667 384.819 165.4 385.36 165.068 385.815C164.736 386.271 164.326 386.623 163.838 386.87C163.356 387.118 162.786 387.241 162.129 387.241C161.484 387.241 160.902 387.108 160.381 386.841C159.867 386.574 159.424 386.2 159.053 385.718C158.688 385.236 158.408 384.67 158.213 384.019C158.018 383.361 157.92 382.648 157.92 381.88ZM160.273 381.675V381.88C160.273 382.362 160.319 382.811 160.41 383.228C160.508 383.644 160.654 384.012 160.85 384.331C161.051 384.644 161.305 384.891 161.611 385.073C161.924 385.249 162.292 385.337 162.715 385.337C163.268 385.337 163.721 385.22 164.072 384.985C164.43 384.751 164.704 384.435 164.893 384.038C165.088 383.634 165.225 383.185 165.303 382.69V380.923C165.264 380.539 165.182 380.181 165.059 379.849C164.941 379.517 164.782 379.227 164.58 378.979C164.378 378.726 164.124 378.53 163.818 378.394C163.512 378.25 163.151 378.179 162.734 378.179C162.311 378.179 161.943 378.27 161.631 378.452C161.318 378.634 161.061 378.885 160.859 379.204C160.664 379.523 160.518 379.894 160.42 380.317C160.322 380.741 160.273 381.193 160.273 381.675ZM175.635 384.927V379.888C175.635 379.51 175.566 379.185 175.43 378.911C175.293 378.638 175.085 378.426 174.805 378.276C174.531 378.127 174.186 378.052 173.77 378.052C173.385 378.052 173.053 378.117 172.773 378.247C172.493 378.377 172.275 378.553 172.119 378.774C171.963 378.996 171.885 379.246 171.885 379.526H169.541C169.541 379.11 169.642 378.706 169.844 378.315C170.046 377.925 170.339 377.576 170.723 377.271C171.107 376.965 171.566 376.724 172.1 376.548C172.633 376.372 173.232 376.284 173.896 376.284C174.691 376.284 175.394 376.418 176.006 376.685C176.624 376.951 177.109 377.355 177.461 377.896C177.819 378.429 177.998 379.1 177.998 379.907V384.604C177.998 385.086 178.031 385.519 178.096 385.903C178.167 386.281 178.268 386.61 178.398 386.89V387.046H175.986C175.876 386.792 175.788 386.47 175.723 386.079C175.664 385.682 175.635 385.298 175.635 384.927ZM175.977 380.62L175.996 382.075H174.307C173.87 382.075 173.486 382.118 173.154 382.202C172.822 382.28 172.546 382.397 172.324 382.554C172.103 382.71 171.937 382.899 171.826 383.12C171.715 383.341 171.66 383.592 171.66 383.872C171.66 384.152 171.725 384.409 171.855 384.644C171.986 384.871 172.174 385.05 172.422 385.181C172.676 385.311 172.982 385.376 173.34 385.376C173.822 385.376 174.242 385.278 174.6 385.083C174.964 384.881 175.251 384.637 175.459 384.351C175.667 384.058 175.778 383.781 175.791 383.521L176.553 384.565C176.475 384.832 176.341 385.119 176.152 385.425C175.964 385.731 175.716 386.024 175.41 386.304C175.111 386.577 174.749 386.802 174.326 386.978C173.91 387.153 173.428 387.241 172.881 387.241C172.191 387.241 171.576 387.104 171.035 386.831C170.495 386.551 170.072 386.177 169.766 385.708C169.46 385.233 169.307 384.696 169.307 384.097C169.307 383.537 169.411 383.042 169.619 382.612C169.834 382.176 170.146 381.812 170.557 381.519C170.973 381.226 171.481 381.004 172.08 380.854C172.679 380.698 173.363 380.62 174.131 380.62H175.977ZM182.822 378.491V387.046H180.469V376.479H182.715L182.822 378.491ZM186.055 376.411L186.035 378.599C185.892 378.573 185.736 378.553 185.566 378.54C185.404 378.527 185.241 378.521 185.078 378.521C184.674 378.521 184.32 378.579 184.014 378.696C183.708 378.807 183.451 378.97 183.242 379.185C183.04 379.393 182.884 379.647 182.773 379.946C182.663 380.246 182.598 380.581 182.578 380.952L182.041 380.991C182.041 380.327 182.106 379.712 182.236 379.146C182.367 378.579 182.562 378.081 182.822 377.651C183.089 377.222 183.421 376.886 183.818 376.646C184.222 376.405 184.688 376.284 185.215 376.284C185.358 376.284 185.511 376.297 185.674 376.323C185.843 376.349 185.97 376.379 186.055 376.411Z" fill="#BA007C"/>
<path d="M11.0234 154.402L14.7637 142.781H17.4688L12.3711 157H10.5449L11.0234 154.402ZM7.56641 142.781L11.2773 154.402L11.7852 157H9.94922L4.87109 142.781H7.56641ZM23.0547 157.195C22.2734 157.195 21.5671 157.068 20.9355 156.814C20.3105 156.554 19.7767 156.193 19.334 155.73C18.8978 155.268 18.5625 154.725 18.3281 154.1C18.0938 153.475 17.9766 152.801 17.9766 152.078V151.688C17.9766 150.861 18.097 150.112 18.3379 149.441C18.5788 148.771 18.9141 148.198 19.3438 147.723C19.7734 147.241 20.2812 146.873 20.8672 146.619C21.4531 146.365 22.0879 146.238 22.7715 146.238C23.5267 146.238 24.1875 146.365 24.7539 146.619C25.3203 146.873 25.7891 147.231 26.1602 147.693C26.5378 148.149 26.8177 148.693 27 149.324C27.1888 149.956 27.2832 150.652 27.2832 151.414V152.42H19.1191V150.73H24.959V150.545C24.946 150.122 24.8613 149.725 24.7051 149.354C24.5553 148.982 24.3242 148.683 24.0117 148.455C23.6992 148.227 23.2826 148.113 22.7617 148.113C22.3711 148.113 22.0228 148.198 21.7168 148.367C21.4173 148.53 21.1667 148.768 20.9648 149.08C20.763 149.393 20.6068 149.77 20.4961 150.213C20.3919 150.649 20.3398 151.141 20.3398 151.688V152.078C20.3398 152.54 20.4017 152.97 20.5254 153.367C20.6556 153.758 20.8444 154.1 21.0918 154.393C21.3392 154.686 21.6387 154.917 21.9902 155.086C22.3418 155.249 22.7422 155.33 23.1914 155.33C23.7578 155.33 24.2624 155.216 24.7051 154.988C25.1478 154.76 25.5319 154.438 25.8574 154.021L27.0977 155.223C26.8698 155.555 26.5736 155.874 26.209 156.18C25.8444 156.479 25.3984 156.723 24.8711 156.912C24.3503 157.101 23.7448 157.195 23.0547 157.195ZM31.4824 148.445V157H29.1289V146.434H31.375L31.4824 148.445ZM34.7148 146.365L34.6953 148.553C34.5521 148.527 34.3958 148.507 34.2266 148.494C34.0638 148.481 33.901 148.475 33.7383 148.475C33.3346 148.475 32.9798 148.533 32.6738 148.65C32.3678 148.761 32.1107 148.924 31.9023 149.139C31.7005 149.347 31.5443 149.601 31.4336 149.9C31.3229 150.2 31.2578 150.535 31.2383 150.906L30.7012 150.945C30.7012 150.281 30.7663 149.666 30.8965 149.1C31.0267 148.533 31.222 148.035 31.4824 147.605C31.7493 147.176 32.0814 146.84 32.4785 146.6C32.8822 146.359 33.3477 146.238 33.875 146.238C34.0182 146.238 34.1712 146.251 34.334 146.277C34.5033 146.303 34.6302 146.333 34.7148 146.365ZM47.127 154.881V149.842C47.127 149.464 47.0586 149.139 46.9219 148.865C46.7852 148.592 46.5768 148.38 46.2969 148.23C46.0234 148.081 45.6784 148.006 45.2617 148.006C44.8776 148.006 44.5456 148.071 44.2656 148.201C43.9857 148.331 43.7676 148.507 43.6113 148.729C43.4551 148.95 43.377 149.201 43.377 149.48H41.0332C41.0332 149.064 41.1341 148.66 41.3359 148.27C41.5378 147.879 41.8307 147.531 42.2148 147.225C42.599 146.919 43.0579 146.678 43.5918 146.502C44.1257 146.326 44.7246 146.238 45.3887 146.238C46.1829 146.238 46.8861 146.372 47.498 146.639C48.1165 146.906 48.6016 147.309 48.9531 147.85C49.3112 148.383 49.4902 149.054 49.4902 149.861V154.559C49.4902 155.04 49.5228 155.473 49.5879 155.857C49.6595 156.235 49.7604 156.564 49.8906 156.844V157H47.4785C47.3678 156.746 47.2799 156.424 47.2148 156.033C47.1562 155.636 47.127 155.252 47.127 154.881ZM47.4688 150.574L47.4883 152.029H45.7988C45.3626 152.029 44.9785 152.072 44.6465 152.156C44.3145 152.234 44.0378 152.352 43.8164 152.508C43.5951 152.664 43.429 152.853 43.3184 153.074C43.2077 153.296 43.1523 153.546 43.1523 153.826C43.1523 154.106 43.2174 154.363 43.3477 154.598C43.4779 154.826 43.6667 155.005 43.9141 155.135C44.168 155.265 44.474 155.33 44.832 155.33C45.3138 155.33 45.7337 155.232 46.0918 155.037C46.4564 154.835 46.7428 154.591 46.9512 154.305C47.1595 154.012 47.2702 153.735 47.2832 153.475L48.0449 154.52C47.9668 154.786 47.8333 155.073 47.6445 155.379C47.4557 155.685 47.2083 155.978 46.9023 156.258C46.6029 156.531 46.2415 156.756 45.8184 156.932C45.4017 157.107 44.9199 157.195 44.373 157.195C43.6829 157.195 43.0677 157.059 42.5273 156.785C41.987 156.505 41.5638 156.131 41.2578 155.662C40.9518 155.187 40.7988 154.65 40.7988 154.051C40.7988 153.491 40.903 152.996 41.1113 152.566C41.3262 152.13 41.6387 151.766 42.0488 151.473C42.4655 151.18 42.9733 150.958 43.5723 150.809C44.1712 150.652 44.8548 150.574 45.623 150.574H47.4688ZM56.2676 155.32C56.6517 155.32 56.9967 155.245 57.3027 155.096C57.6152 154.939 57.8659 154.725 58.0547 154.451C58.25 154.178 58.3574 153.862 58.377 153.504H60.5938C60.5807 154.188 60.3789 154.809 59.9883 155.369C59.5977 155.929 59.0801 156.375 58.4355 156.707C57.791 157.033 57.0781 157.195 56.2969 157.195C55.4896 157.195 54.7865 157.059 54.1875 156.785C53.5885 156.505 53.0905 156.121 52.6934 155.633C52.2962 155.145 51.9967 154.581 51.7949 153.943C51.5996 153.305 51.502 152.622 51.502 151.893V151.551C51.502 150.822 51.5996 150.138 51.7949 149.5C51.9967 148.855 52.2962 148.289 52.6934 147.801C53.0905 147.312 53.5885 146.932 54.1875 146.658C54.7865 146.378 55.4863 146.238 56.2871 146.238C57.1335 146.238 57.8757 146.408 58.5137 146.746C59.1517 147.078 59.653 147.544 60.0176 148.143C60.3887 148.735 60.5807 149.425 60.5938 150.213H58.377C58.3574 149.822 58.2598 149.471 58.084 149.158C57.9147 148.839 57.6738 148.585 57.3613 148.396C57.0553 148.208 56.6875 148.113 56.2578 148.113C55.7826 148.113 55.3887 148.211 55.0762 148.406C54.7637 148.595 54.5195 148.855 54.3438 149.188C54.168 149.513 54.041 149.881 53.9629 150.291C53.8913 150.695 53.8555 151.115 53.8555 151.551V151.893C53.8555 152.329 53.8913 152.752 53.9629 153.162C54.0345 153.572 54.1582 153.94 54.334 154.266C54.5163 154.585 54.7637 154.842 55.0762 155.037C55.3887 155.226 55.7858 155.32 56.2676 155.32ZM66.7168 155.32C67.1009 155.32 67.446 155.245 67.752 155.096C68.0645 154.939 68.3151 154.725 68.5039 154.451C68.6992 154.178 68.8066 153.862 68.8262 153.504H71.043C71.0299 154.188 70.8281 154.809 70.4375 155.369C70.0469 155.929 69.5293 156.375 68.8848 156.707C68.2402 157.033 67.5273 157.195 66.7461 157.195C65.9388 157.195 65.2357 157.059 64.6367 156.785C64.0378 156.505 63.5397 156.121 63.1426 155.633C62.7454 155.145 62.446 154.581 62.2441 153.943C62.0488 153.305 61.9512 152.622 61.9512 151.893V151.551C61.9512 150.822 62.0488 150.138 62.2441 149.5C62.446 148.855 62.7454 148.289 63.1426 147.801C63.5397 147.312 64.0378 146.932 64.6367 146.658C65.2357 146.378 65.9355 146.238 66.7363 146.238C67.5827 146.238 68.3249 146.408 68.9629 146.746C69.6009 147.078 70.1022 147.544 70.4668 148.143C70.8379 148.735 71.0299 149.425 71.043 150.213H68.8262C68.8066 149.822 68.709 149.471 68.5332 149.158C68.3639 148.839 68.123 148.585 67.8105 148.396C67.5046 148.208 67.1367 148.113 66.707 148.113C66.2318 148.113 65.8379 148.211 65.5254 148.406C65.2129 148.595 64.9688 148.855 64.793 149.188C64.6172 149.513 64.4902 149.881 64.4121 150.291C64.3405 150.695 64.3047 151.115 64.3047 151.551V151.893C64.3047 152.329 64.3405 152.752 64.4121 153.162C64.4837 153.572 64.6074 153.94 64.7832 154.266C64.9655 154.585 65.2129 154.842 65.5254 155.037C65.8379 155.226 66.235 155.32 66.7168 155.32ZM77.5078 157.195C76.7266 157.195 76.0202 157.068 75.3887 156.814C74.7637 156.554 74.2298 156.193 73.7871 155.73C73.3509 155.268 73.0156 154.725 72.7812 154.1C72.5469 153.475 72.4297 152.801 72.4297 152.078V151.688C72.4297 150.861 72.5501 150.112 72.791 149.441C73.0319 148.771 73.3672 148.198 73.7969 147.723C74.2266 147.241 74.7344 146.873 75.3203 146.619C75.9062 146.365 76.541 146.238 77.2246 146.238C77.9798 146.238 78.6406 146.365 79.207 146.619C79.7734 146.873 80.2422 147.231 80.6133 147.693C80.9909 148.149 81.2708 148.693 81.4531 149.324C81.6419 149.956 81.7363 150.652 81.7363 151.414V152.42H73.5723V150.73H79.4121V150.545C79.3991 150.122 79.3145 149.725 79.1582 149.354C79.0085 148.982 78.7773 148.683 78.4648 148.455C78.1523 148.227 77.7357 148.113 77.2148 148.113C76.8242 148.113 76.4759 148.198 76.1699 148.367C75.8704 148.53 75.6198 148.768 75.418 149.08C75.2161 149.393 75.0599 149.77 74.9492 150.213C74.8451 150.649 74.793 151.141 74.793 151.688V152.078C74.793 152.54 74.8548 152.97 74.9785 153.367C75.1087 153.758 75.2975 154.1 75.5449 154.393C75.7923 154.686 76.0918 154.917 76.4434 155.086C76.7949 155.249 77.1953 155.33 77.6445 155.33C78.2109 155.33 78.7155 155.216 79.1582 154.988C79.6009 154.76 79.985 154.438 80.3105 154.021L81.5508 155.223C81.3229 155.555 81.0267 155.874 80.6621 156.18C80.2975 156.479 79.8516 156.723 79.3242 156.912C78.8034 157.101 78.1979 157.195 77.5078 157.195ZM89.5 154.139C89.5 153.904 89.4414 153.693 89.3242 153.504C89.207 153.309 88.9824 153.133 88.6504 152.977C88.3249 152.82 87.8431 152.677 87.2051 152.547C86.6452 152.423 86.1309 152.277 85.6621 152.107C85.1999 151.932 84.8027 151.72 84.4707 151.473C84.1387 151.225 83.8815 150.932 83.6992 150.594C83.5169 150.255 83.4258 149.865 83.4258 149.422C83.4258 148.992 83.5202 148.585 83.709 148.201C83.8978 147.817 84.168 147.479 84.5195 147.186C84.8711 146.893 85.2975 146.661 85.7988 146.492C86.3066 146.323 86.873 146.238 87.498 146.238C88.3835 146.238 89.1419 146.388 89.7734 146.688C90.4115 146.98 90.8997 147.381 91.2383 147.889C91.5768 148.39 91.7461 148.956 91.7461 149.588H89.3926C89.3926 149.308 89.321 149.048 89.1777 148.807C89.041 148.559 88.8327 148.361 88.5527 148.211C88.2728 148.055 87.9212 147.977 87.498 147.977C87.0944 147.977 86.7591 148.042 86.4922 148.172C86.2318 148.296 86.0365 148.458 85.9062 148.66C85.7826 148.862 85.7207 149.083 85.7207 149.324C85.7207 149.5 85.7533 149.66 85.8184 149.803C85.89 149.939 86.0072 150.066 86.1699 150.184C86.3327 150.294 86.554 150.398 86.834 150.496C87.1204 150.594 87.4785 150.688 87.9082 150.779C88.7155 150.949 89.4089 151.167 89.9883 151.434C90.5742 151.694 91.0234 152.033 91.3359 152.449C91.6484 152.859 91.8047 153.38 91.8047 154.012C91.8047 154.48 91.7038 154.91 91.502 155.301C91.3066 155.685 91.0202 156.02 90.6426 156.307C90.265 156.587 89.8125 156.805 89.2852 156.961C88.7643 157.117 88.1784 157.195 87.5273 157.195C86.5703 157.195 85.7598 157.026 85.0957 156.688C84.4316 156.342 83.9271 155.903 83.582 155.369C83.2435 154.829 83.0742 154.269 83.0742 153.689H85.3496C85.3757 154.126 85.4961 154.474 85.7109 154.734C85.9323 154.988 86.2057 155.174 86.5312 155.291C86.8633 155.402 87.2051 155.457 87.5566 155.457C87.9798 155.457 88.3346 155.402 88.6211 155.291C88.9076 155.174 89.1257 155.018 89.2754 154.822C89.4251 154.62 89.5 154.393 89.5 154.139ZM93.416 151.834V151.609C93.416 150.848 93.5267 150.141 93.748 149.49C93.9694 148.833 94.2884 148.263 94.7051 147.781C95.1283 147.293 95.6426 146.915 96.248 146.648C96.86 146.375 97.5501 146.238 98.3184 146.238C99.0931 146.238 99.7832 146.375 100.389 146.648C101.001 146.915 101.518 147.293 101.941 147.781C102.365 148.263 102.687 148.833 102.908 149.49C103.13 150.141 103.24 150.848 103.24 151.609V151.834C103.24 152.596 103.13 153.302 102.908 153.953C102.687 154.604 102.365 155.174 101.941 155.662C101.518 156.144 101.004 156.521 100.398 156.795C99.793 157.062 99.1061 157.195 98.3379 157.195C97.5632 157.195 96.8698 157.062 96.2578 156.795C95.6523 156.521 95.138 156.144 94.7148 155.662C94.2917 155.174 93.9694 154.604 93.748 153.953C93.5267 153.302 93.416 152.596 93.416 151.834ZM95.7695 151.609V151.834C95.7695 152.309 95.8184 152.758 95.916 153.182C96.0137 153.605 96.1667 153.976 96.375 154.295C96.5833 154.614 96.8503 154.865 97.1758 155.047C97.5013 155.229 97.8887 155.32 98.3379 155.32C98.7741 155.32 99.1517 155.229 99.4707 155.047C99.7962 154.865 100.063 154.614 100.271 154.295C100.48 153.976 100.633 153.605 100.73 153.182C100.835 152.758 100.887 152.309 100.887 151.834V151.609C100.887 151.141 100.835 150.698 100.73 150.281C100.633 149.858 100.477 149.484 100.262 149.158C100.053 148.833 99.7865 148.579 99.4609 148.396C99.1419 148.208 98.7611 148.113 98.3184 148.113C97.8757 148.113 97.4915 148.208 97.166 148.396C96.847 148.579 96.5833 148.833 96.375 149.158C96.1667 149.484 96.0137 149.858 95.916 150.281C95.8184 150.698 95.7695 151.141 95.7695 151.609ZM111.141 154.139C111.141 153.904 111.082 153.693 110.965 153.504C110.848 153.309 110.623 153.133 110.291 152.977C109.965 152.82 109.484 152.677 108.846 152.547C108.286 152.423 107.771 152.277 107.303 152.107C106.84 151.932 106.443 151.72 106.111 151.473C105.779 151.225 105.522 150.932 105.34 150.594C105.158 150.255 105.066 149.865 105.066 149.422C105.066 148.992 105.161 148.585 105.35 148.201C105.538 147.817 105.809 147.479 106.16 147.186C106.512 146.893 106.938 146.661 107.439 146.492C107.947 146.323 108.514 146.238 109.139 146.238C110.024 146.238 110.783 146.388 111.414 146.688C112.052 146.98 112.54 147.381 112.879 147.889C113.217 148.39 113.387 148.956 113.387 149.588H111.033C111.033 149.308 110.962 149.048 110.818 148.807C110.682 148.559 110.473 148.361 110.193 148.211C109.913 148.055 109.562 147.977 109.139 147.977C108.735 147.977 108.4 148.042 108.133 148.172C107.872 148.296 107.677 148.458 107.547 148.66C107.423 148.862 107.361 149.083 107.361 149.324C107.361 149.5 107.394 149.66 107.459 149.803C107.531 149.939 107.648 150.066 107.811 150.184C107.973 150.294 108.195 150.398 108.475 150.496C108.761 150.594 109.119 150.688 109.549 150.779C110.356 150.949 111.049 151.167 111.629 151.434C112.215 151.694 112.664 152.033 112.977 152.449C113.289 152.859 113.445 153.38 113.445 154.012C113.445 154.48 113.344 154.91 113.143 155.301C112.947 155.685 112.661 156.02 112.283 156.307C111.906 156.587 111.453 156.805 110.926 156.961C110.405 157.117 109.819 157.195 109.168 157.195C108.211 157.195 107.4 157.026 106.736 156.688C106.072 156.342 105.568 155.903 105.223 155.369C104.884 154.829 104.715 154.269 104.715 153.689H106.99C107.016 154.126 107.137 154.474 107.352 154.734C107.573 154.988 107.846 155.174 108.172 155.291C108.504 155.402 108.846 155.457 109.197 155.457C109.62 155.457 109.975 155.402 110.262 155.291C110.548 155.174 110.766 155.018 110.916 154.822C111.066 154.62 111.141 154.393 111.141 154.139Z" fill="#BA007C"/>
</svg>
