<svg width="1586" height="159" viewBox="0 0 1586 159" fill="none" xmlns="http://www.w3.org/2000/svg">
<rect x="0.75" y="0.75" width="308.5" height="157.5" rx="11.25" fill="#BA007C" stroke="#292C33" stroke-width="1.5"/>
<path d="M62.3082 67.7273V91H59.4901V67.7273H62.3082ZM70.277 80.5V91H67.5952V73.5455H70.1861V76.2727H70.4134C70.8224 75.3864 71.4437 74.6742 72.277 74.1364C73.1103 73.5909 74.1861 73.3182 75.5043 73.3182C76.6861 73.3182 77.7202 73.5606 78.6065 74.0455C79.4929 74.5227 80.1823 75.25 80.6747 76.2273C81.1671 77.197 81.4134 78.4242 81.4134 79.9091V91H78.7315V80.0909C78.7315 78.7197 78.3755 77.6515 77.6634 76.8864C76.9512 76.1136 75.974 75.7273 74.7315 75.7273C73.8755 75.7273 73.1103 75.9129 72.4361 76.2841C71.7694 76.6553 71.2429 77.197 70.8565 77.9091C70.4702 78.6212 70.277 79.4848 70.277 80.5ZM86.3139 91V73.5455H88.9957V91H86.3139ZM87.6776 70.6364C87.1548 70.6364 86.7041 70.4583 86.3253 70.1023C85.9541 69.7462 85.7685 69.3182 85.7685 68.8182C85.7685 68.3182 85.9541 67.8902 86.3253 67.5341C86.7041 67.178 87.1548 67 87.6776 67C88.2003 67 88.6473 67.178 89.0185 67.5341C89.3973 67.8902 89.5866 68.3182 89.5866 68.8182C89.5866 69.3182 89.3973 69.7462 89.0185 70.1023C88.6473 70.4583 88.2003 70.6364 87.6776 70.6364ZM100.999 91.3636C99.3622 91.3636 97.9531 90.9773 96.7713 90.2045C95.5895 89.4318 94.6804 88.3674 94.044 87.0114C93.4077 85.6553 93.0895 84.1061 93.0895 82.3636C93.0895 80.5909 93.4152 79.0265 94.0668 77.6705C94.7259 76.3068 95.6425 75.2424 96.8168 74.4773C97.9986 73.7045 99.3774 73.3182 100.953 73.3182C102.18 73.3182 103.286 73.5455 104.271 74C105.256 74.4545 106.063 75.0909 106.692 75.9091C107.321 76.7273 107.711 77.6818 107.862 78.7727H105.18C104.976 77.9773 104.521 77.2727 103.817 76.6591C103.12 76.0379 102.18 75.7273 100.999 75.7273C99.9531 75.7273 99.0365 76 98.2486 76.5455C97.4683 77.0833 96.8584 77.8447 96.419 78.8295C95.9872 79.8068 95.7713 80.9545 95.7713 82.2727C95.7713 83.6212 95.9834 84.7955 96.4077 85.7955C96.8395 86.7955 97.4455 87.572 98.2259 88.125C99.0137 88.678 99.938 88.9545 100.999 88.9545C101.696 88.9545 102.328 88.8333 102.896 88.5909C103.464 88.3485 103.946 88 104.339 87.5455C104.733 87.0909 105.014 86.5455 105.18 85.9091H107.862C107.711 86.9394 107.336 87.8674 106.737 88.6932C106.146 89.5114 105.362 90.1629 104.385 90.6477C103.415 91.125 102.286 91.3636 100.999 91.3636ZM111.783 91V73.5455H114.464V91H111.783ZM113.146 70.6364C112.624 70.6364 112.173 70.4583 111.794 70.1023C111.423 69.7462 111.237 69.3182 111.237 68.8182C111.237 68.3182 111.423 67.8902 111.794 67.5341C112.173 67.178 112.624 67 113.146 67C113.669 67 114.116 67.178 114.487 67.5341C114.866 67.8902 115.055 68.3182 115.055 68.8182C115.055 69.3182 114.866 69.7462 114.487 70.1023C114.116 70.4583 113.669 70.6364 113.146 70.6364ZM124.513 91.4091C123.407 91.4091 122.403 91.2008 121.501 90.7841C120.6 90.3598 119.884 89.75 119.354 88.9545C118.823 88.1515 118.558 87.1818 118.558 86.0455C118.558 85.0455 118.755 84.2348 119.149 83.6136C119.543 82.9848 120.07 82.4924 120.729 82.1364C121.388 81.7803 122.115 81.5152 122.911 81.3409C123.714 81.1591 124.52 81.0152 125.331 80.9091C126.392 80.7727 127.251 80.6705 127.911 80.6023C128.577 80.5265 129.062 80.4015 129.365 80.2273C129.676 80.053 129.831 79.75 129.831 79.3182V79.2273C129.831 78.1061 129.524 77.2348 128.911 76.6136C128.304 75.9924 127.384 75.6818 126.149 75.6818C124.869 75.6818 123.865 75.9621 123.138 76.5227C122.411 77.0833 121.899 77.6818 121.604 78.3182L119.058 77.4091C119.513 76.3485 120.119 75.5227 120.876 74.9318C121.642 74.3333 122.475 73.9167 123.376 73.6818C124.286 73.4394 125.179 73.3182 126.058 73.3182C126.619 73.3182 127.263 73.3864 127.99 73.5227C128.725 73.6515 129.433 73.9205 130.115 74.3295C130.804 74.7386 131.376 75.3561 131.831 76.1818C132.286 77.0076 132.513 78.1136 132.513 79.5V91H129.831V88.6364H129.695C129.513 89.0152 129.21 89.4205 128.786 89.8523C128.361 90.2841 127.797 90.6515 127.092 90.9545C126.388 91.2576 125.528 91.4091 124.513 91.4091ZM124.922 89C125.982 89 126.876 88.7917 127.604 88.375C128.339 87.9583 128.892 87.4205 129.263 86.7614C129.642 86.1023 129.831 85.4091 129.831 84.6818V82.2273C129.717 82.3636 129.467 82.4886 129.081 82.6023C128.702 82.7083 128.263 82.803 127.763 82.8864C127.27 82.9621 126.789 83.0303 126.32 83.0909C125.857 83.1439 125.482 83.1894 125.195 83.2273C124.498 83.3182 123.846 83.4659 123.24 83.6705C122.642 83.8674 122.157 84.1667 121.786 84.5682C121.422 84.9621 121.24 85.5 121.24 86.1818C121.24 87.1136 121.585 87.8182 122.274 88.2955C122.971 88.7652 123.854 89 124.922 89ZM137.408 91V73.5455H139.999V76.1818H140.18C140.499 75.3182 141.074 74.6174 141.908 74.0795C142.741 73.5417 143.68 73.2727 144.726 73.2727C144.923 73.2727 145.169 73.2765 145.464 73.2841C145.76 73.2917 145.983 73.303 146.135 73.3182V76.0455C146.044 76.0227 145.836 75.9886 145.51 75.9432C145.192 75.8902 144.855 75.8636 144.499 75.8636C143.65 75.8636 142.893 76.0417 142.226 76.3977C141.567 76.7462 141.044 77.2311 140.658 77.8523C140.279 78.4659 140.089 79.1667 140.089 79.9545V91H137.408ZM170.678 77.4545L168.268 78.1364C168.117 77.7348 167.893 77.3447 167.598 76.9659C167.31 76.5795 166.916 76.2614 166.416 76.0114C165.916 75.7614 165.276 75.6364 164.496 75.6364C163.428 75.6364 162.537 75.8826 161.825 76.375C161.121 76.8598 160.768 77.4773 160.768 78.2273C160.768 78.8939 161.011 79.4205 161.496 79.8068C161.981 80.1932 162.738 80.5152 163.768 80.7727L166.359 81.4091C167.92 81.7879 169.083 82.3674 169.848 83.1477C170.613 83.9205 170.996 84.9167 170.996 86.1364C170.996 87.1364 170.708 88.0303 170.132 88.8182C169.564 89.6061 168.768 90.2273 167.746 90.6818C166.723 91.1364 165.534 91.3636 164.178 91.3636C162.397 91.3636 160.924 90.9773 159.757 90.2045C158.59 89.4318 157.852 88.303 157.541 86.8182L160.087 86.1818C160.329 87.1212 160.787 87.8258 161.462 88.2955C162.143 88.7652 163.034 89 164.132 89C165.382 89 166.375 88.7348 167.109 88.2045C167.852 87.6667 168.223 87.0227 168.223 86.2727C168.223 85.6667 168.011 85.1591 167.587 84.75C167.162 84.3333 166.511 84.0227 165.632 83.8182L162.723 83.1364C161.125 82.7576 159.95 82.1705 159.2 81.375C158.458 80.572 158.087 79.5682 158.087 78.3636C158.087 77.3788 158.363 76.5076 158.916 75.75C159.477 74.9924 160.238 74.3977 161.2 73.9659C162.17 73.5341 163.268 73.3182 164.496 73.3182C166.223 73.3182 167.579 73.697 168.564 74.4545C169.556 75.2121 170.261 76.2121 170.678 77.4545ZM182.351 91.3636C180.669 91.3636 179.218 90.9924 177.999 90.25C176.786 89.5 175.851 88.4545 175.192 87.1136C174.54 85.7652 174.214 84.197 174.214 82.4091C174.214 80.6212 174.54 79.0455 175.192 77.6818C175.851 76.3106 176.768 75.2424 177.942 74.4773C179.124 73.7045 180.502 73.3182 182.078 73.3182C182.987 73.3182 183.885 73.4697 184.771 73.7727C185.658 74.0758 186.464 74.5682 187.192 75.25C187.919 75.9242 188.499 76.8182 188.93 77.9318C189.362 79.0455 189.578 80.4167 189.578 82.0455V83.1818H176.124V80.8636H186.851C186.851 79.8788 186.654 79 186.26 78.2273C185.874 77.4545 185.321 76.8447 184.601 76.3977C183.889 75.9508 183.048 75.7273 182.078 75.7273C181.01 75.7273 180.086 75.9924 179.305 76.5227C178.533 77.0455 177.938 77.7273 177.521 78.5682C177.105 79.4091 176.896 80.3106 176.896 81.2727V82.8182C176.896 84.1364 177.124 85.2538 177.578 86.1705C178.04 87.0795 178.68 87.7727 179.499 88.25C180.317 88.7197 181.268 88.9545 182.351 88.9545C183.055 88.9545 183.692 88.8561 184.26 88.6591C184.836 88.4545 185.332 88.1515 185.749 87.75C186.165 87.3409 186.487 86.8333 186.714 86.2273L189.305 86.9545C189.033 87.8333 188.574 88.6061 187.93 89.2727C187.286 89.9318 186.491 90.447 185.544 90.8182C184.597 91.1818 183.533 91.3636 182.351 91.3636ZM206.021 77.4545L203.612 78.1364C203.461 77.7348 203.237 77.3447 202.942 76.9659C202.654 76.5795 202.26 76.2614 201.76 76.0114C201.26 75.7614 200.62 75.6364 199.839 75.6364C198.771 75.6364 197.881 75.8826 197.169 76.375C196.464 76.8598 196.112 77.4773 196.112 78.2273C196.112 78.8939 196.355 79.4205 196.839 79.8068C197.324 80.1932 198.082 80.5152 199.112 80.7727L201.703 81.4091C203.264 81.7879 204.427 82.3674 205.192 83.1477C205.957 83.9205 206.339 84.9167 206.339 86.1364C206.339 87.1364 206.052 88.0303 205.476 88.8182C204.908 89.6061 204.112 90.2273 203.089 90.6818C202.067 91.1364 200.877 91.3636 199.521 91.3636C197.741 91.3636 196.268 90.9773 195.101 90.2045C193.934 89.4318 193.196 88.303 192.885 86.8182L195.43 86.1818C195.673 87.1212 196.131 87.8258 196.805 88.2955C197.487 88.7652 198.377 89 199.476 89C200.726 89 201.718 88.7348 202.453 88.2045C203.196 87.6667 203.567 87.0227 203.567 86.2727C203.567 85.6667 203.355 85.1591 202.93 84.75C202.506 84.3333 201.855 84.0227 200.976 83.8182L198.067 83.1364C196.468 82.7576 195.294 82.1705 194.544 81.375C193.802 80.572 193.43 79.5682 193.43 78.3636C193.43 77.3788 193.707 76.5076 194.26 75.75C194.821 74.9924 195.582 74.3977 196.544 73.9659C197.514 73.5341 198.612 73.3182 199.839 73.3182C201.567 73.3182 202.923 73.697 203.908 74.4545C204.9 75.2121 205.605 76.2121 206.021 77.4545ZM210.376 91V73.5455H213.058V91H210.376ZM211.74 70.6364C211.217 70.6364 210.767 70.4583 210.388 70.1023C210.017 69.7462 209.831 69.3182 209.831 68.8182C209.831 68.3182 210.017 67.8902 210.388 67.5341C210.767 67.178 211.217 67 211.74 67C212.263 67 212.71 67.178 213.081 67.5341C213.46 67.8902 213.649 68.3182 213.649 68.8182C213.649 69.3182 213.46 69.7462 213.081 70.1023C212.71 70.4583 212.263 70.6364 211.74 70.6364ZM225.061 91.3636C223.485 91.3636 222.103 90.9886 220.913 90.2386C219.732 89.4886 218.807 88.4394 218.141 87.0909C217.482 85.7424 217.152 84.1667 217.152 82.3636C217.152 80.5455 217.482 78.9583 218.141 77.6023C218.807 76.2462 219.732 75.1932 220.913 74.4432C222.103 73.6932 223.485 73.3182 225.061 73.3182C226.637 73.3182 228.016 73.6932 229.197 74.4432C230.387 75.1932 231.311 76.2462 231.97 77.6023C232.637 78.9583 232.97 80.5455 232.97 82.3636C232.97 84.1667 232.637 85.7424 231.97 87.0909C231.311 88.4394 230.387 89.4886 229.197 90.2386C228.016 90.9886 226.637 91.3636 225.061 91.3636ZM225.061 88.9545C226.258 88.9545 227.243 88.6477 228.016 88.0341C228.788 87.4205 229.36 86.6136 229.732 85.6136C230.103 84.6136 230.288 83.5303 230.288 82.3636C230.288 81.197 230.103 80.1098 229.732 79.1023C229.36 78.0947 228.788 77.2803 228.016 76.6591C227.243 76.0379 226.258 75.7273 225.061 75.7273C223.864 75.7273 222.879 76.0379 222.107 76.6591C221.334 77.2803 220.762 78.0947 220.391 79.1023C220.019 80.1098 219.834 81.197 219.834 82.3636C219.834 83.5303 220.019 84.6136 220.391 85.6136C220.762 86.6136 221.334 87.4205 222.107 88.0341C222.879 88.6477 223.864 88.9545 225.061 88.9545ZM223.834 71.1818L226.607 65.9091H229.743L226.197 71.1818H223.834ZM239.746 80.5V91H237.064V73.5455H239.655V76.2727H239.882C240.291 75.3864 240.912 74.6742 241.746 74.1364C242.579 73.5909 243.655 73.3182 244.973 73.3182C246.155 73.3182 247.189 73.5606 248.075 74.0455C248.962 74.5227 249.651 75.25 250.143 76.2273C250.636 77.197 250.882 78.4242 250.882 79.9091V91H248.2V80.0909C248.2 78.7197 247.844 77.6515 247.132 76.8864C246.42 76.1136 245.443 75.7273 244.2 75.7273C243.344 75.7273 242.579 75.9129 241.905 76.2841C241.238 76.6553 240.712 77.197 240.325 77.9091C239.939 78.6212 239.746 79.4848 239.746 80.5Z" fill="#FADAEF"/>
<rect x="1276.75" y="0.75" width="308.5" height="157.5" rx="11.25" fill="#BA007C" stroke="#292C33" stroke-width="1.5"/>
<path d="M1351.92 56H1349.1C1348.94 55.1894 1348.64 54.4773 1348.23 53.8636C1347.82 53.25 1347.32 52.7348 1346.73 52.3182C1346.14 51.8939 1345.5 51.5758 1344.78 51.3636C1344.07 51.1515 1343.33 51.0455 1342.56 51.0455C1341.15 51.0455 1339.87 51.4015 1338.73 52.1136C1337.59 52.8258 1336.69 53.875 1336.01 55.2614C1335.34 56.6477 1335.01 58.3485 1335.01 60.3636C1335.01 62.3788 1335.34 64.0795 1336.01 65.4659C1336.69 66.8523 1337.59 67.9015 1338.73 68.6136C1339.87 69.3258 1341.15 69.6818 1342.56 69.6818C1343.33 69.6818 1344.07 69.5758 1344.78 69.3636C1345.5 69.1515 1346.14 68.8371 1346.73 68.4205C1347.32 67.9962 1347.82 67.4773 1348.23 66.8636C1348.64 66.2424 1348.94 65.5303 1349.1 64.7273H1351.92C1351.71 65.9167 1351.32 66.9811 1350.76 67.9205C1350.2 68.8598 1349.5 69.6591 1348.67 70.3182C1347.84 70.9697 1346.9 71.4659 1345.86 71.8068C1344.83 72.1477 1343.73 72.3182 1342.56 72.3182C1340.57 72.3182 1338.81 71.8333 1337.26 70.8636C1335.72 69.8939 1334.5 68.5152 1333.61 66.7273C1332.73 64.9394 1332.28 62.8182 1332.28 60.3636C1332.28 57.9091 1332.73 55.7879 1333.61 54C1334.5 52.2121 1335.72 50.8333 1337.26 49.8636C1338.81 48.8939 1340.57 48.4091 1342.56 48.4091C1343.73 48.4091 1344.83 48.5795 1345.86 48.9205C1346.9 49.2614 1347.84 49.7614 1348.67 50.4205C1349.5 51.072 1350.2 51.8674 1350.76 52.8068C1351.32 53.7386 1351.71 54.803 1351.92 56ZM1363.2 72.3636C1361.63 72.3636 1360.24 71.9886 1359.05 71.2386C1357.87 70.4886 1356.95 69.4394 1356.28 68.0909C1355.62 66.7424 1355.29 65.1667 1355.29 63.3636C1355.29 61.5455 1355.62 59.9583 1356.28 58.6023C1356.95 57.2462 1357.87 56.1932 1359.05 55.4432C1360.24 54.6932 1361.63 54.3182 1363.2 54.3182C1364.78 54.3182 1366.16 54.6932 1367.34 55.4432C1368.53 56.1932 1369.45 57.2462 1370.11 58.6023C1370.78 59.9583 1371.11 61.5455 1371.11 63.3636C1371.11 65.1667 1370.78 66.7424 1370.11 68.0909C1369.45 69.4394 1368.53 70.4886 1367.34 71.2386C1366.16 71.9886 1364.78 72.3636 1363.2 72.3636ZM1363.2 69.9545C1364.4 69.9545 1365.38 69.6477 1366.16 69.0341C1366.93 68.4205 1367.5 67.6136 1367.87 66.6136C1368.24 65.6136 1368.43 64.5303 1368.43 63.3636C1368.43 62.197 1368.24 61.1098 1367.87 60.1023C1367.5 59.0947 1366.93 58.2803 1366.16 57.6591C1365.38 57.0379 1364.4 56.7273 1363.2 56.7273C1362 56.7273 1361.02 57.0379 1360.25 57.6591C1359.47 58.2803 1358.9 59.0947 1358.53 60.1023C1358.16 61.1098 1357.97 62.197 1357.97 63.3636C1357.97 64.5303 1358.16 65.6136 1358.53 66.6136C1358.9 67.6136 1359.47 68.4205 1360.25 69.0341C1361.02 69.6477 1362 69.9545 1363.2 69.9545ZM1377.89 61.5V72H1375.2V54.5455H1377.8V57.2727H1378.02C1378.43 56.3864 1379.05 55.6742 1379.89 55.1364C1380.72 54.5909 1381.8 54.3182 1383.11 54.3182C1384.3 54.3182 1385.33 54.5606 1386.22 55.0455C1387.1 55.5227 1387.79 56.25 1388.28 57.2273C1388.78 58.197 1389.02 59.4242 1389.02 60.9091V72H1386.34V61.0909C1386.34 59.7197 1385.98 58.6515 1385.27 57.8864C1384.56 57.1136 1383.58 56.7273 1382.34 56.7273C1381.48 56.7273 1380.72 56.9129 1380.05 57.2841C1379.38 57.6553 1378.85 58.197 1378.47 58.9091C1378.08 59.6212 1377.89 60.4848 1377.89 61.5ZM1401.7 54.5455V56.8182H1392.29V54.5455H1401.7ZM1395.11 72V52.1364C1395.11 51.1364 1395.34 50.303 1395.81 49.6364C1396.28 48.9697 1396.89 48.4697 1397.64 48.1364C1398.39 47.803 1399.18 47.6364 1400.01 47.6364C1400.67 47.6364 1401.21 47.6894 1401.63 47.7955C1402.04 47.9015 1402.36 48 1402.56 48.0909L1401.79 50.4091C1401.65 50.3636 1401.46 50.3068 1401.22 50.2386C1400.98 50.1705 1400.67 50.1364 1400.29 50.1364C1399.4 50.1364 1398.76 50.3598 1398.37 50.8068C1397.98 51.2538 1397.79 51.9091 1397.79 52.7727V72H1395.11ZM1405.45 72V54.5455H1408.14V72H1405.45ZM1406.82 51.6364C1406.3 51.6364 1405.84 51.4583 1405.47 51.1023C1405.09 50.7462 1404.91 50.3182 1404.91 49.8182C1404.91 49.3182 1405.09 48.8902 1405.47 48.5341C1405.84 48.178 1406.3 48 1406.82 48C1407.34 48 1407.79 48.178 1408.16 48.5341C1408.54 48.8902 1408.73 49.3182 1408.73 49.8182C1408.73 50.3182 1408.54 50.7462 1408.16 51.1023C1407.79 51.4583 1407.34 51.6364 1406.82 51.6364ZM1413.05 72V54.5455H1415.64V57.1818H1415.82C1416.14 56.3182 1416.71 55.6174 1417.55 55.0795C1418.38 54.5417 1419.32 54.2727 1420.37 54.2727C1420.56 54.2727 1420.81 54.2765 1421.11 54.2841C1421.4 54.2917 1421.62 54.303 1421.78 54.3182V57.0455C1421.68 57.0227 1421.48 56.9886 1421.15 56.9432C1420.83 56.8902 1420.5 56.8636 1420.14 56.8636C1419.29 56.8636 1418.53 57.0417 1417.87 57.3977C1417.21 57.7462 1416.68 58.2311 1416.3 58.8523C1415.92 59.4659 1415.73 60.1667 1415.73 60.9545V72H1413.05ZM1424.95 72V54.5455H1427.55V57.2727H1427.77C1428.14 56.3409 1428.72 55.6174 1429.53 55.1023C1430.34 54.5795 1431.32 54.3182 1432.45 54.3182C1433.61 54.3182 1434.56 54.5795 1435.33 55.1023C1436.1 55.6174 1436.7 56.3409 1437.14 57.2727H1437.32C1437.77 56.3712 1438.44 55.6553 1439.33 55.125C1440.22 54.5871 1441.3 54.3182 1442.55 54.3182C1444.11 54.3182 1445.38 54.8068 1446.38 55.7841C1447.37 56.7538 1447.86 58.2652 1447.86 60.3182V72H1445.18V60.3182C1445.18 59.0303 1444.83 58.1098 1444.12 57.5568C1443.42 57.0038 1442.59 56.7273 1441.64 56.7273C1440.41 56.7273 1439.46 57.0985 1438.78 57.8409C1438.11 58.5758 1437.77 59.5076 1437.77 60.6364V72H1435.05V60.0455C1435.05 59.053 1434.72 58.2538 1434.08 57.6477C1433.44 57.0341 1432.61 56.7273 1431.59 56.7273C1430.89 56.7273 1430.24 56.9129 1429.64 57.2841C1429.04 57.6553 1428.55 58.1705 1428.18 58.8295C1427.82 59.4811 1427.64 60.2348 1427.64 61.0909V72H1424.95ZM1457.9 72.4091C1456.8 72.4091 1455.79 72.2008 1454.89 71.7841C1453.99 71.3598 1453.27 70.75 1452.74 69.9545C1452.21 69.1515 1451.95 68.1818 1451.95 67.0455C1451.95 66.0455 1452.15 65.2348 1452.54 64.6136C1452.93 63.9848 1453.46 63.4924 1454.12 63.1364C1454.78 62.7803 1455.51 62.5152 1456.3 62.3409C1457.1 62.1591 1457.91 62.0152 1458.72 61.9091C1459.78 61.7727 1460.64 61.6705 1461.3 61.6023C1461.97 61.5265 1462.45 61.4015 1462.76 61.2273C1463.07 61.053 1463.22 60.75 1463.22 60.3182V60.2273C1463.22 59.1061 1462.91 58.2348 1462.3 57.6136C1461.7 56.9924 1460.77 56.6818 1459.54 56.6818C1458.26 56.6818 1457.26 56.9621 1456.53 57.5227C1455.8 58.0833 1455.29 58.6818 1454.99 59.3182L1452.45 58.4091C1452.9 57.3485 1453.51 56.5227 1454.27 55.9318C1455.03 55.3333 1455.87 54.9167 1456.77 54.6818C1457.68 54.4394 1458.57 54.3182 1459.45 54.3182C1460.01 54.3182 1460.65 54.3864 1461.38 54.5227C1462.12 54.6515 1462.82 54.9205 1463.51 55.3295C1464.2 55.7386 1464.77 56.3561 1465.22 57.1818C1465.68 58.0076 1465.9 59.1136 1465.9 60.5V72H1463.22V69.6364H1463.09C1462.9 70.0152 1462.6 70.4205 1462.18 70.8523C1461.75 71.2841 1461.19 71.6515 1460.48 71.9545C1459.78 72.2576 1458.92 72.4091 1457.9 72.4091ZM1458.31 70C1459.37 70 1460.27 69.7917 1460.99 69.375C1461.73 68.9583 1462.28 68.4205 1462.65 67.7614C1463.03 67.1023 1463.22 66.4091 1463.22 65.6818V63.2273C1463.11 63.3636 1462.86 63.4886 1462.47 63.6023C1462.09 63.7083 1461.65 63.803 1461.15 63.8864C1460.66 63.9621 1460.18 64.0303 1459.71 64.0909C1459.25 64.1439 1458.87 64.1894 1458.59 64.2273C1457.89 64.3182 1457.24 64.4659 1456.63 64.6705C1456.03 64.8674 1455.55 65.1667 1455.18 65.5682C1454.81 65.9621 1454.63 66.5 1454.63 67.1818C1454.63 68.1136 1454.98 68.8182 1455.66 69.2955C1456.36 69.7652 1457.24 70 1458.31 70ZM1477.89 72.3636C1476.25 72.3636 1474.84 71.9773 1473.66 71.2045C1472.48 70.4318 1471.57 69.3674 1470.93 68.0114C1470.3 66.6553 1469.98 65.1061 1469.98 63.3636C1469.98 61.5909 1470.31 60.0265 1470.96 58.6705C1471.62 57.3068 1472.53 56.2424 1473.71 55.4773C1474.89 54.7045 1476.27 54.3182 1477.84 54.3182C1479.07 54.3182 1480.18 54.5455 1481.16 55C1482.15 55.4545 1482.95 56.0909 1483.58 56.9091C1484.21 57.7273 1484.6 58.6818 1484.75 59.7727H1482.07C1481.87 58.9773 1481.41 58.2727 1480.71 57.6591C1480.01 57.0379 1479.07 56.7273 1477.89 56.7273C1476.84 56.7273 1475.93 57 1475.14 57.5455C1474.36 58.0833 1473.75 58.8447 1473.31 59.8295C1472.88 60.8068 1472.66 61.9545 1472.66 63.2727C1472.66 64.6212 1472.87 65.7955 1473.3 66.7955C1473.73 67.7955 1474.34 68.572 1475.12 69.125C1475.9 69.678 1476.83 69.9545 1477.89 69.9545C1478.59 69.9545 1479.22 69.8333 1479.79 69.5909C1480.36 69.3485 1480.84 69 1481.23 68.5455C1481.62 68.0909 1481.9 67.5455 1482.07 66.9091H1484.75C1484.6 67.9394 1484.23 68.8674 1483.63 69.6932C1483.04 70.5114 1482.25 71.1629 1481.28 71.6477C1480.31 72.125 1479.18 72.3636 1477.89 72.3636ZM1488.67 72V54.5455H1491.36V72H1488.67ZM1490.04 51.6364C1489.51 51.6364 1489.06 51.4583 1488.68 51.1023C1488.31 50.7462 1488.13 50.3182 1488.13 49.8182C1488.13 49.3182 1488.31 48.8902 1488.68 48.5341C1489.06 48.178 1489.51 48 1490.04 48C1490.56 48 1491.01 48.178 1491.38 48.5341C1491.76 48.8902 1491.95 49.3182 1491.95 49.8182C1491.95 50.3182 1491.76 50.7462 1491.38 51.1023C1491.01 51.4583 1490.56 51.6364 1490.04 51.6364ZM1503.36 72.3636C1501.78 72.3636 1500.4 71.9886 1499.21 71.2386C1498.03 70.4886 1497.1 69.4394 1496.44 68.0909C1495.78 66.7424 1495.45 65.1667 1495.45 63.3636C1495.45 61.5455 1495.78 59.9583 1496.44 58.6023C1497.1 57.2462 1498.03 56.1932 1499.21 55.4432C1500.4 54.6932 1501.78 54.3182 1503.36 54.3182C1504.93 54.3182 1506.31 54.6932 1507.49 55.4432C1508.68 56.1932 1509.61 57.2462 1510.27 58.6023C1510.93 59.9583 1511.27 61.5455 1511.27 63.3636C1511.27 65.1667 1510.93 66.7424 1510.27 68.0909C1509.61 69.4394 1508.68 70.4886 1507.49 71.2386C1506.31 71.9886 1504.93 72.3636 1503.36 72.3636ZM1503.36 69.9545C1504.55 69.9545 1505.54 69.6477 1506.31 69.0341C1507.09 68.4205 1507.66 67.6136 1508.03 66.6136C1508.4 65.6136 1508.59 64.5303 1508.59 63.3636C1508.59 62.197 1508.4 61.1098 1508.03 60.1023C1507.66 59.0947 1507.09 58.2803 1506.31 57.6591C1505.54 57.0379 1504.55 56.7273 1503.36 56.7273C1502.16 56.7273 1501.18 57.0379 1500.4 57.6591C1499.63 58.2803 1499.06 59.0947 1498.69 60.1023C1498.32 61.1098 1498.13 62.197 1498.13 63.3636C1498.13 64.5303 1498.32 65.6136 1498.69 66.6136C1499.06 67.6136 1499.63 68.4205 1500.4 69.0341C1501.18 69.6477 1502.16 69.9545 1503.36 69.9545ZM1502.13 52.1818L1504.9 46.9091H1508.04L1504.49 52.1818H1502.13ZM1518.04 61.5V72H1515.36V54.5455H1517.95V57.2727H1518.18C1518.59 56.3864 1519.21 55.6742 1520.04 55.1364C1520.88 54.5909 1521.95 54.3182 1523.27 54.3182C1524.45 54.3182 1525.49 54.5606 1526.37 55.0455C1527.26 55.5227 1527.95 56.25 1528.44 57.2273C1528.93 58.197 1529.18 59.4242 1529.18 60.9091V72H1526.5V61.0909C1526.5 59.7197 1526.14 58.6515 1525.43 57.8864C1524.72 57.1136 1523.74 56.7273 1522.5 56.7273C1521.64 56.7273 1520.88 56.9129 1520.2 57.2841C1519.54 57.6553 1519.01 58.197 1518.62 58.9091C1518.24 59.6212 1518.04 60.4848 1518.04 61.5ZM1359.75 111.364C1358.29 111.364 1357.01 110.996 1355.9 110.261C1354.78 109.519 1353.91 108.473 1353.28 107.125C1352.65 105.769 1352.34 104.167 1352.34 102.318C1352.34 100.485 1352.65 98.8939 1353.28 97.5455C1353.91 96.197 1354.79 95.1553 1355.91 94.4205C1357.03 93.6856 1358.32 93.3182 1359.79 93.3182C1360.93 93.3182 1361.83 93.5076 1362.49 93.8864C1363.15 94.2576 1363.66 94.6818 1364.01 95.1591C1364.37 95.6288 1364.64 96.0152 1364.84 96.3182H1365.07V87.7273H1367.75V111H1365.16V108.318H1364.84C1364.64 108.636 1364.36 109.038 1364 109.523C1363.63 110 1363.12 110.428 1362.44 110.807C1361.77 111.178 1360.87 111.364 1359.75 111.364ZM1360.11 108.955C1361.19 108.955 1362.1 108.674 1362.84 108.114C1363.58 107.545 1364.15 106.761 1364.53 105.761C1364.92 104.754 1365.11 103.591 1365.11 102.273C1365.11 100.97 1364.92 99.8295 1364.54 98.8523C1364.17 97.8674 1363.6 97.1023 1362.86 96.5568C1362.12 96.0038 1361.2 95.7273 1360.11 95.7273C1358.98 95.7273 1358.03 96.0189 1357.27 96.6023C1356.52 97.178 1355.96 97.9621 1355.58 98.9545C1355.21 99.9394 1355.02 101.045 1355.02 102.273C1355.02 103.515 1355.21 104.644 1355.59 105.659C1355.98 106.667 1356.54 107.47 1357.29 108.068C1358.05 108.659 1358.99 108.955 1360.11 108.955ZM1380.35 111.364C1378.67 111.364 1377.22 110.992 1376 110.25C1374.79 109.5 1373.85 108.455 1373.19 107.114C1372.54 105.765 1372.21 104.197 1372.21 102.409C1372.21 100.621 1372.54 99.0455 1373.19 97.6818C1373.85 96.3106 1374.77 95.2424 1375.94 94.4773C1377.12 93.7045 1378.5 93.3182 1380.08 93.3182C1380.99 93.3182 1381.88 93.4697 1382.77 93.7727C1383.66 94.0758 1384.46 94.5682 1385.19 95.25C1385.92 95.9242 1386.5 96.8182 1386.93 97.9318C1387.36 99.0455 1387.58 100.417 1387.58 102.045V103.182H1374.12V100.864H1384.85C1384.85 99.8788 1384.65 99 1384.26 98.2273C1383.87 97.4545 1383.32 96.8447 1382.6 96.3977C1381.89 95.9508 1381.05 95.7273 1380.08 95.7273C1379.01 95.7273 1378.09 95.9924 1377.31 96.5227C1376.53 97.0455 1375.94 97.7273 1375.52 98.5682C1375.1 99.4091 1374.9 100.311 1374.9 101.273V102.818C1374.9 104.136 1375.12 105.254 1375.58 106.17C1376.04 107.08 1376.68 107.773 1377.5 108.25C1378.32 108.72 1379.27 108.955 1380.35 108.955C1381.06 108.955 1381.69 108.856 1382.26 108.659C1382.84 108.455 1383.33 108.152 1383.75 107.75C1384.17 107.341 1384.49 106.833 1384.71 106.227L1387.31 106.955C1387.03 107.833 1386.57 108.606 1385.93 109.273C1385.29 109.932 1384.49 110.447 1383.54 110.818C1382.6 111.182 1381.53 111.364 1380.35 111.364ZM1400.66 111V93.5455H1403.25V96.1818H1403.43C1403.75 95.3182 1404.32 94.6174 1405.16 94.0795C1405.99 93.5417 1406.93 93.2727 1407.98 93.2727C1408.17 93.2727 1408.42 93.2765 1408.71 93.2841C1409.01 93.2917 1409.23 93.303 1409.38 93.3182V96.0455C1409.29 96.0227 1409.09 95.9886 1408.76 95.9432C1408.44 95.8902 1408.1 95.8636 1407.75 95.8636C1406.9 95.8636 1406.14 96.0417 1405.48 96.3977C1404.82 96.7462 1404.29 97.2311 1403.91 97.8523C1403.53 98.4659 1403.34 99.1667 1403.34 99.9545V111H1400.66ZM1419.35 111.364C1417.67 111.364 1416.22 110.992 1415 110.25C1413.79 109.5 1412.85 108.455 1412.19 107.114C1411.54 105.765 1411.21 104.197 1411.21 102.409C1411.21 100.621 1411.54 99.0455 1412.19 97.6818C1412.85 96.3106 1413.77 95.2424 1414.94 94.4773C1416.12 93.7045 1417.5 93.3182 1419.08 93.3182C1419.99 93.3182 1420.88 93.4697 1421.77 93.7727C1422.66 94.0758 1423.46 94.5682 1424.19 95.25C1424.92 95.9242 1425.5 96.8182 1425.93 97.9318C1426.36 99.0455 1426.58 100.417 1426.58 102.045V103.182H1413.12V100.864H1423.85C1423.85 99.8788 1423.65 99 1423.26 98.2273C1422.87 97.4545 1422.32 96.8447 1421.6 96.3977C1420.89 95.9508 1420.05 95.7273 1419.08 95.7273C1418.01 95.7273 1417.09 95.9924 1416.31 96.5227C1415.53 97.0455 1414.94 97.7273 1414.52 98.5682C1414.1 99.4091 1413.9 100.311 1413.9 101.273V102.818C1413.9 104.136 1414.12 105.254 1414.58 106.17C1415.04 107.08 1415.68 107.773 1416.5 108.25C1417.32 108.72 1418.27 108.955 1419.35 108.955C1420.06 108.955 1420.69 108.856 1421.26 108.659C1421.84 108.455 1422.33 108.152 1422.75 107.75C1423.17 107.341 1423.49 106.833 1423.71 106.227L1426.31 106.955C1426.03 107.833 1425.57 108.606 1424.93 109.273C1424.29 109.932 1423.49 110.447 1422.54 110.818C1421.6 111.182 1420.53 111.364 1419.35 111.364ZM1443.02 97.4545L1440.61 98.1364C1440.46 97.7348 1440.24 97.3447 1439.94 96.9659C1439.65 96.5795 1439.26 96.2614 1438.76 96.0114C1438.26 95.7614 1437.62 95.6364 1436.84 95.6364C1435.77 95.6364 1434.88 95.8826 1434.17 96.375C1433.46 96.8598 1433.11 97.4773 1433.11 98.2273C1433.11 98.8939 1433.35 99.4205 1433.84 99.8068C1434.32 100.193 1435.08 100.515 1436.11 100.773L1438.7 101.409C1440.26 101.788 1441.43 102.367 1442.19 103.148C1442.96 103.92 1443.34 104.917 1443.34 106.136C1443.34 107.136 1443.05 108.03 1442.48 108.818C1441.91 109.606 1441.11 110.227 1440.09 110.682C1439.07 111.136 1437.88 111.364 1436.52 111.364C1434.74 111.364 1433.27 110.977 1432.1 110.205C1430.93 109.432 1430.2 108.303 1429.88 106.818L1432.43 106.182C1432.67 107.121 1433.13 107.826 1433.81 108.295C1434.49 108.765 1435.38 109 1436.48 109C1437.73 109 1438.72 108.735 1439.45 108.205C1440.2 107.667 1440.57 107.023 1440.57 106.273C1440.57 105.667 1440.35 105.159 1439.93 104.75C1439.51 104.333 1438.85 104.023 1437.98 103.818L1435.07 103.136C1433.47 102.758 1432.29 102.17 1431.54 101.375C1430.8 100.572 1430.43 99.5682 1430.43 98.3636C1430.43 97.3788 1430.71 96.5076 1431.26 95.75C1431.82 94.9924 1432.58 94.3977 1433.54 93.9659C1434.51 93.5341 1435.61 93.3182 1436.84 93.3182C1438.57 93.3182 1439.92 93.697 1440.91 94.4545C1441.9 95.2121 1442.6 96.2121 1443.02 97.4545ZM1454.69 111.364C1453.01 111.364 1451.56 110.992 1450.34 110.25C1449.13 109.5 1448.19 108.455 1447.54 107.114C1446.88 105.765 1446.56 104.197 1446.56 102.409C1446.56 100.621 1446.88 99.0455 1447.54 97.6818C1448.19 96.3106 1449.11 95.2424 1450.29 94.4773C1451.47 93.7045 1452.85 93.3182 1454.42 93.3182C1455.33 93.3182 1456.23 93.4697 1457.12 93.7727C1458 94.0758 1458.81 94.5682 1459.54 95.25C1460.26 95.9242 1460.84 96.8182 1461.27 97.9318C1461.71 99.0455 1461.92 100.417 1461.92 102.045V103.182H1448.47V100.864H1459.19C1459.19 99.8788 1459 99 1458.6 98.2273C1458.22 97.4545 1457.66 96.8447 1456.94 96.3977C1456.23 95.9508 1455.39 95.7273 1454.42 95.7273C1453.35 95.7273 1452.43 95.9924 1451.65 96.5227C1450.88 97.0455 1450.28 97.7273 1449.87 98.5682C1449.45 99.4091 1449.24 100.311 1449.24 101.273V102.818C1449.24 104.136 1449.47 105.254 1449.92 106.17C1450.38 107.08 1451.02 107.773 1451.84 108.25C1452.66 108.72 1453.61 108.955 1454.69 108.955C1455.4 108.955 1456.04 108.856 1456.6 108.659C1457.18 108.455 1457.68 108.152 1458.09 107.75C1458.51 107.341 1458.83 106.833 1459.06 106.227L1461.65 106.955C1461.38 107.833 1460.92 108.606 1460.27 109.273C1459.63 109.932 1458.83 110.447 1457.89 110.818C1456.94 111.182 1455.88 111.364 1454.69 111.364ZM1466 111V93.5455H1468.59V96.1818H1468.77C1469.09 95.3182 1469.67 94.6174 1470.5 94.0795C1471.33 93.5417 1472.27 93.2727 1473.32 93.2727C1473.52 93.2727 1473.76 93.2765 1474.06 93.2841C1474.35 93.2917 1474.58 93.303 1474.73 93.3182V96.0455C1474.64 96.0227 1474.43 95.9886 1474.1 95.9432C1473.79 95.8902 1473.45 95.8636 1473.09 95.8636C1472.24 95.8636 1471.49 96.0417 1470.82 96.3977C1470.16 96.7462 1469.64 97.2311 1469.25 97.8523C1468.87 98.4659 1468.68 99.1667 1468.68 99.9545V111H1466ZM1492.71 93.5455L1486.26 111H1483.53L1477.08 93.5455H1479.98L1484.8 107.455H1484.98L1489.8 93.5455H1492.71ZM1500.86 111.409C1499.75 111.409 1498.75 111.201 1497.85 110.784C1496.94 110.36 1496.23 109.75 1495.7 108.955C1495.17 108.152 1494.9 107.182 1494.9 106.045C1494.9 105.045 1495.1 104.235 1495.49 103.614C1495.89 102.985 1496.41 102.492 1497.07 102.136C1497.73 101.78 1498.46 101.515 1499.25 101.341C1500.06 101.159 1500.86 101.015 1501.67 100.909C1502.74 100.773 1503.6 100.67 1504.25 100.602C1504.92 100.527 1505.41 100.402 1505.71 100.227C1506.02 100.053 1506.17 99.75 1506.17 99.3182V99.2273C1506.17 98.1061 1505.87 97.2348 1505.25 96.6136C1504.65 95.9924 1503.73 95.6818 1502.49 95.6818C1501.21 95.6818 1500.21 95.9621 1499.48 96.5227C1498.75 97.0833 1498.24 97.6818 1497.95 98.3182L1495.4 97.4091C1495.86 96.3485 1496.46 95.5227 1497.22 94.9318C1497.99 94.3333 1498.82 93.9167 1499.72 93.6818C1500.63 93.4394 1501.52 93.3182 1502.4 93.3182C1502.96 93.3182 1503.61 93.3864 1504.33 93.5227C1505.07 93.6515 1505.78 93.9205 1506.46 94.3295C1507.15 94.7386 1507.72 95.3561 1508.17 96.1818C1508.63 97.0076 1508.86 98.1136 1508.86 99.5V111H1506.17V108.636H1506.04C1505.86 109.015 1505.55 109.42 1505.13 109.852C1504.71 110.284 1504.14 110.652 1503.44 110.955C1502.73 111.258 1501.87 111.409 1500.86 111.409ZM1501.27 109C1502.33 109 1503.22 108.792 1503.95 108.375C1504.68 107.958 1505.24 107.42 1505.61 106.761C1505.99 106.102 1506.17 105.409 1506.17 104.682V102.227C1506.06 102.364 1505.81 102.489 1505.42 102.602C1505.05 102.708 1504.61 102.803 1504.11 102.886C1503.61 102.962 1503.13 103.03 1502.66 103.091C1502.2 103.144 1501.83 103.189 1501.54 103.227C1500.84 103.318 1500.19 103.466 1499.58 103.67C1498.99 103.867 1498.5 104.167 1498.13 104.568C1497.77 104.962 1497.58 105.5 1497.58 106.182C1497.58 107.114 1497.93 107.818 1498.62 108.295C1499.31 108.765 1500.2 109 1501.27 109Z" fill="#FADAEF"/>
<rect x="319.75" y="0.75" width="308.5" height="157.5" rx="11.25" fill="#FADAEF" stroke="#292C33" stroke-width="1.5"/>
<path d="M361.179 48.7273L368.088 68.3182H368.361L375.27 48.7273H378.224L369.679 72H366.77L358.224 48.7273H361.179ZM387.179 72.3636C385.497 72.3636 384.046 71.9924 382.827 71.25C381.615 70.5 380.679 69.4545 380.02 68.1136C379.368 66.7652 379.043 65.197 379.043 63.4091C379.043 61.6212 379.368 60.0455 380.02 58.6818C380.679 57.3106 381.596 56.2424 382.77 55.4773C383.952 54.7045 385.33 54.3182 386.906 54.3182C387.815 54.3182 388.713 54.4697 389.599 54.7727C390.486 55.0758 391.293 55.5682 392.02 56.25C392.747 56.9242 393.327 57.8182 393.759 58.9318C394.19 60.0455 394.406 61.4167 394.406 63.0455V64.1818H380.952V61.8636H391.679C391.679 60.8788 391.482 60 391.088 59.2273C390.702 58.4545 390.149 57.8447 389.429 57.3977C388.717 56.9508 387.876 56.7273 386.906 56.7273C385.838 56.7273 384.914 56.9924 384.134 57.5227C383.361 58.0455 382.766 58.7273 382.349 59.5682C381.933 60.4091 381.724 61.3106 381.724 62.2727V63.8182C381.724 65.1364 381.952 66.2538 382.406 67.1705C382.868 68.0795 383.509 68.7727 384.327 69.25C385.145 69.7197 386.096 69.9545 387.179 69.9545C387.884 69.9545 388.52 69.8561 389.088 69.6591C389.664 69.4545 390.16 69.1515 390.577 68.75C390.993 68.3409 391.315 67.8333 391.543 67.2273L394.134 67.9545C393.861 68.8333 393.402 69.6061 392.759 70.2727C392.115 70.9318 391.319 71.447 390.372 71.8182C389.425 72.1818 388.361 72.3636 387.179 72.3636ZM398.486 72V54.5455H401.077V57.1818H401.259C401.577 56.3182 402.152 55.6174 402.986 55.0795C403.819 54.5417 404.759 54.2727 405.804 54.2727C406.001 54.2727 406.247 54.2765 406.543 54.2841C406.838 54.2917 407.062 54.303 407.213 54.3182V57.0455C407.122 57.0227 406.914 56.9886 406.588 56.9432C406.27 56.8902 405.933 56.8636 405.577 56.8636C404.728 56.8636 403.971 57.0417 403.304 57.3977C402.645 57.7462 402.122 58.2311 401.736 58.8523C401.357 59.4659 401.168 60.1667 401.168 60.9545V72H398.486ZM424.528 72.4091C423.422 72.4091 422.419 72.2008 421.517 71.7841C420.616 71.3598 419.9 70.75 419.369 69.9545C418.839 69.1515 418.574 68.1818 418.574 67.0455C418.574 66.0455 418.771 65.2348 419.165 64.6136C419.559 63.9848 420.085 63.4924 420.744 63.1364C421.403 62.7803 422.131 62.5152 422.926 62.3409C423.729 62.1591 424.536 62.0152 425.347 61.9091C426.407 61.7727 427.267 61.6705 427.926 61.6023C428.593 61.5265 429.078 61.4015 429.381 61.2273C429.691 61.053 429.847 60.75 429.847 60.3182V60.2273C429.847 59.1061 429.54 58.2348 428.926 57.6136C428.32 56.9924 427.4 56.6818 426.165 56.6818C424.884 56.6818 423.881 56.9621 423.153 57.5227C422.426 58.0833 421.915 58.6818 421.619 59.3182L419.074 58.4091C419.528 57.3485 420.134 56.5227 420.892 55.9318C421.657 55.3333 422.491 54.9167 423.392 54.6818C424.301 54.4394 425.195 54.3182 426.074 54.3182C426.634 54.3182 427.278 54.3864 428.006 54.5227C428.741 54.6515 429.449 54.9205 430.131 55.3295C430.82 55.7386 431.392 56.3561 431.847 57.1818C432.301 58.0076 432.528 59.1136 432.528 60.5V72H429.847V69.6364H429.71C429.528 70.0152 429.225 70.4205 428.801 70.8523C428.377 71.2841 427.813 71.6515 427.108 71.9545C426.403 72.2576 425.544 72.4091 424.528 72.4091ZM424.938 70C425.998 70 426.892 69.7917 427.619 69.375C428.354 68.9583 428.907 68.4205 429.278 67.7614C429.657 67.1023 429.847 66.4091 429.847 65.6818V63.2273C429.733 63.3636 429.483 63.4886 429.097 63.6023C428.718 63.7083 428.278 63.803 427.778 63.8864C427.286 63.9621 426.805 64.0303 426.335 64.0909C425.873 64.1439 425.498 64.1894 425.21 64.2273C424.513 64.3182 423.862 64.4659 423.256 64.6705C422.657 64.8674 422.172 65.1667 421.801 65.5682C421.438 65.9621 421.256 66.5 421.256 67.1818C421.256 68.1136 421.6 68.8182 422.29 69.2955C422.987 69.7652 423.869 70 424.938 70ZM444.514 72.3636C442.878 72.3636 441.469 71.9773 440.287 71.2045C439.105 70.4318 438.196 69.3674 437.56 68.0114C436.923 66.6553 436.605 65.1061 436.605 63.3636C436.605 61.5909 436.931 60.0265 437.582 58.6705C438.241 57.3068 439.158 56.2424 440.332 55.4773C441.514 54.7045 442.893 54.3182 444.469 54.3182C445.696 54.3182 446.802 54.5455 447.787 55C448.772 55.4545 449.579 56.0909 450.207 56.9091C450.836 57.7273 451.226 58.6818 451.378 59.7727H448.696C448.491 58.9773 448.037 58.2727 447.332 57.6591C446.635 57.0379 445.696 56.7273 444.514 56.7273C443.469 56.7273 442.552 57 441.764 57.5455C440.984 58.0833 440.374 58.8447 439.935 59.8295C439.503 60.8068 439.287 61.9545 439.287 63.2727C439.287 64.6212 439.499 65.7955 439.923 66.7955C440.355 67.7955 440.961 68.572 441.741 69.125C442.529 69.678 443.454 69.9545 444.514 69.9545C445.211 69.9545 445.844 69.8333 446.412 69.5909C446.98 69.3485 447.461 69 447.855 68.5455C448.249 68.0909 448.529 67.5455 448.696 66.9091H451.378C451.226 67.9394 450.851 68.8674 450.253 69.6932C449.662 70.5114 448.878 71.1629 447.901 71.6477C446.931 72.125 445.802 72.3636 444.514 72.3636ZM462.889 54.5455V56.8182H453.844V54.5455H462.889ZM456.48 50.3636H459.162V67C459.162 67.7576 459.272 68.3258 459.491 68.7045C459.719 69.0758 460.007 69.3258 460.355 69.4545C460.711 69.5758 461.086 69.6364 461.48 69.6364C461.776 69.6364 462.018 69.6212 462.207 69.5909C462.397 69.553 462.548 69.5227 462.662 69.5L463.207 71.9091C463.026 71.9773 462.772 72.0455 462.446 72.1136C462.12 72.1894 461.707 72.2273 461.207 72.2273C460.45 72.2273 459.707 72.0644 458.98 71.7386C458.26 71.4129 457.662 70.9167 457.185 70.25C456.715 69.5833 456.48 68.7424 456.48 67.7273V50.3636ZM466.923 72V54.5455H469.605V72H466.923ZM468.287 51.6364C467.764 51.6364 467.313 51.4583 466.935 51.1023C466.563 50.7462 466.378 50.3182 466.378 49.8182C466.378 49.3182 466.563 48.8902 466.935 48.5341C467.313 48.178 467.764 48 468.287 48C468.81 48 469.257 48.178 469.628 48.5341C470.007 48.8902 470.196 49.3182 470.196 49.8182C470.196 50.3182 470.007 50.7462 469.628 51.1023C469.257 51.4583 468.81 51.6364 468.287 51.6364ZM488.79 54.5455L482.335 72H479.608L473.153 54.5455H476.062L480.881 68.4545H481.062L485.881 54.5455H488.79ZM492.33 72V54.5455H495.011V72H492.33ZM493.693 51.6364C493.17 51.6364 492.72 51.4583 492.341 51.1023C491.97 50.7462 491.784 50.3182 491.784 49.8182C491.784 49.3182 491.97 48.8902 492.341 48.5341C492.72 48.178 493.17 48 493.693 48C494.216 48 494.663 48.178 495.034 48.5341C495.413 48.8902 495.602 49.3182 495.602 49.8182C495.602 50.3182 495.413 50.7462 495.034 51.1023C494.663 51.4583 494.216 51.6364 493.693 51.6364ZM506.514 72.3636C505.06 72.3636 503.776 71.9962 502.662 71.2614C501.548 70.5189 500.677 69.4735 500.048 68.125C499.42 66.7689 499.105 65.1667 499.105 63.3182C499.105 61.4848 499.42 59.8939 500.048 58.5455C500.677 57.197 501.552 56.1553 502.673 55.4205C503.795 54.6856 505.09 54.3182 506.56 54.3182C507.696 54.3182 508.594 54.5076 509.253 54.8864C509.92 55.2576 510.427 55.6818 510.776 56.1591C511.132 56.6288 511.408 57.0152 511.605 57.3182H511.832V48.7273H514.514V72H511.923V69.3182H511.605C511.408 69.6364 511.128 70.0379 510.764 70.5227C510.401 71 509.882 71.428 509.207 71.8068C508.533 72.178 507.635 72.3636 506.514 72.3636ZM506.878 69.9545C507.954 69.9545 508.863 69.6742 509.605 69.1136C510.348 68.5455 510.912 67.7614 511.298 66.7614C511.685 65.7538 511.878 64.5909 511.878 63.2727C511.878 61.9697 511.688 60.8295 511.31 59.8523C510.931 58.8674 510.37 58.1023 509.628 57.5568C508.885 57.0038 507.969 56.7273 506.878 56.7273C505.741 56.7273 504.795 57.0189 504.037 57.6023C503.287 58.178 502.723 58.9621 502.344 59.9545C501.973 60.9394 501.787 62.0455 501.787 63.2727C501.787 64.5152 501.976 65.6439 502.355 66.6591C502.741 67.6667 503.31 68.4697 504.06 69.0682C504.817 69.6591 505.757 69.9545 506.878 69.9545ZM524.935 72.4091C523.829 72.4091 522.825 72.2008 521.923 71.7841C521.022 71.3598 520.306 70.75 519.776 69.9545C519.245 69.1515 518.98 68.1818 518.98 67.0455C518.98 66.0455 519.177 65.2348 519.571 64.6136C519.965 63.9848 520.491 63.4924 521.151 63.1364C521.81 62.7803 522.537 62.5152 523.332 62.3409C524.135 62.1591 524.942 62.0152 525.753 61.9091C526.813 61.7727 527.673 61.6705 528.332 61.6023C528.999 61.5265 529.484 61.4015 529.787 61.2273C530.098 61.053 530.253 60.75 530.253 60.3182V60.2273C530.253 59.1061 529.946 58.2348 529.332 57.6136C528.726 56.9924 527.806 56.6818 526.571 56.6818C525.291 56.6818 524.287 56.9621 523.56 57.5227C522.832 58.0833 522.321 58.6818 522.026 59.3182L519.48 58.4091C519.935 57.3485 520.541 56.5227 521.298 55.9318C522.063 55.3333 522.897 54.9167 523.798 54.6818C524.707 54.4394 525.601 54.3182 526.48 54.3182C527.041 54.3182 527.685 54.3864 528.412 54.5227C529.147 54.6515 529.855 54.9205 530.537 55.3295C531.226 55.7386 531.798 56.3561 532.253 57.1818C532.707 58.0076 532.935 59.1136 532.935 60.5V72H530.253V69.6364H530.116C529.935 70.0152 529.632 70.4205 529.207 70.8523C528.783 71.2841 528.219 71.6515 527.514 71.9545C526.81 72.2576 525.95 72.4091 524.935 72.4091ZM525.344 70C526.404 70 527.298 69.7917 528.026 69.375C528.76 68.9583 529.313 68.4205 529.685 67.7614C530.063 67.1023 530.253 66.4091 530.253 65.6818V63.2273C530.139 63.3636 529.889 63.4886 529.503 63.6023C529.124 63.7083 528.685 63.803 528.185 63.8864C527.692 63.9621 527.211 64.0303 526.741 64.0909C526.279 64.1439 525.904 64.1894 525.616 64.2273C524.92 64.3182 524.268 64.4659 523.662 64.6705C523.063 64.8674 522.579 65.1667 522.207 65.5682C521.844 65.9621 521.662 66.5 521.662 67.1818C521.662 68.1136 522.007 68.8182 522.696 69.2955C523.393 69.7652 524.276 70 525.344 70ZM544.42 72.3636C542.966 72.3636 541.682 71.9962 540.568 71.2614C539.455 70.5189 538.583 69.4735 537.955 68.125C537.326 66.7689 537.011 65.1667 537.011 63.3182C537.011 61.4848 537.326 59.8939 537.955 58.5455C538.583 57.197 539.458 56.1553 540.58 55.4205C541.701 54.6856 542.996 54.3182 544.466 54.3182C545.602 54.3182 546.5 54.5076 547.159 54.8864C547.826 55.2576 548.333 55.6818 548.682 56.1591C549.038 56.6288 549.314 57.0152 549.511 57.3182H549.739V48.7273H552.42V72H549.83V69.3182H549.511C549.314 69.6364 549.034 70.0379 548.67 70.5227C548.307 71 547.788 71.428 547.114 71.8068C546.439 72.178 545.542 72.3636 544.42 72.3636ZM544.784 69.9545C545.86 69.9545 546.769 69.6742 547.511 69.1136C548.254 68.5455 548.818 67.7614 549.205 66.7614C549.591 65.7538 549.784 64.5909 549.784 63.2727C549.784 61.9697 549.595 60.8295 549.216 59.8523C548.837 58.8674 548.277 58.1023 547.534 57.5568C546.792 57.0038 545.875 56.7273 544.784 56.7273C543.648 56.7273 542.701 57.0189 541.943 57.6023C541.193 58.178 540.629 58.9621 540.25 59.9545C539.879 60.9394 539.693 62.0455 539.693 63.2727C539.693 64.5152 539.883 65.6439 540.261 66.6591C540.648 67.6667 541.216 68.4697 541.966 69.0682C542.723 69.6591 543.663 69.9545 544.784 69.9545ZM565.023 72.3636C563.341 72.3636 561.89 71.9924 560.67 71.25C559.458 70.5 558.523 69.4545 557.864 68.1136C557.212 66.7652 556.886 65.197 556.886 63.4091C556.886 61.6212 557.212 60.0455 557.864 58.6818C558.523 57.3106 559.439 56.2424 560.614 55.4773C561.795 54.7045 563.174 54.3182 564.75 54.3182C565.659 54.3182 566.557 54.4697 567.443 54.7727C568.33 55.0758 569.136 55.5682 569.864 56.25C570.591 56.9242 571.17 57.8182 571.602 58.9318C572.034 60.0455 572.25 61.4167 572.25 63.0455V64.1818H558.795V61.8636H569.523C569.523 60.8788 569.326 60 568.932 59.2273C568.545 58.4545 567.992 57.8447 567.273 57.3977C566.561 56.9508 565.72 56.7273 564.75 56.7273C563.682 56.7273 562.758 56.9924 561.977 57.5227C561.205 58.0455 560.61 58.7273 560.193 59.5682C559.777 60.4091 559.568 61.3106 559.568 62.2727V63.8182C559.568 65.1364 559.795 66.2538 560.25 67.1705C560.712 68.0795 561.352 68.7727 562.17 69.25C562.989 69.7197 563.939 69.9545 565.023 69.9545C565.727 69.9545 566.364 69.8561 566.932 69.6591C567.508 69.4545 568.004 69.1515 568.42 68.75C568.837 68.3409 569.159 67.8333 569.386 67.2273L571.977 67.9545C571.705 68.8333 571.246 69.6061 570.602 70.2727C569.958 70.9318 569.163 71.447 568.216 71.8182C567.269 72.1818 566.205 72.3636 565.023 72.3636ZM588.693 58.4545L586.284 59.1364C586.133 58.7348 585.909 58.3447 585.614 57.9659C585.326 57.5795 584.932 57.2614 584.432 57.0114C583.932 56.7614 583.292 56.6364 582.511 56.6364C581.443 56.6364 580.553 56.8826 579.841 57.375C579.136 57.8598 578.784 58.4773 578.784 59.2273C578.784 59.8939 579.027 60.4205 579.511 60.8068C579.996 61.1932 580.754 61.5152 581.784 61.7727L584.375 62.4091C585.936 62.7879 587.098 63.3674 587.864 64.1477C588.629 64.9205 589.011 65.9167 589.011 67.1364C589.011 68.1364 588.723 69.0303 588.148 69.8182C587.58 70.6061 586.784 71.2273 585.761 71.6818C584.739 72.1364 583.549 72.3636 582.193 72.3636C580.413 72.3636 578.939 71.9773 577.773 71.2045C576.606 70.4318 575.867 69.303 575.557 67.8182L578.102 67.1818C578.345 68.1212 578.803 68.8258 579.477 69.2955C580.159 69.7652 581.049 70 582.148 70C583.398 70 584.39 69.7348 585.125 69.2045C585.867 68.6667 586.239 68.0227 586.239 67.2727C586.239 66.6667 586.027 66.1591 585.602 65.75C585.178 65.3333 584.527 65.0227 583.648 64.8182L580.739 64.1364C579.14 63.7576 577.966 63.1705 577.216 62.375C576.473 61.572 576.102 60.5682 576.102 59.3636C576.102 58.3788 576.379 57.5076 576.932 56.75C577.492 55.9924 578.254 55.3977 579.216 54.9659C580.186 54.5341 581.284 54.3182 582.511 54.3182C584.239 54.3182 585.595 54.697 586.58 55.4545C587.572 56.2121 588.277 57.2121 588.693 58.4545ZM397.092 111.364C395.638 111.364 394.354 110.996 393.24 110.261C392.126 109.519 391.255 108.473 390.626 107.125C389.998 105.769 389.683 104.167 389.683 102.318C389.683 100.485 389.998 98.8939 390.626 97.5455C391.255 96.197 392.13 95.1553 393.251 94.4205C394.373 93.6856 395.668 93.3182 397.138 93.3182C398.274 93.3182 399.172 93.5076 399.831 93.8864C400.498 94.2576 401.005 94.6818 401.354 95.1591C401.71 95.6288 401.986 96.0152 402.183 96.3182H402.411V87.7273H405.092V111H402.501V108.318H402.183C401.986 108.636 401.706 109.038 401.342 109.523C400.979 110 400.46 110.428 399.786 110.807C399.111 111.178 398.214 111.364 397.092 111.364ZM397.456 108.955C398.532 108.955 399.441 108.674 400.183 108.114C400.926 107.545 401.49 106.761 401.876 105.761C402.263 104.754 402.456 103.591 402.456 102.273C402.456 100.97 402.267 99.8295 401.888 98.8523C401.509 97.8674 400.948 97.1023 400.206 96.5568C399.464 96.0038 398.547 95.7273 397.456 95.7273C396.32 95.7273 395.373 96.0189 394.615 96.6023C393.865 97.178 393.301 97.9621 392.922 98.9545C392.551 99.9394 392.365 101.045 392.365 102.273C392.365 103.515 392.554 104.644 392.933 105.659C393.32 106.667 393.888 107.47 394.638 108.068C395.395 108.659 396.335 108.955 397.456 108.955ZM410.376 111V93.5455H413.058V111H410.376ZM411.74 90.6364C411.217 90.6364 410.767 90.4583 410.388 90.1023C410.017 89.7462 409.831 89.3182 409.831 88.8182C409.831 88.3182 410.017 87.8902 410.388 87.5341C410.767 87.178 411.217 87 411.74 87C412.263 87 412.71 87.178 413.081 87.5341C413.46 87.8902 413.649 88.3182 413.649 88.8182C413.649 89.3182 413.46 89.7462 413.081 90.1023C412.71 90.4583 412.263 90.6364 411.74 90.6364ZM430.334 97.4545L427.925 98.1364C427.773 97.7348 427.55 97.3447 427.254 96.9659C426.966 96.5795 426.572 96.2614 426.072 96.0114C425.572 95.7614 424.932 95.6364 424.152 95.6364C423.084 95.6364 422.194 95.8826 421.482 96.375C420.777 96.8598 420.425 97.4773 420.425 98.2273C420.425 98.8939 420.667 99.4205 421.152 99.8068C421.637 100.193 422.394 100.515 423.425 100.773L426.016 101.409C427.576 101.788 428.739 102.367 429.504 103.148C430.269 103.92 430.652 104.917 430.652 106.136C430.652 107.136 430.364 108.03 429.788 108.818C429.22 109.606 428.425 110.227 427.402 110.682C426.379 111.136 425.19 111.364 423.834 111.364C422.054 111.364 420.58 110.977 419.413 110.205C418.247 109.432 417.508 108.303 417.197 106.818L419.743 106.182C419.985 107.121 420.444 107.826 421.118 108.295C421.8 108.765 422.69 109 423.788 109C425.038 109 426.031 108.735 426.766 108.205C427.508 107.667 427.879 107.023 427.879 106.273C427.879 105.667 427.667 105.159 427.243 104.75C426.819 104.333 426.167 104.023 425.288 103.818L422.379 103.136C420.781 102.758 419.607 102.17 418.857 101.375C418.114 100.572 417.743 99.5682 417.743 98.3636C417.743 97.3788 418.019 96.5076 418.572 95.75C419.133 94.9924 419.894 94.3977 420.857 93.9659C421.826 93.5341 422.925 93.3182 424.152 93.3182C425.879 93.3182 427.235 93.697 428.22 94.4545C429.213 95.2121 429.917 96.2121 430.334 97.4545ZM434.689 117.545V93.5455H437.28V96.3182H437.598C437.795 96.0152 438.068 95.6288 438.416 95.1591C438.772 94.6818 439.28 94.2576 439.939 93.8864C440.606 93.5076 441.507 93.3182 442.643 93.3182C444.113 93.3182 445.409 93.6856 446.53 94.4205C447.651 95.1553 448.526 96.197 449.155 97.5455C449.784 98.8939 450.098 100.485 450.098 102.318C450.098 104.167 449.784 105.769 449.155 107.125C448.526 108.473 447.655 109.519 446.541 110.261C445.428 110.996 444.143 111.364 442.689 111.364C441.568 111.364 440.67 111.178 439.996 110.807C439.321 110.428 438.803 110 438.439 109.523C438.075 109.038 437.795 108.636 437.598 108.318H437.371V117.545H434.689ZM437.325 102.273C437.325 103.591 437.518 104.754 437.905 105.761C438.291 106.761 438.856 107.545 439.598 108.114C440.34 108.674 441.25 108.955 442.325 108.955C443.446 108.955 444.382 108.659 445.132 108.068C445.89 107.47 446.458 106.667 446.837 105.659C447.223 104.644 447.416 103.515 447.416 102.273C447.416 101.045 447.227 99.9394 446.848 98.9545C446.477 97.9621 445.912 97.178 445.155 96.6023C444.405 96.0189 443.462 95.7273 442.325 95.7273C441.234 95.7273 440.318 96.0038 439.575 96.5568C438.833 97.1023 438.272 97.8674 437.893 98.8523C437.515 99.8295 437.325 100.97 437.325 102.273ZM461.28 111.364C459.704 111.364 458.321 110.989 457.132 110.239C455.95 109.489 455.026 108.439 454.359 107.091C453.7 105.742 453.371 104.167 453.371 102.364C453.371 100.545 453.7 98.9583 454.359 97.6023C455.026 96.2462 455.95 95.1932 457.132 94.4432C458.321 93.6932 459.704 93.3182 461.28 93.3182C462.856 93.3182 464.234 93.6932 465.416 94.4432C466.606 95.1932 467.53 96.2462 468.189 97.6023C468.856 98.9583 469.189 100.545 469.189 102.364C469.189 104.167 468.856 105.742 468.189 107.091C467.53 108.439 466.606 109.489 465.416 110.239C464.234 110.989 462.856 111.364 461.28 111.364ZM461.28 108.955C462.477 108.955 463.462 108.648 464.234 108.034C465.007 107.42 465.579 106.614 465.95 105.614C466.321 104.614 466.507 103.53 466.507 102.364C466.507 101.197 466.321 100.11 465.95 99.1023C465.579 98.0947 465.007 97.2803 464.234 96.6591C463.462 96.0379 462.477 95.7273 461.28 95.7273C460.083 95.7273 459.098 96.0379 458.325 96.6591C457.553 97.2803 456.981 98.0947 456.609 99.1023C456.238 100.11 456.053 101.197 456.053 102.364C456.053 103.53 456.238 104.614 456.609 105.614C456.981 106.614 457.553 107.42 458.325 108.034C459.098 108.648 460.083 108.955 461.28 108.955ZM475.964 100.5V111H473.283V93.5455H475.874V96.2727H476.101C476.51 95.3864 477.131 94.6742 477.964 94.1364C478.798 93.5909 479.874 93.3182 481.192 93.3182C482.374 93.3182 483.408 93.5606 484.294 94.0455C485.18 94.5227 485.87 95.25 486.362 96.2273C486.855 97.197 487.101 98.4242 487.101 99.9091V111H484.419V100.091C484.419 98.7197 484.063 97.6515 483.351 96.8864C482.639 96.1136 481.661 95.7273 480.419 95.7273C479.563 95.7273 478.798 95.9129 478.124 96.2841C477.457 96.6553 476.93 97.197 476.544 97.9091C476.158 98.6212 475.964 99.4848 475.964 100.5ZM492.001 111V93.5455H494.683V111H492.001ZM493.365 90.6364C492.842 90.6364 492.392 90.4583 492.013 90.1023C491.642 89.7462 491.456 89.3182 491.456 88.8182C491.456 88.3182 491.642 87.8902 492.013 87.5341C492.392 87.178 492.842 87 493.365 87C493.888 87 494.335 87.178 494.706 87.5341C495.085 87.8902 495.274 88.3182 495.274 88.8182C495.274 89.3182 495.085 89.7462 494.706 90.1023C494.335 90.4583 493.888 90.6364 493.365 90.6364ZM499.959 111V87.7273H502.641V96.3182H502.868C503.065 96.0152 503.338 95.6288 503.686 95.1591C504.042 94.6818 504.55 94.2576 505.209 93.8864C505.875 93.5076 506.777 93.3182 507.913 93.3182C509.383 93.3182 510.679 93.6856 511.8 94.4205C512.921 95.1553 513.796 96.197 514.425 97.5455C515.054 98.8939 515.368 100.485 515.368 102.318C515.368 104.167 515.054 105.769 514.425 107.125C513.796 108.473 512.925 109.519 511.811 110.261C510.697 110.996 509.413 111.364 507.959 111.364C506.838 111.364 505.94 111.178 505.266 110.807C504.591 110.428 504.072 110 503.709 109.523C503.345 109.038 503.065 108.636 502.868 108.318H502.55V111H499.959ZM502.595 102.273C502.595 103.591 502.788 104.754 503.175 105.761C503.561 106.761 504.125 107.545 504.868 108.114C505.61 108.674 506.519 108.955 507.595 108.955C508.716 108.955 509.652 108.659 510.402 108.068C511.16 107.47 511.728 106.667 512.107 105.659C512.493 104.644 512.686 103.515 512.686 102.273C512.686 101.045 512.497 99.9394 512.118 98.9545C511.747 97.9621 511.182 97.178 510.425 96.6023C509.675 96.0189 508.732 95.7273 507.595 95.7273C506.504 95.7273 505.588 96.0038 504.845 96.5568C504.103 97.1023 503.542 97.8674 503.163 98.8523C502.785 99.8295 502.595 100.97 502.595 102.273ZM522.152 87.7273V111H519.47V87.7273H522.152ZM534.382 111.364C532.7 111.364 531.25 110.992 530.03 110.25C528.818 109.5 527.882 108.455 527.223 107.114C526.571 105.765 526.246 104.197 526.246 102.409C526.246 100.621 526.571 99.0455 527.223 97.6818C527.882 96.3106 528.799 95.2424 529.973 94.4773C531.155 93.7045 532.534 93.3182 534.109 93.3182C535.018 93.3182 535.916 93.4697 536.803 93.7727C537.689 94.0758 538.496 94.5682 539.223 95.25C539.95 95.9242 540.53 96.8182 540.962 97.9318C541.393 99.0455 541.609 100.417 541.609 102.045V103.182H528.155V100.864H538.882C538.882 99.8788 538.685 99 538.291 98.2273C537.905 97.4545 537.352 96.8447 536.632 96.3977C535.92 95.9508 535.079 95.7273 534.109 95.7273C533.041 95.7273 532.117 95.9924 531.337 96.5227C530.564 97.0455 529.969 97.7273 529.553 98.5682C529.136 99.4091 528.928 100.311 528.928 101.273V102.818C528.928 104.136 529.155 105.254 529.609 106.17C530.071 107.08 530.712 107.773 531.53 108.25C532.348 108.72 533.299 108.955 534.382 108.955C535.087 108.955 535.723 108.856 536.291 108.659C536.867 108.455 537.363 108.152 537.78 107.75C538.196 107.341 538.518 106.833 538.746 106.227L541.337 106.955C541.064 107.833 540.606 108.606 539.962 109.273C539.318 109.932 538.522 110.447 537.575 110.818C536.628 111.182 535.564 111.364 534.382 111.364ZM558.053 97.4545L555.643 98.1364C555.492 97.7348 555.268 97.3447 554.973 96.9659C554.685 96.5795 554.291 96.2614 553.791 96.0114C553.291 95.7614 552.651 95.6364 551.871 95.6364C550.803 95.6364 549.912 95.8826 549.2 96.375C548.496 96.8598 548.143 97.4773 548.143 98.2273C548.143 98.8939 548.386 99.4205 548.871 99.8068C549.356 100.193 550.113 100.515 551.143 100.773L553.734 101.409C555.295 101.788 556.458 102.367 557.223 103.148C557.988 103.92 558.371 104.917 558.371 106.136C558.371 107.136 558.083 108.03 557.507 108.818C556.939 109.606 556.143 110.227 555.121 110.682C554.098 111.136 552.909 111.364 551.553 111.364C549.772 111.364 548.299 110.977 547.132 110.205C545.965 109.432 545.227 108.303 544.916 106.818L547.462 106.182C547.704 107.121 548.162 107.826 548.837 108.295C549.518 108.765 550.409 109 551.507 109C552.757 109 553.75 108.735 554.484 108.205C555.227 107.667 555.598 107.023 555.598 106.273C555.598 105.667 555.386 105.159 554.962 104.75C554.537 104.333 553.886 104.023 553.007 103.818L550.098 103.136C548.5 102.758 547.325 102.17 546.575 101.375C545.833 100.572 545.462 99.5682 545.462 98.3636C545.462 97.3788 545.738 96.5076 546.291 95.75C546.852 94.9924 547.613 94.3977 548.575 93.9659C549.545 93.5341 550.643 93.3182 551.871 93.3182C553.598 93.3182 554.954 93.697 555.939 94.4545C556.931 95.2121 557.636 96.2121 558.053 97.4545Z" fill="#BA007C"/>
<rect x="638.75" y="0.75" width="308.5" height="157.5" rx="11.25" fill="#FADAEF" stroke="#292C33" stroke-width="1.5"/>
<path d="M720.374 54.5455C720.237 53.3939 719.684 52.5 718.714 51.8636C717.745 51.2273 716.555 50.9091 715.146 50.9091C714.116 50.9091 713.214 51.0758 712.442 51.4091C711.677 51.7424 711.078 52.2008 710.646 52.7841C710.222 53.3674 710.01 54.0303 710.01 54.7727C710.01 55.3939 710.158 55.928 710.453 56.375C710.756 56.8144 711.143 57.1818 711.612 57.4773C712.082 57.7652 712.574 58.0038 713.089 58.1932C713.605 58.375 714.078 58.5227 714.51 58.6364L716.874 59.2727C717.48 59.4318 718.154 59.6515 718.896 59.9318C719.646 60.2121 720.362 60.5947 721.044 61.0795C721.733 61.5568 722.302 62.1705 722.749 62.9205C723.196 63.6705 723.419 64.5909 723.419 65.6818C723.419 66.9394 723.089 68.0758 722.43 69.0909C721.779 70.1061 720.824 70.9129 719.567 71.5114C718.317 72.1098 716.798 72.4091 715.01 72.4091C713.343 72.4091 711.9 72.1402 710.68 71.6023C709.468 71.0644 708.514 70.3144 707.817 69.3523C707.127 68.3902 706.737 67.2727 706.646 66H709.555C709.631 66.8788 709.927 67.6061 710.442 68.1818C710.964 68.75 711.624 69.1742 712.419 69.4545C713.222 69.7273 714.086 69.8636 715.01 69.8636C716.086 69.8636 717.052 69.6894 717.908 69.3409C718.764 68.9848 719.442 68.4924 719.942 67.8636C720.442 67.2273 720.692 66.4848 720.692 65.6364C720.692 64.8636 720.476 64.2348 720.044 63.75C719.612 63.2652 719.044 62.8712 718.339 62.5682C717.635 62.2652 716.874 62 716.055 61.7727L713.192 60.9545C711.374 60.4318 709.934 59.6856 708.874 58.7159C707.813 57.7462 707.283 56.4773 707.283 54.9091C707.283 53.6061 707.635 52.4697 708.339 51.5C709.052 50.5227 710.006 49.7652 711.203 49.2273C712.408 48.6818 713.752 48.4091 715.237 48.4091C716.737 48.4091 718.071 48.678 719.237 49.2159C720.404 49.7462 721.328 50.4735 722.01 51.3977C722.699 52.322 723.063 53.3712 723.101 54.5455H720.374ZM735.007 72.3636C733.325 72.3636 731.875 71.9924 730.655 71.25C729.443 70.5 728.507 69.4545 727.848 68.1136C727.196 66.7652 726.871 65.197 726.871 63.4091C726.871 61.6212 727.196 60.0455 727.848 58.6818C728.507 57.3106 729.424 56.2424 730.598 55.4773C731.78 54.7045 733.159 54.3182 734.734 54.3182C735.643 54.3182 736.541 54.4697 737.428 54.7727C738.314 55.0758 739.121 55.5682 739.848 56.25C740.575 56.9242 741.155 57.8182 741.587 58.9318C742.018 60.0455 742.234 61.4167 742.234 63.0455V64.1818H728.78V61.8636H739.507C739.507 60.8788 739.31 60 738.916 59.2273C738.53 58.4545 737.977 57.8447 737.257 57.3977C736.545 56.9508 735.704 56.7273 734.734 56.7273C733.666 56.7273 732.742 56.9924 731.962 57.5227C731.189 58.0455 730.594 58.7273 730.178 59.5682C729.761 60.4091 729.553 61.3106 729.553 62.2727V63.8182C729.553 65.1364 729.78 66.2538 730.234 67.1705C730.696 68.0795 731.337 68.7727 732.155 69.25C732.973 69.7197 733.924 69.9545 735.007 69.9545C735.712 69.9545 736.348 69.8561 736.916 69.6591C737.492 69.4545 737.988 69.1515 738.405 68.75C738.821 68.3409 739.143 67.8333 739.371 67.2273L741.962 67.9545C741.689 68.8333 741.231 69.6061 740.587 70.2727C739.943 70.9318 739.147 71.447 738.2 71.8182C737.253 72.1818 736.189 72.3636 735.007 72.3636ZM748.996 48.7273V72H746.314V48.7273H748.996ZM761.226 72.3636C759.544 72.3636 758.093 71.9924 756.874 71.25C755.661 70.5 754.726 69.4545 754.067 68.1136C753.415 66.7652 753.089 65.197 753.089 63.4091C753.089 61.6212 753.415 60.0455 754.067 58.6818C754.726 57.3106 755.643 56.2424 756.817 55.4773C757.999 54.7045 759.377 54.3182 760.953 54.3182C761.862 54.3182 762.76 54.4697 763.646 54.7727C764.533 55.0758 765.339 55.5682 766.067 56.25C766.794 56.9242 767.374 57.8182 767.805 58.9318C768.237 60.0455 768.453 61.4167 768.453 63.0455V64.1818H754.999V61.8636H765.726C765.726 60.8788 765.529 60 765.135 59.2273C764.749 58.4545 764.196 57.8447 763.476 57.3977C762.764 56.9508 761.923 56.7273 760.953 56.7273C759.885 56.7273 758.961 56.9924 758.18 57.5227C757.408 58.0455 756.813 58.7273 756.396 59.5682C755.98 60.4091 755.771 61.3106 755.771 62.2727V63.8182C755.771 65.1364 755.999 66.2538 756.453 67.1705C756.915 68.0795 757.555 68.7727 758.374 69.25C759.192 69.7197 760.143 69.9545 761.226 69.9545C761.93 69.9545 762.567 69.8561 763.135 69.6591C763.711 69.4545 764.207 69.1515 764.624 68.75C765.04 68.3409 765.362 67.8333 765.589 67.2273L768.18 67.9545C767.908 68.8333 767.449 69.6061 766.805 70.2727C766.161 70.9318 765.366 71.447 764.419 71.8182C763.472 72.1818 762.408 72.3636 761.226 72.3636ZM779.624 72.3636C777.987 72.3636 776.578 71.9773 775.396 71.2045C774.214 70.4318 773.305 69.3674 772.669 68.0114C772.033 66.6553 771.714 65.1061 771.714 63.3636C771.714 61.5909 772.04 60.0265 772.692 58.6705C773.351 57.3068 774.268 56.2424 775.442 55.4773C776.624 54.7045 778.002 54.3182 779.578 54.3182C780.805 54.3182 781.911 54.5455 782.896 55C783.881 55.4545 784.688 56.0909 785.317 56.9091C785.946 57.7273 786.336 58.6818 786.487 59.7727H783.805C783.601 58.9773 783.146 58.2727 782.442 57.6591C781.745 57.0379 780.805 56.7273 779.624 56.7273C778.578 56.7273 777.661 57 776.874 57.5455C776.093 58.0833 775.483 58.8447 775.044 59.8295C774.612 60.8068 774.396 61.9545 774.396 63.2727C774.396 64.6212 774.608 65.7955 775.033 66.7955C775.464 67.7955 776.071 68.572 776.851 69.125C777.639 69.678 778.563 69.9545 779.624 69.9545C780.321 69.9545 780.953 69.8333 781.521 69.5909C782.089 69.3485 782.571 69 782.964 68.5455C783.358 68.0909 783.639 67.5455 783.805 66.9091H786.487C786.336 67.9394 785.961 68.8674 785.362 69.6932C784.771 70.5114 783.987 71.1629 783.01 71.6477C782.04 72.125 780.911 72.3636 779.624 72.3636ZM797.499 72.3636C795.862 72.3636 794.453 71.9773 793.271 71.2045C792.089 70.4318 791.18 69.3674 790.544 68.0114C789.908 66.6553 789.589 65.1061 789.589 63.3636C789.589 61.5909 789.915 60.0265 790.567 58.6705C791.226 57.3068 792.143 56.2424 793.317 55.4773C794.499 54.7045 795.877 54.3182 797.453 54.3182C798.68 54.3182 799.786 54.5455 800.771 55C801.756 55.4545 802.563 56.0909 803.192 56.9091C803.821 57.7273 804.211 58.6818 804.362 59.7727H801.68C801.476 58.9773 801.021 58.2727 800.317 57.6591C799.62 57.0379 798.68 56.7273 797.499 56.7273C796.453 56.7273 795.536 57 794.749 57.5455C793.968 58.0833 793.358 58.8447 792.919 59.8295C792.487 60.8068 792.271 61.9545 792.271 63.2727C792.271 64.6212 792.483 65.7955 792.908 66.7955C793.339 67.7955 793.946 68.572 794.726 69.125C795.514 69.678 796.438 69.9545 797.499 69.9545C798.196 69.9545 798.828 69.8333 799.396 69.5909C799.964 69.3485 800.446 69 800.839 68.5455C801.233 68.0909 801.514 67.5455 801.68 66.9091H804.362C804.211 67.9394 803.836 68.8674 803.237 69.6932C802.646 70.5114 801.862 71.1629 800.885 71.6477C799.915 72.125 798.786 72.3636 797.499 72.3636ZM808.283 72V54.5455H810.964V72H808.283ZM809.646 51.6364C809.124 51.6364 808.673 51.4583 808.294 51.1023C807.923 50.7462 807.737 50.3182 807.737 49.8182C807.737 49.3182 807.923 48.8902 808.294 48.5341C808.673 48.178 809.124 48 809.646 48C810.169 48 810.616 48.178 810.987 48.5341C811.366 48.8902 811.555 49.3182 811.555 49.8182C811.555 50.3182 811.366 50.7462 810.987 51.1023C810.616 51.4583 810.169 51.6364 809.646 51.6364ZM822.967 72.3636C821.392 72.3636 820.009 71.9886 818.82 71.2386C817.638 70.4886 816.714 69.4394 816.047 68.0909C815.388 66.7424 815.058 65.1667 815.058 63.3636C815.058 61.5455 815.388 59.9583 816.047 58.6023C816.714 57.2462 817.638 56.1932 818.82 55.4432C820.009 54.6932 821.392 54.3182 822.967 54.3182C824.543 54.3182 825.922 54.6932 827.104 55.4432C828.293 56.1932 829.217 57.2462 829.876 58.6023C830.543 59.9583 830.876 61.5455 830.876 63.3636C830.876 65.1667 830.543 66.7424 829.876 68.0909C829.217 69.4394 828.293 70.4886 827.104 71.2386C825.922 71.9886 824.543 72.3636 822.967 72.3636ZM822.967 69.9545C824.164 69.9545 825.149 69.6477 825.922 69.0341C826.695 68.4205 827.267 67.6136 827.638 66.6136C828.009 65.6136 828.195 64.5303 828.195 63.3636C828.195 62.197 828.009 61.1098 827.638 60.1023C827.267 59.0947 826.695 58.2803 825.922 57.6591C825.149 57.0379 824.164 56.7273 822.967 56.7273C821.77 56.7273 820.786 57.0379 820.013 57.6591C819.24 58.2803 818.668 59.0947 818.297 60.1023C817.926 61.1098 817.74 62.197 817.74 63.3636C817.74 64.5303 817.926 65.6136 818.297 66.6136C818.668 67.6136 819.24 68.4205 820.013 69.0341C820.786 69.6477 821.77 69.9545 822.967 69.9545ZM837.652 61.5V72H834.97V54.5455H837.561V57.2727H837.788C838.197 56.3864 838.819 55.6742 839.652 55.1364C840.485 54.5909 841.561 54.3182 842.879 54.3182C844.061 54.3182 845.095 54.5606 845.982 55.0455C846.868 55.5227 847.557 56.25 848.05 57.2273C848.542 58.197 848.788 59.4242 848.788 60.9091V72H846.107V61.0909C846.107 59.7197 845.75 58.6515 845.038 57.8864C844.326 57.1136 843.349 56.7273 842.107 56.7273C841.25 56.7273 840.485 56.9129 839.811 57.2841C839.144 57.6553 838.618 58.197 838.232 58.9091C837.845 59.6212 837.652 60.4848 837.652 61.5ZM858.825 72.4091C857.719 72.4091 856.715 72.2008 855.814 71.7841C854.912 71.3598 854.196 70.75 853.666 69.9545C853.136 69.1515 852.871 68.1818 852.871 67.0455C852.871 66.0455 853.068 65.2348 853.462 64.6136C853.856 63.9848 854.382 63.4924 855.041 63.1364C855.7 62.7803 856.428 62.5152 857.223 62.3409C858.026 62.1591 858.833 62.0152 859.643 61.9091C860.704 61.7727 861.564 61.6705 862.223 61.6023C862.89 61.5265 863.375 61.4015 863.678 61.2273C863.988 61.053 864.143 60.75 864.143 60.3182V60.2273C864.143 59.1061 863.837 58.2348 863.223 57.6136C862.617 56.9924 861.696 56.6818 860.462 56.6818C859.181 56.6818 858.178 56.9621 857.45 57.5227C856.723 58.0833 856.212 58.6818 855.916 59.3182L853.371 58.4091C853.825 57.3485 854.431 56.5227 855.189 55.9318C855.954 55.3333 856.787 54.9167 857.689 54.6818C858.598 54.4394 859.492 54.3182 860.371 54.3182C860.931 54.3182 861.575 54.3864 862.303 54.5227C863.037 54.6515 863.746 54.9205 864.428 55.3295C865.117 55.7386 865.689 56.3561 866.143 57.1818C866.598 58.0076 866.825 59.1136 866.825 60.5V72H864.143V69.6364H864.007C863.825 70.0152 863.522 70.4205 863.098 70.8523C862.674 71.2841 862.109 71.6515 861.405 71.9545C860.7 72.2576 859.84 72.4091 858.825 72.4091ZM859.234 70C860.295 70 861.189 69.7917 861.916 69.375C862.651 68.9583 863.204 68.4205 863.575 67.7614C863.954 67.1023 864.143 66.4091 864.143 65.6818V63.2273C864.03 63.3636 863.78 63.4886 863.393 63.6023C863.015 63.7083 862.575 63.803 862.075 63.8864C861.583 63.9621 861.102 64.0303 860.632 64.0909C860.17 64.1439 859.795 64.1894 859.507 64.2273C858.81 64.3182 858.159 64.4659 857.553 64.6705C856.954 64.8674 856.469 65.1667 856.098 65.5682C855.734 65.9621 855.553 66.5 855.553 67.1818C855.553 68.1136 855.897 68.8182 856.587 69.2955C857.284 69.7652 858.166 70 859.234 70ZM871.72 72V54.5455H874.311V57.1818H874.493C874.811 56.3182 875.387 55.6174 876.22 55.0795C877.054 54.5417 877.993 54.2727 879.038 54.2727C879.235 54.2727 879.482 54.2765 879.777 54.2841C880.072 54.2917 880.296 54.303 880.447 54.3182V57.0455C880.357 57.0227 880.148 56.9886 879.822 56.9432C879.504 56.8902 879.167 56.8636 878.811 56.8636C877.963 56.8636 877.205 57.0417 876.538 57.3977C875.879 57.7462 875.357 58.2311 874.97 58.8523C874.591 59.4659 874.402 60.1667 874.402 60.9545V72H871.72ZM731.435 111.409C730.329 111.409 729.325 111.201 728.423 110.784C727.522 110.36 726.806 109.75 726.276 108.955C725.745 108.152 725.48 107.182 725.48 106.045C725.48 105.045 725.677 104.235 726.071 103.614C726.465 102.985 726.991 102.492 727.651 102.136C728.31 101.78 729.037 101.515 729.832 101.341C730.635 101.159 731.442 101.015 732.253 100.909C733.313 100.773 734.173 100.67 734.832 100.602C735.499 100.527 735.984 100.402 736.287 100.227C736.598 100.053 736.753 99.75 736.753 99.3182V99.2273C736.753 98.1061 736.446 97.2348 735.832 96.6136C735.226 95.9924 734.306 95.6818 733.071 95.6818C731.791 95.6818 730.787 95.9621 730.06 96.5227C729.332 97.0833 728.821 97.6818 728.526 98.3182L725.98 97.4091C726.435 96.3485 727.041 95.5227 727.798 94.9318C728.563 94.3333 729.397 93.9167 730.298 93.6818C731.207 93.4394 732.101 93.3182 732.98 93.3182C733.541 93.3182 734.185 93.3864 734.912 93.5227C735.647 93.6515 736.355 93.9205 737.037 94.3295C737.726 94.7386 738.298 95.3561 738.753 96.1818C739.207 97.0076 739.435 98.1136 739.435 99.5V111H736.753V108.636H736.616C736.435 109.015 736.132 109.42 735.707 109.852C735.283 110.284 734.719 110.652 734.014 110.955C733.31 111.258 732.45 111.409 731.435 111.409ZM731.844 109C732.904 109 733.798 108.792 734.526 108.375C735.26 107.958 735.813 107.42 736.185 106.761C736.563 106.102 736.753 105.409 736.753 104.682V102.227C736.639 102.364 736.389 102.489 736.003 102.602C735.624 102.708 735.185 102.803 734.685 102.886C734.192 102.962 733.711 103.03 733.241 103.091C732.779 103.144 732.404 103.189 732.116 103.227C731.42 103.318 730.768 103.466 730.162 103.67C729.563 103.867 729.079 104.167 728.707 104.568C728.344 104.962 728.162 105.5 728.162 106.182C728.162 107.114 728.507 107.818 729.196 108.295C729.893 108.765 730.776 109 731.844 109ZM751.42 111.364C749.784 111.364 748.375 110.977 747.193 110.205C746.011 109.432 745.102 108.367 744.466 107.011C743.83 105.655 743.511 104.106 743.511 102.364C743.511 100.591 743.837 99.0265 744.489 97.6705C745.148 96.3068 746.064 95.2424 747.239 94.4773C748.42 93.7045 749.799 93.3182 751.375 93.3182C752.602 93.3182 753.708 93.5455 754.693 94C755.678 94.4545 756.485 95.0909 757.114 95.9091C757.742 96.7273 758.133 97.6818 758.284 98.7727H755.602C755.398 97.9773 754.943 97.2727 754.239 96.6591C753.542 96.0379 752.602 95.7273 751.42 95.7273C750.375 95.7273 749.458 96 748.67 96.5455C747.89 97.0833 747.28 97.8447 746.841 98.8295C746.409 99.8068 746.193 100.955 746.193 102.273C746.193 103.621 746.405 104.795 746.83 105.795C747.261 106.795 747.867 107.572 748.648 108.125C749.436 108.678 750.36 108.955 751.42 108.955C752.117 108.955 752.75 108.833 753.318 108.591C753.886 108.348 754.367 108 754.761 107.545C755.155 107.091 755.436 106.545 755.602 105.909H758.284C758.133 106.939 757.758 107.867 757.159 108.693C756.568 109.511 755.784 110.163 754.807 110.648C753.837 111.125 752.708 111.364 751.42 111.364ZM769.795 93.5455V95.8182H760.75V93.5455H769.795ZM763.386 89.3636H766.068V106C766.068 106.758 766.178 107.326 766.398 107.705C766.625 108.076 766.913 108.326 767.261 108.455C767.617 108.576 767.992 108.636 768.386 108.636C768.682 108.636 768.924 108.621 769.114 108.591C769.303 108.553 769.455 108.523 769.568 108.5L770.114 110.909C769.932 110.977 769.678 111.045 769.352 111.114C769.027 111.189 768.614 111.227 768.114 111.227C767.356 111.227 766.614 111.064 765.886 110.739C765.167 110.413 764.568 109.917 764.091 109.25C763.621 108.583 763.386 107.742 763.386 106.727V89.3636ZM773.83 111V93.5455H776.511V111H773.83ZM775.193 90.6364C774.67 90.6364 774.22 90.4583 773.841 90.1023C773.47 89.7462 773.284 89.3182 773.284 88.8182C773.284 88.3182 773.47 87.8902 773.841 87.5341C774.22 87.178 774.67 87 775.193 87C775.716 87 776.163 87.178 776.534 87.5341C776.913 87.8902 777.102 88.3182 777.102 88.8182C777.102 89.3182 776.913 89.7462 776.534 90.1023C776.163 90.4583 775.716 90.6364 775.193 90.6364ZM795.696 93.5455L789.241 111H786.514L780.06 93.5455H782.969L787.787 107.455H787.969L792.787 93.5455H795.696ZM799.236 111V93.5455H801.918V111H799.236ZM800.599 90.6364C800.077 90.6364 799.626 90.4583 799.247 90.1023C798.876 89.7462 798.69 89.3182 798.69 88.8182C798.69 88.3182 798.876 87.8902 799.247 87.5341C799.626 87.178 800.077 87 800.599 87C801.122 87 801.569 87.178 801.94 87.5341C802.319 87.8902 802.509 88.3182 802.509 88.8182C802.509 89.3182 802.319 89.7462 801.94 90.1023C801.569 90.4583 801.122 90.6364 800.599 90.6364ZM813.42 111.364C811.966 111.364 810.682 110.996 809.568 110.261C808.455 109.519 807.583 108.473 806.955 107.125C806.326 105.769 806.011 104.167 806.011 102.318C806.011 100.485 806.326 98.8939 806.955 97.5455C807.583 96.197 808.458 95.1553 809.58 94.4205C810.701 93.6856 811.996 93.3182 813.466 93.3182C814.602 93.3182 815.5 93.5076 816.159 93.8864C816.826 94.2576 817.333 94.6818 817.682 95.1591C818.038 95.6288 818.314 96.0152 818.511 96.3182H818.739V87.7273H821.42V111H818.83V108.318H818.511C818.314 108.636 818.034 109.038 817.67 109.523C817.307 110 816.788 110.428 816.114 110.807C815.439 111.178 814.542 111.364 813.42 111.364ZM813.784 108.955C814.86 108.955 815.769 108.674 816.511 108.114C817.254 107.545 817.818 106.761 818.205 105.761C818.591 104.754 818.784 103.591 818.784 102.273C818.784 100.97 818.595 99.8295 818.216 98.8523C817.837 97.8674 817.277 97.1023 816.534 96.5568C815.792 96.0038 814.875 95.7273 813.784 95.7273C812.648 95.7273 811.701 96.0189 810.943 96.6023C810.193 97.178 809.629 97.9621 809.25 98.9545C808.879 99.9394 808.693 101.045 808.693 102.273C808.693 103.515 808.883 104.644 809.261 105.659C809.648 106.667 810.216 107.47 810.966 108.068C811.723 108.659 812.663 108.955 813.784 108.955ZM831.841 111.409C830.735 111.409 829.731 111.201 828.83 110.784C827.928 110.36 827.212 109.75 826.682 108.955C826.152 108.152 825.886 107.182 825.886 106.045C825.886 105.045 826.083 104.235 826.477 103.614C826.871 102.985 827.398 102.492 828.057 102.136C828.716 101.78 829.443 101.515 830.239 101.341C831.042 101.159 831.848 101.015 832.659 100.909C833.72 100.773 834.58 100.67 835.239 100.602C835.905 100.527 836.39 100.402 836.693 100.227C837.004 100.053 837.159 99.75 837.159 99.3182V99.2273C837.159 98.1061 836.852 97.2348 836.239 96.6136C835.633 95.9924 834.712 95.6818 833.477 95.6818C832.197 95.6818 831.193 95.9621 830.466 96.5227C829.739 97.0833 829.227 97.6818 828.932 98.3182L826.386 97.4091C826.841 96.3485 827.447 95.5227 828.205 94.9318C828.97 94.3333 829.803 93.9167 830.705 93.6818C831.614 93.4394 832.508 93.3182 833.386 93.3182C833.947 93.3182 834.591 93.3864 835.318 93.5227C836.053 93.6515 836.761 93.9205 837.443 94.3295C838.133 94.7386 838.705 95.3561 839.159 96.1818C839.614 97.0076 839.841 98.1136 839.841 99.5V111H837.159V108.636H837.023C836.841 109.015 836.538 109.42 836.114 109.852C835.689 110.284 835.125 110.652 834.42 110.955C833.716 111.258 832.856 111.409 831.841 111.409ZM832.25 109C833.311 109 834.205 108.792 834.932 108.375C835.667 107.958 836.22 107.42 836.591 106.761C836.97 106.102 837.159 105.409 837.159 104.682V102.227C837.045 102.364 836.795 102.489 836.409 102.602C836.03 102.708 835.591 102.803 835.091 102.886C834.598 102.962 834.117 103.03 833.648 103.091C833.186 103.144 832.811 103.189 832.523 103.227C831.826 103.318 831.174 103.466 830.568 103.67C829.97 103.867 829.485 104.167 829.114 104.568C828.75 104.962 828.568 105.5 828.568 106.182C828.568 107.114 828.913 107.818 829.602 108.295C830.299 108.765 831.182 109 832.25 109ZM851.327 111.364C849.872 111.364 848.588 110.996 847.474 110.261C846.361 109.519 845.49 108.473 844.861 107.125C844.232 105.769 843.918 104.167 843.918 102.318C843.918 100.485 844.232 98.8939 844.861 97.5455C845.49 96.197 846.365 95.1553 847.486 94.4205C848.607 93.6856 849.902 93.3182 851.372 93.3182C852.509 93.3182 853.406 93.5076 854.065 93.8864C854.732 94.2576 855.24 94.6818 855.588 95.1591C855.944 95.6288 856.221 96.0152 856.418 96.3182H856.645V87.7273H859.327V111H856.736V108.318H856.418C856.221 108.636 855.94 109.038 855.577 109.523C855.213 110 854.694 110.428 854.02 110.807C853.346 111.178 852.448 111.364 851.327 111.364ZM851.69 108.955C852.766 108.955 853.675 108.674 854.418 108.114C855.16 107.545 855.724 106.761 856.111 105.761C856.497 104.754 856.69 103.591 856.69 102.273C856.69 100.97 856.501 99.8295 856.122 98.8523C855.743 97.8674 855.183 97.1023 854.44 96.5568C853.698 96.0038 852.781 95.7273 851.69 95.7273C850.554 95.7273 849.607 96.0189 848.849 96.6023C848.099 97.178 847.535 97.9621 847.156 98.9545C846.785 99.9394 846.599 101.045 846.599 102.273C846.599 103.515 846.789 104.644 847.168 105.659C847.554 106.667 848.122 107.47 848.872 108.068C849.63 108.659 850.569 108.955 851.69 108.955Z" fill="#BA007C"/>
<rect x="957.75" y="0.75" width="308.5" height="157.5" rx="11.25" fill="#FADAEF" stroke="#292C33" stroke-width="1.5"/>
<path d="M1047.87 72V48.7273H1055.73C1057.55 48.7273 1059.04 49.0379 1060.21 49.6591C1061.37 50.2727 1062.24 51.1174 1062.8 52.1932C1063.36 53.2689 1063.64 54.4924 1063.64 55.8636C1063.64 57.2348 1063.36 58.4508 1062.8 59.5114C1062.24 60.572 1061.38 61.4053 1060.22 62.0114C1059.06 62.6098 1057.58 62.9091 1055.77 62.9091H1049.41V60.3636H1055.68C1056.93 60.3636 1057.93 60.1818 1058.68 59.8182C1059.45 59.4545 1060 58.9394 1060.34 58.2727C1060.69 57.5985 1060.87 56.7955 1060.87 55.8636C1060.87 54.9318 1060.69 54.1174 1060.34 53.4205C1059.99 52.7235 1059.44 52.1856 1058.67 51.8068C1057.91 51.4205 1056.9 51.2273 1055.64 51.2273H1050.68V72H1047.87ZM1058.82 61.5455L1064.55 72H1061.27L1055.64 61.5455H1058.82ZM1075.1 72.3636C1073.42 72.3636 1071.97 71.9924 1070.75 71.25C1069.54 70.5 1068.6 69.4545 1067.94 68.1136C1067.29 66.7652 1066.96 65.197 1066.96 63.4091C1066.96 61.6212 1067.29 60.0455 1067.94 58.6818C1068.6 57.3106 1069.52 56.2424 1070.69 55.4773C1071.87 54.7045 1073.25 54.3182 1074.83 54.3182C1075.74 54.3182 1076.63 54.4697 1077.52 54.7727C1078.41 55.0758 1079.21 55.5682 1079.94 56.25C1080.67 56.9242 1081.25 57.8182 1081.68 58.9318C1082.11 60.0455 1082.33 61.4167 1082.33 63.0455V64.1818H1068.87V61.8636H1079.6C1079.6 60.8788 1079.4 60 1079.01 59.2273C1078.62 58.4545 1078.07 57.8447 1077.35 57.3977C1076.64 56.9508 1075.8 56.7273 1074.83 56.7273C1073.76 56.7273 1072.84 56.9924 1072.06 57.5227C1071.28 58.0455 1070.69 58.7273 1070.27 59.5682C1069.85 60.4091 1069.65 61.3106 1069.65 62.2727V63.8182C1069.65 65.1364 1069.87 66.2538 1070.33 67.1705C1070.79 68.0795 1071.43 68.7727 1072.25 69.25C1073.07 69.7197 1074.02 69.9545 1075.1 69.9545C1075.81 69.9545 1076.44 69.8561 1077.01 69.6591C1077.59 69.4545 1078.08 69.1515 1078.5 68.75C1078.92 68.3409 1079.24 67.8333 1079.46 67.2273L1082.06 67.9545C1081.78 68.8333 1081.32 69.6061 1080.68 70.2727C1080.04 70.9318 1079.24 71.447 1078.29 71.8182C1077.35 72.1818 1076.28 72.3636 1075.1 72.3636ZM1098.77 58.4545L1096.36 59.1364C1096.21 58.7348 1095.99 58.3447 1095.69 57.9659C1095.4 57.5795 1095.01 57.2614 1094.51 57.0114C1094.01 56.7614 1093.37 56.6364 1092.59 56.6364C1091.52 56.6364 1090.63 56.8826 1089.92 57.375C1089.21 57.8598 1088.86 58.4773 1088.86 59.2273C1088.86 59.8939 1089.1 60.4205 1089.59 60.8068C1090.07 61.1932 1090.83 61.5152 1091.86 61.7727L1094.45 62.4091C1096.01 62.7879 1097.18 63.3674 1097.94 64.1477C1098.71 64.9205 1099.09 65.9167 1099.09 67.1364C1099.09 68.1364 1098.8 69.0303 1098.23 69.8182C1097.66 70.6061 1096.86 71.2273 1095.84 71.6818C1094.82 72.1364 1093.63 72.3636 1092.27 72.3636C1090.49 72.3636 1089.02 71.9773 1087.85 71.2045C1086.68 70.4318 1085.95 69.303 1085.63 67.8182L1088.18 67.1818C1088.42 68.1212 1088.88 68.8258 1089.56 69.2955C1090.24 69.7652 1091.13 70 1092.23 70C1093.48 70 1094.47 69.7348 1095.2 69.2045C1095.95 68.6667 1096.32 68.0227 1096.32 67.2727C1096.32 66.6667 1096.1 66.1591 1095.68 65.75C1095.26 65.3333 1094.6 65.0227 1093.73 64.8182L1090.82 64.1364C1089.22 63.7576 1088.04 63.1705 1087.29 62.375C1086.55 61.572 1086.18 60.5682 1086.18 59.3636C1086.18 58.3788 1086.46 57.5076 1087.01 56.75C1087.57 55.9924 1088.33 55.3977 1089.29 54.9659C1090.26 54.5341 1091.36 54.3182 1092.59 54.3182C1094.32 54.3182 1095.67 54.697 1096.66 55.4545C1097.65 56.2121 1098.35 57.2121 1098.77 58.4545ZM1110.44 72.3636C1108.76 72.3636 1107.31 71.9924 1106.09 71.25C1104.88 70.5 1103.94 69.4545 1103.29 68.1136C1102.63 66.7652 1102.31 65.197 1102.31 63.4091C1102.31 61.6212 1102.63 60.0455 1103.29 58.6818C1103.94 57.3106 1104.86 56.2424 1106.04 55.4773C1107.22 54.7045 1108.6 54.3182 1110.17 54.3182C1111.08 54.3182 1111.98 54.4697 1112.87 54.7727C1113.75 55.0758 1114.56 55.5682 1115.29 56.25C1116.01 56.9242 1116.59 57.8182 1117.02 58.9318C1117.46 60.0455 1117.67 61.4167 1117.67 63.0455V64.1818H1104.22V61.8636H1114.94C1114.94 60.8788 1114.75 60 1114.35 59.2273C1113.97 58.4545 1113.41 57.8447 1112.69 57.3977C1111.98 56.9508 1111.14 56.7273 1110.17 56.7273C1109.1 56.7273 1108.18 56.9924 1107.4 57.5227C1106.63 58.0455 1106.03 58.7273 1105.62 59.5682C1105.2 60.4091 1104.99 61.3106 1104.99 62.2727V63.8182C1104.99 65.1364 1105.22 66.2538 1105.67 67.1705C1106.13 68.0795 1106.77 68.7727 1107.59 69.25C1108.41 69.7197 1109.36 69.9545 1110.44 69.9545C1111.15 69.9545 1111.79 69.8561 1112.35 69.6591C1112.93 69.4545 1113.43 69.1515 1113.84 68.75C1114.26 68.3409 1114.58 67.8333 1114.81 67.2273L1117.4 67.9545C1117.13 68.8333 1116.67 69.6061 1116.02 70.2727C1115.38 70.9318 1114.58 71.447 1113.64 71.8182C1112.69 72.1818 1111.63 72.3636 1110.44 72.3636ZM1121.75 72V54.5455H1124.34V57.1818H1124.52C1124.84 56.3182 1125.42 55.6174 1126.25 55.0795C1127.08 54.5417 1128.02 54.2727 1129.07 54.2727C1129.27 54.2727 1129.51 54.2765 1129.81 54.2841C1130.1 54.2917 1130.33 54.303 1130.48 54.3182V57.0455C1130.39 57.0227 1130.18 56.9886 1129.85 56.9432C1129.54 56.8902 1129.2 56.8636 1128.84 56.8636C1127.99 56.8636 1127.24 57.0417 1126.57 57.3977C1125.91 57.7462 1125.39 58.2311 1125 58.8523C1124.62 59.4659 1124.43 60.1667 1124.43 60.9545V72H1121.75ZM1148.46 54.5455L1142.01 72H1139.28L1132.83 54.5455H1135.73L1140.55 68.4545H1140.73L1145.55 54.5455H1148.46ZM1156.61 72.4091C1155.5 72.4091 1154.5 72.2008 1153.6 71.7841C1152.69 71.3598 1151.98 70.75 1151.45 69.9545C1150.92 69.1515 1150.65 68.1818 1150.65 67.0455C1150.65 66.0455 1150.85 65.2348 1151.24 64.6136C1151.64 63.9848 1152.16 63.4924 1152.82 63.1364C1153.48 62.7803 1154.21 62.5152 1155 62.3409C1155.81 62.1591 1156.61 62.0152 1157.42 61.9091C1158.49 61.7727 1159.35 61.6705 1160 61.6023C1160.67 61.5265 1161.16 61.4015 1161.46 61.2273C1161.77 61.053 1161.92 60.75 1161.92 60.3182V60.2273C1161.92 59.1061 1161.62 58.2348 1161 57.6136C1160.4 56.9924 1159.48 56.6818 1158.24 56.6818C1156.96 56.6818 1155.96 56.9621 1155.23 57.5227C1154.5 58.0833 1153.99 58.6818 1153.7 59.3182L1151.15 58.4091C1151.61 57.3485 1152.21 56.5227 1152.97 55.9318C1153.74 55.3333 1154.57 54.9167 1155.47 54.6818C1156.38 54.4394 1157.27 54.3182 1158.15 54.3182C1158.71 54.3182 1159.36 54.3864 1160.08 54.5227C1160.82 54.6515 1161.53 54.9205 1162.21 55.3295C1162.9 55.7386 1163.47 56.3561 1163.92 57.1818C1164.38 58.0076 1164.61 59.1136 1164.61 60.5V72H1161.92V69.6364H1161.79C1161.61 70.0152 1161.3 70.4205 1160.88 70.8523C1160.46 71.2841 1159.89 71.6515 1159.19 71.9545C1158.48 72.2576 1157.62 72.4091 1156.61 72.4091ZM1157.02 70C1158.08 70 1158.97 69.7917 1159.7 69.375C1160.43 68.9583 1160.99 68.4205 1161.36 67.7614C1161.74 67.1023 1161.92 66.4091 1161.92 65.6818V63.2273C1161.81 63.3636 1161.56 63.4886 1161.17 63.6023C1160.8 63.7083 1160.36 63.803 1159.86 63.8864C1159.36 63.9621 1158.88 64.0303 1158.41 64.0909C1157.95 64.1439 1157.58 64.1894 1157.29 64.2273C1156.59 64.3182 1155.94 64.4659 1155.33 64.6705C1154.74 64.8674 1154.25 65.1667 1153.88 65.5682C1153.52 65.9621 1153.33 66.5 1153.33 67.1818C1153.33 68.1136 1153.68 68.8182 1154.37 69.2955C1155.06 69.7652 1155.95 70 1157.02 70ZM1169.5 72V54.5455H1172.09V57.1818H1172.27C1172.59 56.3182 1173.17 55.6174 1174 55.0795C1174.83 54.5417 1175.77 54.2727 1176.82 54.2727C1177.02 54.2727 1177.26 54.2765 1177.56 54.2841C1177.85 54.2917 1178.08 54.303 1178.23 54.3182V57.0455C1178.14 57.0227 1177.93 56.9886 1177.6 56.9432C1177.29 56.8902 1176.95 56.8636 1176.59 56.8636C1175.74 56.8636 1174.99 57.0417 1174.32 57.3977C1173.66 57.7462 1173.14 58.2311 1172.75 58.8523C1172.37 59.4659 1172.18 60.1667 1172.18 60.9545V72H1169.5ZM1050.43 111.409C1049.33 111.409 1048.32 111.201 1047.42 110.784C1046.52 110.36 1045.81 109.75 1045.28 108.955C1044.75 108.152 1044.48 107.182 1044.48 106.045C1044.48 105.045 1044.68 104.235 1045.07 103.614C1045.46 102.985 1045.99 102.492 1046.65 102.136C1047.31 101.78 1048.04 101.515 1048.83 101.341C1049.64 101.159 1050.44 101.015 1051.25 100.909C1052.31 100.773 1053.17 100.67 1053.83 100.602C1054.5 100.527 1054.98 100.402 1055.29 100.227C1055.6 100.053 1055.75 99.75 1055.75 99.3182V99.2273C1055.75 98.1061 1055.45 97.2348 1054.83 96.6136C1054.23 95.9924 1053.31 95.6818 1052.07 95.6818C1050.79 95.6818 1049.79 95.9621 1049.06 96.5227C1048.33 97.0833 1047.82 97.6818 1047.53 98.3182L1044.98 97.4091C1045.43 96.3485 1046.04 95.5227 1046.8 94.9318C1047.56 94.3333 1048.4 93.9167 1049.3 93.6818C1050.21 93.4394 1051.1 93.3182 1051.98 93.3182C1052.54 93.3182 1053.18 93.3864 1053.91 93.5227C1054.65 93.6515 1055.36 93.9205 1056.04 94.3295C1056.73 94.7386 1057.3 95.3561 1057.75 96.1818C1058.21 97.0076 1058.43 98.1136 1058.43 99.5V111H1055.75V108.636H1055.62C1055.43 109.015 1055.13 109.42 1054.71 109.852C1054.28 110.284 1053.72 110.652 1053.01 110.955C1052.31 111.258 1051.45 111.409 1050.43 111.409ZM1050.84 109C1051.9 109 1052.8 108.792 1053.53 108.375C1054.26 107.958 1054.81 107.42 1055.18 106.761C1055.56 106.102 1055.75 105.409 1055.75 104.682V102.227C1055.64 102.364 1055.39 102.489 1055 102.602C1054.62 102.708 1054.18 102.803 1053.68 102.886C1053.19 102.962 1052.71 103.03 1052.24 103.091C1051.78 103.144 1051.4 103.189 1051.12 103.227C1050.42 103.318 1049.77 103.466 1049.16 103.67C1048.56 103.867 1048.08 104.167 1047.71 104.568C1047.34 104.962 1047.16 105.5 1047.16 106.182C1047.16 107.114 1047.51 107.818 1048.2 108.295C1048.89 108.765 1049.78 109 1050.84 109ZM1070.42 111.364C1068.78 111.364 1067.38 110.977 1066.19 110.205C1065.01 109.432 1064.1 108.367 1063.47 107.011C1062.83 105.655 1062.51 104.106 1062.51 102.364C1062.51 100.591 1062.84 99.0265 1063.49 97.6705C1064.15 96.3068 1065.06 95.2424 1066.24 94.4773C1067.42 93.7045 1068.8 93.3182 1070.38 93.3182C1071.6 93.3182 1072.71 93.5455 1073.69 94C1074.68 94.4545 1075.48 95.0909 1076.11 95.9091C1076.74 96.7273 1077.13 97.6818 1077.28 98.7727H1074.6C1074.4 97.9773 1073.94 97.2727 1073.24 96.6591C1072.54 96.0379 1071.6 95.7273 1070.42 95.7273C1069.38 95.7273 1068.46 96 1067.67 96.5455C1066.89 97.0833 1066.28 97.8447 1065.84 98.8295C1065.41 99.8068 1065.19 100.955 1065.19 102.273C1065.19 103.621 1065.41 104.795 1065.83 105.795C1066.26 106.795 1066.87 107.572 1067.65 108.125C1068.44 108.678 1069.36 108.955 1070.42 108.955C1071.12 108.955 1071.75 108.833 1072.32 108.591C1072.89 108.348 1073.37 108 1073.76 107.545C1074.16 107.091 1074.44 106.545 1074.6 105.909H1077.28C1077.13 106.939 1076.76 107.867 1076.16 108.693C1075.57 109.511 1074.78 110.163 1073.81 110.648C1072.84 111.125 1071.71 111.364 1070.42 111.364ZM1088.8 93.5455V95.8182H1079.75V93.5455H1088.8ZM1082.39 89.3636H1085.07V106C1085.07 106.758 1085.18 107.326 1085.4 107.705C1085.63 108.076 1085.91 108.326 1086.26 108.455C1086.62 108.576 1086.99 108.636 1087.39 108.636C1087.68 108.636 1087.92 108.621 1088.11 108.591C1088.3 108.553 1088.45 108.523 1088.57 108.5L1089.11 110.909C1088.93 110.977 1088.68 111.045 1088.35 111.114C1088.03 111.189 1087.61 111.227 1087.11 111.227C1086.36 111.227 1085.61 111.064 1084.89 110.739C1084.17 110.413 1083.57 109.917 1083.09 109.25C1082.62 108.583 1082.39 107.742 1082.39 106.727V89.3636ZM1092.83 111V93.5455H1095.51V111H1092.83ZM1094.19 90.6364C1093.67 90.6364 1093.22 90.4583 1092.84 90.1023C1092.47 89.7462 1092.28 89.3182 1092.28 88.8182C1092.28 88.3182 1092.47 87.8902 1092.84 87.5341C1093.22 87.178 1093.67 87 1094.19 87C1094.72 87 1095.16 87.178 1095.53 87.5341C1095.91 87.8902 1096.1 88.3182 1096.1 88.8182C1096.1 89.3182 1095.91 89.7462 1095.53 90.1023C1095.16 90.4583 1094.72 90.6364 1094.19 90.6364ZM1114.7 93.5455L1108.24 111H1105.51L1099.06 93.5455H1101.97L1106.79 107.455H1106.97L1111.79 93.5455H1114.7ZM1118.24 111V93.5455H1120.92V111H1118.24ZM1119.6 90.6364C1119.08 90.6364 1118.63 90.4583 1118.25 90.1023C1117.88 89.7462 1117.69 89.3182 1117.69 88.8182C1117.69 88.3182 1117.88 87.8902 1118.25 87.5341C1118.63 87.178 1119.08 87 1119.6 87C1120.12 87 1120.57 87.178 1120.94 87.5341C1121.32 87.8902 1121.51 88.3182 1121.51 88.8182C1121.51 89.3182 1121.32 89.7462 1120.94 90.1023C1120.57 90.4583 1120.12 90.6364 1119.6 90.6364ZM1132.42 111.364C1130.97 111.364 1129.68 110.996 1128.57 110.261C1127.45 109.519 1126.58 108.473 1125.95 107.125C1125.33 105.769 1125.01 104.167 1125.01 102.318C1125.01 100.485 1125.33 98.8939 1125.95 97.5455C1126.58 96.197 1127.46 95.1553 1128.58 94.4205C1129.7 93.6856 1131 93.3182 1132.47 93.3182C1133.6 93.3182 1134.5 93.5076 1135.16 93.8864C1135.83 94.2576 1136.33 94.6818 1136.68 95.1591C1137.04 95.6288 1137.31 96.0152 1137.51 96.3182H1137.74V87.7273H1140.42V111H1137.83V108.318H1137.51C1137.31 108.636 1137.03 109.038 1136.67 109.523C1136.31 110 1135.79 110.428 1135.11 110.807C1134.44 111.178 1133.54 111.364 1132.42 111.364ZM1132.78 108.955C1133.86 108.955 1134.77 108.674 1135.51 108.114C1136.25 107.545 1136.82 106.761 1137.2 105.761C1137.59 104.754 1137.78 103.591 1137.78 102.273C1137.78 100.97 1137.59 99.8295 1137.22 98.8523C1136.84 97.8674 1136.28 97.1023 1135.53 96.5568C1134.79 96.0038 1133.88 95.7273 1132.78 95.7273C1131.65 95.7273 1130.7 96.0189 1129.94 96.6023C1129.19 97.178 1128.63 97.9621 1128.25 98.9545C1127.88 99.9394 1127.69 101.045 1127.69 102.273C1127.69 103.515 1127.88 104.644 1128.26 105.659C1128.65 106.667 1129.22 107.47 1129.97 108.068C1130.72 108.659 1131.66 108.955 1132.78 108.955ZM1150.84 111.409C1149.73 111.409 1148.73 111.201 1147.83 110.784C1146.93 110.36 1146.21 109.75 1145.68 108.955C1145.15 108.152 1144.89 107.182 1144.89 106.045C1144.89 105.045 1145.08 104.235 1145.48 103.614C1145.87 102.985 1146.4 102.492 1147.06 102.136C1147.72 101.78 1148.44 101.515 1149.24 101.341C1150.04 101.159 1150.85 101.015 1151.66 100.909C1152.72 100.773 1153.58 100.67 1154.24 100.602C1154.91 100.527 1155.39 100.402 1155.69 100.227C1156 100.053 1156.16 99.75 1156.16 99.3182V99.2273C1156.16 98.1061 1155.85 97.2348 1155.24 96.6136C1154.63 95.9924 1153.71 95.6818 1152.48 95.6818C1151.2 95.6818 1150.19 95.9621 1149.47 96.5227C1148.74 97.0833 1148.23 97.6818 1147.93 98.3182L1145.39 97.4091C1145.84 96.3485 1146.45 95.5227 1147.2 94.9318C1147.97 94.3333 1148.8 93.9167 1149.7 93.6818C1150.61 93.4394 1151.51 93.3182 1152.39 93.3182C1152.95 93.3182 1153.59 93.3864 1154.32 93.5227C1155.05 93.6515 1155.76 93.9205 1156.44 94.3295C1157.13 94.7386 1157.7 95.3561 1158.16 96.1818C1158.61 97.0076 1158.84 98.1136 1158.84 99.5V111H1156.16V108.636H1156.02C1155.84 109.015 1155.54 109.42 1155.11 109.852C1154.69 110.284 1154.13 110.652 1153.42 110.955C1152.72 111.258 1151.86 111.409 1150.84 111.409ZM1151.25 109C1152.31 109 1153.2 108.792 1153.93 108.375C1154.67 107.958 1155.22 107.42 1155.59 106.761C1155.97 106.102 1156.16 105.409 1156.16 104.682V102.227C1156.05 102.364 1155.8 102.489 1155.41 102.602C1155.03 102.708 1154.59 102.803 1154.09 102.886C1153.6 102.962 1153.12 103.03 1152.65 103.091C1152.19 103.144 1151.81 103.189 1151.52 103.227C1150.83 103.318 1150.17 103.466 1149.57 103.67C1148.97 103.867 1148.48 104.167 1148.11 104.568C1147.75 104.962 1147.57 105.5 1147.57 106.182C1147.57 107.114 1147.91 107.818 1148.6 108.295C1149.3 108.765 1150.18 109 1151.25 109ZM1170.33 111.364C1168.87 111.364 1167.59 110.996 1166.47 110.261C1165.36 109.519 1164.49 108.473 1163.86 107.125C1163.23 105.769 1162.92 104.167 1162.92 102.318C1162.92 100.485 1163.23 98.8939 1163.86 97.5455C1164.49 96.197 1165.36 95.1553 1166.49 94.4205C1167.61 93.6856 1168.9 93.3182 1170.37 93.3182C1171.51 93.3182 1172.41 93.5076 1173.07 93.8864C1173.73 94.2576 1174.24 94.6818 1174.59 95.1591C1174.94 95.6288 1175.22 96.0152 1175.42 96.3182H1175.64V87.7273H1178.33V111H1175.74V108.318H1175.42C1175.22 108.636 1174.94 109.038 1174.58 109.523C1174.21 110 1173.69 110.428 1173.02 110.807C1172.35 111.178 1171.45 111.364 1170.33 111.364ZM1170.69 108.955C1171.77 108.955 1172.68 108.674 1173.42 108.114C1174.16 107.545 1174.72 106.761 1175.11 105.761C1175.5 104.754 1175.69 103.591 1175.69 102.273C1175.69 100.97 1175.5 99.8295 1175.12 98.8523C1174.74 97.8674 1174.18 97.1023 1173.44 96.5568C1172.7 96.0038 1171.78 95.7273 1170.69 95.7273C1169.55 95.7273 1168.61 96.0189 1167.85 96.6023C1167.1 97.178 1166.54 97.9621 1166.16 98.9545C1165.79 99.9394 1165.6 101.045 1165.6 102.273C1165.6 103.515 1165.79 104.644 1166.17 105.659C1166.55 106.667 1167.12 107.47 1167.87 108.068C1168.63 108.659 1169.57 108.955 1170.69 108.955Z" fill="#BA007C"/>
</svg>
