<svg width="102" height="102" viewBox="0 0 102 102" fill="none" xmlns="http://www.w3.org/2000/svg">
<path d="M24.9688 82.6303V77.3883C24.9688 62.913 36.7034 51.1782 51.1788 51.1782C65.6541 51.1782 77.3889 62.913 77.3889 77.3883V82.6303" stroke="#BA007C" stroke-width="7" stroke-linecap="round"/>
<path d="M51.1792 51.1782C59.8647 51.1782 66.9052 44.1376 66.9052 35.4521C66.9052 26.7669 59.8647 19.7261 51.1792 19.7261C42.4937 19.7261 35.4531 26.7669 35.4531 35.4521C35.4531 44.1376 42.4937 51.1782 51.1792 51.1782Z" stroke="#BA007C" stroke-width="7" stroke-linecap="round" stroke-linejoin="round"/>
<path d="M98.3563 7.14521V95.2111C98.3563 96.9483 96.9483 98.3563 95.2111 98.3563H7.14521C5.40816 98.3563 4 96.9483 4 95.2111V7.14521C4 5.40816 5.40816 4 7.14521 4H95.2111C96.9483 4 98.3563 5.40816 98.3563 7.14521Z" stroke="#BA007C" stroke-width="7" stroke-linecap="round" stroke-linejoin="round"/>
</svg>
