<svg width="92" height="103" viewBox="0 0 92 103" fill="none" xmlns="http://www.w3.org/2000/svg">
<path d="M4 88.3693V14.5462C4 8.72167 8.72167 4 14.5462 4H85.2054C86.9529 4 88.3693 5.41651 88.3693 7.16385V76.3166" stroke="#BA007C" stroke-width="7" stroke-linecap="round"/>
<path d="M67.2764 34.4771C67.2764 37.6485 66.0241 40.6945 63.7872 42.9475C58.6386 48.1362 53.6455 53.5464 48.3044 58.5463C47.0805 59.6758 45.1385 59.6347 43.9668 58.4541L28.5799 42.9475C23.9291 38.2605 23.9291 30.6937 28.5799 26.0066C33.2766 21.2735 40.9279 21.2735 45.6241 26.0066L46.1836 26.5702L46.7425 26.007C48.9947 23.7364 52.0615 22.4558 55.2649 22.4558C58.4688 22.4558 61.5356 23.7363 63.7872 26.0066C66.0241 28.26 67.2764 31.3059 67.2764 34.4771Z" stroke="#BA007C" stroke-width="7" stroke-linejoin="round"/>
<path d="M14.5449 77.823H88.368" stroke="#BA007C" stroke-width="7" stroke-linecap="round"/>
<path d="M14.5449 98.9155H88.368" stroke="#BA007C" stroke-width="7" stroke-linecap="round"/>
<path d="M14.5462 98.9153C8.72167 98.9153 4 94.1938 4 88.3692C4 82.5445 8.72167 77.823 14.5462 77.823" stroke="#BA007C" stroke-width="7" stroke-linecap="round" stroke-linejoin="round"/>
</svg>
