<svg width="93" height="125" viewBox="0 0 93 125" fill="none" xmlns="http://www.w3.org/2000/svg">
<path d="M28.6426 61.8812L28.6426 32.5976L44.9581 4L61.2736 32.5976L61.2736 61.8812" stroke="#BA007C" stroke-width="7" stroke-linecap="round" stroke-linejoin="round"/>
<path d="M28.6426 32.3579C28.6426 32.3579 33.2385 36.631 36.8003 36.631C40.362 36.631 44.9581 32.3579 44.9581 32.3579C44.9581 32.3579 49.5541 36.631 53.1158 36.631C56.6775 36.631 61.2736 32.3579 61.2736 32.3579" stroke="#BA007C" stroke-width="7" stroke-linecap="round" stroke-linejoin="round"/>
<path d="M70.0431 109.066H27.5868C19.7245 109.066 4 104.349 4 85.4792C4 66.6097 19.7245 61.8923 27.5868 61.8923H65.3257C73.1882 61.8923 88.9125 66.6097 88.9125 85.4792C88.9125 92.5283 86.718 97.6028 83.5583 101.194" stroke="#BA007C" stroke-width="7" stroke-linecap="round" stroke-linejoin="round"/>
<path d="M58.25 97.2727L70.0434 109.066L58.25 120.86" stroke="#BA007C" stroke-width="7" stroke-linecap="round" stroke-linejoin="round"/>
</svg>
