<svg width="102" height="102" viewBox="0 0 102 102" fill="none" xmlns="http://www.w3.org/2000/svg">
<path d="M19.7261 4H4V19.7261" stroke="#BA007C" stroke-width="7" stroke-linecap="round" stroke-linejoin="round"/>
<path d="M82.6289 4H98.355V19.7261" stroke="#BA007C" stroke-width="7" stroke-linecap="round" stroke-linejoin="round"/>
<path d="M19.7261 98.3564H4V82.6304" stroke="#BA007C" stroke-width="7" stroke-linecap="round" stroke-linejoin="round"/>
<path d="M24.9688 82.6303V77.3883C24.9688 62.913 36.7034 51.1782 51.1788 51.1782C65.6541 51.1782 77.3889 62.913 77.3889 77.3883V82.6303" stroke="#BA007C" stroke-width="7" stroke-linecap="round" stroke-linejoin="round"/>
<path d="M51.1792 51.1782C59.8647 51.1782 66.9052 44.1376 66.9052 35.4521C66.9052 26.7669 59.8647 19.7261 51.1792 19.7261C42.4937 19.7261 35.4531 26.7669 35.4531 35.4521C35.4531 44.1376 42.4937 51.1782 51.1792 51.1782Z" stroke="#BA007C" stroke-width="7" stroke-linecap="round" stroke-linejoin="round"/>
<path d="M82.6289 98.3564H98.355V82.6304" stroke="#BA007C" stroke-width="7" stroke-linecap="round" stroke-linejoin="round"/>
</svg>
