<svg width="92" height="102" viewBox="0 0 92 102" fill="none" xmlns="http://www.w3.org/2000/svg">
<path d="M69.6205 88.3692C69.6205 93.5467 73.8174 97.7436 78.9948 97.7436C84.1723 97.7436 88.3692 93.5467 88.3692 88.3692C88.3692 83.1918 84.1723 78.9949 78.9948 78.9949C73.8174 78.9949 69.6205 83.1918 69.6205 88.3692ZM69.6205 88.3692H60.2461" stroke="#BA007C" stroke-width="7" stroke-linecap="round" stroke-linejoin="round"/>
<path d="M22.7487 13.3744C22.7487 18.5517 18.5517 22.7487 13.3744 22.7487C8.19704 22.7487 4 18.5517 4 13.3744C4 8.19704 8.19704 4 13.3744 4C18.5517 4 22.7487 8.19704 22.7487 13.3744ZM22.7487 13.3744H32.1231" stroke="#BA007C" stroke-width="7" stroke-linecap="round" stroke-linejoin="round"/>
<path d="M55.5599 13.3743H46.1855" stroke="#BA007C" stroke-width="7" stroke-linecap="round" stroke-linejoin="round"/>
<path d="M46.1849 88.3691H36.8105" stroke="#BA007C" stroke-width="7" stroke-linecap="round" stroke-linejoin="round"/>
<path d="M4 88.3692C41.4974 88.3692 50.8718 13.3743 88.3693 13.3743" stroke="#BA007C" stroke-width="7" stroke-linecap="round" stroke-linejoin="round"/>
</svg>
