<svg width="52" height="50" viewBox="0 0 52 50" fill="none" xmlns="http://www.w3.org/2000/svg">
<path d="M48.35 48.1826L37.0757 48.1826L37.0757 22.0794L48.35 22.0794C48.8483 22.0794 49.3263 22.291 49.6786 22.6675C50.031 23.0441 50.229 23.5548 50.229 24.0874L50.229 46.1747C50.229 46.7072 50.031 47.2179 49.6786 47.5945C49.3263 47.9711 48.8483 48.1826 48.35 48.1826Z" fill="#0ACF83" stroke="#BA007C" stroke-width="3" stroke-linecap="round" stroke-linejoin="round"/>
<path d="M37.0757 22.0794L27.7122 2.00007C25.7255 2.00007 23.8202 2.84627 22.4154 4.35251C21.0106 5.85876 20.2213 7.90166 20.2213 10.0318L20.2213 16.0556L5.73129 16.0556C5.20021 16.0542 4.67501 16.1747 4.19095 16.4089C3.70689 16.6432 3.2752 16.9858 2.92485 17.4137C2.57451 17.8417 2.31363 18.3451 2.15975 18.89C2.00587 19.435 1.96255 20.009 2.03269 20.5735L4.84175 44.6687C4.9554 45.636 5.39334 46.5259 6.07388 47.1725C6.75442 47.819 7.63109 48.1781 8.54034 48.1826L37.0757 48.1826" stroke="#BA007C" stroke-width="3" stroke-linecap="round" stroke-linejoin="round"/>
</svg>
