<?xml version="1.0" encoding="utf-8"?>
<!-- Generator: Adobe Illustrator 28.3.0, SVG Export Plug-In . SVG Version: 6.00 Build 0)  -->
<svg version="1.1" id="Capa_1" xmlns="http://www.w3.org/2000/svg" xmlns:xlink="http://www.w3.org/1999/xlink" x="0px" y="0px"
	 viewBox="0 0 577 566" style="enable-background:new 0 0 577 566;" xml:space="preserve">
<style type="text/css">
	.st0{fill-rule:evenodd;clip-rule:evenodd;fill:#313131;}
	.st1{fill-rule:evenodd;clip-rule:evenodd;fill:#BA007C;}
	.st2{fill-rule:evenodd;clip-rule:evenodd;fill:#FFFFFF;}
	.st3{fill:#FFFFFF;}
</style>
<path class="st0" d="M252.1,523.7c-3.5,1.8-5,4.7-5.1,9.3c0,4,1.1,6.2,5.3,10.9c3.9,4.4,5,6.4,5,9.7c0,2.9-1.2,5.3-3.5,6.9
	c-3.4,2.3-7.2,0.7-9-3.5c-0.9-2.4-1-2.4-2.4-2c-0.8,0.3-1.5,0.5-1.6,0.6c-0.5,0.5,1.7,5.4,3.2,6.9c6.3,6.6,17.5,0.1,16.9-9.8
	c-0.2-3.9-1.6-6.5-5.7-11c-3.8-4.3-5.1-7-4.7-10.1c0.3-2.5,2.5-4.7,4.6-4.7c2,0,4.3,1.6,5,3.6c0.6,1.6,0.7,1.7,2.1,1.4
	c0.8-0.2,1.6-0.4,1.8-0.6c0.5-0.4-1.4-4.4-2.7-5.8C259,522.9,255,522.2,252.1,523.7z M315,523.7c-15.3,4.3-22.4,26.4-11.7,37
	c2.4,2.4,4.6,3.5,8.5,4.2c11.6,2,22.6-6.2,25.2-18.8c1.9-9.2-1.6-17.9-8.7-21.6C325.2,522.9,319.1,522.5,315,523.7z M404.9,523.7
	c-3.5,1.8-5,4.6-5.1,9.3c0,4,1,6,5.2,10.8c4.1,4.5,5.1,6.5,5,9.8c0,3-1.2,5.2-3.5,6.8c-3.4,2.3-7.2,0.7-9-3.6l-1-2.5l-1.6,0.7
	c-1.8,0.7-1.8,1.1,0,4.9c4.7,10.1,19.4,4.3,18.6-7.3c-0.2-3.8-1.6-6.4-5.5-10.9c-4-4.5-5.2-7-4.9-10.1c0.6-5.7,7.6-6.6,9.6-1.2
	c0.6,1.5,0.7,1.7,2.1,1.4c0.8-0.2,1.6-0.4,1.8-0.6c0.5-0.4-1.4-4.4-2.7-5.8C411.8,522.9,407.9,522.2,404.9,523.7z M451.9,523.7
	c-15,4.2-22.1,24.9-12.2,35.9c4,4.5,10,6.4,16.8,5.4c3.5-0.5,7.9-2.3,10.3-4.3c1.2-0.9,1.2-0.9,0.3-2.4l-0.9-1.5l-1.3,1
	c-8.6,6.1-19.9,4.5-24.3-3.4c-1.3-2.5-1.4-3-1.4-7.7c0-4.7,0.1-5.3,1.5-8.3c2-4.3,5.3-7.7,9.3-9.7c2.9-1.4,3.6-1.6,7.8-1.6
	c4.1,0,4.9,0.2,7.1,1.3c1.4,0.7,3.3,2,4.2,2.8c1.7,1.5,1.8,1.5,2.4,0.6c1.5-1.9,1.4-2.7-0.3-4.1c-0.9-0.8-3-2.1-4.7-2.9
	c-2.7-1.3-3.6-1.6-7.5-1.7C456.1,523,453.7,523.2,451.9,523.7z M6.2,524.5C6,525,0.3,560.8,0,563.2c-0.1,0.8,0.2,1,1.6,1h1.7
	l1.3-8.2c0.7-4.5,1.4-8.9,1.6-9.8l0.3-1.6l7.1-0.1l7.1-0.1l0.2-1.6l0.2-1.6h-6.8c-3.7,0-6.8-0.2-6.9-0.4c-0.1-0.2,0.3-3.2,0.8-6.6
	l1-6.3l7.1-0.1c6.4-0.1,7.1-0.2,7.1-1c0-0.5,0.1-1.3,0.3-1.9l0.3-1.1h-8.8C8.6,523.9,6.3,524,6.2,524.5z M30.8,524.5
	c-0.8,2.4-4.6,29-4.5,31.2c0.4,5.2,2.9,8.1,7.8,9.2c6.1,1.4,12-1.4,14.8-7c1.3-2.4,2.2-6.7,4.2-19.5c1.1-6.7,2.1-12.7,2.2-13.3
	c0.2-1,0.1-1.1-1.6-1.1h-1.8l-1.6,10.5c-1.9,12.7-3.2,19.1-4.4,21.3c-2.4,4.7-7.8,7-12.3,5.1c-2.5-1-3.6-3.2-3.6-7
	c0-2.5,3-23,4.1-28.6c0.3-1.3,0.2-1.3-1.5-1.3C31.8,523.9,30.9,524.2,30.8,524.5z M64.7,524c-0.3,0.7-6.4,40-6.3,40.2
	c0.1,0.1,4.4,0.2,9.6,0.2c7,0,9.4-0.1,9.5-0.6c0.1-0.3,0.3-1.2,0.5-1.9l0.3-1.3h-8h-8l0.3-1.6c0.2-0.9,1.4-8.4,2.7-16.8
	c1.3-8.4,2.5-15.9,2.7-16.8c0.3-1.5,0.2-1.6-1.4-1.6C65.5,523.9,64.7,523.9,64.7,524z M88.2,524.5c-0.5,1.4-6.3,39.5-6.1,39.7
	c0.1,0.1,4.4,0.2,9.6,0.2c7,0,9.4-0.1,9.5-0.6c0.1-0.3,0.3-1.2,0.5-1.9l0.3-1.3h-8h-8l0.3-1.6c0.1-0.9,1.3-8.4,2.7-16.8
	c1.3-8.4,2.5-15.9,2.7-16.8c0.3-1.5,0.2-1.6-1.4-1.6C89.1,523.9,88.3,524.2,88.2,524.5z M121.5,524.2c-0.2,0.2-0.3,1-0.3,1.9v1.6
	h4.4h4.4l-0.3,1.6c-0.1,0.9-1.3,8.4-2.7,16.8c-1.3,8.4-2.5,15.9-2.7,16.8c-0.3,1.6-0.3,1.6,1.6,1.4l1.8-0.2l2.9-18.2l2.9-18.2h4.7
	c4.7,0,4.7,0,4.7-1.2c0-0.6,0.1-1.5,0.3-1.9c0.3-0.7-0.9-0.8-10.5-0.8C126.7,523.9,121.7,524,121.5,524.2z M144.4,543.1
	c-1.7,10.5-3.1,19.7-3.3,20.3c-0.2,1-0.1,1.1,1.5,1.1c1,0,1.8-0.3,2-0.6c0.1-0.3,1.5-9,3.1-19.2c1.6-10.2,3-19.1,3.2-19.6
	c0.2-1,0.1-1.1-1.6-1.1h-1.8L144.4,543.1z M163.4,524.4c-0.5,1.3-11.9,39.6-11.9,39.8c0,0.1,0.8,0.2,1.8,0.1l1.8-0.1l4-13.5
	c4.4-14.9,4.4-14.9,4.7-14.6c0.1,0.1,1.8,5.8,3.9,12.7c5.1,17.5,4.5,15.9,5.5,14.9c0.5-0.5,4.2-6.4,8.2-13.2
	c4.1-6.8,7.7-12.6,8.1-13c0.7-0.8,0.7-1.6-0.2,19.9l-0.3,7.1h1.5c0.8,0,1.6-0.3,1.7-0.6c0.3-0.8,1.7-39.6,1.4-39.9
	c-0.3-0.3,0.8-2-10.1,16.2c-5.3,8.8-9.7,16-9.9,16c-0.1,0-2.3-7-4.8-15.5c-2.5-8.6-4.7-15.9-4.9-16.3
	C163.7,523.7,163.6,523.7,163.4,524.4z M206,524.3c0,0.2-1.4,9.3-3.1,20.1c-1.7,10.8-3.1,19.8-3.1,19.9s4.5,0.1,10,0.1l10-0.1
	l0.3-1.8l0.3-1.8h-8.1c-7.4,0-8.1-0.1-8.1-0.8c0-0.5,0.5-4,1.1-7.8l1.1-7l8.3-0.1c6.2-0.1,8.3-0.3,8.3-0.7c0-0.3,0.1-1.1,0.3-1.7
	l0.3-1.1h-8c-4.4,0-8.1-0.2-8.2-0.4c-0.1-0.2,0.2-3.3,0.8-6.8l1-6.3h8.4h8.4v-1.2c0-0.6,0.1-1.5,0.3-1.9c0.3-0.7-0.8-0.8-9.9-0.8
	C210.6,523.9,206,524.1,206,524.3z M273.3,525.4c-0.8,4.7-6,37.9-6,38.4c0,0.4,0.6,0.6,1.6,0.6c1.4,0,1.7-0.2,1.9-1.3
	c0.2-1.2,1.9-11.9,2.6-16.1l0.3-1.7l6.4-0.2c5.3-0.2,6.7-0.4,8.6-1.3c7-3.4,8.5-15,2.3-18.6c-1.5-0.9-2.7-1-9.5-1.2l-7.8-0.2
	L273.3,525.4z M345.4,543.3c-1.7,10.7-3.1,19.7-3.1,20.1c-0.1,0.5,0.4,0.7,1.6,0.7h1.7l1.5-9.4c0.8-5.2,1.6-9.5,1.6-9.6
	c0-0.1,0.7-0.1,1.6,0c1.5,0.1,1.8,0.5,6.7,9.6l5.1,9.4l2,0.1l2,0.1l-1-2c-0.5-1.1-2.8-5.3-5.1-9.5c-2.2-4.1-4.1-7.6-4.1-7.7
	c0-0.1,1.1-0.3,2.5-0.5c6.2-0.8,10.5-5.6,10.5-11.7c0-3.1-0.8-5.2-2.8-7c-1.9-1.8-4-2.2-11.5-2.2l-6.3,0L345.4,543.3z M374.3,524.7
	c0,0.5-0.1,1.3-0.3,1.9c-0.3,1.1-0.2,1.1,4.3,1.1h4.5l-2.8,17.5c-1.5,9.6-2.8,17.9-2.8,18.3c0,0.6,0.4,0.8,1.7,0.8
	c0.9,0,1.7-0.1,1.7-0.3c0-0.1,0.6-3.7,1.2-7.8c0.7-4.2,1.9-11.7,2.7-16.7s1.6-9.8,1.7-10.5l0.3-1.3h4.5c4.8,0,5.1-0.1,5.1-2.7v-1.2
	h-10.8C375.2,523.9,374.3,524,374.3,524.7z M481.6,525.2c-0.5,2.2-6.1,37.8-6.1,38.5c0,0.6,1.7,0.7,9.6,0.7h9.6l0.3-1.5
	c0.2-0.8,0.3-1.7,0.3-1.9s-3.4-0.4-7.6-0.4s-7.7-0.1-7.9-0.2c-0.1-0.1,1-8,2.6-17.5c1.5-9.5,2.8-17.6,2.8-18.1
	c0-0.6-0.4-0.8-1.6-0.8C482.2,523.9,481.9,524.1,481.6,525.2z M503.1,536.5c-2.3,14.2-2.8,19.7-2,22.2c1.4,4.2,4.7,6.3,9.9,6.3
	c4.2,0,6.6-0.8,9-3c2.2-2,3.9-5.1,4.9-9c0.7-2.8,4.7-26.8,4.7-28.3c0-0.6-0.4-0.8-1.6-0.8h-1.6l-1.5,9.8
	c-1.9,11.9-3.3,19.4-4.1,21.3c-2.8,6.7-11.6,8.7-15.4,3.5c-1.5-2-1.2-6.5,1.3-21.7l2.1-12.9h-1.8h-1.8L503.1,536.5z M538.7,524.1
	c0,0.2-1.4,9.2-3.1,20c-1.7,10.8-3.1,19.8-3.1,20c0,0.5,16.3-0.1,18.5-0.8c2.4-0.7,5.1-3.1,6.2-5.5c1.2-2.7,1.2-7.9,0-10.3
	c-1-2-2.1-3.1-4.1-4.1l-1.4-0.7l1.5-0.9c4.5-2.6,6.1-9.8,3.2-14.2c-1.8-2.8-3.9-3.5-11.2-3.7C541.6,523.9,538.7,523.9,538.7,524.1z
	 M326.3,527.7c2.7,1.2,6.2,5.3,7,8.1c1.5,5.4,0.2,12.6-3.3,17.6c-6.1,8.7-18.3,10.8-24.5,4.2c-3.2-3.4-4.5-8.5-3.5-13.9
	c1.3-7.8,6.1-13.7,12.9-16.2C317.6,526.5,324,526.6,326.3,527.7z M552.2,528.8c2.2,1.4,2.7,5.2,1,8.1c-1.6,2.8-4.1,3.9-9.2,4.2
	l-4.4,0.2l0.3-1.4c0.2-0.8,0.6-3.8,1.1-6.8l0.8-5.4l1.5-0.1C545.7,527.4,551.1,528.1,552.2,528.8z M290,529.6
	c1.7,1.9,1.9,4.5,0.5,7.3c-1.6,3.2-3.6,4-10.2,4.3c-6.7,0.3-6.2,1.1-4.8-7.1c0.5-3.1,1-5.7,1-5.9c0-0.2,2.7-0.3,6.1-0.2l6.1,0.2
	L290,529.6z M362.7,528.6c3.5,1.7,3.8,6.3,0.7,9.7c-2,2.2-4.3,2.9-10.1,2.9h-4.2l0.3-1.3c0.2-0.7,0.6-3.5,1-6.1
	c0.4-2.7,0.8-5.1,1-5.4C351.8,527.4,360.6,527.5,362.7,528.6z M549,545.6c1,0.3,2.6,1.2,3.6,2.1c1.7,1.5,1.8,1.8,1.8,4.7
	c0,2.4-0.2,3.4-1.1,4.6c-1.8,2.5-4,3.2-10.6,3.5c-5.5,0.2-5.9,0.2-5.9-0.7c0-1,1.9-13.2,2.2-14.1C539.2,544.9,546.4,544.9,549,545.6
	z"/>
<path class="st1" d="M326.9,340.7c-8.1,1-15.5,3.5-20.6,6.9c-3.9,2.6-7.8,7-9,10.1c-0.6,1.5-2.5,12.2-4.6,25.7
	c-7.8,49.5-14.3,91-15.5,98.7c-1.7,11.1-1.3,13.3,3.8,18.1c5.5,5.2,12.9,7.3,25.5,7.3c16.1,0,27.8-3.2,34.6-9.5
	c4.5-4.2,5.5-6.6,7.5-19.5c0.9-5.9,2.6-16.3,3.7-23.1c1.1-6.8,2-13.6,2-15.2c0.1-8-8.1-14.4-21-16.6c-4.4-0.7-15.3-1-15.8-0.3
	c-0.2,0.3-0.6,2-0.8,3.8l-0.3,3.3h2.4c3.6,0,9.7,1.7,11.7,3.3c2,1.6,3.9,5,3.9,7.2c0,1.9-6.6,44.3-7.3,47.1c-1.2,4.7-4.3,7.9-9.6,10
	c-3.9,1.5-11.4,1.5-14.7,0c-4.4-2-6.1-4.4-6.1-8.7c0-1.5,1.6-13.1,3.7-25.8c2-12.7,5.7-36.4,8.3-52.6c7.7-48.9,7.9-50.4,9-52.8
	c1.7-4,5.6-6.9,11.5-8.4c5.6-1.5,11.9,0.1,15.3,3.8c2.7,2.9,2.9,4.3,1.5,13.8c-1,6.8-1,8.3-0.5,10.1c0.8,2.9,3.8,5.8,7.4,7.2
	c3.5,1.3,9.4,2.3,10,1.7c0.2-0.2,1.1-4.9,2-10.3c2.4-15.6,1.7-22-3.2-27.5c-2.8-3.2-7.6-5.5-13.7-6.8
	C342.5,340.5,331.7,340,326.9,340.7z M489.1,388.5c-14.8,1.2-27.9,8.4-32.1,17.5c-0.8,1.6-1.6,5.9-2.8,13.5
	c-0.9,6.1-3,19.4-4.6,29.7c-1.6,10.2-3.6,22.7-4.4,27.7c-0.8,5-2.2,13.7-3,19.2l-1.6,10.1l3.5-0.3c9.1-0.8,15.8-4.8,18-10.6
	c0.5-1.3,1.1-4.1,1.4-6c0.8-5.1,5.8-37.1,9.5-60.7c1.9-11.9,3.5-20.8,4-22c2.7-6,11.1-9.8,18.8-8.4c6.6,1.2,10.1,4.5,10.1,9.7
	c0,1.3-2.9,21.1-6.5,44l-6.5,41.5l0.8,2.5c1.1,3.3,2.9,7,4.2,8.4c0.7,0.8,1.5,1.1,3,1.1c1.8,0,2.2-0.3,5.1-3.2c4.8-5,7-8.8,7.7-13.2
	c0.3-2,2.2-14,4.2-26.8c8.8-56.2,8.4-53.8,9.8-56.3c2.2-4.1,6.4-6.6,12.5-7.6c6.8-1.1,13.4,1.3,15.8,5.9c1.4,2.7,1.2,4-9.7,72.9
	c-1.2,7.7-2.3,15.2-2.5,16.7c-0.8,7.2,4.3,11.6,14.4,12.7c3.1,0.3,3.2,0.3,3.5-0.8c0.1-0.6,1.7-10.1,3.4-21.1
	c1.7-11,5-31.8,7.3-46.3c2.3-14.5,4.3-27.7,4.4-29.4c0.4-4.6-1-8-4.9-11.8c-5.2-5.1-12.5-7.8-22.7-8.3c-10-0.5-20.3,1.4-27.5,5
	l-2.4,1.2L516,393c-3.9-2.1-11-4-16.5-4.4c-2.2-0.2-4.4-0.3-4.9-0.4C494.1,388.1,491.6,388.2,489.1,388.5z M440.5,389.9
	c-7.4,0.7-13.2,3.4-15.1,7.2c-0.7,1.5-2.2,9.4-5.6,31.5c-2.5,16.2-4.8,30.3-5.1,31.3c-1.8,7.2-14.9,10.8-23.5,6.5
	c-2.4-1.2-4.4-3.7-4.4-5.5c0-0.6,2.1-14.3,4.6-30.4c2.5-16.1,4.6-30.1,4.7-31.2c0.1-2.7-1.2-4.8-3.7-6.3c-2.4-1.4-7.6-2.6-11-2.6
	c-2,0-2.3,0.1-2.5,1.1c-0.1,0.6-2.7,16.6-5.6,35.5c-6,38.3-5.9,36.5-2.6,39.8c6.4,6.4,24.1,9.1,38.8,5.8c1.7-0.4,3.2-0.6,3.3-0.5
	c0.1,0.1-0.7,5.9-1.8,12.9c-2.2,13.8-2.7,15.4-5.7,17.5c-3.2,2.2-5.7,2.8-11.4,2.9c-4.8,0-5.6-0.1-8.1-1.3c-3.9-1.8-4.7-3.4-4.6-8.4
	c0.1-4.6-0.7-6.4-3.5-8.2c-3-1.9-12.5-3.8-13.2-2.7c-0.2,0.3-0.8,3.5-1.3,7.2c-1,6.4-1,6.8-0.2,8.8c2.1,5.4,8.3,8.8,18.4,10
	c5.6,0.7,20.3,0.7,25.2,0c4.6-0.6,10.3-2.2,12.9-3.5c3.1-1.6,6.1-4.3,7-6.4c0.9-1.9,18-109.1,17.7-110.7
	C444,389.7,443.4,389.7,440.5,389.9z"/>
<path class="st2" d="M33.2,351.8c-0.4,1.2-2.7,17-2.7,18.2c0,4.3,3.2,8.3,7.8,10c2.4,0.9,9.9,2.3,10.3,1.9c0.1-0.1,0.7-3.6,1.4-7.8
	c2-12.3,1.6-15.1-2.3-18.4c-1.9-1.7-6.1-3.3-9.8-3.9c-1.1-0.2-2.5-0.4-3.3-0.5C33.9,351.3,33.3,351.4,33.2,351.8z M92.7,388.2
	c-3.6,0.4-11.5,2.2-14.5,3.4c-7.9,3.1-14.4,8.2-16.9,13.4c-1.4,2.9-2,6-9.2,51.9c-4.2,26.9-7.7,48.9-7.7,49c0,0.4,4.1,0.1,7.4-0.5
	c6.7-1.3,11.7-4.8,13.9-9.6c0.8-1.7,2.4-11.1,6-34.2c9-57.6,8.3-53.5,10-56.3c2.8-4.6,8.4-7.3,15-7.3c6.4,0,11.5,2.9,12.8,7.3
	c0.7,2.4,1.3-1.8-7.3,52.7c-3,19.2-5.3,34.8-5.1,35.9c0.3,2.4,3.3,9,4.9,10.6c2.4,2.4,5,1.2,9.8-4.6c5.3-6.4,4.7-3.6,11.7-48.9
	c3.5-22.3,6.5-41.3,6.8-42.3c0.7-2.7,3.4-6.3,5.8-7.8c1.2-0.7,4.1-1.8,6.5-2.4c4.1-1,4.4-1,8.1-0.3c2.3,0.5,4.6,1.3,5.8,2.1
	c2.4,1.6,4.2,4.8,4.2,7.3c0,0.9-2.9,20.3-6.5,43.2c-3.6,22.8-6.5,42.7-6.5,44.1c0,6.6,5.1,10.6,14.6,11.5l3.2,0.3l0.3-1.4
	c0.2-0.8,1.7-10.4,3.4-21.4c1.7-11,5.1-32.5,7.5-47.7c3.2-20.4,4.3-28.4,4.1-30.1c-0.9-7.4-7.2-13.2-17.6-16.2
	c-4.6-1.3-15.6-1.8-21.9-1c-4.3,0.6-12.7,3.1-16.2,4.9l-1.8,0.9l-3.5-1.9C113.2,389.4,101.3,387.4,92.7,388.2z M231.8,389.1
	c-6.2,1.1-10.8,2.5-15.1,4.6c-7.5,3.5-12.4,7.8-14.6,12.8c-0.8,1.8-3.7,17.5-3.8,20.4c0,1.2,9.6-0.5,13.1-2.3
	c5.1-2.6,7.6-6,9.3-12.7c1.4-5.5,2.1-6.9,4.9-9.3c2.4-2.1,5.5-3.5,10-4.4c2.4-0.5,3.4-0.5,6.4,0.2c5.5,1.2,8.9,4.2,9.6,8.4
	c0.3,2-2.3,19.8-3.4,23.2c-1.1,3.2-3.6,6-7.1,7.6c-3.9,1.8-6.5,2.4-13.4,2.7c-7,0.4-10.7,0.9-15.8,2.5c-9.8,3-15.9,7.6-18.3,13.9
	c-1.2,3.1-5.3,29.1-5.3,33.3c0,5.2,3.3,10.3,9.2,14c4.6,2.9,11.6,3.9,25.1,3.5c9.9-0.3,13.5-0.8,19.1-2.7l2.8-0.9l3.6,1.2
	c3.5,1.2,8.7,2,8.7,1.5c0-0.3,4-25.4,10.4-66.1c2.6-16.2,4.7-30.9,4.7-32.8c0-4.3-1.3-7.2-4.8-10.7c-3.1-3-9.1-6.1-13.9-7.2
	C248.2,388.5,236.7,388.2,231.8,389.1z M26.4,395.2C25.9,396.7,8.8,507.1,9,507.4c0.4,0.4,7.7-0.8,10.7-1.9
	c6.7-2.3,10.5-6.6,11.7-13.3c0.3-1.6,3.3-20.9,6.8-42.9c6.9-44.1,7-44.9,4.6-48.3c-2.2-3.2-6.9-5.2-13.9-6.1
	C27.3,394.7,26.6,394.8,26.4,395.2z M245.7,447.7c-3.3,21.9-6.1,39-6.8,41.2c-1.1,3.9-4.5,7.4-8.6,8.9c-4.3,1.6-10.7,1.9-14.4,0.5
	c-4.1-1.5-6.2-3.6-7.1-7.3c-0.4-1.8,3.3-27.8,4.7-32.6c1.7-6.1,5.2-7.8,20-9.8c4.1-0.6,8.2-1.2,9.2-1.4
	C244.9,446.7,245.8,446.9,245.7,447.7z"/>
<path class="st3" d="M244.1,67.7H443c42.1,0,76.1,35.2,76.1,78.6v0c0,43.4-34.1,78.6-76.1,78.6H244.1c-42.1,0-76.1-35.2-76.1-78.6v0
	C168,102.9,202.1,67.7,244.1,67.7z"/>
<path class="st1" d="M303.4,0.3c-57.5,3.1-101.9,27.7-133.1,73.8c-29.9,44.2-53.4,114-64.5,191.8c-2.3,16.2-5.2,43.7-4.7,44.2
	c0.1,0.1,62.9,0.3,139.5,0.5c105.3,0.2,141,0.2,146.3-0.3c49.4-4,89.1-29.6,120.7-77.7c25.6-39,45.3-93.4,56.9-156.9
	c4.2-23.2,8.4-55.7,9.1-71.3l0.1-3.3l-2.4-0.1c-1.3,0-54.4-0.2-117.9-0.4c-63.5-0.2-121.6-0.4-129-0.5C317-0.1,307.5,0,303.4,0.3z
	 M293.1,98.6c6.6,0.9,12.8,5.3,15.5,11c2.1,4.4,2,7.7-0.5,23.7c-2.1,12.9-2.3,14-4.1,17.7c-2.3,4.8-6.8,9.2-11.9,11.9
	c-6.6,3.5-6.3,3.4-34.2,3.6c-27.4,0.2-27,0.2-28.5,3.1c-0.8,1.6-3.1,14-3.1,16.9c0,1,0.4,2.2,0.9,2.9l0.9,1.1l25.7,0.3
	c27.9,0.3,28.4,0.3,32.7,3.1c5.1,3.3,8.7,10.8,8.2,17l-0.1,1.8l-36.2,0.1c-22.8,0.1-37.6,0-39.9-0.4c-9.6-1.3-16.9-8.5-17.6-17.3
	c-0.2-3.5,3.6-28.5,4.9-32.4c2.7-7.6,9.7-14.1,18.3-16.9c3.3-1.1,3.9-1.1,28.9-1.4c19.5-0.2,25.8-0.4,26.6-0.9c1.8-1,2.8-3.9,4-11.3
	c1.2-7.8,1.1-10.1-0.6-11.1c-0.8-0.5-7.3-0.7-26.9-0.8l-25.8-0.2l-3-1.3c-6.6-2.8-10.2-8-11-16c-0.2-1.7-0.2-3.5,0-3.9
	c0.3-0.7,4.1-0.8,36.8-0.7C274.6,98.1,291.1,98.3,293.1,98.6z M337.8,100.6c3.8,1.4,8,5.4,10,9.4c2.2,4.5,2.3,7,0.5,18.1
	c-1.9,11.4-2,13.7-0.5,15.1c1,1,1.3,1,22.1,1.2c23.6,0.1,23.5,0.2,25.2-3.3c0.5-1.1,2-9.2,4-21.7c1.8-11,3.3-20.3,3.4-20.6
	c0.3-0.9,6.5,0.5,10.4,2.3c4,1.9,7.6,5.5,9.5,9.5c1.1,2.3,1.3,3.4,1.3,6.6c0,3.5-14.2,94.1-14.9,95.2c-0.4,0.7-7-0.8-10.2-2.3
	c-5.6-2.6-9.2-7-10.7-12.8c-0.8-3.2-0.8-3.3,1-15c2-12.9,1.9-14-0.5-15.1c-0.8-0.4-8.3-0.5-24.7-0.5c-14.9,0-24.6-0.2-26.4-0.5
	c-6.3-1.2-12-5.4-14.7-10.8c-2.6-5.3-2.5-6.5,1.8-33.1c2.1-12.8,4-23.4,4.2-23.6C329.2,98.2,334.5,99.3,337.8,100.6z M455.3,99.5
	c0,0.5-0.8,5.5-1.7,11.2c-1.8,11.4-2,13-1.1,13.9c0.4,0.4,3.8,0.6,12.2,0.6c10.5,0,11.7-0.1,12.4-0.8c0.5-0.5,1.2-3.6,2-8
	c1.3-7.9,2.2-10,5.6-13.1c2.3-2.1,6.1-3.9,9-4.4c1.6-0.3,2.1-0.2,2.1,0.4c0,2.2-8.8,54.1-9.5,55.9c-1.7,4.6-7.6,9.1-13.1,9.9
	c-2,0.3-2.1,0.3-1.8-0.8c0.2-0.6,1.1-6.3,2.1-12.6c1.5-9.4,1.7-11.6,1.2-12.2c-0.5-0.6-2.4-0.7-12.6-0.7c-11.9,0-12,0-12.7,1.1
	c-0.4,0.6-1.2,4-1.7,7.6c-1.1,7.2-2.1,9.6-4.9,12.6c-2.2,2.2-6.8,4.6-10,5.1c-2,0.3-2.1,0.3-1.8-0.8c0.1-0.6,2.1-12.8,4.4-26.9
	c2.3-14.2,4.4-26.6,4.7-27.6c1.2-4.1,6.2-8.8,10.9-10.3C454.1,98.4,455.3,98.4,455.3,99.5z"/>
</svg>
