<svg width="210" height="180" viewBox="0 0 210 180" fill="none" xmlns="http://www.w3.org/2000/svg">
<path d="M80.5425 131.101C73.7747 120.846 56.7001 88.1175 56.7001 88.1175H42.5703L35.105 131.204H0L22.37 0.264675C44.8176 1.47875 93.4582 -4.6433 110.455 10.0806C138.147 31.1849 120.297 74.8401 89.2735 83.1837C92.3992 95.5828 119.367 139.47 162.118 141.692V180C109.19 177.236 89.1702 144.146 80.5683 131.075L80.5425 131.101ZM69.8483 28.266H52.7737L47.0908 61.5369H64.5528C88.8861 65.1275 97.5396 27.1294 69.8483 28.266Z" fill="#EADEC4"/>
<path d="M131.172 54.9241C139.8 46.503 150.727 42.3183 163.952 42.3183C177.178 42.3183 188.053 46.5288 196.578 54.9241C205.205 63.3193 209.519 73.936 209.519 86.6968C209.519 99.4575 205.205 110.074 196.578 118.469C188.053 126.891 177.178 131.075 163.952 131.075C150.727 131.075 139.8 126.865 131.172 118.469C122.648 110.048 118.386 99.4575 118.386 86.6968C118.386 73.936 122.648 63.3193 131.172 54.9241ZM151.424 100.749C154.731 104.391 158.915 106.225 163.952 106.225C168.99 106.225 173.174 104.417 176.481 100.749C179.787 97.1068 181.44 92.4313 181.44 86.6968C181.44 80.9622 179.787 76.2867 176.481 72.6444C173.174 69.0022 168.99 67.1682 163.952 67.1682C158.915 67.1682 154.731 69.0022 151.424 72.6444C148.118 76.2867 146.465 80.9622 146.465 86.6968C146.465 92.4313 148.118 97.1068 151.424 100.749Z" fill="#EADEC4"/>
</svg>
