<svg width="739" height="128" viewBox="0 0 739 128" fill="none" xmlns="http://www.w3.org/2000/svg">
<path d="M57.2598 93.1915C52.4457 85.8926 40.3104 62.6204 40.3104 62.6204H30.2605L24.9583 93.2581H0L15.9067 0.19144C31.8579 1.05666 66.4445 -3.31381 78.5354 7.17976C98.2358 22.1769 85.5459 53.2139 63.4717 59.1595C65.6902 67.967 84.8803 99.1815 115.274 100.757V128C77.648 126.026 63.4051 102.509 57.282 93.2137L57.2598 93.1915ZM49.6503 20.0915H37.5151L33.4774 43.7409H45.901C63.2055 46.2921 69.3507 19.2707 49.6725 20.0915H49.6503Z" fill="#EADEC4"/>
<path d="M93.2443 39.0376C99.3896 33.0698 107.154 30.0748 116.561 30.0748C125.967 30.0748 133.688 33.0698 139.744 39.0376C145.89 45.0054 148.951 52.5483 148.951 61.622C148.951 70.6958 145.89 78.2387 139.744 84.2287C133.688 90.1965 125.945 93.1915 116.561 93.1915C107.177 93.1915 99.3896 90.1965 93.2443 84.2287C87.1878 78.2609 84.1484 70.7179 84.1484 61.622C84.1484 52.5261 87.1878 45.0054 93.2443 39.0376ZM107.665 71.6053C110.016 74.201 112.989 75.4877 116.561 75.4877C120.133 75.4877 123.106 74.201 125.457 71.6053C127.809 69.0097 128.985 65.6819 128.985 61.622C128.985 57.5622 127.809 54.2344 125.457 51.6387C123.106 49.0431 120.133 47.7563 116.561 47.7563C112.989 47.7563 109.994 49.0431 107.665 51.6387C105.313 54.2344 104.137 57.5622 104.137 61.622C104.137 65.6819 105.313 69.0097 107.665 71.6053Z" fill="#EADEC4"/>
<path d="M202.794 37.285C194.12 26.6583 173.288 30.5185 167.564 42.7203H167.32L167.209 32.7148H147.664V39.326C152.368 45.7153 155.163 53.591 155.163 62.1323C155.163 70.6736 152.345 78.5271 147.664 84.9386V93.0362H169.25C171.247 83.0085 162.395 49.8196 180.343 50.3298C191.946 48.1557 185.157 87.0462 186.865 93.0362H208.341C207.12 81.034 212.223 46.1146 202.794 37.3071V37.285Z" fill="#EADEC4"/>
<path d="M251.491 84.5171H251.247C249.96 87.4234 247.764 89.8415 244.68 91.816C241.574 93.7905 237.869 94.7666 233.521 94.7666C227.974 94.7666 223.404 93.1693 219.832 89.9303C216.261 86.7134 214.464 82.1655 214.464 76.3086C214.464 68.9875 217.791 63.6409 224.469 60.2688C231.058 56.8079 239.466 55.8095 249.671 57.2516V56.4085C249.671 51.3503 245.856 48.799 238.202 48.799C230.969 48.799 224.647 50.5295 219.256 53.9904V34.9333C224.891 32.3599 232.434 31.0731 241.929 31.0731C251.424 31.0731 258.545 33.1585 263.515 37.3515C268.507 41.5445 270.991 47.4901 270.991 55.2105V93.0806H251.69M239.666 78.7268C242.395 78.7268 244.658 77.6841 246.432 75.5987C248.207 73.5133 249.095 70.7623 249.095 67.3902C244.347 66.6581 240.709 66.9021 238.18 68.1223C235.65 69.3203 234.386 71.1838 234.386 73.6686C234.386 75.1994 234.874 76.4195 235.828 77.3513C236.804 78.2831 238.069 78.749 239.688 78.749L239.666 78.7268Z" fill="#EADEC4"/>
<path d="M281.596 74.0013V5.36053H303.071V69.1872C303.071 73.602 304.912 75.8205 308.617 75.8205C310.703 75.8205 312.833 75.2881 315.007 74.2454V91.9713C312.123 93.258 307.73 93.9014 301.851 93.9014C295.573 93.9014 290.625 92.2375 287.009 88.8876C283.393 85.5598 281.574 80.5903 281.574 73.9792L281.596 74.0013Z" fill="#EADEC4"/>
<path d="M368.273 83.6519H368.029C366.654 86.6247 364.213 89.0872 360.664 91.0173C357.114 92.9474 353.298 93.9014 349.194 93.9014C341.318 93.9014 334.641 91.0395 329.161 85.338C323.77 79.7029 321.085 71.9381 321.085 62.0436C321.085 52.149 323.748 44.4729 329.05 38.7713C334.352 33.0698 340.919 30.2079 348.706 30.2079C356.914 30.2079 362.86 32.737 366.565 37.8174H366.809C366.565 36.7747 366.454 35.0886 366.454 32.7592V5.36053H387.929V93.1915H368.517M353.454 48.0669C349.904 48.0669 346.998 49.3537 344.713 51.9271C342.428 54.5006 341.274 57.8727 341.274 62.0657C341.274 66.2587 342.428 69.5199 344.779 72.1378C347.109 74.7556 350.015 76.0646 353.454 76.0646C356.892 76.0646 359.799 74.8 362.15 72.2709C364.48 69.7418 365.655 66.3475 365.655 62.0657C365.655 57.784 364.48 54.4119 362.15 51.8828C359.821 49.3537 356.914 48.0891 353.454 48.0891V48.0669Z" fill="#EADEC4"/>
<path d="M458.367 6.20355V93.0584H453.065V51.439H403.481V93.0584H398.179V6.20355H403.481V46.8689H453.065V6.20355H458.367Z" fill="#EADEC4"/>
<path d="M523.613 60.0469V62.931H473.919V64.0181C473.919 71.7385 476.204 78.0169 480.796 82.8311C485.544 87.6674 491.534 90.0634 498.766 90.0634C507.219 90.0634 514.761 87.8449 521.439 83.4301V88.9764C514.761 92.9919 507.241 95.0107 498.877 95.0107C489.959 95.0107 482.66 92.0823 477.047 86.2032C471.412 80.3242 468.594 72.7368 468.594 63.3969C468.594 54.057 471.323 46.7802 476.803 40.8346C482.194 34.8003 488.982 31.7831 497.191 31.7831C505.399 31.7831 511.833 34.5562 516.492 40.1025C521.24 45.56 523.613 52.2156 523.613 60.0026V60.0469ZM474.274 58.7158H518.067C518.067 52.8368 516.181 47.6898 512.388 43.275C508.616 38.9267 503.491 36.7526 497.058 36.7526C490.624 36.7526 485.588 38.9267 481.484 43.275C477.535 47.6233 475.139 52.7702 474.251 58.7158H474.274Z" fill="#EADEC4"/>
<path d="M538.455 93.5907H533.397V33.2694H538.455V43.7629L537.967 48.7102H538.211C539.897 43.652 542.427 39.5699 545.821 36.464C549.193 33.3581 553.098 31.8273 557.512 31.8273L561.018 32.1823V37.2405C559.731 37.0852 558.799 36.9965 558.245 36.9965C553.83 36.9965 550.036 38.6382 546.908 41.9438C541.273 47.8894 538.455 56.0979 538.455 66.5471V93.5686V93.5907Z" fill="#EADEC4"/>
<path d="M572.221 93.5907H567.163V33.2694H572.221V43.7629L571.733 48.7102H571.977C573.663 43.652 576.192 39.5699 579.587 36.464C582.959 33.3581 586.863 31.8273 591.278 31.8273L594.784 32.1823V37.2405C593.497 37.0852 592.565 36.9965 592.01 36.9965C587.596 36.9965 583.802 38.6382 580.674 41.9438C575.039 47.8894 572.221 56.0979 572.221 66.5471V93.5686V93.5907Z" fill="#EADEC4"/>
<path d="M651.732 60.0469V62.931H602.038V64.0181C602.038 71.7385 604.323 78.0169 608.915 82.8311C613.663 87.6674 619.653 90.0634 626.885 90.0634C635.338 90.0634 642.881 87.8449 649.558 83.4301V88.9764C642.881 92.9919 635.36 95.0107 626.996 95.0107C618.078 95.0107 610.779 92.0823 605.166 86.2032C599.531 80.3242 596.713 72.7368 596.713 63.3969C596.713 54.057 599.442 46.7802 604.922 40.8346C610.313 34.8003 617.101 31.7831 625.31 31.7831C633.518 31.7831 639.952 34.5562 644.611 40.1025C649.359 45.56 651.732 52.2156 651.732 60.0026V60.0469ZM602.393 58.7158H646.186C646.186 52.8368 644.3 47.6898 640.507 43.275C636.735 38.9267 631.611 36.7526 625.177 36.7526C618.743 36.7526 613.707 38.9267 609.603 43.275C605.654 47.6233 603.258 52.7702 602.371 58.7158H602.393Z" fill="#EADEC4"/>
<path d="M666.575 93.5907H661.516V33.2694H666.575V43.7629L666.086 48.7102H666.331C668.017 43.652 670.546 39.5699 673.94 36.464C677.312 33.3581 681.217 31.8273 685.632 31.8273L689.137 32.1823V37.2405C687.85 37.0852 686.918 36.9965 686.364 36.9965C681.949 36.9965 678.155 38.6382 675.027 41.9438C669.392 47.8894 666.575 56.0979 666.575 66.5471V93.5686V93.5907Z" fill="#EADEC4"/>
<path d="M694.683 41.8328V36.5306C700.074 33.4025 706.818 31.8273 714.96 31.8273C730.401 31.8273 738.122 39.4368 738.122 54.6336V93.5907H733.063V85.0273L733.551 79.5919H733.307C733.307 79.5919 733.108 80.1244 732.464 81.1671C731.821 82.2098 730.845 83.4965 729.58 85.0273C728.294 86.5581 726.763 88.0888 724.988 89.6196C723.213 91.1504 720.972 92.4371 718.221 93.4798C715.493 94.5225 712.586 95.055 709.525 95.055C704.045 95.055 699.608 93.5464 696.192 90.5292C692.775 87.512 691.067 83.674 691.067 79.0151C691.067 71.3834 694.927 65.815 702.648 62.3763C710.457 58.9154 720.573 58.0723 733.041 59.8472V54.7889C733.041 42.809 726.918 36.819 714.694 36.819C710.834 36.819 707.062 37.3292 703.424 38.3276C699.763 39.3259 696.857 40.5239 694.683 41.8772V41.8328ZM709.747 90.0855C716.336 90.0855 721.86 87.4233 726.275 82.121C730.778 76.6635 733.041 70.7401 733.041 64.3951C722.015 62.6203 713.141 63.064 706.375 65.7262C699.697 68.3884 696.369 72.6923 696.369 78.638C696.369 82.0101 697.589 84.7611 700.052 86.913C702.514 89.0428 705.731 90.1077 709.769 90.1077L709.747 90.0855Z" fill="#EADEC4"/>
</svg>
