<svg width="84" height="84" viewBox="0 0 84 84" fill="none" xmlns="http://www.w3.org/2000/svg">
<path d="M41.9645 83.9546C36.2994 83.9546 30.8037 82.8444 25.6303 80.6553C20.6338 78.5404 16.1454 75.5145 12.2914 71.6594C8.43746 67.8042 5.41253 63.3145 3.29833 58.3164C1.10985 53.1415 0 47.6441 0 41.9773C0 36.3105 1.10985 30.8131 3.29833 25.6382C5.41253 20.6401 8.43746 16.1504 12.2914 12.2952C16.1454 8.44004 20.6323 5.41417 25.6303 3.29933C30.8037 1.11018 36.2994 0 41.9645 0C47.6295 0 53.1253 1.11018 58.2986 3.29933C63.2951 5.41417 67.7835 8.44004 71.6375 12.2952C75.4914 16.1504 78.5164 20.6401 80.6306 25.6382C82.8191 30.8131 83.9289 36.3105 83.9289 41.9773C83.9289 47.6441 82.8191 53.1415 80.6306 58.3164C78.5164 63.3145 75.4914 67.8042 71.6375 71.6594C67.7835 75.5145 63.2951 78.5404 58.2986 80.6553C53.1253 82.8444 47.6295 83.9546 41.9645 83.9546ZM41.9645 0.0757954C18.8673 0.0757954 0.0757737 18.8731 0.0757737 41.9773C0.0757737 65.0815 18.8673 83.8788 41.9645 83.8788C65.0616 83.8788 83.8532 65.0815 83.8532 41.9773C83.8532 18.8731 65.0631 0.0757954 41.9645 0.0757954Z" fill="#1D1D1D"/>
<path d="M41.9645 83.9176C39.3199 83.9176 36.6753 83.6337 34.0931 83.06C31.5109 82.4864 28.9941 81.6273 26.5961 80.5112C21.7972 78.279 17.496 75.0168 13.9763 71.0695C10.4507 67.1222 7.70205 62.4942 5.86569 57.5318C4.02338 52.5695 3.10075 47.2742 3.08887 41.9804C3.10075 36.6866 4.02487 31.3928 5.86569 26.4289C7.70205 21.4666 10.4522 16.8386 13.9763 12.8913C17.496 8.94398 21.7972 5.68032 26.5961 3.44955C28.9941 2.33343 31.5109 1.47293 34.0931 0.900747C36.6753 0.325594 39.3199 0.0417325 41.9645 0.0432187C39.3199 0.0461911 36.6753 0.333025 34.0961 0.911151C31.5153 1.48779 29 2.34978 26.605 3.46888C21.8106 5.70558 17.5168 8.97073 14.006 12.9195C10.4893 16.8668 7.74813 21.4948 5.91919 26.4527C4.0858 31.4121 3.1691 36.7 3.16464 41.9848C3.17058 47.2697 4.0858 52.5576 5.91919 57.517C7.74813 62.4749 10.4878 67.1014 14.006 71.0502C17.5183 74.999 21.812 78.2641 26.605 80.5008C29 81.6199 31.5153 82.4819 34.0961 83.0585C36.6768 83.6367 39.3214 83.9235 41.9645 83.9265V83.9176Z" fill="#1D1D1D"/>
<path d="M41.9645 83.9174C39.4462 83.9204 36.9264 83.5964 34.4898 82.9588C32.0517 82.3227 29.6968 81.3745 27.4846 80.1663C23.0571 77.7438 19.2299 74.2914 16.1797 70.2802C13.1235 66.2645 10.8295 61.687 9.3126 56.8792C7.7927 52.0685 7.04835 47.0214 7.03052 41.9773C7.04983 36.9332 7.7927 31.8861 9.3126 27.0753C10.8295 22.2675 13.1235 17.6915 16.1797 13.6744C19.2284 9.66315 23.0556 6.21074 27.4846 3.78826C29.6968 2.57999 32.0517 1.63181 34.4898 0.995719C36.9279 0.358146 39.4462 0.0341573 41.9645 0.0371296C39.4462 0.0460468 36.9308 0.381924 34.4987 1.0299C32.0665 1.67639 29.7206 2.63498 27.5187 3.85068C23.1061 6.27762 19.2922 9.72557 16.2584 13.7338C13.2171 17.745 10.9365 22.315 9.43145 27.1124C7.92343 31.9143 7.18949 36.948 7.17909 41.9773C7.18949 47.0065 7.92194 52.0402 9.43145 56.8421C10.9365 61.6395 13.2171 66.208 16.2584 70.2207C19.2937 74.2275 23.1061 77.6769 27.5187 80.1039C29.7206 81.3196 32.0665 82.2767 34.4987 82.9246C36.9293 83.5726 39.4462 83.9085 41.9645 83.9174Z" fill="#1D1D1D"/>
<path d="M41.9645 83.9174C37.2369 83.9233 32.5598 82.3093 28.7192 79.5584C26.7877 78.1956 25.0346 76.5875 23.4641 74.822C21.8937 73.0549 20.5046 71.1303 19.2893 69.1031C16.8571 65.0458 15.1099 60.5992 13.9481 56.0202C13.8129 55.4451 13.6658 54.8729 13.5395 54.2948L13.1888 52.5574C13.0863 51.9748 12.9957 51.3908 12.8976 50.8082C12.8456 50.5169 12.8085 50.2241 12.7728 49.9313L12.6614 49.0515C12.3791 46.7048 12.238 44.3418 12.2246 41.9773C12.238 39.6127 12.3791 37.2497 12.6614 34.903L12.7728 34.0232C12.8085 33.7304 12.8456 33.4362 12.8976 33.1464C12.9942 32.5638 13.0863 31.9797 13.1888 31.3971L13.5395 29.6598C13.6643 29.0816 13.8129 28.5095 13.9481 27.9343C15.1099 23.3554 16.8571 18.9087 19.2893 14.8514C20.5061 12.8257 21.8937 10.8997 23.4641 9.13258C25.0346 7.36699 26.7877 5.75894 28.7192 4.39611C32.5598 1.64518 37.2384 0.031181 41.9645 0.0371257C37.2369 0.0668494 32.5865 1.71503 28.7816 4.48379C26.8635 5.8496 25.1193 7.45319 23.5593 9.21729C21.9992 10.9814 20.6205 12.9045 19.414 14.9257C17.0012 18.9756 15.2718 23.4104 14.1249 27.9774C13.9911 28.5511 13.8456 29.1218 13.7222 29.6984L13.3775 31.4313C13.278 32.0109 13.1874 32.5935 13.0923 33.1746C13.0418 33.4644 13.0046 33.7572 12.9704 34.05L12.8605 34.9268C12.5856 37.2661 12.4504 39.6217 12.4445 41.9773C12.4504 44.3329 12.5871 46.6885 12.8605 49.0277L12.9704 49.9046C13.0061 50.1974 13.0418 50.4886 13.0923 50.7799C13.1874 51.361 13.278 51.9436 13.3775 52.5232L13.7222 54.2561C13.8456 54.8313 13.9911 55.4035 14.1249 55.9771C15.2704 60.5442 16.9997 64.979 19.414 69.0288C20.6205 71.0515 21.9992 72.9731 23.5593 74.7372C25.1193 76.5013 26.862 78.1049 28.7816 79.4707C32.5865 82.2395 37.2369 83.8877 41.9645 83.9174Z" fill="#1D1D1D"/>
<path d="M41.9645 83.9175C39.7893 83.9339 37.6261 83.3721 35.6858 82.3883C34.7156 81.8948 33.793 81.3063 32.9268 80.6464C32.0621 79.9836 31.2508 79.2524 30.4887 78.4736C28.9732 76.9072 27.6643 75.1476 26.5173 73.2973C25.3718 71.444 24.3883 69.4941 23.5369 67.4893C22.6871 65.4844 21.9636 63.426 21.3693 61.3305C20.7705 59.2365 20.2802 57.1127 19.8984 54.9696C19.1303 50.6835 18.7618 46.3289 18.7559 41.9759C18.7618 37.6229 19.1288 33.2684 19.8984 28.9822C20.2802 26.8391 20.7705 24.7154 21.3693 22.6213C21.9636 20.5273 22.6871 18.4674 23.5369 16.4626C24.3883 14.4577 25.3703 12.5078 26.5173 10.6546C27.6643 8.80426 28.9717 7.0461 30.4887 5.47818C31.2494 4.69942 32.0621 3.96821 32.9268 3.30538C33.7944 2.64551 34.7156 2.05698 35.6858 1.56357C37.6261 0.579713 39.7893 0.0179347 41.9645 0.0342827C39.7893 0.0491446 37.6425 0.63916 35.7274 1.64382C34.7691 2.14764 33.8613 2.74508 33.0099 3.41238C32.1616 4.08265 31.3653 4.8198 30.6194 5.60302C29.1292 7.17243 27.8426 8.92761 26.7164 10.7749C25.5917 12.6252 24.6304 14.5721 23.7999 16.5711C22.1463 20.5748 20.983 24.7733 20.2312 29.0387C19.4779 33.3055 19.1228 37.6407 19.1273 41.9729C19.1228 46.3052 19.4764 50.6404 20.2312 54.9072C20.9844 59.1726 22.1463 63.371 23.7999 67.3748C24.6304 69.3737 25.5917 71.3206 26.7164 73.1709C27.8411 75.0183 29.1292 76.7734 30.6194 78.3428C31.3638 79.1276 32.1601 79.8632 33.0099 80.5335C33.8613 81.1993 34.7691 81.7982 35.7274 82.302C37.6425 83.3067 39.7893 83.8967 41.9645 83.9116V83.9175Z" fill="#1D1D1D"/>
<path d="M41.9644 83.9175C40.966 83.9294 39.9691 83.6931 39.0583 83.2785C38.6022 83.0719 38.1699 82.8133 37.7553 82.5324C37.3393 82.2515 36.9471 81.9365 36.5756 81.6006C35.0825 80.2541 33.9013 78.6044 32.8881 76.8804C31.8822 75.1461 31.0547 73.3166 30.3341 71.4499C29.6165 69.5818 29.0088 67.672 28.4888 65.74C28.2288 64.774 27.9881 63.802 27.7668 62.8271C27.5469 61.8507 27.3537 60.8698 27.1725 59.8859C26.8114 57.9182 26.5202 55.9386 26.2914 53.9516C25.8323 49.9775 25.6125 45.9782 25.6021 41.9789C25.6125 37.9796 25.8308 33.9802 26.2914 30.0062C26.5202 28.0191 26.8129 26.0395 27.1725 24.0718C27.3537 23.088 27.5484 22.1071 27.7668 21.1307C27.9881 20.1557 28.2273 19.1838 28.4888 18.2178C29.0088 16.2857 29.6165 14.376 30.3341 12.5078C31.0547 10.6412 31.8822 8.8102 32.8881 7.07731C33.9013 5.35333 35.084 3.70218 36.5756 2.35719C36.9471 2.02131 37.3393 1.70624 37.7553 1.42535C38.1699 1.14446 38.6022 0.887349 39.0583 0.679283C39.9706 0.264637 40.966 0.0283336 41.9644 0.0402231C40.9645 0.0550849 39.9824 0.316653 39.091 0.75062C38.6438 0.966116 38.2204 1.22768 37.8162 1.51452C37.4106 1.79987 37.0288 2.1194 36.6678 2.45825C35.2177 3.81811 34.0796 5.4752 33.108 7.20364C32.1348 8.93653 31.3325 10.7616 30.6402 12.6252C29.9493 14.4904 29.3684 16.3942 28.8736 18.3218C27.8901 22.1769 27.2007 26.1064 26.7594 30.0612C26.3182 34.0174 26.1146 37.9989 26.1206 41.9804C26.1146 45.9604 26.3167 49.9433 26.7594 53.8996C27.2007 57.8558 27.8901 61.7838 28.8736 65.6389C29.3684 67.565 29.9493 69.4703 30.6402 71.3355C31.3325 73.1992 32.1348 75.0242 33.108 76.7571C34.0796 78.4855 35.2177 80.1426 36.6678 81.5025C37.0288 81.8413 37.4106 82.1609 37.8162 82.4462C38.2204 82.733 38.6438 82.9946 39.091 83.2101C39.9824 83.6441 40.9645 83.9056 41.9644 83.9205V83.9175Z" fill="#1D1D1D"/>
<path d="M41.9646 83.9174C41.7343 83.9174 41.5069 83.8728 41.29 83.791C41.0731 83.7093 40.877 83.5844 40.6883 83.4522C40.3214 83.1713 40.0093 82.8235 39.733 82.4549C39.1877 81.7089 38.7643 80.884 38.3958 80.0414C37.6604 78.3516 37.1226 76.586 36.656 74.8085C35.7498 71.2432 35.1495 67.6094 34.6711 63.9683C33.7366 56.6771 33.386 49.3234 33.3696 41.9787C33.386 34.634 33.7366 27.2803 34.6711 19.9891C35.1495 16.3465 35.7498 12.7142 36.656 9.14887C37.1226 7.37139 37.6619 5.6058 38.3958 3.91601C38.7643 3.07334 39.1877 2.24851 39.733 1.50245C40.0093 1.13387 40.3199 0.786104 40.6883 0.505215C40.877 0.371458 41.0731 0.246619 41.29 0.166365C41.5055 0.0861108 41.7343 0.0400391 41.9646 0.0400391C41.7343 0.04747 41.5099 0.100973 41.3004 0.188658C41.0895 0.276342 40.9008 0.407127 40.721 0.543856C40.3704 0.833662 40.0762 1.18737 39.8177 1.56041C39.3021 2.31093 38.904 3.13873 38.5608 3.98437C37.8788 5.67863 37.3915 7.44719 36.9755 9.22764C36.139 12.7885 35.5967 16.4163 35.1822 20.0515C34.7796 23.6897 34.4854 27.3413 34.3086 30.9988C34.1229 34.6548 34.0352 38.3167 34.0397 41.9787C34.0352 45.6407 34.1229 49.3026 34.3086 52.9586C34.4854 56.6161 34.7796 60.2662 35.1822 63.9059C35.5967 67.5411 36.139 71.1689 36.9755 74.7298C37.3915 76.5087 37.8788 78.2773 38.5608 79.973C38.904 80.8187 39.3007 81.6465 39.8177 82.397C40.0762 82.7715 40.3704 83.1237 40.721 83.4135C40.9008 83.5503 41.0895 83.681 41.3004 83.7687C41.5099 83.8564 41.7358 83.9099 41.9646 83.9174Z" fill="#1D1D1D"/>
<path d="M41.9645 83.9174L41.908 81.2958L41.8664 78.6741L41.7832 73.4324C41.7401 69.9369 41.7 66.4428 41.6748 62.9473C41.6406 59.4518 41.6332 55.9578 41.6124 52.4623L41.5916 41.9773L41.6124 31.4922C41.6332 27.9967 41.6406 24.5027 41.6748 21.0072C41.7 17.5117 41.7386 14.0177 41.7832 10.5221L41.8664 5.28037L41.908 2.65874L41.9645 0.0371094L42.0209 2.65874L42.0626 5.28037L42.1457 10.5221C42.1888 14.0177 42.229 17.5117 42.2542 21.0072C42.2884 24.5027 42.2958 27.9967 42.3166 31.4922L42.3374 41.9773L42.3166 52.4623C42.2958 55.9578 42.2884 59.4518 42.2542 62.9473C42.229 66.4428 42.1903 69.9369 42.1457 73.4324L42.0626 78.6741L42.0209 81.2958L41.9645 83.9174Z" fill="#1D1D1D"/>
<path d="M41.9645 83.9546C36.2994 83.9546 30.8037 82.8444 25.6303 80.6553C20.6338 78.5404 16.1454 75.5145 12.2914 71.6594C8.43746 67.8042 5.41253 63.3145 3.29833 58.3164C1.10985 53.1415 0 47.6441 0 41.9773C0 36.3105 1.10985 30.8131 3.29833 25.6382C5.41253 20.6401 8.43746 16.1504 12.2914 12.2952C16.1454 8.44004 20.6323 5.41417 25.6303 3.29933C30.8037 1.11018 36.2994 0 41.9645 0C47.6295 0 53.1253 1.11018 58.2986 3.29933C63.2951 5.41417 67.7835 8.44004 71.6375 12.2952C75.4914 16.1504 78.5164 20.6401 80.6306 25.6382C82.8191 30.8131 83.9289 36.3105 83.9289 41.9773C83.9289 47.6441 82.8191 53.1415 80.6306 58.3164C78.5164 63.3145 75.4914 67.8042 71.6375 71.6594C67.7835 75.5145 63.2951 78.5404 58.2986 80.6553C53.1253 82.8444 47.6295 83.9546 41.9645 83.9546ZM41.9645 0.0757954C18.8673 0.0757954 0.0757737 18.8731 0.0757737 41.9773C0.0757737 65.0815 18.8673 83.8788 41.9645 83.8788C65.0616 83.8788 83.8532 65.0815 83.8532 41.9773C83.8532 18.8731 65.0631 0.0757954 41.9645 0.0757954Z" fill="#1D1D1D"/>
<path d="M41.9645 83.9174C44.6091 83.9145 47.2537 83.6276 49.8329 83.0495C52.4136 82.4729 54.929 81.6109 57.324 80.4918C62.1184 78.2551 66.4122 74.9899 69.923 71.0411C73.4397 67.0938 76.1809 62.4658 78.0098 57.5079C79.8432 52.5485 80.7599 47.2607 80.7644 41.9758C80.7584 36.6909 79.8432 31.4031 78.0098 26.4437C76.1809 21.4858 73.4412 16.8593 69.923 12.9105C66.4107 8.96169 62.1169 5.69655 57.324 3.45984C54.929 2.34074 52.4136 1.47875 49.8329 0.902112C47.2522 0.323986 44.6076 0.0371521 41.9645 0.0341797C44.6091 0.0341797 47.2537 0.318041 49.8359 0.891708C52.4181 1.46538 54.9349 2.32439 57.3329 3.44052C62.1318 5.67277 66.433 8.93494 69.9527 12.8822C73.4783 16.8296 76.2269 21.4575 78.0633 26.4199C79.9056 31.3823 80.8297 36.6776 80.8401 41.9713C80.8282 47.2651 79.9041 52.5589 78.0633 57.5228C76.2269 62.4852 73.4768 67.1131 69.9527 71.0604C66.433 75.0078 62.1318 78.2714 57.3329 80.5022C54.9349 81.6183 52.4181 82.4788 49.8359 83.051C47.2537 83.6261 44.6091 83.91 41.9645 83.9085V83.9174Z" fill="#1D1D1D"/>
<path d="M41.9645 83.9174C44.4828 83.9085 46.9981 83.5726 49.4303 82.9246C51.8624 82.2781 54.2084 81.3196 56.4102 80.1039C60.8229 77.6769 64.6352 74.229 67.6706 70.2207C70.7119 66.2095 72.9925 61.641 74.4975 56.8421C76.0055 52.0402 76.7395 47.0065 76.7499 41.9773C76.7395 36.948 76.007 31.9143 74.4975 27.1124C72.9925 22.315 70.7119 17.7465 67.6706 13.7338C64.6352 9.72705 60.8229 6.27762 56.4102 3.85068C54.2084 2.63498 51.8624 1.67788 49.4303 1.0299C46.9996 0.381924 44.4828 0.0460468 41.9645 0.0371296C44.4828 0.0341573 47.0026 0.358146 49.4392 0.995719C51.8773 1.63181 54.2321 2.57999 56.4444 3.78826C60.8719 6.21074 64.6991 9.66315 67.7493 13.6744C70.8055 17.69 73.0994 22.2675 74.6164 27.0753C76.1363 31.8861 76.8806 36.9332 76.8985 41.9773C76.8792 47.0214 76.1363 52.0685 74.6164 56.8792C73.0994 61.687 70.8055 66.263 67.7493 70.2802C64.7006 74.2914 60.8734 77.7438 56.4444 80.1663C54.2321 81.3745 51.8773 82.3227 49.4392 82.9588C47.0011 83.5964 44.4828 83.9204 41.9645 83.9174Z" fill="#1D1D1D"/>
<path d="M41.9645 83.9174C46.6921 83.8877 51.3424 82.2395 55.1474 79.4707C57.0654 78.1049 58.8097 76.5013 60.3697 74.7372C61.9297 72.9731 63.3085 71.05 64.5149 69.0288C66.9277 64.979 68.6571 60.5442 69.8041 55.9771C69.9378 55.4035 70.0834 54.8328 70.2067 54.2561L70.5514 52.5232C70.651 51.9436 70.7416 51.361 70.8367 50.7799C70.8872 50.4901 70.9244 50.1974 70.96 49.9046L71.07 49.0277C71.3448 46.6885 71.48 44.3329 71.486 41.9773C71.48 39.6217 71.3433 37.2661 71.07 34.9268L70.96 34.05C70.9244 33.7572 70.8887 33.4659 70.8367 33.1746C70.7416 32.5935 70.651 32.0109 70.5514 31.4313L70.2067 29.6984C70.0834 29.1233 69.9378 28.5511 69.8041 27.9774C68.6586 23.4104 66.9292 18.9756 64.5149 14.9257C63.3085 12.903 61.9297 10.9814 60.3697 9.21729C58.8097 7.45319 57.0669 5.8496 55.1474 4.48379C51.3424 1.71503 46.6921 0.0668494 41.9645 0.0371257C46.6921 0.031181 51.3692 1.64518 55.2098 4.39611C57.1412 5.75894 58.8944 7.36699 60.4648 9.13258C62.0352 10.8997 63.4244 12.8243 64.6397 14.8514C67.0719 18.9087 68.8191 23.3554 69.9809 27.9343C70.1161 28.5095 70.2632 29.0816 70.3895 29.6598L70.7401 31.3971C70.8426 31.9797 70.9333 32.5638 71.0313 33.1464C71.0833 33.4376 71.1205 33.7304 71.1561 34.0232L71.2675 34.903C71.5498 37.2497 71.691 39.6127 71.7044 41.9773C71.691 44.3418 71.5498 46.7048 71.2675 49.0515L71.1561 49.9313C71.1205 50.2241 71.0833 50.5184 71.0313 50.8082C70.9348 51.3908 70.8426 51.9748 70.7401 52.5574L70.3895 54.2948C70.2647 54.8729 70.1161 55.4451 69.9809 56.0202C68.8191 60.5992 67.0719 65.0458 64.6397 69.1031C63.4229 71.1288 62.0352 73.0549 60.4648 74.822C58.8944 76.5875 57.1412 78.1956 55.2098 79.5584C51.3692 82.3093 46.6906 83.9233 41.9645 83.9174Z" fill="#1D1D1D"/>
<path d="M41.9645 83.9174C44.1396 83.9026 46.2865 83.3126 48.2016 82.3079C49.1599 81.8041 50.0677 81.2066 50.919 80.5394C51.7688 79.8691 52.5637 79.1319 53.3095 78.3487C54.7997 76.7793 56.0864 75.0241 57.2125 73.1768C58.3372 71.3265 59.2985 69.3796 60.129 67.3807C61.7826 63.3769 62.946 59.1784 63.6977 54.9131C64.451 50.6462 64.8061 46.311 64.8016 41.9788C64.8061 37.6466 64.4525 33.3114 63.6977 29.0445C62.9445 24.7792 61.7826 20.5807 60.129 16.5769C59.2985 14.578 58.3372 12.6311 57.2125 10.7808C56.0879 8.93347 54.7997 7.17829 53.3095 5.60888C52.5652 4.82417 51.7688 4.08851 50.919 3.41824C50.0677 2.75243 49.1599 2.1535 48.2016 1.64968C46.2865 0.645019 44.1396 0.0550039 41.9645 0.0401421C44.1396 0.023794 46.3028 0.585572 48.2432 1.56943C49.2134 2.06284 50.1345 2.65137 51.0022 3.31124C51.8669 3.97407 52.6781 4.70528 53.4403 5.48404C54.9557 7.05048 56.2646 8.81012 57.4116 10.6604C58.5571 12.5137 59.5407 14.4636 60.392 16.4684C61.2418 18.4733 61.9654 20.5317 62.5597 22.6272C63.1584 24.7212 63.6487 26.845 64.0306 28.9881C64.7987 33.2742 65.1671 37.6287 65.1731 41.9818C65.1671 46.3348 64.8002 50.6893 64.0306 54.9755C63.6487 57.1186 63.1584 59.2423 62.5597 61.3364C61.9654 63.4304 61.2418 65.4902 60.392 67.4951C59.5407 69.5 58.5586 71.4498 57.4116 73.3031C56.2646 75.1534 54.9572 76.9116 53.4403 78.4795C52.6796 79.2583 51.8669 79.9895 51.0022 80.6523C50.1345 81.3122 49.2134 81.9007 48.2432 82.3941C46.3028 83.378 44.1396 83.9398 41.9645 83.9234V83.9174Z" fill="#1D1D1D"/>
<path d="M41.9645 83.9173C42.9644 83.9025 43.9465 83.6409 44.8379 83.2069C45.2851 82.9914 45.7085 82.7299 46.1127 82.443C46.5183 82.1577 46.9001 81.8382 47.2611 81.4993C48.7112 80.1395 49.8493 78.4824 50.8209 76.7539C51.7941 75.021 52.5964 73.196 53.2887 71.3323C53.9796 69.4672 54.5605 67.5634 55.0553 65.6358C56.0388 61.7806 56.7282 57.8511 57.1695 53.8964C57.6107 49.9402 57.8143 45.9587 57.8083 41.9772C57.8143 37.9972 57.6122 34.0142 57.1695 30.058C56.7282 26.1018 56.0388 22.1738 55.0553 18.3186C54.5605 16.3925 53.9796 14.4872 53.2887 12.6221C52.5964 10.7584 51.7941 8.93335 50.8209 7.20046C49.8493 5.47203 48.7112 3.81493 47.2611 2.45507C46.9001 2.11622 46.5183 1.79669 46.1127 1.51134C45.7085 1.22451 45.2851 0.962943 44.8379 0.747446C43.9465 0.31348 42.9644 0.0519111 41.9645 0.0370492C42.9629 0.0251597 43.9598 0.261463 44.8706 0.676109C45.3267 0.882689 45.759 1.14128 46.1736 1.42217C46.5896 1.70306 46.9803 2.01813 47.3532 2.35401C48.8464 3.7005 50.0276 5.35016 51.0408 7.07414C52.0467 8.80851 52.8742 10.638 53.5948 12.5047C54.3124 14.3728 54.9201 16.2825 55.4401 18.2146C55.7001 19.1806 55.9408 20.1526 56.1621 21.1275C56.382 22.1039 56.5752 23.0848 56.7564 24.0687C57.1175 26.0364 57.4086 28.016 57.6374 30.003C58.0965 33.9771 58.3164 37.9764 58.3268 41.9757C58.3164 45.975 58.098 49.9743 57.6374 53.9484C57.4086 55.9354 57.116 57.915 56.7564 59.8827C56.5752 60.8666 56.3805 61.8475 56.1621 62.8239C55.9408 63.7988 55.7016 64.7708 55.4401 65.7368C54.9201 67.6689 54.3124 69.5786 53.5948 71.4468C52.8742 73.3134 52.0467 75.1444 51.0408 76.8773C50.0261 78.6012 48.8449 80.2509 47.3532 81.5974C46.9818 81.9333 46.5896 82.2484 46.1736 82.5292C45.759 82.8101 45.3267 83.0672 44.8706 83.2753C43.9583 83.6899 42.9629 83.9263 41.9645 83.9144V83.9173Z" fill="#1D1D1D"/>
<path d="M41.9645 83.9174C42.1948 83.9099 42.4191 83.8564 42.6286 83.7687C42.8396 83.681 43.0283 83.5503 43.2081 83.4135C43.5587 83.1237 43.8529 82.77 44.1114 82.397C44.6269 81.6465 45.0251 80.8187 45.3683 79.973C46.0517 78.2788 46.5376 76.5102 46.9536 74.7298C47.79 71.1689 48.3323 67.5411 48.7469 63.9059C49.1495 60.2677 49.4436 56.6161 49.6205 52.9586C49.8062 49.3026 49.8938 45.6407 49.8894 41.9787C49.8938 38.3167 49.8062 34.6548 49.6205 30.9988C49.4436 27.3413 49.1495 23.6912 48.7469 20.0515C48.3323 16.4163 47.79 12.7885 46.9536 9.22764C46.5376 7.44867 46.0503 5.68011 45.3683 3.98437C45.0251 3.13873 44.6284 2.31093 44.1114 1.56041C43.8529 1.18737 43.5587 0.833662 43.2081 0.543856C43.0283 0.407127 42.8396 0.276342 42.6286 0.188658C42.4191 0.100973 42.1933 0.04747 41.9645 0.0400391C42.1948 0.0400391 42.4221 0.0846246 42.639 0.166365C42.8559 0.248105 43.052 0.372945 43.2407 0.505215C43.6077 0.786104 43.9197 1.13387 44.196 1.50245C44.7413 2.24851 45.1647 3.07334 45.5332 3.91601C46.2686 5.6058 46.8065 7.37139 47.273 9.14887C48.1793 12.7142 48.7795 16.3479 49.2579 19.9891C50.1925 27.2803 50.5431 34.634 50.5594 41.9787C50.5431 49.3234 50.1925 56.6771 49.2579 63.9683C48.7795 67.6109 48.1793 71.2432 47.273 74.8085C46.8065 76.586 46.2672 78.3516 45.5332 80.0414C45.1647 80.884 44.7413 81.7104 44.196 82.4549C43.9197 82.8235 43.6092 83.1713 43.2407 83.4522C43.052 83.5859 42.8559 83.7108 42.639 83.791C42.4236 83.8713 42.1948 83.9174 41.9645 83.9174Z" fill="#1D1D1D"/>
<path d="M41.9645 83.9174L41.908 81.2958L41.8664 78.6741L41.7832 73.4324C41.7401 69.9369 41.7 66.4428 41.6748 62.9473C41.6406 59.4518 41.6332 55.9578 41.6124 52.4623L41.5916 41.9773L41.6124 31.4922C41.6332 27.9967 41.6406 24.5027 41.6748 21.0072C41.7 17.5117 41.7386 14.0177 41.7832 10.5221L41.8664 5.28037L41.908 2.65874L41.9645 0.0371094L42.0209 2.65874L42.0626 5.28037L42.1457 10.5221C42.1888 14.0177 42.229 17.5117 42.2542 21.0072C42.2884 24.5027 42.2958 27.9967 42.3166 31.4922L42.3374 41.9773L42.3166 52.4623C42.2958 55.9578 42.2884 59.4518 42.2542 62.9473C42.229 66.4428 42.1903 69.9369 42.1457 73.4324L42.0626 78.6741L42.0209 81.2958L41.9645 83.9174Z" fill="#1D1D1D"/>
<path d="M41.9645 83.9546C36.2994 83.9546 30.8037 82.8444 25.6303 80.6553C20.6338 78.5404 16.1454 75.5145 12.2914 71.6594C8.43746 67.8042 5.41253 63.3145 3.29833 58.3164C1.10985 53.1415 0 47.6441 0 41.9773C0 36.3105 1.10985 30.8131 3.29833 25.6382C5.41253 20.6401 8.43746 16.1504 12.2914 12.2952C16.1454 8.44004 20.6323 5.41417 25.6303 3.29933C30.8037 1.11018 36.2994 0 41.9645 0C47.6295 0 53.1253 1.11018 58.2986 3.29933C63.2951 5.41417 67.7835 8.44004 71.6375 12.2952C75.4914 16.1504 78.5164 20.6401 80.6306 25.6382C82.8191 30.8131 83.9289 36.3105 83.9289 41.9773C83.9289 47.6441 82.8191 53.1415 80.6306 58.3164C78.5164 63.3145 75.4914 67.8042 71.6375 71.6594C67.7835 75.5145 63.2951 78.5404 58.2986 80.6553C53.1253 82.8444 47.6295 83.9546 41.9645 83.9546ZM41.9645 0.0757954C18.8673 0.0757954 0.0757737 18.8731 0.0757737 41.9773C0.0757737 65.0815 18.8673 83.8788 41.9645 83.8788C65.0616 83.8788 83.8532 65.0815 83.8532 41.9773C83.8532 18.8731 65.0631 0.0757954 41.9645 0.0757954Z" fill="#1D1D1D"/>
<path d="M0.0386901 41.9788C0.0386901 39.3334 0.322468 36.688 0.89596 34.105C1.46945 31.522 2.32821 29.0044 3.44399 26.6057C5.67556 21.8054 8.93672 17.5028 12.8828 13.9821C16.8289 10.4554 21.4555 7.70591 26.4164 5.86899C31.3772 4.02612 36.6709 3.10171 41.963 3.09131C47.2552 3.1032 52.5474 4.0276 57.5097 5.86899C62.4706 7.70591 67.0971 10.4568 71.0432 13.9821C74.9893 17.5028 78.252 21.8054 80.4821 26.6057C81.5979 29.0044 82.4581 31.522 83.0301 34.105C83.6051 36.688 83.8889 39.3334 83.8874 41.9788C83.8844 39.3334 83.5977 36.688 83.0197 34.108C82.4433 31.5265 81.5815 29.0104 80.4628 26.6146C78.2268 21.8187 74.9626 17.5237 71.015 14.0118C67.0689 10.494 62.4423 7.75199 57.4859 5.92249C52.5281 4.08854 47.2418 3.17156 41.9586 3.1671C36.6753 3.17305 31.3891 4.08854 26.4312 5.92249C21.4748 7.75199 16.8497 10.4925 12.9022 14.0118C8.95457 17.5251 5.69041 21.8202 3.45438 26.6146C2.33563 29.0104 1.47391 31.5265 0.897447 34.108C0.319498 36.6895 0.0327566 39.3349 0.0297852 41.9788H0.0386901Z" fill="#1D1D1D"/>
<path d="M0.0387165 41.9788C0.0357451 39.4598 0.359645 36.9392 0.997024 34.5019C1.63292 32.063 2.5808 29.7074 3.7887 27.4945C6.21044 23.0657 9.66179 19.2372 13.6718 16.1861C17.6862 13.129 22.2623 10.8344 27.0686 9.31696C31.8779 7.79659 36.9235 7.05201 41.966 7.03418C47.0086 7.0535 52.0541 7.79659 56.8634 9.31696C61.6698 10.8344 66.2444 13.129 70.2603 16.1861C74.2703 19.2358 77.7216 23.0642 80.1433 27.4945C81.3512 29.7074 82.2991 32.063 82.935 34.5019C83.5724 36.9407 83.8963 39.4598 83.8933 41.9788C83.8844 39.4598 83.5487 36.9437 82.9009 34.5108C82.2546 32.0779 81.2963 29.7312 80.081 27.5287C77.6548 23.1147 74.2079 19.3012 70.2009 16.2649C66.1909 13.2227 61.6237 10.9414 56.8263 9.43437C52.0259 7.92589 46.9937 7.19172 41.966 7.18131C36.9383 7.19172 31.9061 7.9244 27.1057 9.43437C22.3098 10.9399 17.7427 13.2212 13.7312 16.2649C9.72567 19.3012 6.2773 23.1147 3.85111 27.5287C2.63578 29.7312 1.67897 32.0779 1.03119 34.5108C0.383414 36.9422 0.0476309 39.4598 0.0387165 41.9788Z" fill="#1D1D1D"/>
<path d="M0.0387126 41.9787C0.0327697 37.2497 1.64628 32.5712 4.39637 28.7294C5.75879 26.7973 7.36635 25.0436 9.13139 23.4727C10.8979 21.9018 12.8219 20.5122 14.8485 19.2965C18.9045 16.8637 23.3498 15.1159 27.9274 13.9537C28.5023 13.8185 29.0744 13.6713 29.6523 13.545L31.3891 13.1943C31.9715 13.0917 32.5554 13.0011 33.1378 12.903C33.429 12.851 33.7217 12.8138 34.0144 12.7781L34.894 12.6667C37.2399 12.3843 39.6022 12.2431 41.966 12.2297C44.3298 12.2431 46.6921 12.3843 49.0381 12.6667L49.9177 12.7781C50.2103 12.8138 50.5045 12.851 50.7943 12.903C51.3767 12.9996 51.9606 13.0917 52.543 13.1943L54.2798 13.545C54.8577 13.6698 55.4297 13.8185 56.0047 13.9537C60.5822 15.1159 65.0275 16.8637 69.0836 19.2965C71.1086 20.5137 73.0341 21.9018 74.8007 23.4727C76.5657 25.0436 78.1733 26.7973 79.5357 28.7294C82.2858 32.5712 83.8993 37.2511 83.8933 41.9787C83.8636 37.2497 82.216 32.5979 79.448 28.7918C78.0826 26.8731 76.4796 25.1283 74.716 23.5678C72.9524 22.0073 71.0299 20.6282 69.0093 19.4214C64.9607 17.0078 60.5272 15.2779 55.9616 14.1306C55.3881 13.9968 54.8176 13.8512 54.2411 13.7278L52.5088 13.383C51.9293 13.2834 51.3469 13.1928 50.766 13.0977C50.4763 13.0471 50.1836 13.01 49.8909 12.9743L49.0144 12.8643C46.6758 12.5894 44.3209 12.4542 41.966 12.4482C39.6111 12.4542 37.2563 12.5909 34.9177 12.8643L34.0412 12.9743C33.7485 13.01 33.4572 13.0457 33.166 13.0977C32.5851 13.1928 32.0027 13.2834 31.4233 13.383L29.6909 13.7278C29.116 13.8512 28.5439 13.9968 27.9704 14.1306C23.4048 15.2764 18.9714 17.0063 14.9228 19.4214C12.9007 20.6282 10.9796 22.0073 9.21607 23.5678C7.45251 25.1268 5.84941 26.8716 4.48403 28.7918C1.71611 32.5979 0.0684273 37.2497 0.0387126 41.9787Z" fill="#1D1D1D"/>
<path d="M0.0386771 41.9789C0.0223341 39.8031 0.583946 37.6392 1.5675 35.6983C2.06076 34.7278 2.64911 33.8049 3.30877 32.9384C3.97141 32.0735 4.70239 31.262 5.48091 30.4996C7.04687 28.9837 8.80597 27.6743 10.6557 26.527C12.5084 25.3812 14.4577 24.3973 16.4619 23.5457C18.4662 22.6956 20.5239 21.9719 22.6188 21.3774C24.7122 20.7785 26.8353 20.288 28.9777 19.9061C33.2626 19.1377 37.6158 18.7691 41.9675 18.7632C46.3192 18.7691 50.6724 19.1362 54.9572 19.9061C57.0997 20.288 59.2227 20.7785 61.3161 21.3774C63.4095 21.9719 65.4688 22.6956 67.473 23.5457C69.4773 24.3973 71.4265 25.3797 73.2792 26.527C75.129 27.6743 76.8866 28.9822 78.4541 30.4996C79.2326 31.2605 79.9635 32.0735 80.6262 32.9384C81.2858 33.8063 81.8742 34.7278 82.3675 35.6983C83.351 37.6392 83.9111 39.8031 83.8963 41.9789C83.8814 39.8031 83.2916 37.6556 82.2872 35.7399C81.7836 34.7813 81.1863 33.8732 80.5192 33.0216C79.8491 32.173 79.1122 31.3764 78.3292 30.6304C76.7603 29.1397 75.0057 27.8527 73.1589 26.7262C71.3092 25.6011 69.3629 24.6396 67.3645 23.8088C63.362 22.1547 59.1648 20.991 54.9008 20.239C50.6352 19.484 46.3014 19.1303 41.9705 19.1347C37.6395 19.1303 33.3057 19.484 29.0401 20.239C24.7761 20.9925 20.5789 22.1547 16.5764 23.8088C14.578 24.6396 12.6317 25.6011 10.782 26.7262C8.93524 27.8512 7.18059 29.1397 5.61165 30.6304C4.82719 31.3749 4.09175 32.1715 3.42169 33.0216C2.75608 33.8732 2.15733 34.7813 1.65367 35.7399C0.649312 37.6556 0.0594832 39.8031 0.0446258 41.9789H0.0386771Z" fill="#1D1D1D"/>
<path d="M0.0386189 41.9789C0.0267331 40.9802 0.262971 39.983 0.67749 39.0719C0.884007 38.6157 1.14253 38.1832 1.42333 37.7686C1.70413 37.3524 2.01909 36.9601 2.35487 36.5885C3.70094 35.0949 5.3501 33.9134 7.07355 32.8998C8.8074 31.8937 10.6364 31.0659 12.5024 30.3451C14.37 29.6272 16.2791 29.0194 18.2106 28.4992C19.1763 28.2391 20.148 27.9984 21.1226 27.7769C22.0987 27.557 23.0793 27.3638 24.0629 27.1825C26.03 26.8213 28.009 26.53 29.9954 26.3012C33.9683 25.8419 37.9663 25.622 41.9644 25.6116C45.9625 25.622 49.9607 25.8404 53.9335 26.3012C55.9199 26.53 57.8989 26.8228 59.866 27.1825C60.8496 27.3638 61.8301 27.5585 62.8063 27.7769C63.7809 27.9984 64.7526 28.2377 65.7183 28.4992C67.6498 29.0194 69.5589 29.6272 71.4265 30.3451C73.2926 31.0659 75.123 31.8937 76.8553 32.8998C78.5788 33.9134 80.228 35.0949 81.574 36.5885C81.9098 36.9601 82.2248 37.3524 82.5056 37.7686C82.7864 38.1832 83.0434 38.6157 83.2514 39.0719C83.6659 39.9845 83.9022 40.9802 83.8903 41.9789C83.8754 40.9787 83.6139 39.9964 83.1801 39.1046C82.9647 38.6573 82.7032 38.2337 82.4164 37.8295C82.1312 37.4238 81.8118 37.0418 81.473 36.6807C80.1136 35.2302 78.457 34.0917 76.729 33.1198C74.9967 32.1463 73.1722 31.3438 71.3091 30.6512C69.4445 29.9601 67.5413 29.3791 65.6143 28.8842C61.7603 27.9003 57.8321 27.2107 53.8785 26.7693C49.9235 26.3279 45.9432 26.1243 41.963 26.1303C37.9842 26.1243 34.0024 26.3264 30.0474 26.7693C26.0924 27.2107 22.1656 27.9003 18.3116 28.8842C16.3861 29.3791 14.4814 29.9601 12.6168 30.6512C10.7537 31.3438 8.92924 32.1463 7.19688 33.1198C5.46897 34.0917 3.81237 35.2302 2.45293 36.6807C2.11418 37.0418 1.79476 37.4238 1.5095 37.8295C1.22275 38.2337 0.961259 38.6573 0.745828 39.1046C0.311995 39.9964 0.0505018 40.9787 0.0356445 41.9789H0.0386189Z" fill="#1D1D1D"/>
<path d="M0.0386963 41.9789C0.0386963 41.7486 0.0832646 41.5212 0.16498 41.3042C0.246695 41.0872 0.371501 40.891 0.503731 40.7023C0.784534 40.3352 1.13219 40.0231 1.50065 39.7467C2.24649 39.2012 3.07108 38.7777 3.91349 38.4091C5.60277 37.6735 7.36781 37.1355 9.14474 36.6688C12.709 35.7622 16.3416 35.1618 19.9817 34.6832C27.2706 33.7484 34.622 33.3977 41.9645 33.3813C49.307 33.3977 56.6584 33.7484 63.9474 34.6832C67.5889 35.1618 71.2201 35.7622 74.7843 36.6688C76.5613 37.1355 78.3263 37.6749 80.0156 38.4091C80.858 38.7777 81.6826 39.2012 82.4284 39.7467C82.7969 40.0231 83.1445 40.3337 83.4253 40.7023C83.559 40.891 83.6838 41.0872 83.7641 41.3042C83.8443 41.5197 83.8904 41.7486 83.8904 41.9789C83.8829 41.7486 83.8295 41.5242 83.7418 41.3146C83.6541 41.1036 83.5234 40.9148 83.3867 40.735C83.097 40.3843 82.7434 40.09 82.3704 39.8314C81.6201 39.3157 80.7926 38.9174 79.9472 38.5741C78.2535 37.8919 76.4855 37.4045 74.7071 36.9883C71.1473 36.1516 67.5206 35.6091 63.8865 35.1945C60.2494 34.7917 56.599 34.4975 52.9426 34.3206C49.2877 34.1348 45.6268 34.0472 41.966 34.0516C38.3052 34.0472 34.6443 34.1348 30.9894 34.3206C27.3331 34.4975 23.6841 34.7917 20.0455 35.1945C16.4114 35.6091 12.7848 36.1516 9.22498 36.9883C7.44656 37.4045 5.67854 37.8919 3.98481 38.5741C3.13942 38.9174 2.31186 39.3142 1.56157 39.8314C1.18865 40.09 0.835053 40.3843 0.545335 40.735C0.408648 40.9148 0.277902 41.1036 0.190244 41.3146C0.102586 41.5242 0.0490993 41.7501 0.0416707 41.9789H0.0386963Z" fill="#1D1D1D"/>
<path d="M0.0386963 41.9787L2.65953 41.9223L5.28036 41.8807L10.5205 41.7974C14.015 41.7543 17.5079 41.7142 21.0024 41.6889C24.4968 41.6548 27.9897 41.6473 31.4842 41.6265L41.966 41.6057L52.4478 41.6265C55.9423 41.6473 59.4352 41.6548 62.9297 41.6889C66.4241 41.7142 69.9171 41.7528 73.4115 41.7974L78.6517 41.8807L81.2725 41.9223L83.8933 41.9787L81.2725 42.0352L78.6517 42.0768L73.4115 42.1601C69.9171 42.2032 66.4241 42.2433 62.9297 42.2686C59.4352 42.3027 55.9423 42.3102 52.4478 42.331L41.966 42.3518L31.4842 42.331C27.9897 42.3102 24.4968 42.3027 21.0024 42.2686C17.5079 42.2433 14.015 42.2046 10.5205 42.1601L5.28036 42.0768L2.65953 42.0352L0.0386963 41.9787Z" fill="#1D1D1D"/>
<path d="M41.9645 83.9546C36.2994 83.9546 30.8037 82.8444 25.6303 80.6553C20.6338 78.5404 16.1454 75.5145 12.2914 71.6594C8.43746 67.8042 5.41253 63.3145 3.29833 58.3164C1.10985 53.1415 0 47.6441 0 41.9773C0 36.3105 1.10985 30.8131 3.29833 25.6382C5.41253 20.6401 8.43746 16.1504 12.2914 12.2952C16.1454 8.44004 20.6323 5.41417 25.6303 3.29933C30.8037 1.11018 36.2994 0 41.9645 0C47.6295 0 53.1253 1.11018 58.2986 3.29933C63.2951 5.41417 67.7835 8.44004 71.6375 12.2952C75.4914 16.1504 78.5164 20.6401 80.6306 25.6382C82.8191 30.8131 83.9289 36.3105 83.9289 41.9773C83.9289 47.6441 82.8191 53.1415 80.6306 58.3164C78.5164 63.3145 75.4914 67.8042 71.6375 71.6594C67.7835 75.5145 63.2951 78.5404 58.2986 80.6553C53.1253 82.8444 47.6295 83.9546 41.9645 83.9546ZM41.9645 0.0757954C18.8673 0.0757954 0.0757737 18.8731 0.0757737 41.9773C0.0757737 65.0815 18.8673 83.8788 41.9645 83.8788C65.0616 83.8788 83.8532 65.0815 83.8532 41.9773C83.8532 18.8731 65.0631 0.0757954 41.9645 0.0757954Z" fill="#1D1D1D"/>
<path d="M0.0386963 41.9788C0.0416678 44.6242 0.328409 47.2696 0.906358 49.8511C1.48282 52.4326 2.34456 54.9487 3.46331 57.3444C5.69934 62.1403 8.9635 66.4354 12.9111 69.9473C16.8572 73.4651 21.4837 76.2071 26.4401 78.0366C31.398 79.8705 36.6842 80.7875 41.9675 80.792C47.2508 80.786 52.537 79.8705 57.4949 78.0366C62.4513 76.2071 67.0764 73.4666 71.0239 69.9473C74.9715 66.4339 78.2357 62.1389 80.4717 57.3444C81.5905 54.9487 82.4522 52.4326 83.0287 49.8511C83.6066 47.2696 83.8933 44.6242 83.8963 41.9788C83.8963 44.6242 83.6125 47.2696 83.039 49.8526C82.4655 52.4356 81.6068 54.9532 80.491 57.3519C78.2594 62.1522 74.9983 66.4547 71.0522 69.9755C67.1061 73.5022 62.4795 76.2517 57.5187 78.0886C52.5578 79.9315 47.2641 80.8544 41.972 80.8663C36.6798 80.8544 31.3876 79.93 26.4253 78.0886C21.4644 76.2517 16.8379 73.5007 12.8918 69.9755C8.94565 66.4547 5.68298 62.1522 3.4529 57.3519C2.33712 54.9532 1.4769 52.4356 0.904889 49.8526C0.329911 47.2696 0.0461336 44.6242 0.0476194 41.9788H0.0386963Z" fill="#1D1D1D"/>
<path d="M0.0387165 41.9788C0.0476309 44.4978 0.383414 47.014 1.03119 49.4468C1.67749 51.8797 2.63578 54.2264 3.85111 56.4289C6.2773 60.8429 9.72418 64.6579 13.7312 67.6927C17.7412 70.735 22.3098 73.0163 27.1057 74.5218C31.9061 76.0302 36.9383 76.7644 41.966 76.7748C46.9937 76.7644 52.0259 76.0317 56.8263 74.5218C61.6222 73.0163 66.1894 70.735 70.2009 67.6927C74.2064 64.6565 77.6548 60.8429 80.081 56.4289C81.2963 54.2264 82.2531 51.8797 82.9009 49.4468C83.5487 47.0154 83.8844 44.4978 83.8933 41.9788C83.8963 44.4978 83.5724 47.0184 82.935 49.4558C82.2991 51.8946 81.3512 54.2502 80.1433 56.4631C77.7216 60.892 74.2703 64.7204 70.2603 67.7715C66.2459 70.8286 61.6698 73.1233 56.8634 74.6407C52.0541 76.161 47.0086 76.9056 41.966 76.9234C36.9235 76.9041 31.8779 76.161 27.0686 74.6407C22.2623 73.1233 17.6877 70.8286 13.6718 67.7715C9.66179 64.7219 6.21044 60.8934 3.7887 56.4631C2.5808 54.2502 1.63292 51.8946 0.997024 49.4558C0.359645 47.0169 0.0357451 44.4978 0.0387165 41.9788Z" fill="#1D1D1D"/>
<path d="M0.0387126 41.9788C0.0684273 46.7078 1.71611 51.3596 4.48403 55.1657C5.84941 57.0843 7.45251 58.8291 9.21607 60.3896C10.9796 61.9501 12.9022 63.3293 14.9228 64.5361C18.9714 66.9496 23.4048 68.6796 27.9704 69.8269C28.5439 69.9607 29.1145 70.1063 29.6909 70.2297L31.4233 70.5744C32.0027 70.674 32.5851 70.7647 33.166 70.8598C33.4558 70.9103 33.7485 70.9475 34.0412 70.9831L34.9177 71.0931C37.2563 71.3681 39.6111 71.5033 41.966 71.5093C44.3209 71.5033 46.6758 71.3666 49.0144 71.0931L49.8909 70.9831C50.1836 70.9475 50.4748 70.9118 50.766 70.8598C51.3469 70.7647 51.9293 70.674 52.5088 70.5744L54.2411 70.2297C54.8161 70.1063 55.3881 69.9607 55.9616 69.8269C60.5272 68.681 64.9607 66.9511 69.0093 64.5361C71.0314 63.3293 72.9524 61.9501 74.716 60.3896C76.4796 58.8291 78.0826 57.0858 79.448 55.1657C82.216 51.3596 83.8636 46.7078 83.8933 41.9788C83.8993 46.7078 82.2858 51.3863 79.5357 55.2281C78.1733 57.1601 76.5657 58.9138 74.8007 60.4847C73.0341 62.0556 71.1101 63.4452 69.0836 64.6609C65.0275 67.0938 60.5822 68.8416 56.0047 70.0038C55.4297 70.139 54.8577 70.2861 54.2798 70.4125L52.543 70.7632C51.9606 70.8657 51.3767 70.9564 50.7943 71.0545C50.5031 71.1065 50.2103 71.1437 49.9177 71.1793L49.0381 71.2908C46.6921 71.5732 44.3298 71.7144 41.966 71.7277C39.6022 71.7144 37.2399 71.5732 34.894 71.2908L34.0144 71.1793C33.7217 71.1437 33.4275 71.1065 33.1378 71.0545C32.5554 70.9579 31.9715 70.8657 31.3891 70.7632L29.6523 70.4125C29.0744 70.2876 28.5023 70.139 27.9274 70.0038C23.3498 68.8416 18.9045 67.0938 14.8485 64.6609C12.8234 63.4437 10.8979 62.0556 9.13139 60.4847C7.36635 58.9138 5.75879 57.1601 4.39637 55.2281C1.64628 51.3863 0.0327697 46.7063 0.0387126 41.9788Z" fill="#1D1D1D"/>
<path d="M0.0386444 41.9788C0.0535017 44.1545 0.643348 46.3021 1.6477 48.2178C2.15136 49.1764 2.74861 50.0844 3.41571 50.936C4.08577 51.7846 4.82269 52.5812 5.60567 53.3273C7.1746 54.8179 8.92926 56.1049 10.776 57.2315C12.6258 58.3565 14.5721 59.3181 16.5704 60.1489C20.5729 61.803 24.7701 62.9667 29.0341 63.7187C33.2997 64.4737 37.6336 64.8274 41.9645 64.8229C46.2954 64.8274 50.6293 64.4737 54.8948 63.7187C59.1588 62.9652 63.356 61.803 67.3586 60.1489C69.3569 59.3181 71.3032 58.3565 73.1529 57.2315C74.9997 56.1064 76.7543 54.8179 78.3233 53.3273C79.1077 52.5827 79.8432 51.7861 80.5132 50.936C81.1803 50.0844 81.7776 49.1764 82.2813 48.2178C83.2856 46.3021 83.8755 44.1545 83.8903 41.9788C83.9067 44.1545 83.3451 46.3184 82.3615 48.2594C81.8682 49.2299 81.2799 50.1513 80.6202 51.0192C79.9576 51.8842 79.2266 52.6956 78.4481 53.4581C76.8821 54.974 75.123 56.2833 73.2733 57.4306C71.4206 58.5765 69.4713 59.5603 67.4671 60.4119C65.4628 61.262 63.405 61.9858 61.3102 62.5803C59.2168 63.1792 57.0937 63.6696 54.9513 64.0516C50.6664 64.8199 46.3132 65.1885 41.9615 65.1945C37.6098 65.1885 33.2566 64.8214 28.9718 64.0516C26.8293 63.6696 24.7062 63.1792 22.6128 62.5803C20.5194 61.9858 18.4602 61.262 16.456 60.4119C14.4517 59.5603 12.5024 58.578 10.6497 57.4306C8.79999 56.2833 7.04237 54.9755 5.47493 53.4581C4.6964 52.6971 3.96543 51.8842 3.30279 51.0192C2.64313 50.1513 2.05478 49.2299 1.56152 48.2594C0.577965 46.3184 0.0163526 44.1545 0.0326957 41.9788H0.0386444Z" fill="#1D1D1D"/>
<path d="M0.0386963 41.9788C0.0535536 42.979 0.315047 43.9613 0.74888 44.853C0.964311 45.3004 1.2258 45.7239 1.51255 46.1282C1.79781 46.5339 2.11724 46.9159 2.45598 47.277C3.81543 48.7275 5.47202 49.8659 7.19993 50.8379C8.93229 51.8114 10.7567 52.6139 12.6199 53.3065C14.4844 53.9975 16.3877 54.5786 18.3147 55.0735C22.1687 56.0574 26.0969 56.747 30.0505 57.1884C34.0055 57.6298 37.9857 57.8334 41.966 57.8274C45.9448 57.8334 49.9265 57.6313 53.8816 57.1884C57.8366 56.747 61.7634 56.0574 65.6174 55.0735C67.5429 54.5786 69.4476 53.9975 71.3122 53.3065C73.1753 52.6139 74.9997 51.8114 76.7321 50.8379C78.46 49.8659 80.1166 48.7275 81.4761 47.277C81.8148 46.9159 82.1342 46.5339 82.4195 46.1282C82.7062 45.7239 82.9677 45.3004 83.1832 44.853C83.617 43.9613 83.8785 42.979 83.8933 41.9788C83.9052 42.9775 83.669 43.9747 83.2545 44.8857C83.048 45.342 82.7895 45.7745 82.5087 46.1891C82.2278 46.6053 81.9129 46.9976 81.5771 47.3692C80.231 48.8628 78.5819 50.0443 76.8584 51.0579C75.1246 52.064 73.2956 52.8918 71.4295 53.6126C69.562 54.3304 67.6528 54.9383 65.7214 55.4585C64.7557 55.7185 63.784 55.9593 62.8093 56.1807C61.8332 56.4007 60.8526 56.5939 59.8691 56.7752C57.902 57.1364 55.923 57.4277 53.9366 57.6565C49.9637 58.1158 45.9656 58.3357 41.9675 58.3461C37.9694 58.3357 33.9713 58.1172 29.9984 57.6565C28.012 57.4277 26.033 57.1349 24.0659 56.7752C23.0824 56.5939 22.1018 56.3992 21.1257 56.1807C20.151 55.9593 19.1794 55.72 18.2137 55.4585C16.2822 54.9383 14.373 54.3304 12.5054 53.6126C10.6394 52.8918 8.80896 52.064 7.0766 51.0579C5.35315 50.0443 3.70251 48.8613 2.35792 47.3692C2.02214 46.9976 1.70717 46.6053 1.42636 46.1891C1.14556 45.7745 0.888544 45.342 0.680542 44.8857C0.266023 43.9732 0.0297848 42.9775 0.0416707 41.9788H0.0386963Z" fill="#1D1D1D"/>
<path d="M0.0386189 41.9788C0.0460475 42.2091 0.0995338 42.4335 0.187192 42.6431C0.27485 42.8541 0.405597 43.0429 0.542284 43.2227C0.832001 43.5734 1.1856 43.8677 1.55852 44.1263C2.30881 44.642 3.13637 45.0403 3.98175 45.3836C5.67549 46.0658 7.44351 46.5532 9.22193 46.9694C12.7817 47.8061 16.4084 48.3486 20.0425 48.7632C23.6796 49.166 27.33 49.4602 30.9864 49.6371C34.6413 49.8228 38.3021 49.9105 41.963 49.9061C45.6238 49.9105 49.2847 49.8228 52.9395 49.6371C56.5959 49.4602 60.2449 49.166 63.8834 48.7632C67.5175 48.3486 71.1442 47.8061 74.704 46.9694C76.4824 46.5532 78.2505 46.0658 79.9442 45.3836C80.7896 45.0403 81.6171 44.6435 82.3674 44.1263C82.7403 43.8677 83.0939 43.5734 83.3836 43.2227C83.5203 43.0429 83.6511 42.8541 83.7388 42.6431C83.8264 42.4335 83.8799 42.2076 83.8873 41.9788C83.8873 42.2091 83.8427 42.4365 83.761 42.6535C83.6793 42.8705 83.5545 43.0667 83.4223 43.2554C83.1415 43.6225 82.7938 43.9346 82.4254 44.211C81.6795 44.7564 80.8549 45.18 80.0125 45.5486C78.3232 46.2842 76.5582 46.8222 74.7813 47.2889C71.217 48.1955 67.5844 48.7959 63.9444 49.2744C56.6554 50.2093 49.3039 50.56 41.9615 50.5763C34.619 50.56 27.2676 50.2093 19.9786 49.2744C16.3371 48.7959 12.706 48.1955 9.14169 47.2889C7.36476 46.8222 5.59972 46.2828 3.91044 45.5486C3.06803 45.18 2.24345 44.7564 1.49762 44.211C1.12916 43.9346 0.781482 43.624 0.500679 43.2554C0.366963 43.0667 0.242176 42.8705 0.161946 42.6535C0.0817167 42.438 0.0356445 42.2091 0.0356445 41.9788H0.0386189Z" fill="#1D1D1D"/>
<path d="M0.0386963 41.9787L2.65953 41.9223L5.28036 41.8807L10.5205 41.7974C14.015 41.7543 17.5079 41.7142 21.0024 41.6889C24.4968 41.6548 27.9897 41.6473 31.4842 41.6265L41.966 41.6057L52.4478 41.6265C55.9423 41.6473 59.4352 41.6548 62.9297 41.6889C66.4241 41.7142 69.9171 41.7528 73.4115 41.7974L78.6517 41.8807L81.2725 41.9223L83.8933 41.9787L81.2725 42.0352L78.6517 42.0768L73.4115 42.1601C69.9171 42.2032 66.4241 42.2433 62.9297 42.2686C59.4352 42.3027 55.9423 42.3102 52.4478 42.331L41.966 42.3518L31.4842 42.331C27.9897 42.3102 24.4968 42.3027 21.0024 42.2686C17.5079 42.2433 14.015 42.2046 10.5205 42.1601L5.28036 42.0768L2.65953 42.0352L0.0386963 41.9787Z" fill="#1D1D1D"/>
</svg>
