<svg width="85" height="85" viewBox="0 0 85 85" fill="none" xmlns="http://www.w3.org/2000/svg">
<path d="M28.8483 64.3473C26.6732 64.3473 24.3763 63.4288 22.5845 61.6365C19.3174 58.3684 18.9519 53.4179 21.7688 50.6001C24.5858 47.7823 29.5347 48.1479 32.8019 51.416C36.069 54.6841 36.4345 59.6346 33.6175 62.4524C32.3457 63.7246 30.6386 64.3473 28.8483 64.3473ZM26.5395 49.0738C24.8443 49.0738 23.2323 49.6608 22.0333 50.8616C19.3605 53.5353 19.7274 58.2495 22.8489 61.3719C25.9705 64.4944 30.6847 64.86 33.356 62.1879C36.0289 59.5142 35.6619 54.8 32.5404 51.6776C30.8214 49.9581 28.618 49.0738 26.5395 49.0738Z" fill="#1D1D1D"/>
<path d="M30.8288 70.8273C26.6079 70.8273 22.1447 69.0409 18.6637 65.5572C12.3241 59.2157 11.605 49.6164 17.0606 44.1592C19.7067 41.5123 23.3913 40.2237 27.4354 40.5299C31.4707 40.836 35.3841 42.6938 38.4521 45.7627C44.7917 52.1043 45.5108 61.7036 40.0552 67.1608C37.5949 69.622 34.2936 70.8258 30.8288 70.8258V70.8273ZM26.2736 40.784C22.7673 40.784 19.6041 42.0369 17.2715 44.3702C11.9318 49.7115 12.6509 59.1221 18.8747 65.3477C22.2978 68.7719 26.6866 70.53 30.8288 70.5315C34.2178 70.5315 37.4433 69.3559 39.8457 66.9528C45.1854 61.6114 44.4664 52.2009 38.2426 45.9753C35.2251 42.9568 31.3786 41.1288 27.4146 40.8286C27.0313 40.7989 26.651 40.7855 26.2751 40.7855L26.2736 40.784Z" fill="#1D1D1D"/>
<path d="M33.2595 76.2754C27.1338 76.2754 20.6546 73.6805 15.5986 68.6231C11.1429 64.166 8.44482 58.4843 8.00208 52.6243C7.55784 46.7568 9.42541 41.414 13.2601 37.5766C21.1731 29.6612 35.0959 30.712 44.297 39.9159C53.4981 49.1198 54.547 63.0484 46.6355 70.9623C43.0698 74.5291 38.2842 76.2754 33.2595 76.2754ZM26.6376 32.4865C21.6708 32.4865 16.9402 34.2119 13.419 37.7342C9.63043 41.5239 7.78664 46.8059 8.22494 52.6064C8.66471 58.4144 11.339 64.0456 15.7576 68.4655C24.8725 77.5833 38.6542 78.6325 46.4795 70.8048C54.3049 62.977 53.2559 49.1912 44.141 40.0734C39.1296 35.0605 32.7068 32.4865 26.6376 32.4865Z" fill="#1D1D1D"/>
<path d="M35.9769 80.3728C28.2036 80.3728 19.9801 77.0779 13.5632 70.6606C1.88682 58.9807 0.552637 41.3099 10.5902 31.2707C20.6263 21.2316 38.2917 22.5647 49.968 34.2461C61.6444 45.926 62.9786 63.5968 52.9425 73.6359C48.4214 78.1584 42.3507 80.3743 35.9769 80.3743V80.3728ZM13.6687 70.5551C25.2871 82.1771 42.8573 83.5116 52.837 73.5304C62.8151 63.5492 61.4824 45.9721 49.8625 34.3501C38.2441 22.7282 20.6739 21.3936 10.6942 31.3748C0.716059 41.356 2.04876 58.9331 13.6672 70.5551H13.6687Z" fill="#1D1D1D"/>
<path d="M39.0925 82.794C38.2649 82.794 37.43 82.7628 36.5876 82.6989C27.8812 82.039 19.4407 78.0293 12.8188 71.4053C6.19695 64.7814 2.18696 56.3384 1.52878 47.6293C0.869117 38.9173 3.64148 30.9841 9.3348 25.289C15.0281 19.5939 22.959 16.8207 31.6683 17.4806C40.3747 18.1405 48.8151 22.1502 55.437 28.7741C62.0589 35.398 66.0689 43.8411 66.7271 52.5501C67.3867 61.2621 64.6144 69.1954 58.9211 74.8904C53.7789 80.0341 46.8109 82.794 39.0925 82.794ZM12.8976 71.3266C26.5262 84.9578 47.1362 86.5228 58.8423 74.8131C70.5484 63.1035 68.9854 42.4857 55.3568 28.8544C48.7542 22.2498 40.3375 18.2504 31.6579 17.5935C22.9812 16.9352 15.0816 19.698 9.41206 25.3693C3.74251 31.0405 0.982031 38.9441 1.63872 47.6219C2.29542 56.3042 6.29352 64.7234 12.8961 71.328L12.8976 71.3266Z" fill="#1D1D1D"/>
<path d="M42.0818 84.2295C36.4004 84.2295 30.8898 83.1163 25.7017 80.9212C20.6903 78.8004 16.19 75.7656 12.3256 71.9001C8.46123 68.0345 5.42589 63.5328 3.30724 58.5199C1.11281 53.3302 0 47.8179 0 42.1348C0 38.0953 0.570527 34.1004 1.69671 30.2616C3.21513 26.347 5.46898 22.8797 8.39735 19.9505C11.6377 16.7091 15.5214 14.303 19.937 12.799C24.2025 11.3469 28.7831 10.7941 33.5537 11.1552C38.3229 11.5164 43.0401 12.7737 47.5746 14.8915C52.2695 17.0836 56.5618 20.108 60.3311 23.8799C64.1003 27.6519 67.1238 31.944 69.3168 36.6403C71.4339 41.1762 72.6908 45.8948 73.0519 50.6655C73.4129 55.4361 72.8602 60.0195 71.4087 64.2863C69.9066 68.7048 67.5012 72.5882 64.2593 75.8296C61.331 78.7588 57.8647 81.0134 53.9543 82.5308H53.9513C50.1137 83.6588 46.12 84.2295 42.0818 84.2295ZM30.765 11.1404C22.3796 11.1404 14.3967 14.0518 8.44935 20.0025C5.5284 22.9243 3.2805 26.3842 1.76654 30.2854C0.643324 34.1153 0.0727993 38.1027 0.0727993 42.1348C0.0727993 65.3059 18.9178 84.1566 42.0818 84.1566C46.1126 84.1566 50.0988 83.586 53.929 82.4624C57.8291 80.948 61.2864 78.6994 64.2073 75.779C70.6034 69.381 73.719 60.4639 72.9776 50.6729C72.2362 40.8789 67.727 31.3837 60.2791 23.9334C51.8297 15.4815 40.9987 11.1419 30.765 11.1419V11.1404Z" fill="#1D1D1D"/>
<path d="M42.0818 84.2296C36.4004 84.2296 30.8898 83.1164 25.7017 80.9213C20.6903 78.8005 16.19 75.7657 12.3256 71.9002C8.46123 68.0346 5.42589 63.5329 3.30724 58.52C1.11281 53.3303 0 47.818 0 42.1348C0 33.3604 2.67134 24.9531 7.7258 17.8194C8.24135 17.2234 8.78364 16.6393 9.3393 16.0835C12.8367 12.585 17.0057 9.96934 21.7318 8.30927C26.2959 6.70567 31.1855 6.05473 36.2637 6.37575C41.3419 6.69676 46.3518 7.97339 51.1567 10.17C56.1309 12.4438 60.6639 15.6094 64.6323 19.5775C73.4753 28.4233 78.3054 40.1805 77.885 51.8367C77.5314 61.6351 73.4501 70.3932 66.3928 76.4999L66.3899 76.5029C59.2584 81.5589 50.8536 84.231 42.0818 84.231V84.2296ZM33.7469 6.3698C24.308 6.3698 15.7369 9.78803 9.3913 16.1355C8.83712 16.6899 8.29632 17.271 7.78374 17.864C2.73969 24.9813 0.0727993 33.3753 0.0727993 42.1334C0.0727993 65.3045 18.9178 84.1553 42.0818 84.1553C50.8372 84.1553 59.2272 81.4875 66.3453 76.4419C73.3847 70.3486 77.4571 61.6098 77.8092 51.8337C78.2297 40.1983 73.407 28.4605 64.5788 19.6295C56.7415 11.7899 46.6831 7.10844 36.2593 6.44857C35.4169 6.39507 34.5774 6.36831 33.7469 6.36831V6.3698Z" fill="#1D1D1D"/>
<path d="M42.0818 84.2297C36.4004 84.2297 30.8898 83.1165 25.7017 80.9214C20.6903 78.8006 16.19 75.7658 12.3256 71.9003C8.46123 68.0347 5.42589 63.533 3.30724 58.5201C1.11281 53.3304 0 47.8181 0 42.1349C0 35.3594 1.64767 28.6255 4.76324 22.6615C7.77928 16.8891 12.1711 11.8168 17.4603 7.99282C21.4703 5.70856 25.8161 4.11239 30.3817 3.24891C34.8746 2.39733 39.4655 2.27546 44.0266 2.88628C48.6339 3.50305 53.0866 4.84954 57.2615 6.89155C61.5806 9.00342 65.5148 11.8183 68.9528 15.2573C72.3907 18.6963 75.2047 22.6303 77.3159 26.9521C79.3573 31.1283 80.7049 35.5838 81.3215 40.1925C81.9306 44.7536 81.8088 49.3459 80.9575 53.8416C80.0928 58.4072 78.4986 62.7558 76.2165 66.764C72.3922 72.0593 67.3214 76.451 61.5494 79.4679C55.5871 82.5859 48.8553 84.2326 42.0818 84.2326V84.2297ZM38.2665 2.58162C31.1231 2.58162 23.9634 4.37247 17.5004 8.05375C6.58922 15.9409 0.0742865 28.682 0.0742865 42.1335C0.0742865 65.3046 18.9193 84.1553 42.0833 84.1553C55.5307 84.1553 68.2678 77.6384 76.1541 66.7209C85.5825 50.1559 82.6007 29.0134 68.8993 15.3093C60.545 6.95249 49.4273 2.58311 38.268 2.58311L38.2665 2.58162Z" fill="#1D1D1D"/>
<path d="M42.0818 84.2297C36.4004 84.2297 30.8898 83.1165 25.7017 80.9214C20.6903 78.8006 16.19 75.7658 12.3256 71.9003C8.46123 68.0347 5.42589 63.533 3.30724 58.5201C1.11281 53.3304 0 47.8181 0 42.1349C0 37.2216 0.837955 32.4093 2.49157 27.8304C4.08873 23.406 6.40796 19.3012 9.38537 15.6318C12.336 11.9936 15.8423 8.89195 19.8063 6.413C23.846 3.88648 28.2452 2.08225 32.8822 1.04638C39.7002 -0.0177317 46.7233 0.480148 53.1951 2.48501C59.9789 4.58648 65.965 8.1979 70.9837 13.2197C75.9907 18.2282 79.5965 24.1997 81.7003 30.9663C83.7031 37.4089 84.2127 44.4043 83.1742 51.1962L83.1861 51.1992L83.1786 51.2363C81.1476 60.4507 75.9758 68.8224 68.6155 74.8102C64.9442 77.7974 60.8362 80.1248 56.4058 81.7284C51.8223 83.3885 47.0026 84.2297 42.0818 84.2297ZM40.0776 0.558913C37.7049 0.558913 35.3054 0.744681 32.8956 1.12069C13.8782 5.36374 0.0742865 22.6124 0.0742865 42.1349C0.0742865 65.3061 18.9193 84.1568 42.0833 84.1568C61.637 84.1568 78.8804 70.3234 83.0999 51.2571H83.0925L83.0984 51.2215C85.2809 37.021 80.846 23.1905 70.9332 13.2747C62.677 5.01598 51.7123 0.5604 40.0806 0.5604L40.0776 0.558913Z" fill="#1D1D1D"/>
<path d="M42.0818 84.2295C36.4004 84.2295 30.8898 83.1163 25.7017 80.9212C20.6903 78.8004 16.19 75.7656 12.3256 71.9001C8.46123 68.0345 5.42589 63.5328 3.30724 58.5199C1.11281 53.3302 0 47.8179 0 42.1347C0 36.4516 1.11281 30.9393 3.30724 25.7496C5.42738 20.7367 8.46123 16.235 12.3256 12.3694C16.19 8.50386 20.6903 5.46759 25.7017 3.34829C30.8898 1.15319 36.4004 0.0400391 42.0818 0.0400391C47.7633 0.0400391 53.2738 1.15319 58.462 3.34829C63.4734 5.46907 67.9737 8.50386 71.838 12.3694C75.7024 16.235 78.7378 20.7367 80.8564 25.7496C83.0508 30.9393 84.1637 36.4516 84.1637 42.1347C84.1637 47.8179 83.0508 53.3302 80.8564 58.5199C78.7363 63.5328 75.7024 68.0345 71.838 71.9001C67.9737 75.7656 63.4734 78.8019 58.462 80.9212C53.2738 83.1163 47.7633 84.2295 42.0818 84.2295ZM42.0818 0.111373C18.9178 0.111373 0.0727993 18.9621 0.0727993 42.1333C0.0727993 65.3044 18.9178 84.1551 42.0818 84.1551C65.2459 84.1551 84.0909 65.3044 84.0909 42.1333C84.0909 18.9621 65.2459 0.111373 42.0818 0.111373Z" fill="#1D1D1D"/>
<path d="M57.6241 35.7487C55.4014 35.7487 53.057 34.8124 51.2295 32.9829C47.8911 29.6435 47.5241 24.5741 50.4138 21.6835C53.3036 18.7929 58.3699 19.1599 61.7099 22.4994C65.0483 25.8389 65.4153 30.9082 62.5255 33.7989C61.2181 35.1067 59.4634 35.7487 57.6256 35.7487H57.6241ZM55.3138 20.4752C53.6676 20.4752 52.1016 21.0444 50.9383 22.2096C48.3383 24.8104 48.7038 29.4072 51.754 32.4583C54.8027 35.508 59.3996 35.8751 61.9996 33.2742C64.5996 30.6734 64.2341 26.0766 61.1839 23.0255C59.5006 21.3417 57.3448 20.4752 55.3153 20.4752H55.3138Z" fill="#1D1D1D"/>
<path d="M57.8766 43.957C53.6081 43.957 49.0974 42.1528 45.5807 38.6335C42.4814 35.5333 40.6035 31.5786 40.2944 27.496C39.9839 23.3956 41.2914 19.6579 43.9761 16.9723C46.6608 14.2868 50.3974 12.9789 54.4965 13.2896C58.5763 13.5987 62.5314 15.4757 65.6306 18.5774C72.043 24.9918 72.7621 34.7085 67.2337 40.2371C64.7377 42.7339 61.3888 43.9555 57.8766 43.9555V43.957ZM53.3198 13.9152C49.864 13.9152 46.7455 15.1488 44.4485 17.4464C41.9035 19.9923 40.6659 23.5427 40.96 27.4455C41.2572 31.3675 43.0653 35.1721 46.0516 38.1609C52.2026 44.3137 61.4928 45.033 66.7597 39.7645C72.0267 34.4959 71.3076 25.2028 65.1567 19.05C62.1703 16.0628 58.3654 14.2541 54.4445 13.9568C54.0657 13.9286 53.6913 13.9138 53.3198 13.9138V13.9152Z" fill="#1D1D1D"/>
<path d="M57.5245 52.1517C51.3602 52.1517 44.8423 49.542 39.7581 44.4562C30.499 35.1943 29.4501 21.1722 37.4196 13.1988C45.3905 5.22542 59.4069 6.27467 68.6675 15.5381C77.9265 24.8 78.9755 38.8221 71.006 46.7955C67.412 50.3906 62.5864 52.1517 57.5245 52.1517ZM50.9026 8.36127C45.9729 8.36127 41.2825 10.0719 37.788 13.5674C30.0206 21.3371 31.0696 35.0294 40.1266 44.0892C45.1097 49.0738 51.4954 51.633 57.5245 51.633C62.4541 51.633 67.1446 49.9224 70.639 46.4269C78.4064 38.6572 77.3575 24.9649 68.3005 15.9051C63.3173 10.9205 56.9317 8.36127 50.9026 8.36127Z" fill="#1D1D1D"/>
<path d="M56.6078 59.8457C48.8047 59.8457 40.553 56.5404 34.1153 50.1007C22.3959 38.3777 21.0617 20.6356 31.1409 10.5534C41.2216 0.4696 58.9567 1.8042 70.6762 13.5287C82.3956 25.2517 83.7298 42.9938 73.6506 53.0761C69.1072 57.6208 63.0083 59.8457 56.6063 59.8457H56.6078ZM48.1852 4.15385C41.8783 4.15385 35.8759 6.34301 31.4039 10.8164C21.4688 20.7545 22.803 38.2603 34.3783 49.8392C40.7432 56.206 48.9013 59.4756 56.6078 59.4756C62.9147 59.4756 68.9171 57.2864 73.3891 52.813C83.3242 42.8749 81.99 25.3691 70.4147 13.7903C64.0498 7.42345 55.8917 4.15385 48.1852 4.15385Z" fill="#1D1D1D"/>
<path d="M55.0003 66.9378C54.1712 66.9378 53.3348 66.9066 52.4909 66.8427C43.7711 66.1828 35.3173 62.1657 28.6865 55.5328C22.0557 48.9 18.0397 40.4436 17.3801 31.7212C16.7189 22.9928 19.4972 15.0432 25.2025 9.33624C30.9077 3.62929 38.8548 0.851604 47.5805 1.51147C56.3003 2.17134 64.7541 6.1885 71.3849 12.8213C78.0157 19.4542 82.0316 27.9106 82.6913 36.633C83.3525 45.3614 80.5742 53.311 74.869 59.0179C69.7164 64.172 62.7335 66.9378 55.0017 66.9378H55.0003ZM45.0994 1.65712C37.6811 1.65712 30.6194 4.23268 25.3585 9.49526C13.6732 21.1841 15.2377 41.7648 28.844 55.3753C35.4377 61.971 43.841 65.9643 52.5072 66.6212C61.1675 67.2766 69.0523 64.5213 74.71 58.8619C80.3676 53.2025 83.1222 45.3153 82.467 36.6523C81.8103 27.9834 77.8181 19.5775 71.2245 12.9818C63.7453 5.50039 54.1564 1.65712 45.0994 1.65712Z" fill="#1D1D1D"/>
<path d="M53.4328 73.257C52.4998 73.257 51.5578 73.2214 50.607 73.15C40.7907 72.4069 31.2717 67.8845 23.8059 60.4149C16.3401 52.9468 11.819 43.4248 11.0746 33.6056C10.3303 23.7819 13.4578 14.8336 19.8776 8.4118C22.8089 5.47956 26.2811 3.22205 30.1945 1.70168H30.2004C34.0411 0.572183 38.0392 0 42.0803 0C53.3303 0 63.9087 4.38276 71.8633 12.3398C79.8194 20.2983 84.1993 30.8785 84.1993 42.1319C84.1993 46.1743 83.6273 50.1736 82.5011 54.0154C80.9798 57.9374 78.7229 61.4092 75.7916 64.3429C69.9928 70.1435 62.1347 73.2555 53.4313 73.2555L53.4328 73.257ZM30.245 1.84139C26.3509 3.35284 22.8981 5.59994 19.9816 8.51584C6.78979 21.7117 8.55187 44.9467 23.9099 60.3094C31.3504 67.7522 40.8353 72.2598 50.6173 73.0014C60.3949 73.743 69.2975 70.631 75.6861 64.2389C78.6026 61.3215 80.849 57.8661 82.36 53.9693C83.4817 50.1469 84.0508 46.1624 84.0508 42.1333C84.0508 18.983 65.2221 0.148619 42.0789 0.148619C38.0525 0.148619 34.0708 0.71783 30.2435 1.84139H30.245Z" fill="#1D1D1D"/>
<path d="M50.4048 77.9726C49.5743 77.9726 48.7393 77.9459 47.8984 77.8924C42.8202 77.5714 37.8103 76.2948 33.0055 74.0982C28.0312 71.8243 23.4983 68.6587 19.5299 64.6906C10.6868 55.8448 5.8567 44.0876 6.27716 32.4315C6.63077 22.6331 10.7121 13.875 17.7693 7.76825L17.7723 7.76527C24.9038 2.70927 33.3085 0.0371094 42.0803 0.0371094C47.7617 0.0371094 53.2723 1.15026 58.4605 3.34536C63.4718 5.46615 67.9721 8.50094 71.8365 12.3665C75.7009 16.2321 78.7362 20.7337 80.8549 25.7466C83.0493 30.9364 84.1621 36.4486 84.1621 42.1318C84.1621 50.9062 81.4908 59.3136 76.4363 66.4473C75.9193 67.0447 75.3785 67.6273 74.8228 68.1832C71.3254 71.6816 67.1565 74.2973 62.4303 75.9574C58.6209 77.2964 54.5857 77.9697 50.4048 77.9697V77.9726ZM17.8183 7.8262C10.7789 13.9196 6.70654 22.6583 6.35442 32.4345C5.93396 44.0698 10.7566 55.8077 19.5848 64.6386C35.763 80.8217 60.5197 82.3896 74.7723 68.1326C75.3265 67.5783 75.8673 66.9972 76.3799 66.4042C81.4239 59.2868 84.0908 50.8929 84.0908 42.1348C84.0908 18.9637 65.2458 0.112906 42.0818 0.112906C33.3264 0.112906 24.9365 2.7806 17.8183 7.8262Z" fill="#1D1D1D"/>
<path d="M45.8481 81.7639C43.9448 81.7639 42.0387 81.6376 40.1369 81.382C35.5297 80.7652 31.0769 79.4172 26.902 77.3752C22.583 75.2634 18.6488 72.4485 15.2108 69.0095C11.7728 65.5705 8.95886 61.6365 6.84763 57.3147C4.80624 53.1385 3.45869 48.6829 2.8436 44.0758C2.23445 39.5147 2.35627 34.9224 3.20759 30.4266C4.07229 25.8611 5.66648 21.5125 7.94857 17.5043C11.7728 12.209 16.8451 7.81731 22.6157 4.80035C28.5779 1.68234 35.3098 0.0356445 42.0832 0.0356445C47.7647 0.0356445 53.2752 1.1488 58.4634 3.34389C63.4748 5.46468 67.9751 8.49947 71.8394 12.365C75.7038 16.2306 78.7392 20.7323 80.8578 25.7452C83.0522 30.9349 84.1651 36.4472 84.1651 42.1303C84.1651 48.9059 82.5174 55.6398 79.4018 61.6038C76.3858 67.3762 71.9954 72.4485 66.7047 76.2725C62.6948 78.5567 58.349 80.1514 53.7834 81.0164C51.164 81.5128 48.5105 81.761 45.8495 81.761L45.8481 81.7639ZM42.0817 0.111441C28.6344 0.111441 15.8972 6.62836 8.01097 17.5459C-1.41747 34.1109 1.56438 55.2534 15.2658 68.9575C28.9657 82.6616 50.1017 85.6459 66.6646 76.213C77.5758 68.3259 84.0908 55.5848 84.0908 42.1333C84.0908 18.9622 65.2458 0.111441 42.0817 0.111441Z" fill="#1D1D1D"/>
<path d="M44.2301 83.7658C39.7135 83.7658 35.2221 83.1 30.9685 81.7817C24.1847 79.6803 18.1986 76.0688 13.1798 71.047C8.17294 66.0386 4.56707 60.0671 2.46328 53.3005C0.46051 46.8579 -0.0490838 39.8624 0.989442 33.0705L0.977544 33.0676L0.98498 33.0304C3.01597 23.8161 8.1878 15.4444 15.5481 9.45655C19.2194 6.46932 23.3274 4.14195 27.7578 2.53836C32.3413 0.878293 37.161 0.0371094 42.0818 0.0371094C47.7632 0.0371094 53.2738 1.15026 58.462 3.34536C63.4733 5.46615 67.9736 8.50094 71.838 12.3665C75.7024 16.2321 78.7377 20.7337 80.8564 25.7466C83.0508 30.9364 84.1636 36.4486 84.1636 42.1318C84.1636 47.0451 83.3256 51.8574 81.672 56.4364C80.0749 60.8607 77.7556 64.9641 74.7782 68.635C71.8276 72.2731 68.3213 75.3748 64.3573 77.8538C60.3176 80.3803 55.9184 82.1845 51.2814 83.2204C48.9444 83.5845 46.5835 83.7658 44.2301 83.7658ZM1.06522 33.0111H1.07263L1.0667 33.0468C-1.11584 47.2473 3.31905 61.0777 13.2318 70.9935C23.1729 80.9376 37.0362 85.3664 51.2666 83.1461C70.2839 78.903 84.0893 61.6543 84.0893 42.1318C84.0893 18.9607 65.2443 0.109931 42.0803 0.109931C22.5266 0.109931 5.2832 13.9433 1.06373 33.0081L1.06522 33.0111Z" fill="#1D1D1D"/>
<path d="M42.0818 84.2295C36.4004 84.2295 30.8898 83.1163 25.7017 80.9212C20.6903 78.8004 16.19 75.7656 12.3256 71.9001C8.46123 68.0345 5.42589 63.5328 3.30724 58.5199C1.11281 53.3302 0 47.8179 0 42.1347C0 36.4516 1.11281 30.9393 3.30724 25.7496C5.42738 20.7367 8.46123 16.235 12.3256 12.3694C16.19 8.50386 20.6903 5.46759 25.7017 3.34829C30.8898 1.15319 36.4004 0.0400391 42.0818 0.0400391C47.7633 0.0400391 53.2738 1.15319 58.462 3.34829C63.4734 5.46907 67.9737 8.50386 71.838 12.3694C75.7024 16.235 78.7378 20.7367 80.8564 25.7496C83.0508 30.9393 84.1637 36.4516 84.1637 42.1347C84.1637 47.8179 83.0508 53.3302 80.8564 58.5199C78.7363 63.5328 75.7024 68.0345 71.838 71.9001C67.9737 75.7656 63.4734 78.8019 58.462 80.9212C53.2738 83.1163 47.7633 84.2295 42.0818 84.2295ZM42.0818 0.111373C18.9178 0.111373 0.0727993 18.9621 0.0727993 42.1333C0.0727993 65.3044 18.9178 84.1551 42.0818 84.1551C65.2459 84.1551 84.0909 65.3044 84.0909 42.1333C84.0909 18.9621 65.2459 0.111373 42.0818 0.111373Z" fill="#1D1D1D"/>
<path d="M42.0818 84.2295C36.4004 84.2295 30.8898 83.1163 25.7017 80.9212C20.6903 78.8004 16.19 75.7656 12.3256 71.9001C8.46123 68.0345 5.42589 63.5328 3.30724 58.5199C1.11281 53.3302 0 47.8179 0 42.1347C0 36.4516 1.11281 30.9393 3.30724 25.7496C5.42738 20.7367 8.46123 16.235 12.3256 12.3694C16.19 8.50386 20.6903 5.46759 25.7017 3.34829C30.8898 1.15319 36.4004 0.0400391 42.0818 0.0400391C47.7633 0.0400391 53.2738 1.15319 58.462 3.34829C63.4734 5.46907 67.9737 8.50386 71.838 12.3694C75.7024 16.235 78.7378 20.7367 80.8564 25.7496C83.0508 30.9393 84.1637 36.4516 84.1637 42.1347C84.1637 47.8179 83.0508 53.3302 80.8564 58.5199C78.7363 63.5328 75.7024 68.0345 71.838 71.9001C67.9737 75.7656 63.4734 78.8019 58.462 80.9212C53.2738 83.1163 47.7633 84.2295 42.0818 84.2295ZM42.0818 0.111373C18.9178 0.111373 0.0727993 18.9621 0.0727993 42.1333C0.0727993 65.3044 18.9178 84.1551 42.0818 84.1551C65.2459 84.1551 84.0909 65.3044 84.0909 42.1333C84.0909 18.9621 65.2459 0.111373 42.0818 0.111373Z" fill="#1D1D1D"/>
<path d="M26.8472 57.3727C26.2068 56.7321 26.0672 55.8345 26.5352 55.3678C27.0032 54.9012 27.9006 55.0409 28.5394 55.6799C29.1798 56.3205 29.3195 57.2181 28.8514 57.6848C28.3834 58.1515 27.4861 58.0118 26.8472 57.3727Z" fill="#1D1D1D"/>
<path d="M57.315 26.8955C57.9554 27.5361 58.095 28.4337 57.627 28.9004C57.159 29.367 56.2616 29.2273 55.6228 28.5883C54.9839 27.9492 54.8428 27.0501 55.3108 26.5834C55.7788 26.1167 56.6762 26.2565 57.315 26.8955Z" fill="#1D1D1D"/>
</svg>
