<svg width="85" height="85" viewBox="0 0 85 85" fill="none" xmlns="http://www.w3.org/2000/svg">
<path d="M42.0492 43.6924C42.9501 43.6924 43.6805 42.9618 43.6805 42.0605C43.6805 41.1593 42.9501 40.4287 42.0492 40.4287C41.1482 40.4287 40.4178 41.1593 40.4178 42.0605C40.4178 42.9618 41.1482 43.6924 42.0492 43.6924Z" fill="#1D1D1D"/>
<path d="M42.0491 50.6374C37.3215 50.6374 33.4764 46.7897 33.4764 42.0621C33.4764 37.3345 37.323 33.4868 42.0491 33.4868C46.7752 33.4868 50.6218 37.3345 50.6218 42.0621C50.6218 46.7897 46.7752 50.6374 42.0491 50.6374ZM42.0491 34.2284C37.7316 34.2284 34.2193 37.7418 34.2193 42.0606C34.2193 46.3795 37.7316 49.8928 42.0491 49.8928C46.3666 49.8928 49.8789 46.3795 49.8789 42.0606C49.8789 37.7418 46.3666 34.2284 42.0491 34.2284Z" fill="#1D1D1D"/>
<path d="M42.0492 58.52C32.9773 58.52 25.5962 51.1367 25.5962 42.062C25.5962 32.9874 32.9773 25.604 42.0492 25.604C51.121 25.604 58.5021 32.9874 58.5021 42.062C58.5021 51.1367 51.121 58.52 42.0492 58.52ZM42.0492 26.2713C33.3458 26.2713 26.2648 33.3545 26.2648 42.0605C26.2648 50.7666 33.3458 57.8498 42.0492 57.8498C50.7526 57.8498 57.8336 50.7666 57.8336 42.0605C57.8336 33.3545 50.7526 26.2713 42.0492 26.2713Z" fill="#1D1D1D"/>
<path d="M42.0491 65.7934C28.9672 65.7934 18.325 55.1478 18.325 42.062C18.325 28.9761 28.9672 18.3306 42.0491 18.3306C55.1309 18.3306 65.7732 28.9761 65.7732 42.062C65.7732 55.1478 55.1309 65.7934 42.0491 65.7934ZM42.0491 18.8492C29.254 18.8492 18.845 29.2615 18.845 42.0605C18.845 54.8595 29.254 65.2717 42.0491 65.2717C54.8442 65.2717 65.2532 54.8595 65.2532 42.0605C65.2532 29.2615 54.8442 18.8492 42.0491 18.8492Z" fill="#1D1D1D"/>
<path d="M42.0491 72.1276C25.4758 72.1276 11.9928 58.6405 11.9928 42.0621C11.9928 25.4837 25.4758 11.9966 42.0491 11.9966C58.6224 11.9966 72.1055 25.4837 72.1055 42.0621C72.1055 58.6405 58.6224 72.1276 42.0491 72.1276ZM42.0491 12.3666C25.6808 12.3666 12.3642 25.6873 12.3642 42.0606C12.3642 58.4339 25.6808 71.7546 42.0491 71.7546C58.4174 71.7546 71.734 58.4339 71.734 42.0606C71.734 25.6873 58.4174 12.3666 42.0491 12.3666Z" fill="#1D1D1D"/>
<path d="M42.0492 77.0111C32.7173 77.0111 23.9426 73.3759 17.343 66.7742C10.7434 60.1726 7.10925 51.3967 7.10925 42.0605C7.10925 32.7243 10.7434 23.9483 17.343 17.3467C23.9426 10.7451 32.7158 7.10986 42.0492 7.10986C51.3825 7.10986 60.1558 10.7451 66.7554 17.3467C73.355 23.9483 76.9891 32.7243 76.9891 42.0605C76.9891 51.3967 73.355 60.1726 66.7554 66.7742C60.1558 73.3759 51.3825 77.0111 42.0492 77.0111ZM42.0492 7.33428C22.907 7.33428 7.33211 22.9125 7.33211 42.062C7.33211 61.2115 22.9055 76.7896 42.0492 76.7896C61.1928 76.7896 76.7662 61.2115 76.7662 42.062C76.7662 22.9125 61.1928 7.33428 42.0492 7.33428Z" fill="#1D1D1D"/>
<path d="M42.0492 81.5871C31.4945 81.5871 21.5713 77.4763 14.1085 70.0097C6.64569 62.5446 2.53467 52.6184 2.53467 42.0605C2.53467 31.5027 6.6442 21.5764 14.1085 14.1113C21.5713 6.64621 31.4945 2.53394 42.0492 2.53394C52.6038 2.53394 62.527 6.64472 69.9898 14.1113C77.4526 21.5764 81.5637 31.5027 81.5637 42.0605C81.5637 52.6184 77.4541 62.5446 69.9898 70.0097C62.527 77.4748 52.6038 81.5871 42.0492 81.5871ZM42.0492 2.68404C20.3426 2.68404 2.68324 20.3488 2.68324 42.062C2.68324 63.7752 20.3426 81.44 42.0492 81.44C63.7557 81.44 81.4151 63.7752 81.4151 42.062C81.4151 20.3488 63.7542 2.68404 42.0492 2.68404Z" fill="#1D1D1D"/>
<path d="M42.0491 84.124C36.3722 84.124 30.866 83.0123 25.6808 80.8187C20.6739 78.7009 16.1766 75.6676 12.3152 71.805C8.45379 67.9424 5.42143 63.4437 3.30426 58.4353C1.11133 53.25 0 47.7407 0 42.062C0 36.3833 1.11133 30.8755 3.30426 25.6887C5.42143 20.6803 8.45379 16.1816 12.3152 12.319C16.1766 8.45639 20.6739 5.42309 25.6808 3.30528C30.8646 1.11167 36.3722 0 42.0491 0C47.7261 0 53.2322 1.11167 58.4174 3.30528C63.4243 5.42309 67.9216 8.45639 71.7831 12.319C75.6445 16.1816 78.6768 20.6803 80.794 25.6887C82.987 30.874 84.0983 36.3833 84.0983 42.062C84.0983 47.7407 82.987 53.2485 80.794 58.4353C78.6768 63.4437 75.6445 67.9424 71.7831 71.805C67.9216 75.6676 63.4243 78.7009 58.4174 80.8187C53.2337 83.0123 47.7261 84.124 42.0491 84.124ZM42.0491 0.0728231C18.9044 0.0728231 0.0742865 18.9087 0.0742865 42.0605C0.0742865 65.2123 18.9044 84.0482 42.0491 84.0482C65.1938 84.0482 84.024 65.2123 84.024 42.0605C84.024 18.9087 65.1938 0.0728231 42.0491 0.0728231Z" fill="#1D1D1D"/>
</svg>
