<svg width="84" height="84" viewBox="0 0 84 84" fill="none" xmlns="http://www.w3.org/2000/svg">
<path d="M41.9645 83.9546C36.2994 83.9546 30.8037 82.8444 25.6303 80.6553C20.6338 78.5404 16.1454 75.5145 12.2914 71.6594C8.43746 67.8042 5.41253 63.316 3.29833 58.3164C1.10985 53.1415 0 47.6441 0 41.9773C0 36.3105 1.10985 30.8131 3.29833 25.6382C5.41253 20.6401 8.43746 16.1504 12.2914 12.2952C16.1454 8.44005 20.6323 5.41417 25.6303 3.29933C30.8037 1.11018 36.2994 0 41.9645 0C47.6295 0 53.1253 1.11018 58.2986 3.29933C63.2951 5.41417 67.7835 8.44005 71.6375 12.2952C75.4914 16.1504 78.5164 20.6401 80.6306 25.6382C82.8191 30.8131 83.9289 36.3105 83.9289 41.9773C83.9289 47.6441 82.8191 53.1415 80.6306 58.3164C78.5164 63.3145 75.4914 67.8042 71.6375 71.6594C67.7835 75.5145 63.2951 78.5404 58.2986 80.6553C53.1253 82.8444 47.6295 83.9546 41.9645 83.9546ZM41.9645 0.0757969C18.8673 0.0757969 0.0757737 18.8731 0.0757737 41.9773C0.0757737 65.0815 18.8673 83.8788 41.9645 83.8788C65.0616 83.8788 83.8532 65.0815 83.8532 41.9773C83.8532 18.8731 65.0616 0.0757969 41.9645 0.0757969Z" fill="#1D1D1D"/>
<path d="M41.9645 83.9176C39.3199 83.9176 36.6753 83.6337 34.0931 83.06C31.5109 82.4864 28.9941 81.6273 26.5961 80.5112C21.7972 78.279 17.496 75.0168 13.9763 71.0695C10.4507 67.1222 7.70205 62.4942 5.86569 57.5318C4.02338 52.5695 3.10075 47.2742 3.08887 41.9804C3.10075 36.6866 4.02487 31.3928 5.86569 26.4289C7.70205 21.4666 10.4522 16.8386 13.9763 12.8913C17.496 8.94398 21.7972 5.68032 26.5961 3.44955C28.9941 2.33343 31.5109 1.47292 34.0931 0.900741C36.6753 0.325588 39.3199 0.0417325 41.9645 0.0432187C39.3199 0.0461911 36.6753 0.33302 34.0961 0.911146C31.5153 1.48779 29 2.34978 26.605 3.46887C21.8106 5.70558 17.5168 8.97073 14.006 12.9195C10.4893 16.8668 7.74813 21.4948 5.91919 26.4527C4.0858 31.4121 3.1691 36.7 3.16464 41.9848C3.17058 47.2697 4.0858 52.5576 5.91919 57.517C7.74813 62.4749 10.4878 67.1014 14.006 71.0502C17.5183 74.999 21.812 78.2641 26.605 80.5008C29 81.6199 31.5153 82.4819 34.0961 83.0585C36.6768 83.6367 39.3214 83.9235 41.9645 83.9265V83.9176Z" fill="#1D1D1D"/>
<path d="M41.9645 83.9174C39.4462 83.9204 36.9264 83.5964 34.4898 82.9588C32.0517 82.3227 29.6968 81.3745 27.4846 80.1663C23.0571 77.7438 19.2299 74.2914 16.1797 70.2802C13.1235 66.2645 10.8295 61.6871 9.3126 56.8793C7.7927 52.0685 7.04835 47.0214 7.03052 41.9773C7.04983 36.9332 7.7927 31.8861 9.3126 27.0753C10.8295 22.2675 13.1235 17.6915 16.1797 13.6744C19.2284 9.66315 23.0556 6.21075 27.4846 3.78827C29.6968 2.58 32.0517 1.63181 34.4898 0.995721C36.9279 0.358147 39.4462 0.0341573 41.9645 0.0371296C39.4462 0.0460468 36.9308 0.381933 34.4987 1.02991C32.0665 1.6764 29.7206 2.63499 27.5187 3.85069C23.1061 6.27763 19.2922 9.72558 16.2584 13.7338C13.2171 17.745 10.9365 22.3136 9.43145 27.1125C7.92343 31.9143 7.18949 36.948 7.17909 41.9773C7.18949 47.0065 7.92194 52.0402 9.43145 56.8421C10.9365 61.6395 13.2171 66.208 16.2584 70.2207C19.2937 74.2275 23.1061 77.6769 27.5187 80.1039C29.7206 81.3196 32.0665 82.2767 34.4987 82.9246C36.9293 83.5726 39.4462 83.9085 41.9645 83.9174Z" fill="#1D1D1D"/>
<path d="M41.9645 83.9174C37.2369 83.9234 32.5598 82.3094 28.7192 79.5584C26.7877 78.1956 25.0346 76.5875 23.4641 74.822C21.8937 73.0549 20.5046 71.1303 19.2893 69.1031C16.8571 65.0458 15.1099 60.5992 13.9481 56.0202C13.8129 55.4451 13.6658 54.8729 13.5395 54.2948L13.1888 52.5574C13.0863 51.9748 12.9957 51.3908 12.8976 50.8082C12.8456 50.5169 12.8085 50.2241 12.7728 49.9313L12.6614 49.0515C12.3791 46.7048 12.238 44.3418 12.2246 41.9773C12.238 39.6128 12.3791 37.2497 12.6614 34.903L12.7728 34.0232C12.8085 33.7304 12.8456 33.4362 12.8976 33.1464C12.9942 32.5638 13.0863 31.9797 13.1888 31.3971L13.5395 29.6598C13.6643 29.0816 13.8129 28.5095 13.9481 27.9343C15.1099 23.3554 16.8571 18.9087 19.2893 14.8514C20.5061 12.8258 21.8937 10.8997 23.4641 9.13258C25.0346 7.36699 26.7877 5.75894 28.7192 4.39611C32.5598 1.64518 37.2384 0.031181 41.9645 0.0371257C37.2369 0.0668494 32.5865 1.71504 28.7816 4.4838C26.8635 5.8496 25.1193 7.45319 23.5593 9.21729C21.9992 10.9814 20.6205 12.9045 19.414 14.9257C17.0012 18.9756 15.2718 23.4104 14.1249 27.9774C13.9911 28.5511 13.8456 29.1218 13.7222 29.6984L13.3775 31.4313C13.278 32.0109 13.1874 32.5935 13.0923 33.1746C13.0418 33.4644 13.0046 33.7572 12.9704 34.05L12.8605 34.9268C12.5856 37.2661 12.4504 39.6217 12.4445 41.9773C12.4504 44.3329 12.5871 46.6885 12.8605 49.0277L12.9704 49.9046C13.0061 50.1974 13.0418 50.4887 13.0923 50.78C13.1874 51.361 13.278 51.9436 13.3775 52.5232L13.7222 54.2561C13.8456 54.8313 13.9911 55.4035 14.1249 55.9771C15.2704 60.5442 16.9997 64.979 19.414 69.0288C20.6205 71.0515 21.9992 72.9732 23.5593 74.7373C25.1193 76.5014 26.862 78.1049 28.7816 79.4707C32.5865 82.2395 37.2369 83.8877 41.9645 83.9174Z" fill="#1D1D1D"/>
<path d="M41.9645 83.9175C39.7893 83.9339 37.6261 83.3721 35.6858 82.3883C34.7156 81.8948 33.793 81.3063 32.9268 80.6464C32.0621 79.9836 31.2508 79.2524 30.4887 78.4736C28.9732 76.9072 27.6643 75.1476 26.5173 73.2973C25.3718 71.444 24.3883 69.4941 23.5369 67.4893C22.6871 65.4844 21.9636 63.426 21.3693 61.3305C20.7705 59.2365 20.2802 57.1127 19.8984 54.9696C19.1303 50.6835 18.7618 46.3289 18.7559 41.9759C18.7618 37.6229 19.1288 33.2683 19.8984 28.9822C20.2802 26.8391 20.7705 24.7154 21.3693 22.6213C21.9636 20.5273 22.6871 18.4674 23.5369 16.4626C24.3883 14.4577 25.3703 12.5078 26.5173 10.6546C27.6643 8.80425 28.9717 7.0461 30.4887 5.47818C31.2494 4.69942 32.0621 3.96822 32.9268 3.30538C33.7944 2.64551 34.7156 2.05698 35.6858 1.56356C37.6261 0.579709 39.7893 0.0179347 41.9645 0.0342827C39.7893 0.0491446 37.6425 0.639153 35.7274 1.64381C34.7691 2.14763 33.8613 2.74508 33.0099 3.41238C32.1616 4.08265 31.3653 4.81979 30.6194 5.60301C29.1292 7.17242 27.8426 8.92761 26.7164 10.7749C25.5917 12.6252 24.6304 14.5721 23.7999 16.5711C22.1463 20.5748 20.983 24.7733 20.2312 29.0387C19.4779 33.3055 19.1228 37.6407 19.1273 41.9729C19.1228 46.3052 19.4764 50.6404 20.2312 54.9072C20.9844 59.1726 22.1463 63.371 23.7999 67.3748C24.6304 69.3737 25.5917 71.3206 26.7164 73.1709C27.8411 75.0183 29.1292 76.7735 30.6194 78.3429C31.3638 79.1276 32.1601 79.8632 33.0099 80.5335C33.8613 81.1993 34.7691 81.7982 35.7274 82.302C37.6425 83.3067 39.7893 83.8967 41.9645 83.9116V83.9175Z" fill="#1D1D1D"/>
<path d="M41.9644 83.9175C40.966 83.9294 39.9691 83.6931 39.0583 83.2785C38.6022 83.0719 38.1699 82.8133 37.7553 82.5324C37.3393 82.2515 36.9471 81.9364 36.5756 81.6006C35.0825 80.2541 33.9013 78.6044 32.8881 76.8804C31.8822 75.1461 31.0547 73.3166 30.3341 71.4499C29.6165 69.5818 29.0088 67.672 28.4888 65.74C28.2288 64.774 27.9881 63.802 27.7668 62.8271C27.5469 61.8507 27.3537 60.8698 27.1725 59.8859C26.8114 57.9182 26.5202 55.9386 26.2914 53.9516C25.8323 49.9775 25.6125 45.9782 25.6021 41.9789C25.6125 37.9796 25.8308 33.9802 26.2914 30.0062C26.5202 28.0191 26.8129 26.0395 27.1725 24.0718C27.3537 23.088 27.5484 22.1071 27.7668 21.1307C27.9881 20.1557 28.2273 19.1838 28.4888 18.2178C29.0088 16.2857 29.6165 14.376 30.3341 12.5078C31.0547 10.6412 31.8822 8.81021 32.8881 7.07731C33.9013 5.35334 35.084 3.70367 36.5756 2.35719C36.9471 2.02131 37.3393 1.70624 37.7553 1.42535C38.1699 1.14446 38.6022 0.887347 39.0583 0.679281C39.9706 0.264635 40.966 0.0283336 41.9644 0.0402231C40.9645 0.0550849 39.9824 0.316658 39.091 0.750624C38.6438 0.966121 38.2204 1.22768 37.8162 1.51452C37.4106 1.79986 37.0288 2.1194 36.6678 2.45825C35.2177 3.81811 34.0796 5.4752 33.108 7.20364C32.1348 8.93653 31.3325 10.7616 30.6402 12.6252C29.9493 14.4904 29.3684 16.3942 28.8736 18.3218C27.8901 22.177 27.2007 26.1064 26.7594 30.0612C26.3182 34.0174 26.1146 37.9989 26.1206 41.9804C26.1146 45.9604 26.3167 49.9433 26.7594 53.8996C27.2007 57.8558 27.8901 61.7838 28.8736 65.6389C29.3684 67.565 29.9493 69.4703 30.6402 71.3355C31.3325 73.1992 32.1348 75.0242 33.108 76.7571C34.0796 78.4855 35.2177 80.1426 36.6678 81.5025C37.0288 81.8413 37.4106 82.1609 37.8162 82.4462C38.2204 82.733 38.6438 82.9946 39.091 83.2101C39.9824 83.6441 40.9645 83.9056 41.9644 83.9205V83.9175Z" fill="#1D1D1D"/>
<path d="M41.9646 83.9174C41.7343 83.9174 41.5069 83.8728 41.29 83.791C41.0731 83.7093 40.877 83.5845 40.6883 83.4522C40.3214 83.1713 40.0093 82.8235 39.733 82.4549C39.1877 81.7089 38.7643 80.884 38.3958 80.0414C37.6604 78.3516 37.1226 76.586 36.656 74.8085C35.7498 71.2432 35.1495 67.6094 34.6711 63.9683C33.7366 56.6771 33.386 49.3234 33.3696 41.9787C33.386 34.634 33.7366 27.2803 34.6711 19.9891C35.1495 16.3465 35.7498 12.7142 36.656 9.14886C37.1226 7.37139 37.6619 5.6058 38.3958 3.91601C38.7643 3.07335 39.1877 2.24851 39.733 1.50245C40.0093 1.13388 40.3199 0.786105 40.6883 0.505216C40.877 0.371459 41.0731 0.246624 41.29 0.16637C41.5055 0.0861162 41.7343 0.0400391 41.9646 0.0400391C41.7343 0.04747 41.5099 0.100973 41.3004 0.188658C41.0895 0.276342 40.9008 0.407129 40.721 0.543858C40.3704 0.833664 40.0762 1.18737 39.8177 1.5604C39.3021 2.31093 38.904 3.13873 38.5608 3.98437C37.8788 5.67862 37.3915 7.44719 36.9755 9.22764C36.139 12.7885 35.5967 16.4163 35.1822 20.0515C34.7796 23.6897 34.4854 27.3413 34.3086 30.9988C34.1229 34.6548 34.0352 38.3167 34.0397 41.9787C34.0352 45.6407 34.1229 49.3026 34.3086 52.9586C34.4854 56.6161 34.7796 60.2662 35.1822 63.9059C35.5967 67.5411 36.139 71.1689 36.9755 74.7298C37.3915 76.5087 37.8788 78.2773 38.5608 79.9715C38.904 80.8172 39.3007 81.645 39.8177 82.3955C40.0762 82.77 40.3704 83.1222 40.721 83.4121C40.9008 83.5488 41.0895 83.6796 41.3004 83.7673C41.5099 83.8549 41.7358 83.9084 41.9646 83.9159V83.9174Z" fill="#1D1D1D"/>
<path d="M41.9645 83.9174L41.908 81.2958L41.8664 78.6741L41.7832 73.4324C41.7401 69.9369 41.7 66.4428 41.6748 62.9473C41.6406 59.4518 41.6332 55.9578 41.6124 52.4623L41.5916 41.9773L41.6124 31.4922C41.6332 27.9967 41.6406 24.5027 41.6748 21.0072C41.7 17.5117 41.7386 14.0177 41.7832 10.5222L41.8664 5.28037L41.908 2.65874L41.9645 0.0371094L42.0209 2.65874L42.0626 5.28037L42.1457 10.5222C42.1888 14.0177 42.229 17.5117 42.2542 21.0072C42.2884 24.5027 42.2958 27.9967 42.3166 31.4922L42.3374 41.9773L42.3166 52.4623C42.2958 55.9578 42.2884 59.4518 42.2542 62.9473C42.229 66.4428 42.1903 69.9369 42.1457 73.4324L42.0626 78.6741L42.0209 81.2958L41.9645 83.9174Z" fill="#1D1D1D"/>
<path d="M41.9645 83.9546C36.2994 83.9546 30.8037 82.8444 25.6303 80.6553C20.6338 78.5404 16.1454 75.5145 12.2914 71.6594C8.43746 67.8042 5.41253 63.316 3.29833 58.3164C1.10985 53.1415 0 47.6441 0 41.9773C0 36.3105 1.10985 30.8131 3.29833 25.6382C5.41253 20.6401 8.43746 16.1504 12.2914 12.2952C16.1454 8.44005 20.6323 5.41417 25.6303 3.29933C30.8037 1.11018 36.2994 0 41.9645 0C47.6295 0 53.1253 1.11018 58.2986 3.29933C63.2951 5.41417 67.7835 8.44005 71.6375 12.2952C75.4914 16.1504 78.5164 20.6401 80.6306 25.6382C82.8191 30.8131 83.9289 36.3105 83.9289 41.9773C83.9289 47.6441 82.8191 53.1415 80.6306 58.3164C78.5164 63.3145 75.4914 67.8042 71.6375 71.6594C67.7835 75.5145 63.2951 78.5404 58.2986 80.6553C53.1253 82.8444 47.6295 83.9546 41.9645 83.9546ZM41.9645 0.0757969C18.8673 0.0757969 0.0757737 18.8731 0.0757737 41.9773C0.0757737 65.0815 18.8673 83.8788 41.9645 83.8788C65.0616 83.8788 83.8532 65.0815 83.8532 41.9773C83.8532 18.8731 65.0616 0.0757969 41.9645 0.0757969Z" fill="#1D1D1D"/>
<path d="M41.9645 83.9174C44.6091 83.9145 47.2537 83.6276 49.8329 83.0495C52.4136 82.4729 54.929 81.6109 57.324 80.4918C62.1184 78.2551 66.4122 74.9899 69.923 71.0411C73.4397 67.0938 76.1809 62.4658 78.0098 57.5079C79.8432 52.5485 80.7599 47.2607 80.7644 41.9758C80.7584 36.6909 79.8432 31.4031 78.0098 26.4437C76.1809 21.4858 73.4412 16.8593 69.923 12.9105C66.4107 8.9617 62.1169 5.69654 57.324 3.45983C54.929 2.34074 52.4136 1.47875 49.8329 0.902107C47.2522 0.323981 44.6076 0.0371521 41.9645 0.0341797C44.6091 0.0341797 47.2537 0.318035 49.8359 0.891702C52.4181 1.46537 54.9349 2.32439 57.3329 3.44051C62.1318 5.67276 66.433 8.93494 69.9527 12.8823C73.4783 16.8296 76.2269 21.4575 78.0633 26.4199C79.9056 31.3823 80.8297 36.6776 80.8401 41.9713C80.8282 47.2651 79.9041 52.5589 78.0633 57.5228C76.2269 62.4852 73.4768 67.1131 69.9527 71.0605C66.433 75.0078 62.1318 78.2714 57.3329 80.5022C54.9349 81.6183 52.4181 82.4788 49.8359 83.051C47.2537 83.6261 44.6091 83.91 41.9645 83.9085V83.9174Z" fill="#1D1D1D"/>
<path d="M41.9645 83.9174C44.4828 83.9085 46.9981 83.5726 49.4303 82.9246C51.8624 82.2782 54.2084 81.3196 56.4102 80.1039C60.8229 77.6769 64.6352 74.229 67.6706 70.2207C70.7119 66.2095 72.9925 61.641 74.4975 56.8421C76.0055 52.0402 76.7395 47.0065 76.7499 41.9773C76.7395 36.948 76.007 31.9143 74.4975 27.1125C72.9925 22.3151 70.7119 17.7465 67.6706 13.7338C64.6352 9.72706 60.8229 6.27763 56.4102 3.85069C54.2084 2.63499 51.8624 1.67789 49.4303 1.02991C46.9996 0.381933 44.4828 0.0460468 41.9645 0.0371296C44.4828 0.0341573 47.0026 0.358147 49.4392 0.995721C51.8773 1.63181 54.2321 2.58 56.4444 3.78827C60.8719 6.21075 64.6991 9.66315 67.7493 13.6744C70.8055 17.69 73.0994 22.2675 74.6164 27.0753C76.1363 31.8861 76.8806 36.9332 76.8985 41.9773C76.8792 47.0214 76.1363 52.0685 74.6164 56.8793C73.0994 61.6871 70.8055 66.263 67.7493 70.2802C64.7006 74.2914 60.8734 77.7438 56.4444 80.1663C54.2321 81.3745 51.8773 82.3227 49.4392 82.9588C47.0011 83.5964 44.4828 83.9204 41.9645 83.9174Z" fill="#1D1D1D"/>
<path d="M41.9645 83.9174C46.6921 83.8877 51.3424 82.2395 55.1474 79.4707C57.0654 78.1049 58.8097 76.5014 60.3697 74.7373C61.9297 72.9732 63.3085 71.05 64.5149 69.0288C66.9277 64.979 68.6571 60.5442 69.8041 55.9771C69.9378 55.4035 70.0834 54.8328 70.2067 54.2561L70.5514 52.5232C70.651 51.9436 70.7416 51.361 70.8367 50.78C70.8872 50.4901 70.9244 50.1974 70.96 49.9046L71.07 49.0277C71.3448 46.6885 71.48 44.3329 71.486 41.9773C71.48 39.6217 71.3433 37.2661 71.07 34.9268L70.96 34.05C70.9244 33.7572 70.8887 33.4659 70.8367 33.1746C70.7416 32.5935 70.651 32.0109 70.5514 31.4313L70.2067 29.6984C70.0834 29.1233 69.9378 28.5511 69.8041 27.9774C68.6586 23.4104 66.9292 18.9756 64.5149 14.9257C63.3085 12.903 61.9297 10.9814 60.3697 9.21729C58.8097 7.45319 57.0669 5.8496 55.1474 4.4838C51.3424 1.71504 46.6921 0.0668494 41.9645 0.0371257C46.6921 0.031181 51.3692 1.64518 55.2098 4.39611C57.1412 5.75894 58.8944 7.36699 60.4648 9.13258C62.0352 10.8997 63.4244 12.8243 64.6397 14.8514C67.0719 18.9087 68.8191 23.3554 69.9809 27.9343C70.1161 28.5095 70.2632 29.0816 70.3895 29.6598L70.7401 31.3971C70.8426 31.9797 70.9333 32.5638 71.0313 33.1464C71.0833 33.4377 71.1205 33.7304 71.1561 34.0232L71.2675 34.903C71.5498 37.2497 71.691 39.6128 71.7044 41.9773C71.691 44.3418 71.5498 46.7048 71.2675 49.0515L71.1561 49.9313C71.1205 50.2241 71.0833 50.5184 71.0313 50.8082C70.9348 51.3908 70.8426 51.9748 70.7401 52.5574L70.3895 54.2948C70.2647 54.8729 70.1161 55.4451 69.9809 56.0202C68.8191 60.5992 67.0719 65.0458 64.6397 69.1031C63.4229 71.1288 62.0352 73.0549 60.4648 74.822C58.8944 76.5875 57.1412 78.1956 55.2098 79.5584C51.3692 82.3094 46.6906 83.9234 41.9645 83.9174Z" fill="#1D1D1D"/>
<path d="M41.9645 83.9175C44.1396 83.9026 46.2865 83.3126 48.2016 82.3079C49.1599 81.8041 50.0677 81.2066 50.919 80.5393C51.7688 79.8691 52.5637 79.1319 53.3095 78.3487C54.7997 76.7793 56.0864 75.0241 57.2125 73.1768C58.3372 71.3265 59.2985 69.3796 60.129 67.3807C61.7826 63.3769 62.946 59.1784 63.6977 54.9131C64.451 50.6462 64.8061 46.311 64.8016 41.9788C64.8061 37.6466 64.4525 33.3114 63.6977 29.0445C62.9445 24.7792 61.7826 20.5807 60.129 16.5769C59.2985 14.578 58.3372 12.6311 57.2125 10.7808C56.0879 8.93348 54.7997 7.17829 53.3095 5.60888C52.5652 4.82418 51.7688 4.08851 50.919 3.41824C50.0677 2.75094 49.1599 2.1535 48.2016 1.64968C46.2865 0.645022 44.1396 0.0550039 41.9645 0.0401421C44.1396 0.023794 46.3028 0.585569 48.2432 1.56942C49.2134 2.06284 50.1345 2.65137 51.0022 3.31124C51.8669 3.97408 52.6781 4.70528 53.4403 5.48404C54.9557 7.05048 56.2646 8.81012 57.4116 10.6604C58.5571 12.5137 59.5407 14.4636 60.392 16.4684C61.2418 18.4733 61.9654 20.5317 62.5597 22.6272C63.1584 24.7212 63.6487 26.845 64.0306 28.9881C64.7987 33.2742 65.1671 37.6287 65.1731 41.9818C65.1671 46.3348 64.8002 50.6893 64.0306 54.9755C63.6487 57.1186 63.1584 59.2423 62.5597 61.3364C61.9654 63.4304 61.2418 65.4903 60.392 67.4951C59.5407 69.5 58.5586 71.4499 57.4116 73.3031C56.2646 75.1534 54.9572 76.9116 53.4403 78.4795C52.6796 79.2583 51.8669 79.9895 51.0022 80.6523C50.1345 81.3122 49.2134 81.9007 48.2432 82.3941C46.3028 83.378 44.1396 83.9397 41.9645 83.9234V83.9175Z" fill="#1D1D1D"/>
<path d="M41.9645 83.9173C42.9644 83.9025 43.9465 83.6409 44.8379 83.2069C45.2851 82.9914 45.7085 82.7299 46.1127 82.443C46.5183 82.1577 46.9001 81.8382 47.2611 81.4993C48.7112 80.1395 49.8493 78.4824 50.8209 76.7539C51.7941 75.021 52.5964 73.196 53.2887 71.3323C53.9796 69.4672 54.5605 67.5634 55.0553 65.6358C56.0388 61.7806 56.7282 57.8511 57.1695 53.8964C57.6107 49.9402 57.8143 45.9587 57.8083 41.9772C57.8143 37.9972 57.6122 34.0142 57.1695 30.058C56.7282 26.1018 56.0388 22.1738 55.0553 18.3186C54.5605 16.3925 53.9796 14.4872 53.2887 12.6221C52.5964 10.7584 51.7941 8.93335 50.8209 7.20046C49.8493 5.47203 48.7112 3.81493 47.2611 2.45508C46.9001 2.11623 46.5183 1.7967 46.1127 1.51135C45.7085 1.22452 45.2851 0.962947 44.8379 0.74745C43.9465 0.313484 42.9644 0.0519111 41.9645 0.0370492C42.9629 0.0251597 43.9598 0.26147 44.8706 0.676116C45.3267 0.882696 45.759 1.14129 46.1736 1.42217C46.5896 1.70306 46.9803 2.01814 47.3532 2.35402C48.8464 3.7005 50.0276 5.35017 51.0408 7.07414C52.0467 8.80852 52.8742 10.638 53.5948 12.5047C54.3124 14.3728 54.9201 16.2825 55.4401 18.2146C55.7001 19.1806 55.9408 20.1526 56.1621 21.1275C56.382 22.1039 56.5752 23.0848 56.7564 24.0687C57.1175 26.0364 57.4086 28.016 57.6374 30.003C58.0965 33.9771 58.3164 37.9764 58.3268 41.9757C58.3164 45.975 58.098 49.9743 57.6374 53.9484C57.4086 55.9354 57.116 57.915 56.7564 59.8827C56.5752 60.8666 56.3805 61.8475 56.1621 62.8239C55.9408 63.7988 55.7016 64.7708 55.4401 65.7368C54.9201 67.6689 54.3124 69.5786 53.5948 71.4468C52.8742 73.3134 52.0467 75.1444 51.0408 76.8773C50.0261 78.6012 48.8449 80.2509 47.3532 81.5974C46.9818 81.9333 46.5896 82.2483 46.1736 82.5292C45.759 82.8101 45.3267 83.0672 44.8706 83.2753C43.9583 83.6899 42.9629 83.9263 41.9645 83.9144V83.9173Z" fill="#1D1D1D"/>
<path d="M41.9645 83.9173C42.1948 83.9099 42.4191 83.8564 42.6286 83.7687C42.8396 83.681 43.0283 83.5502 43.2081 83.4135C43.5587 83.1237 43.8529 82.77 44.1114 82.397C44.6269 81.6464 45.0251 80.8186 45.3683 79.973C46.0517 78.2787 46.5376 76.5102 46.9536 74.7312C47.79 71.1703 48.3323 67.5425 48.7469 63.9073C49.1495 60.2692 49.4436 56.6176 49.6205 52.9601C49.8062 49.3041 49.8938 45.6421 49.8894 41.9802C49.8938 38.3182 49.8062 34.6562 49.6205 31.0002C49.4436 27.3427 49.1495 23.6927 48.7469 20.053C48.3323 16.4178 47.79 12.79 46.9536 9.2291C46.5376 7.45014 46.0503 5.68157 45.3683 3.98584C45.0251 3.1402 44.6284 2.31239 44.1114 1.56187C43.8529 1.18735 43.5587 0.835129 43.2081 0.545323C43.0283 0.408594 42.8396 0.277807 42.6286 0.190122C42.4191 0.102437 42.1933 0.0489348 41.9645 0.0415039C42.1948 0.0415039 42.4221 0.0860858 42.639 0.167826C42.8559 0.249566 43.052 0.37441 43.2407 0.506681C43.6077 0.78757 43.9197 1.13534 44.196 1.50391C44.7413 2.24998 45.1647 3.07481 45.5332 3.91748C46.2686 5.60727 46.8065 7.37285 47.273 9.15033C48.1793 12.7157 48.7795 16.3494 49.2579 19.9906C50.1925 27.2818 50.5431 34.6354 50.5594 41.9802C50.5431 49.3249 50.1925 56.6785 49.2579 63.9697C48.7795 67.6124 48.1793 71.2446 47.273 74.81C46.8065 76.5875 46.2672 78.3531 45.5332 80.0428C45.1647 80.8855 44.7413 81.7103 44.196 82.4564C43.9197 82.825 43.6092 83.1727 43.2407 83.4536C43.052 83.5874 42.8559 83.7122 42.639 83.7925C42.4236 83.8727 42.1948 83.9188 41.9645 83.9188V83.9173Z" fill="#1D1D1D"/>
<path d="M41.9645 83.9174L41.908 81.2958L41.8664 78.6741L41.7832 73.4324C41.7401 69.9369 41.7 66.4428 41.6748 62.9473C41.6406 59.4518 41.6332 55.9578 41.6124 52.4623L41.5916 41.9773L41.6124 31.4922C41.6332 27.9967 41.6406 24.5027 41.6748 21.0072C41.7 17.5117 41.7386 14.0177 41.7832 10.5222L41.8664 5.28037L41.908 2.65874L41.9645 0.0371094L42.0209 2.65874L42.0626 5.28037L42.1457 10.5222C42.1888 14.0177 42.229 17.5117 42.2542 21.0072C42.2884 24.5027 42.2958 27.9967 42.3166 31.4922L42.3374 41.9773L42.3166 52.4623C42.2958 55.9578 42.2884 59.4518 42.2542 62.9473C42.229 66.4428 42.1903 69.9369 42.1457 73.4324L42.0626 78.6741L42.0209 81.2958L41.9645 83.9174Z" fill="#1D1D1D"/>
</svg>
